<svg
  width="77"
  height="92"
  viewBox="0 0 77 92"
  fill="none"
  xmlns="http://www.w3.org/2000/svg"
>
<mask
    id="mask0_0_1"
    style="mask-type:luminance"
    maskUnits="userSpaceOnUse"
    x="34"
    y="28"
    width="40"
    height="23"
  >
<path
      d="M36.0546 50.9841L34.6302 50.1561L71.6631 28.7788L73.0874 29.6068L36.0546 50.9841Z"
      fill="white"
    />
</mask>
<g mask="url(#mask0_0_1)">
<path
      d="M36.0546 50.9841L34.6302 50.1561L71.6631 28.7788L73.0874 29.6068L36.0546 50.9841Z"
      fill="url(#paint0_radial_0_1)"
    />
</g>
<path
    d="M53.8802 74.2467L57.8098 71.9627L57.8901 72.0027L53.9604 74.2854L53.8802 74.2467Z"
    fill="#212835"
  />
<path
    d="M53.9604 74.2854L57.8901 72.0028C58.0797 72.0908 58.2683 72.1521 58.4505 72.1801L54.5193 74.4641C54.3391 74.4361 54.1489 74.3734 53.9604 74.2854Z"
    fill="#1D232D"
  />
<path
    d="M54.5193 74.4641L58.4505 72.1801C58.6989 72.2175 58.9339 72.1895 59.1281 72.0801L55.1984 74.3628C55.0031 74.4748 54.7693 74.5015 54.5193 74.4641Z"
    fill="#1A1E24"
  />
<path
    d="M56.6978 72.5308L60.6276 70.2468C60.0046 70.6081 59.7536 71.7255 59.1281 72.0801L55.1984 74.3628C55.8245 74.0095 56.075 72.8921 56.6978 72.5308Z"
    fill="#9B9B9A"
  />
<path
    d="M56.7 72.5134L60.6303 70.2308C60.7864 70.1401 60.9667 70.0974 61.1849 70.1294L57.2547 72.4134C57.0375 72.3801 56.8568 72.4241 56.7 72.5134Z"
    fill="#1A1E24"
  />
<path
    d="M57.2546 72.4134L61.1849 70.1294C61.3062 70.1467 61.4396 70.1894 61.5864 70.2587L57.6568 72.5427C57.5088 72.4721 57.376 72.4307 57.2546 72.4134Z"
    fill="#1D232D"
  />
<path
    d="M57.6568 72.5428L61.5864 70.2588L61.7557 70.3481L61.7937 70.3681L57.8645 72.6521L57.826 72.6334L57.6568 72.5428Z"
    fill="#212835"
  />
<path
    d="M57.6568 72.5428L61.5864 70.2588L61.7557 70.3481L61.7937 70.3681L57.8645 72.6521L57.826 72.6334L57.6568 72.5428Z"
    fill="#212835"
  />
<path
    d="M68.4322 74.3294C68.4062 74.0081 68.3453 73.6774 68.2546 73.3481C67.8901 72.0267 67.0369 70.7014 65.9973 69.8934C65.8302 69.7627 65.6588 69.6454 65.4828 69.5441L64.5614 69.0121L62.0161 70.4921L61.8688 70.4134L61.7937 70.3681L57.8645 72.6521L57.938 72.6987L58.2693 72.8707C58.5573 73.0067 58.8197 73.0894 59.0562 73.1241C59.439 73.1814 59.753 73.1174 59.9978 72.9761L61.7469 71.9601L62.0677 72.1761C63.1084 72.9854 63.9604 74.3121 64.325 75.6307C64.4161 75.9614 64.4765 76.2907 64.5026 76.6134L64.5161 76.9654C64.515 77.1561 64.5005 77.3374 64.474 77.5054C64.3688 78.1574 64.0724 78.6267 63.6489 78.8707L67.5786 76.5881C68.003 76.3427 68.2994 75.8734 68.4036 75.2227C68.4306 75.0534 68.4453 74.8734 68.4458 74.6814L68.4322 74.3294Z"
    fill="#E9EFF4"
  />
<path
    d="M61.5531 71.8282C63.1953 72.7748 64.5213 75.0735 64.5161 76.9655C64.5104 78.8508 63.1755 79.6135 61.5339 78.6655L53.8802 74.2468C54.3562 74.4895 54.8417 74.5655 55.1984 74.3628C56.112 73.8455 56.2251 71.7068 57.826 72.6335L57.8645 72.6522L57.938 72.6988C59.9765 73.8735 60.8489 72.4895 60.6323 71.2975L61.5531 71.8282Z"
    fill="#C1CFE0"
  />
<path
    d="M60.5922 71.1228L64.5224 68.8388L64.5615 69.0122L60.6323 71.2975L60.5922 71.1228Z"
    fill="#E2E1DF"
  />
<path
    d="M53.2803 55.1227C54.3297 55.7281 55.2803 56.7641 55.9677 57.9561C56.6557 59.1467 57.0803 60.4867 57.076 61.7001C57.1068 61.9214 57.6917 66.1307 60.4027 70.6707C60.5172 70.8681 60.5921 71.0787 60.6323 71.2974C60.8489 72.4894 59.9765 73.8734 57.938 72.6987L57.8645 72.6521C56.2251 71.7067 56.112 73.8454 55.1984 74.3627C54.8417 74.5654 54.3563 74.4894 53.8803 74.2467L53.7557 74.1787L53.6349 74.1041C53.0745 73.7454 52.5464 73.1627 52.2536 72.5227C51.2964 70.4241 50.6297 68.5281 50.1697 66.8134C49.0631 62.6761 49.1839 59.5961 49.4579 57.3001C49.7271 55.0547 51.174 53.9081 53.2803 55.1227Z"
    fill="#17191C"
  />
<path
    d="M64.5615 69.0122L64.5161 68.8415L64.5224 68.8388L64.5027 68.7935C64.4594 68.6521 64.4084 68.5175 64.3307 68.3881C64.1527 68.0895 63.9844 67.7921 63.8235 67.4948L63.662 67.1868C63.562 66.9961 63.461 66.8055 63.3678 66.6188L63.1979 66.2628C63.1178 66.0948 63.037 65.9241 62.9626 65.7588C62.9068 65.6375 62.8558 65.5188 62.8027 65.3975C62.7344 65.2402 62.6662 65.0828 62.6022 64.9268L62.4604 64.5748C62.4006 64.4228 62.3422 64.2748 62.2864 64.1295L62.1631 63.7921C62.1115 63.6468 62.062 63.5068 62.0131 63.3668L61.9068 63.0535C61.862 62.9175 61.8198 62.7841 61.7787 62.6508L61.6902 62.3681C61.6511 62.2388 61.6156 62.1161 61.5807 61.9908L61.5058 61.7268L61.4615 61.5548L61.3719 61.2095L61.3287 61.0348L61.2609 60.7495L61.224 60.5828L61.174 60.3482L61.1438 60.2041L61.1047 60.0068L61.0839 59.8948L61.0563 59.7295L61.0438 59.6601L61.0208 59.5161L61.0183 59.5001L61.0058 59.4161C61.0058 59.2681 60.9995 59.1175 60.988 58.9668C60.9552 58.5561 60.8776 58.1375 60.762 57.7148C60.5708 57.0215 60.2735 56.3228 59.8979 55.6721C59.3584 54.7375 58.6563 53.8975 57.8703 53.2868C57.6558 53.1201 57.4344 52.9708 57.2088 52.8388L56.8646 52.6575L56.849 52.6508C56.7058 52.5868 56.5672 52.5335 56.4303 52.4868L56.3246 52.4575L56.024 52.3881L55.9636 52.3708L55.8959 52.3681L55.685 52.3535L55.5542 52.3521L55.3542 52.3681L55.2364 52.3841L55.0339 52.4375L54.9407 52.4681L54.6672 52.5948L50.7375 54.8788L51.0109 54.7521L51.1047 54.7228L51.3063 54.6681L51.4246 54.6521L51.6246 54.6348L51.7568 54.6375L51.9636 54.6508L52.0954 54.6708L52.399 54.7428L52.4974 54.7695C52.6375 54.8135 52.7792 54.8708 52.9266 54.9375C53.0418 54.9935 53.1588 55.0535 53.2803 55.1228C53.5047 55.2548 53.7251 55.4041 53.9407 55.5708C54.726 56.1815 55.4271 57.0215 55.9678 57.9561C56.3438 58.6055 56.6407 59.3041 56.8334 59.9988C56.9484 60.4201 57.0255 60.8401 57.0579 61.2508C57.0703 61.4028 57.0766 61.5508 57.076 61.7001L57.088 61.7788L57.0922 61.8122L57.1126 61.9428L57.1255 62.0175L57.1536 62.1748L57.1765 62.2962L57.2136 62.4828L57.2448 62.6375L57.2912 62.8548L57.335 63.0455L57.3912 63.2855L57.4459 63.5108L57.514 63.7748L57.5818 64.0321L57.5938 64.0735L57.635 64.2135C57.6746 64.3602 57.7178 64.5082 57.764 64.6628L57.8412 64.9135C57.886 65.0548 57.9318 65.1975 57.9807 65.3482L58.0798 65.6375C58.1298 65.7855 58.1818 65.9321 58.2364 66.0855L58.3542 66.4041C58.411 66.5548 58.4714 66.7095 58.5339 66.8668L58.6703 67.2041C58.7364 67.3668 58.8074 67.5281 58.8782 67.6921L59.0303 68.0361C59.1084 68.2095 59.1922 68.3855 59.276 68.5615L59.436 68.8975C59.5334 69.0908 59.6364 69.2881 59.7418 69.4855L59.8938 69.7761C60.0542 70.0748 60.223 70.3708 60.4027 70.6708C60.4782 70.8001 60.5312 70.9362 60.573 71.0788L60.6323 71.2975L64.5615 69.0122Z"
    fill="#1F2631"
  />
<path
    d="M51.1661 39.1562L55.0964 36.8722C55.888 36.4135 57.0817 36.6828 58.2531 37.3588L54.3235 39.6428C53.1536 38.9668 51.9584 38.6975 51.1661 39.1562Z"
    fill="#E9EFF4"
  />
<mask
    id="mask1_0_1"
    style="mask-type:luminance"
    maskUnits="userSpaceOnUse"
    x="51"
    y="36"
    width="8"
    height="4"
  >
<path
      d="M51.1661 39.1562L55.0964 36.8722C55.888 36.4135 57.0823 36.6828 58.2531 37.3588L54.3235 39.6428C53.1536 38.9668 51.9584 38.6975 51.1661 39.1562Z"
      fill="white"
    />
</mask>
<g mask="url(#mask1_0_1)">
<path
      d="M51.1661 39.1561L55.0964 36.8721C55.474 36.6521 55.9432 36.5988 56.4584 36.6775L52.5292 38.9601C52.0136 38.8841 51.5443 38.9375 51.1661 39.1561Z"
      fill="#E9EFF4"
    />
<path
      d="M52.5292 38.9602L56.4584 36.6775C56.865 36.7402 57.301 36.8829 57.7417 37.0909L53.8114 39.3735C53.3708 39.1655 52.9354 39.0242 52.5292 38.9602Z"
      fill="#E9EFF4"
    />
<path
      d="M53.8115 39.3735L57.7417 37.0908C57.9115 37.1708 58.0828 37.2588 58.2531 37.3588L54.3235 39.6428C54.1531 39.5442 53.9823 39.4535 53.8115 39.3735Z"
      fill="#E9EFF4"
    />
</g>
<path
    d="M63.0568 57.4L59.1271 59.6814C59.7031 59.3481 60.1333 58.7547 60.3421 57.9414C61.0417 55.2014 61.762 52.4974 62.1401 49.4934L66.0697 47.2107C65.6921 50.2134 64.9708 52.9174 64.2729 55.6574C64.064 56.4707 63.6333 57.064 63.0568 57.4Z"
    fill="#E9EFF4"
  />
<mask
    id="mask2_0_1"
    style="mask-type:luminance"
    maskUnits="userSpaceOnUse"
    x="59"
    y="47"
    width="8"
    height="13"
  >
<path
      d="M63.0568 57.4L59.1271 59.6814C59.7031 59.3481 60.1333 58.7547 60.3421 57.9414C61.0417 55.2014 61.7615 52.4974 62.1401 49.4934L66.0697 47.2107C65.6921 50.2134 64.9708 52.9174 64.2729 55.6574C64.064 56.4707 63.6333 57.064 63.0568 57.4Z"
      fill="white"
    />
</mask>
<g mask="url(#mask2_0_1)">
<path
      d="M62.1402 49.4933L66.0698 47.2107C66.0156 47.644 65.9542 48.0693 65.886 48.4907L61.9563 50.7747C62.0251 50.3547 62.086 49.9253 62.1402 49.4933Z"
      fill="#E9EFF4"
    />
<path
      d="M61.9563 50.7747L65.886 48.4907C65.4844 50.9934 64.8708 53.3121 64.2729 55.6574C64.064 56.4707 63.6333 57.064 63.0568 57.4L59.1271 59.6814C59.7031 59.3481 60.1333 58.7547 60.3421 57.9414C60.9417 55.5961 61.5547 53.2774 61.9563 50.7747Z"
      fill="#E9EFF4"
    />
</g>
<path
    d="M54.3235 39.6427L58.2531 37.3587C58.6766 37.6014 59.0973 37.9014 59.4948 38.2361C60.3047 38.9147 61.1219 39.5441 61.95 40.1201C64.0407 41.5574 66.3364 44.6414 66.0698 47.2107L62.1402 49.4934C62.4068 46.9241 60.1104 43.8414 58.0203 42.4041C57.1927 41.8281 56.3745 41.1987 55.5651 40.5214C55.1683 40.1841 54.747 39.8854 54.3235 39.6427Z"
    fill="#E9EFF4"
  />
<mask
    id="mask3_0_1"
    style="mask-type:luminance"
    maskUnits="userSpaceOnUse"
    x="54"
    y="37"
    width="13"
    height="13"
  >
<path
      d="M54.3235 39.6427L58.2531 37.3587C58.6766 37.6014 59.0973 37.9014 59.4948 38.2361C60.3047 38.9147 61.1219 39.5441 61.95 40.1201C64.0407 41.5574 66.3364 44.6414 66.0698 47.2107L62.1402 49.4934C62.4068 46.9241 60.1104 43.8414 58.0203 42.4041C57.1927 41.8281 56.3745 41.1974 55.5651 40.5214C55.1677 40.1841 54.747 39.8854 54.3235 39.6427Z"
      fill="white"
    />
</mask>
<g mask="url(#mask3_0_1)">
<path
      d="M54.3235 39.6428L58.2531 37.3588C58.576 37.5454 58.8974 37.7628 59.2079 38.0041L55.2781 40.2881C54.9677 40.0454 54.6464 39.8294 54.3235 39.6428Z"
      fill="#E9EFF4"
    />
<path
      d="M55.2781 40.2881L59.2079 38.0041L59.4948 38.2361C59.8453 38.5307 60.1973 38.8134 60.55 39.0894L56.6203 41.3721C56.2677 41.0974 55.9151 40.8121 55.5651 40.5214L55.2781 40.2881Z"
      fill="#E9EFF4"
    />
<path
      d="M56.6203 41.3721L60.55 39.0894C61.0136 39.4494 61.4807 39.7948 61.95 40.1201C62.0839 40.2121 62.2183 40.3121 62.3536 40.4161L58.424 42.7014C58.2886 42.5947 58.1531 42.4961 58.0203 42.4041C57.5511 42.0774 57.0839 41.7321 56.6203 41.3721Z"
      fill="#E9EFF4"
    />
<path
      d="M58.424 42.7013L62.3536 40.416C63.8505 41.584 65.3625 43.5093 65.8932 45.4253L61.9631 47.708C61.4328 45.7947 59.9213 43.8653 58.424 42.7013Z"
      fill="#E9EFF4"
    />
<path
      d="M61.9631 47.7081L65.8932 45.4255C65.9869 45.7668 66.05 46.1055 66.0765 46.4401L62.1484 48.7241C62.1197 48.3895 62.0579 48.0495 61.9631 47.7081Z"
      fill="#E9EFF4"
    />
<path
      d="M62.1484 48.7241L66.0765 46.4401C66.0984 46.7014 66.0964 46.9574 66.0697 47.2107L62.1401 49.4934C62.1667 49.2414 62.1688 48.9841 62.1484 48.7241Z"
      fill="#E9EFF4"
    />
</g>
<path
    d="M54.3235 39.6428C54.7469 39.8854 55.1683 40.1841 55.5651 40.5214C56.3745 41.1987 57.1927 41.8281 58.0203 42.4041C60.1104 43.8414 62.4068 46.9241 62.1401 49.4934C61.762 52.4974 61.0417 55.2014 60.3421 57.9414C59.838 59.9067 58.0355 60.5908 56.0287 59.4308C55.8104 59.3068 55.5912 59.1587 55.3697 58.9894C54.5604 58.3681 53.7516 57.7521 52.9421 57.1308C50.6869 55.4001 49.1683 51.9814 49.3484 49.5148C49.5797 46.4174 49.776 43.3094 50.3328 40.4454C50.7516 38.5281 52.564 38.6268 54.3235 39.6428Z"
    fill="#C1CFE0"
  />
<path
    d="M55.8588 43.6201L54.876 44.1908C54.1156 44.6334 53.6479 45.5428 53.6448 46.8388C53.6375 49.5654 55.6771 52.9561 58.2005 54.4121L59.1823 53.8414C56.6599 52.3841 54.6188 48.9934 54.6271 46.2681C54.6307 44.9734 55.0984 44.0614 55.8588 43.6201Z"
    fill="#1F2631"
  />
<mask
    id="mask4_0_1"
    style="mask-type:luminance"
    maskUnits="userSpaceOnUse"
    x="53"
    y="43"
    width="7"
    height="12"
  >
<path
      d="M55.8588 43.6201L54.876 44.1908C54.1156 44.6334 53.6479 45.5428 53.6448 46.8388C53.6375 49.5654 55.6771 52.9561 58.2005 54.4121L59.1823 53.8414C56.6604 52.3841 54.6183 48.9934 54.6271 46.2681C54.6307 44.9734 55.0984 44.0614 55.8588 43.6201Z"
      fill="white"
    />
</mask>
<g mask="url(#mask4_0_1)">
<path
      d="M58.2005 54.4121L59.1823 53.8414C58.3364 53.3534 57.5437 52.6441 56.864 51.8161L55.8807 52.3894C56.5604 53.2161 57.3536 53.9241 58.2005 54.4121Z"
      fill="#1F2631"
    />
<path
      d="M55.8806 52.3894L56.864 51.8161C56.2573 51.0801 55.7417 50.2454 55.3588 49.3867L54.376 49.9587C54.7598 50.8174 55.275 51.6494 55.8806 52.3894Z"
      fill="#1F2631"
    />
<path
      d="M54.376 49.9587L55.3588 49.3867C54.8932 48.3427 54.624 47.2601 54.6271 46.2681C54.6307 44.9734 55.0984 44.0614 55.8588 43.6201L54.876 44.1907C54.1156 44.6334 53.6479 45.5427 53.6448 46.8387C53.6412 47.8334 53.9109 48.9134 54.376 49.9587Z"
      fill="#1F2631"
    />
</g>
<path
    d="M61.5574 54.7707L62.5386 54.2014C61.7011 54.6894 60.5074 54.6067 59.1823 53.8414L58.2006 54.412C59.5255 55.1774 60.7188 55.2587 61.5574 54.7707Z"
    fill="#1F2631"
  />
<mask
    id="mask5_0_1"
    style="mask-type:luminance"
    maskUnits="userSpaceOnUse"
    x="58"
    y="53"
    width="5"
    height="3"
  >
<path
      d="M61.5574 54.7707L62.5386 54.2C61.7011 54.6894 60.5074 54.6067 59.1823 53.8414L58.2006 54.412C59.5255 55.1774 60.7188 55.2587 61.5574 54.7707Z"
      fill="white"
    />
</mask>
<g mask="url(#mask5_0_1)">
<path
      d="M61.5573 54.7707L62.5385 54.2014L62.4609 54.2454L61.4781 54.8147L61.5573 54.7707Z"
      fill="#1F2631"
    />
<path
      d="M61.4781 54.8147L62.4609 54.2454C61.9631 54.5067 61.3473 54.5761 60.6588 54.4307L59.6755 55.0027C60.3651 55.1467 60.9797 55.0774 61.4781 54.8147Z"
      fill="#1F2631"
    />
<path
      d="M59.6755 55.0027L60.6588 54.4307C60.1954 54.3334 59.7 54.1387 59.1823 53.8414L58.2006 54.412C58.7167 54.7094 59.2136 54.904 59.6755 55.0027Z"
      fill="#1F2631"
    />
</g>
<path
    d="M56.197 33.7575C55.8688 33.9455 55.5412 34.1375 55.2136 34.3268C56.1246 33.7975 57.1599 33.7641 58.2574 34.3975L59.2402 33.8268C58.1418 33.1948 57.1068 33.2268 56.197 33.7575Z"
    fill="#1F2631"
  />
<mask
    id="mask6_0_1"
    style="mask-type:luminance"
    maskUnits="userSpaceOnUse"
    x="55"
    y="33"
    width="5"
    height="2"
  >
<path
      d="M56.197 33.7575C55.8688 33.9455 55.5412 34.1375 55.2136 34.3268C56.1246 33.7975 57.1599 33.7641 58.2574 34.3975L59.2402 33.8268C58.1418 33.1948 57.1068 33.2268 56.197 33.7575Z"
      fill="white"
    />
</mask>
<g mask="url(#mask6_0_1)">
<path
      d="M58.2573 34.3975L59.2401 33.8268C58.8855 33.6228 58.5385 33.4881 58.1984 33.4175L57.2167 33.9868C57.5552 34.0601 57.9036 34.1948 58.2573 34.3975Z"
      fill="#1F2631"
    />
<path
      d="M57.2167 33.9868L58.1984 33.4175C57.5323 33.2775 56.8984 33.3828 56.3145 33.6908L55.3317 34.2615C55.9161 33.9535 56.55 33.8482 57.2167 33.9868Z"
      fill="#1F2631"
    />
<path
      d="M55.3318 34.2615L56.3146 33.6908L56.197 33.7574L55.2136 34.3268L55.3318 34.2615Z"
      fill="#1F2631"
    />
</g>
<path
    d="M62.8833 56.6134C63.2104 56.4241 63.5391 56.2334 63.8667 56.0441C65.0131 55.3761 65.7219 53.7014 65.7312 50.6361C65.7484 44.3934 62.8443 35.9081 59.2401 33.8267L58.2573 34.3974C61.862 36.4787 64.7661 44.9641 64.7495 51.2054C64.7396 54.2721 64.0303 55.9481 62.8833 56.6134Z"
    fill="#1F2631"
  />
<mask
    id="mask7_0_1"
    style="mask-type:luminance"
    maskUnits="userSpaceOnUse"
    x="58"
    y="33"
    width="8"
    height="24"
  >
<path
      d="M62.8833 56.6134C63.2104 56.4241 63.5391 56.2334 63.8667 56.0441C65.0131 55.3761 65.7219 53.7027 65.7312 50.6361C65.7484 44.3934 62.8443 35.9081 59.2401 33.8267L58.2573 34.3974C61.862 36.4774 64.7661 44.9641 64.7495 51.2054C64.7396 54.2721 64.0297 55.9481 62.8833 56.6134Z"
      fill="white"
    />
</mask>
<g mask="url(#mask7_0_1)">
<path
      d="M62.8833 56.6134L63.8666 56.0441C65.013 55.3761 65.7218 53.7014 65.7312 50.6361C65.7417 46.9947 64.7584 42.5934 63.2218 39.1454L62.2401 39.7147C63.7754 43.1641 64.7584 47.5667 64.7494 51.2054C64.7396 54.2721 64.0302 55.9481 62.8833 56.6134Z"
      fill="#1F2631"
    />
<path
      d="M62.2401 39.7147L63.2219 39.1454C62.5745 37.6881 61.8265 36.4001 61.014 35.4107L60.0312 35.9814C60.8443 36.9707 61.5917 38.2574 62.2401 39.7147Z"
      fill="#1F2631"
    />
<path
      d="M60.0312 35.9814L61.014 35.4108C60.4511 34.7254 59.8557 34.1828 59.2401 33.8268L58.2573 34.3974C58.8729 34.7548 59.4688 35.2974 60.0312 35.9814Z"
      fill="#1F2631"
    />
</g>
<path
    d="M58.2006 54.4121C60.7292 55.8708 62.7812 54.8441 62.7891 52.1188C62.797 49.3988 60.7568 46.0068 58.2287 44.5481C55.7063 43.0908 53.6527 44.1201 53.6448 46.8388C53.6375 49.5654 55.6771 52.9561 58.2006 54.4121ZM64.7495 51.2054C64.7312 57.4561 61.8011 57.9294 58.197 55.8494C54.5918 53.7668 51.6792 49.9214 51.6973 43.6721C51.7145 37.4281 54.6536 32.3161 58.2574 34.3974C61.862 36.4788 64.7661 44.9641 64.7495 51.2054Z"
    fill="#17191C"
  />
<path
    d="M41.4849 62.9681C41.5303 62.8615 41.5661 62.7428 41.5969 62.6201L41.636 62.4615L41.6516 62.4001C41.6787 62.2335 41.6927 62.0521 41.6932 61.8615L41.6803 61.5121L41.6417 61.2228L41.6251 61.0935C41.5937 60.9095 41.5547 60.7215 41.5031 60.5348L41.4745 60.4455L41.4292 60.3028C41.3693 60.1148 41.3 59.9295 41.2213 59.7441L41.1693 59.6188C41.0751 59.4055 40.9683 59.1961 40.8521 58.9908L40.7735 58.8601C40.6688 58.6855 40.5579 58.5148 40.4396 58.3508L40.3615 58.2388C40.2219 58.0508 40.0745 57.8735 39.9193 57.7068L39.814 57.5988C39.6792 57.4615 39.5396 57.3281 39.3959 57.2068L39.2921 57.1201L39.2421 57.0761C39.0745 56.9455 38.9016 56.8281 38.7265 56.7268L29.8401 51.5961L29.5625 51.4508L29.5516 51.4468L29.1984 51.3081L29.1088 51.2828L28.8568 51.2228L28.8021 51.2121L28.7453 51.2068L28.5765 51.1935L28.4636 51.1921L28.2973 51.2041L28.1984 51.2188L28.0265 51.2615L27.9511 51.2841L27.7245 51.3881L23.7943 53.6735L24.0213 53.5681L24.0973 53.5455L24.2688 53.5015L24.3656 53.4895L24.5355 53.4761L24.6448 53.4775L24.8151 53.4908L24.9292 53.5068L25.1792 53.5668L25.2693 53.5908C25.3849 53.6295 25.5027 53.6748 25.6229 53.7308L25.9093 53.8801L34.7964 59.0108C34.9901 59.1215 35.1787 59.2575 35.3625 59.4028L35.4683 59.4935C35.6093 59.6121 35.7469 59.7415 35.8797 59.8788L35.9912 59.9935C36.1448 60.1588 36.2907 60.3348 36.4292 60.5188L36.5151 60.6415C36.6303 60.8028 36.738 60.9668 36.8401 61.1388L36.924 61.2761C37.0391 61.4801 37.1448 61.6881 37.2391 61.8988L37.2942 62.0335C37.3702 62.2148 37.4375 62.3988 37.4973 62.5828L37.5448 62.7321C37.6084 62.9481 37.6593 63.1655 37.6953 63.3788L37.7125 63.5055C37.7421 63.7201 37.7636 63.9361 37.7636 64.1455C37.7625 64.3615 37.7401 64.5588 37.7063 64.7468L37.6672 64.9041C37.6364 65.0268 37.6005 65.1428 37.5547 65.2508L37.4828 65.4041L37.3099 65.6721L37.2235 65.7815C37.1245 65.8868 37.0156 65.9828 36.8937 66.0521L40.8245 63.7681C40.9459 63.6988 41.0541 63.6041 41.1531 63.4961L41.238 63.3881L41.4131 63.1201L41.4849 62.9681Z"
    fill="#E9EFF4"
  />
<path
    d="M34.7964 59.0108C36.438 59.9575 37.7688 62.2575 37.7636 64.1455C37.7584 66.0308 36.4188 66.7948 34.7771 65.8468L25.8907 60.7161C24.2484 59.7668 22.9219 57.4655 22.9276 55.5801C22.9328 53.6921 24.2683 52.9321 25.9094 53.8801L34.7964 59.0108Z"
    fill="#C1CFE0"
  />
<path
    d="M39.412 48.9654C39.411 48.8294 39.4079 48.6934 39.3984 48.5547L39.3964 48.4947L39.3798 48.3667C39.362 48.1867 39.3386 48.0081 39.3079 47.8254L39.2694 47.6067C39.2312 47.4041 39.1844 47.2014 39.1298 46.9974L39.1084 46.9041L39.1016 46.8801C39.0344 46.6427 38.9579 46.4054 38.8719 46.1654L38.797 45.9694C38.7298 45.7921 38.6563 45.6147 38.5787 45.4361L38.4792 45.2161C38.3896 45.0241 38.2943 44.8307 38.1927 44.6441L38.1251 44.5121C37.9995 44.2841 37.8651 44.0614 37.7246 43.8401L37.6094 43.6681C37.5 43.5054 37.388 43.3427 37.2703 43.1867L37.1203 42.9854C36.9932 42.8241 36.8636 42.6654 36.7298 42.5121L36.6188 42.3827C36.4479 42.1934 36.2708 42.0121 36.0891 41.8374L35.9432 41.7067C35.8031 41.5787 35.6599 41.4547 35.5151 41.3374L35.4188 41.2547L35.1807 41.0774C34.973 40.9267 34.7672 40.7934 34.5631 40.6747C34.414 40.5907 34.2656 40.5121 34.1188 40.4441L34.0995 40.4361C33.9079 40.3454 33.7183 40.2721 33.5307 40.2107L33.3807 40.1681C33.2443 40.1307 33.1104 40.0974 32.9792 40.0761L32.8844 40.0521L32.786 40.0441L32.5235 40.0267L32.3266 40.0214L32.0672 40.0414L31.8938 40.0641L31.624 40.1334L31.4891 40.1721C31.3599 40.2187 31.235 40.2747 31.1156 40.3427L27.186 42.6267C27.3052 42.5587 27.4292 42.5027 27.5594 42.4561L27.6948 42.4161L27.964 42.3467L28.1344 42.3241L28.4006 42.3054L28.5864 42.3094L28.864 42.3307L29.0418 42.3587C29.1771 42.3814 29.3146 42.4147 29.4542 42.4534L29.6011 42.4947C29.7864 42.5561 29.9766 42.6281 30.1694 42.7174C30.3224 42.7907 30.4771 42.8681 30.6334 42.9587C30.838 43.0761 31.0438 43.2107 31.2516 43.3614L31.5812 43.6187C31.7318 43.7401 31.8782 43.8654 32.0224 43.9987L32.1563 44.1201C32.3407 44.2947 32.5194 44.4787 32.6918 44.6694L32.7896 44.7841C32.9292 44.9427 33.0631 45.1067 33.1938 45.2747L33.3386 45.4654C33.4574 45.6254 33.5714 45.7907 33.6839 45.9574L33.7938 46.1214C33.935 46.3441 34.0698 46.5681 34.197 46.7974L34.2599 46.9227C34.362 47.1134 34.4594 47.3067 34.55 47.5014L34.6479 47.7187C34.7266 47.8974 34.8011 48.0787 34.8698 48.2601L34.9418 48.4481C35.0282 48.6867 35.1058 48.9281 35.1724 49.1694L35.1974 49.2694C35.2531 49.4787 35.3 49.6867 35.3402 49.8921L35.3782 50.1107C35.4084 50.2894 35.4318 50.4681 35.449 50.6454L35.4688 50.8414C35.4782 50.9787 35.4807 51.1107 35.4828 51.2454L35.486 51.4427C35.4818 51.6427 35.4698 51.8374 35.4474 52.0281L34.836 57.1294C34.8162 57.2894 34.7755 57.4241 34.7375 57.5654L34.6714 57.8187L34.5214 58.1294L34.4219 58.3201L34.1932 58.5907L34.088 58.7121C33.9636 58.8254 33.8287 58.9241 33.6839 59.0107L37.6136 56.7267C37.7579 56.6427 37.8927 56.5427 38.0172 56.4294L38.1246 56.3054L38.3516 56.0347L38.449 55.8494L38.6016 55.5347L38.6672 55.2841L38.7448 54.9947L38.7651 54.8454L39.3771 49.7441C39.3995 49.5521 39.4115 49.3587 39.4167 49.1587L39.412 48.9654Z"
    fill="#1F2631"
  />
<path
    d="M30.6333 42.9587C30.838 43.076 31.0437 43.2107 31.2516 43.3614C33.9151 45.2827 35.7948 49.164 35.4473 52.028L34.836 57.1294C34.4927 59.9934 31.2011 59.48 29.6588 59.424C27.7011 59.3467 25.6969 59.5067 24.1177 58.5947C23.1817 58.0534 22.3948 57.136 21.8568 55.5654C20.6849 52.16 24.3907 49.9054 25.1765 47.9467C25.4235 47.3254 25.7937 45.18 25.8131 45.068C26.1292 42.4254 28.224 41.568 30.6333 42.9587Z"
    fill="#17191C"
  />
<path
    d="M4.32348 0.994735L0.884949 2.99207L1.14121 2.9561L1.21308 2.98409L4.65108 0.98676L4.57868 0.958732L4.32348 0.994735Z"
    fill="#1F2631"
  />
<mask
    id="mask8_0_1"
    style="mask-type:luminance"
    maskUnits="userSpaceOnUse"
    x="0"
    y="0"
    width="5"
    height="3"
  >
<path
      d="M4.32348 0.994735L0.884949 2.99207L1.14121 2.9561L1.21308 2.98409L4.65108 0.98676L4.57868 0.958732L4.32348 0.994735Z"
      fill="white"
    />
</mask>
<g mask="url(#mask8_0_1)">
<path
      d="M1.2131 2.98413L4.6511 0.9868L4.57977 0.958773L1.14124 2.95614L1.2131 2.98413Z"
      fill="#1F2631"
    />
<path
      d="M1.14122 2.95604L4.57975 0.958675L4.32869 0.989372L0.890686 2.98804L1.14122 2.95604Z"
      fill="#1F2631"
    />
<path
      d="M0.890682 2.98809L4.32868 0.989429L4.32348 0.994735L0.884949 2.99207L0.890682 2.98809Z"
      fill="#1F2631"
    />
</g>
<path
    d="M13.0443 25.5974L16.4823 23.6001C12.0407 19.7854 8.83028 14.1054 7.34734 8.35874C6.95934 6.85341 5.45934 1.45344 4.65107 0.986769L1.21307 2.9841C2.02134 3.4521 3.52134 8.85074 3.90988 10.3587C5.39121 16.1027 8.60214 21.7841 13.0443 25.5974Z"
    fill="#1F2631"
  />
<mask
    id="mask9_0_1"
    style="mask-type:luminance"
    maskUnits="userSpaceOnUse"
    x="1"
    y="0"
    width="16"
    height="26"
  >
<path
      d="M13.0443 25.5974L16.4823 23.6001C12.0401 19.7854 8.83028 14.1054 7.34788 8.35874C6.95988 6.85341 5.45934 1.45344 4.65107 0.986769L1.21307 2.9841C2.02134 3.4521 3.52134 8.85074 3.90988 10.3587C5.39121 16.1027 8.60214 21.7841 13.0443 25.5974Z"
      fill="white"
    />
</mask>
<g mask="url(#mask9_0_1)">
<path
      d="M13.0443 25.5974L16.4823 23.6001C15.3771 22.6494 14.3484 21.5867 13.4031 20.4347L9.96454 22.4321C10.9099 23.5841 11.938 24.6494 13.0443 25.5974Z"
      fill="#212835"
    />
<path
      d="M9.96457 22.4321L13.4031 20.4348C11.687 18.3415 10.2474 15.9588 9.13031 13.4535L5.69177 15.4535C6.80844 17.9588 8.24844 20.3388 9.96457 22.4321Z"
      fill="#1F2631"
    />
<path
      d="M5.69172 15.4534L9.13025 13.4534C8.39012 11.7947 7.79172 10.08 7.34732 8.35867C7.05266 7.21601 6.11879 3.83068 5.33119 2.06134L1.89319 4.06001C2.68026 5.82934 3.61399 9.21334 3.90986 10.3587C4.35359 12.0787 4.95212 13.792 5.69172 15.4534Z"
      fill="#1F2631"
    />
<path
      d="M1.89323 4.06006L5.33123 2.06139C5.1511 1.65606 4.9787 1.33608 4.82456 1.14541L1.3855 3.14541C1.5407 3.33341 1.71257 3.65339 1.89323 4.06006Z"
      fill="#1F2631"
    />
<path
      d="M1.38547 3.14539L4.82454 1.14539L4.65107 0.986727L1.21307 2.98406L1.38547 3.14539Z"
      fill="#1F2631"
    />
</g>
<path
    d="M1.21309 2.98406L1.14123 2.95606C-0.292641 2.6614 0.966161 9.56938 1.71616 12.1747C3.01829 16.7107 4.64069 21.3467 6.22869 25.8881C8.26096 25.8534 11.0074 25.6374 13.0443 25.5974C8.60216 21.784 5.39123 16.1027 3.90989 10.3587C3.52136 8.8507 2.02136 3.45206 1.21309 2.98406Z"
    fill="#17191C"
  />
<path
    d="M30.7375 57.1575C30.4656 56.9535 30.1953 56.7575 29.9265 56.5615C30.1978 56.7588 30.4693 56.9548 30.7375 57.1575Z"
    fill="#DAE3EC"
  />
<path
    d="M33.737 59.5201C33.0396 58.9361 32.3484 58.3895 31.6615 57.8588C32.3594 58.4028 33.0552 58.9508 33.737 59.5201Z"
    fill="#DAE3EC"
  />
<path
    d="M45.262 32.0227C45.1093 31.9547 44.9552 31.8881 44.8047 31.8201C44.9609 31.8894 45.1104 31.9561 45.262 32.0227ZM47.2516 32.8547C47.0459 32.7707 46.8401 32.6907 46.636 32.6067C46.8527 32.696 47.0527 32.7747 47.2516 32.8547ZM60.1229 46.4667C59.6751 42.056 57.4251 39.46 56.5765 38.484C55.8213 37.612 54.4839 36.4587 53.4667 35.7987C52.9869 35.4867 52.2604 35.0174 51.4631 34.616C50.5375 34.1494 50.1093 33.9561 48.8651 33.4841C48.0339 33.1761 47.2136 32.8427 46.3964 32.504C46.0355 32.3534 45.6765 32.2014 45.3255 32.0481C45.0193 31.9174 44.7183 31.7774 44.414 31.6427C44.0396 31.4721 43.664 31.3027 43.3016 31.1294C43.1771 31.0707 43.0459 31.0054 42.9188 30.9454C42.5375 30.7587 42.1631 30.5761 41.7943 30.3894C41.6027 30.2934 41.4099 30.1947 41.2136 30.0934C40.9453 29.9547 40.6849 29.8147 40.4245 29.6774C40.1636 29.5361 39.9047 29.4001 39.6375 29.2547L39.2979 29.0627C37.0312 27.7987 34.5355 26.2414 31.9203 24.3174L31.9145 24.3121C31.4636 23.9801 31.0073 23.6321 30.5495 23.2761C29.8984 22.7681 29.2484 22.2574 28.6125 21.7267C25.3751 18.9667 22.3625 17.884 20.4063 17.4614C18.4735 17.0454 16.9697 17.1107 16.4136 17.1574C15.7453 17.216 13.9708 17.3667 12.0959 18.1694C11.4172 18.46 9.83026 19.1387 8.03173 20.6547C6.2912 22.1227 5.27653 23.6374 4.84373 24.2841C4.45933 24.8587 3.49266 26.4227 2.8312 28.5481C2.51613 29.5641 2.38066 30.3254 2.25986 31.0841C2.16306 31.6921 2.14533 32.1254 2.10626 33.0801C2.12026 34.0654 2.12599 34.56 2.29173 35.616C2.35733 36.04 2.5188 36.8987 2.85466 37.8761C3.59946 40.0481 4.68906 41.4494 5.21253 42.1227C5.27919 42.2067 5.8896 42.9841 6.91093 43.9107C7.75573 44.6761 8.56933 45.2281 8.83599 45.4107C10.8245 46.7587 12.8339 47.5001 13.4943 47.7454C14.2839 48.0387 15.062 48.3547 15.8391 48.6761C16.3527 48.8907 16.8625 49.1054 17.3573 49.3241L17.5131 49.3947C20.3803 50.6761 22.8959 52.0347 25.0651 53.34C25.2588 53.4574 25.45 53.5694 25.6473 53.6907C25.7683 53.7641 25.8797 53.8361 25.9973 53.9107C26.3995 54.1614 26.8052 54.4187 27.2161 54.6894L27.3328 54.7654C28.1797 55.3214 29.0479 55.9241 29.9265 56.5614C29.6896 56.3881 29.4541 56.2094 29.2156 56.0387C29.9552 56.5614 30.6177 57.052 31.2073 57.5C31.0531 57.3814 30.8932 57.2734 30.7375 57.1574C31.0437 57.3854 31.3521 57.6214 31.6615 57.8587L31.3568 57.6147C32.3979 58.4134 33.2 59.076 33.7369 59.52C35.7021 61.1934 38.8781 63.312 42.8511 63.92C44.3855 64.1534 45.9588 64.1254 47.5271 63.8374C49.6281 63.4494 51.2527 62.5654 51.786 62.2734C54.4036 60.8454 56.7552 58.4147 58.2391 55.6027C60.1869 51.908 60.3391 48.5934 60.1229 46.4667Z"
    fill="#DAE3EC"
  />
<path
    d="M23.0839 74.4654C23.1297 74.3588 23.1645 74.2401 23.1969 74.1174L23.236 73.9588L23.2505 73.8975C23.2771 73.7308 23.2917 73.5495 23.2927 73.3588L23.2787 73.0095L23.2412 72.7201L23.224 72.5908C23.1927 72.4068 23.1536 72.2188 23.1027 72.0321L23.0729 71.9441L23.0271 71.8014C22.9677 71.6121 22.8989 71.4268 22.8208 71.2415L22.7688 71.1161C22.6745 70.9028 22.5677 70.6935 22.4511 70.4881L22.3719 70.3575C22.2683 70.1828 22.1568 70.0135 22.0391 69.8481L21.9609 69.7361C21.8208 69.5481 21.6724 69.3721 21.5188 69.2041L21.4136 69.0961C21.2781 68.9588 21.1385 68.8268 20.9953 68.7068L20.8917 68.6174L20.8412 68.5748C20.6735 68.4428 20.5016 68.3255 20.3251 68.2255L11.4391 63.0948L11.162 62.9494L11.1511 62.9455C11.0307 62.8881 10.914 62.8428 10.7979 62.8055L10.7079 62.7801L10.4563 62.7215L10.4016 62.7095L10.3453 62.7041L10.1755 62.6935L10.062 62.6895L9.89733 62.7028L9.79787 62.7161L9.62547 62.7588L9.55107 62.7815L9.32347 62.8868L5.39374 65.1708L5.6208 65.0654L5.69734 65.0428L5.8688 64.9988L5.96454 64.9868L6.13494 64.9735L6.24427 64.9761L6.41454 64.9881L6.52707 65.0055L6.77707 65.0641L6.8688 65.0908L7.22187 65.2295L7.50881 65.3775L16.3953 70.5095C16.5891 70.6188 16.7781 70.7548 16.9609 70.9001L17.0661 70.9908C17.2079 71.1108 17.3464 71.2401 17.4792 71.3761L17.5907 71.4908C17.7432 71.6561 17.8901 71.8321 18.0281 72.0161L18.1145 72.1401C18.2287 72.3001 18.338 72.4668 18.4396 72.6361L18.5235 72.7735C18.638 72.9788 18.7443 73.1855 18.8385 73.3975L18.8932 73.5321C18.9693 73.7121 19.0369 73.8961 19.0969 74.0815L19.1437 74.2295C19.2073 74.4455 19.2584 74.6628 19.2948 74.8775L19.3104 75.0028C19.3412 75.2188 19.3636 75.4348 19.3625 75.6441C19.362 75.8588 19.3401 76.0561 19.3063 76.2441L19.2672 76.4014C19.236 76.5241 19.2 76.6401 19.1541 76.7494L19.0828 76.9014L18.9084 77.1694L18.8229 77.2801C18.7229 77.3868 18.6151 77.4801 18.4932 77.5508L22.424 75.2654C22.5448 75.1961 22.6536 75.1028 22.7527 74.9961L22.838 74.8854L23.0125 74.6174L23.0839 74.4654Z"
    fill="#E9EFF4"
  />
<path
    d="M16.3953 70.5094C18.0374 71.4548 19.3677 73.7574 19.3625 75.6441C19.3584 77.5294 18.0182 78.2921 16.376 77.3454L7.48957 72.2134C5.8473 71.2641 4.5213 68.9654 4.5265 67.0774C4.53224 65.1921 5.86664 64.4294 7.50877 65.3774L16.3953 70.5094Z"
    fill="#C1CFE0"
  />
<path
    d="M21.012 60.4627C21.0099 60.3267 21.0073 60.1907 20.9973 60.0521L20.9953 59.9921L20.9792 59.8641C20.9609 59.6867 20.9375 59.5054 20.9079 59.3227L20.8693 59.1054C20.8303 58.9041 20.7833 58.7001 20.7292 58.4961L20.7079 58.4027L20.7005 58.3774C20.6344 58.1401 20.5563 57.9027 20.4713 57.6627L20.3964 57.4694C20.3287 57.2894 20.2557 57.1121 20.1787 56.9347L20.0781 56.7134C19.9891 56.5214 19.8937 56.3294 19.7921 56.1414L19.7245 56.0107C19.5989 55.7827 19.4645 55.5587 19.3245 55.3387L19.2084 55.1654C19.0989 55.0027 18.9869 54.8427 18.8697 54.6841L18.7197 54.4841C18.5932 54.3214 18.4631 54.1627 18.3297 54.0107L18.2177 53.8801C18.0469 53.6907 17.8703 53.5094 17.6891 53.3374L17.5427 53.2041C17.4031 53.0761 17.2588 52.9521 17.1136 52.8347L17.0177 52.7547L16.7807 52.5747C16.5724 52.4254 16.3667 52.2921 16.1631 52.1734C16.0136 52.0881 15.8651 52.0094 15.7183 51.9414L15.6989 51.9334C15.5057 51.844 15.3172 51.7694 15.1303 51.7081L14.9792 51.6681C14.8437 51.6294 14.7093 51.5961 14.5787 51.5734L14.4828 51.5494L14.3855 51.5427L14.1229 51.5241L13.9265 51.5187L13.6667 51.5387L13.4927 51.5614L13.2229 51.6307L13.088 51.6694C12.9584 51.7161 12.8333 51.7734 12.7145 51.8401L8.78601 54.1241C8.90361 54.0561 9.02868 54.0001 9.15841 53.9534L9.29375 53.9134L9.56401 53.8441L9.73388 53.8214L9.99948 53.8027L10.186 53.8067L10.4636 53.8281L10.6412 53.8561C10.776 53.8787 10.914 53.9121 11.0531 53.9507L11.2 53.9921C11.386 54.0534 11.576 54.1281 11.7688 54.2147C11.9213 54.2881 12.0765 54.3667 12.2323 54.4574C12.4369 54.5761 12.6432 54.7081 12.8505 54.8587L13.1797 55.116C13.3307 55.2374 13.4771 55.3641 13.6219 55.4961L13.7552 55.6174C13.9391 55.7921 14.1188 55.976 14.2912 56.1667L14.3885 56.2841C14.5287 56.4401 14.6631 56.6041 14.7921 56.7721L14.9369 56.9627C15.0568 57.1227 15.1713 57.2894 15.2823 57.4561L15.3927 57.6187C15.5344 57.8414 15.6693 58.0667 15.7948 58.2947L15.8593 58.4201C15.9615 58.6107 16.0584 58.8054 16.1495 58.9987L16.2469 59.216C16.326 59.3974 16.4005 59.5761 16.4688 59.7574L16.5396 59.9454C16.626 60.1841 16.7052 60.4254 16.7708 60.6667L16.7969 60.7681C16.8521 60.9774 16.8995 61.1841 16.9396 61.3894L16.9781 61.6081C17.0079 61.7867 17.0307 61.9667 17.0479 62.1427L17.0677 62.3387C17.0776 62.4761 17.0803 62.6094 17.0812 62.7427L17.0855 62.9414C17.0812 63.1401 17.0697 63.3347 17.0464 63.5254L16.4349 68.6267C16.4161 68.7867 16.3745 68.9227 16.3369 69.0641L16.2693 69.316L16.1208 69.6267L16.0208 69.8174L15.7927 70.0881L15.6869 70.2107C15.5625 70.3241 15.4271 70.4241 15.2823 70.5081L19.2125 68.2241C19.3568 68.1401 19.4917 68.0401 19.6167 67.9267L19.724 67.8041L19.9505 67.5334L20.0479 67.3481L20.2 67.0334L20.2661 66.7827L20.3432 66.4921L20.3645 66.3427L20.9765 61.2414C20.9995 61.0507 21.0109 60.8574 21.0156 60.6574L21.012 60.4627Z"
    fill="#1F2631"
  />
<path
    d="M12.2322 54.4574C12.4369 54.5761 12.6432 54.7081 12.8505 54.8587C15.514 56.7814 17.3932 60.6627 17.0464 63.5254L16.4349 68.6267C16.0917 71.4907 12.7994 70.9787 11.2578 70.9241C9.29997 70.8441 7.29637 71.0041 5.7177 70.0921C4.78063 69.5507 3.99423 68.6347 3.45517 67.0641C2.28383 63.6587 5.9901 61.4027 6.77597 59.4441C7.0229 58.8227 7.39263 56.6787 7.41197 56.5654C7.72863 53.9241 9.8229 53.0667 12.2322 54.4574Z"
    fill="#17191C"
  />
<path
    d="M17.6344 52.4174C17.7115 52.2788 17.7792 52.1308 17.838 51.9721L17.8803 51.8681C17.9469 51.6748 17.9973 51.4628 18.036 51.2401L18.0489 51.1908L18.0677 50.9948C18.0812 50.8721 18.0959 50.7508 18.1021 50.6228L18.1063 50.3388C18.1063 50.2108 18.1057 50.0828 18.0964 49.9481L18.0937 49.8228C18.0833 49.6895 18.0683 49.5534 18.0495 49.4174C17.5735 45.9468 17.1276 42.5094 16.3265 38.9321L16.2693 38.7068C16.2235 38.5415 16.1672 38.3801 16.1099 38.2201L16.0755 38.1161C15.9875 37.8814 15.886 37.6561 15.776 37.4361L15.6771 37.2548C15.5921 37.0948 15.5027 36.9388 15.4084 36.7895L15.2771 36.5895C15.1765 36.4415 15.0724 36.2988 14.9636 36.1575L14.8459 36.0055C14.6969 35.8228 14.5407 35.6455 14.3781 35.4801L14.2959 35.3988C14.1579 35.2614 14.0177 35.1321 13.8729 35.0068L13.7088 34.8681L13.5303 34.7188L13.3255 34.5708L13.174 34.4614C12.9964 34.3388 12.8177 34.2201 12.6385 34.1188C12.476 34.0241 12.3131 33.9388 12.1505 33.8628L12.1251 33.8495L12.0573 33.8215C11.8953 33.7481 11.736 33.6828 11.5781 33.6268L11.4251 33.5748C11.2421 33.5161 11.062 33.4654 10.888 33.4294C10.0989 33.2774 9.29266 33.0588 8.48226 32.7748C8.34892 32.7281 8.21452 32.6881 8.08119 32.6535L7.94585 32.6241L7.67972 32.5708L7.63492 32.5614L7.56145 32.5548C7.43439 32.5388 7.31039 32.5281 7.18692 32.5254L7.07132 32.5201C6.92026 32.5201 6.77399 32.5281 6.63119 32.5468L6.55732 32.5614L6.20932 32.6428L6.10159 32.6761C5.97079 32.7228 5.84372 32.7761 5.72599 32.8441L1.79639 35.1281C1.91399 35.0601 2.04119 35.0081 2.17185 34.9588L2.27812 34.9255C2.39265 34.8908 2.50986 34.8641 2.63119 34.8441L2.69999 34.8295C2.84319 34.8121 2.99172 34.8041 3.14266 34.8041L3.25466 34.8095C3.37812 34.8121 3.50305 34.8215 3.63025 34.8375L3.75052 34.8535L4.02399 34.9095L4.14839 34.9361C4.28332 34.9721 4.41879 35.0108 4.55265 35.0575C5.36359 35.3428 6.16932 35.5615 6.95785 35.7148C7.13065 35.7481 7.31252 35.8001 7.49532 35.8588L7.64892 35.9121C7.80306 35.9668 7.96146 36.0294 8.11972 36.1014L8.22399 36.1468C8.38545 36.2241 8.54692 36.3081 8.70879 36.4014C8.88799 36.5041 9.06612 36.6215 9.24319 36.7441L9.39372 36.8548C9.52506 36.9481 9.65412 37.0495 9.78226 37.1561L9.94065 37.2881C10.0869 37.4161 10.2312 37.5481 10.3708 37.6895L10.4479 37.7641C10.6104 37.9295 10.7672 38.1068 10.9167 38.2908L11.0317 38.4401C11.1407 38.5801 11.2479 38.7241 11.3489 38.8748L11.4771 39.0721C11.5735 39.2228 11.664 39.3801 11.75 39.5401L11.8459 39.7174C11.9557 39.9388 12.0579 40.1668 12.1464 40.4014L12.1787 40.4975C12.2625 40.7321 12.3385 40.9694 12.3973 41.2161C13.1984 44.7921 13.6427 48.2308 14.1197 51.7014C14.1437 51.8828 14.1563 52.0574 14.1667 52.2321C14.1745 52.3641 14.1765 52.4948 14.1765 52.6215L14.1724 52.9068C14.1661 53.0361 14.1516 53.1588 14.1375 53.2828L14.1063 53.5228C14.0677 53.7441 14.0172 53.9561 13.95 54.1535L13.9093 54.2535C13.8505 54.4121 13.7817 54.5614 13.7041 54.7014L13.6084 54.8588L13.3677 55.1735L13.2579 55.2948C13.1297 55.4201 12.9932 55.5335 12.8432 55.6201L16.7729 53.3375C16.9235 53.2495 17.0593 53.1361 17.1875 53.0121L17.2969 52.8908L17.5375 52.5735L17.6344 52.4174Z"
    fill="#E9EFF4"
  />
<path
    d="M8.70878 36.4014C10.2969 37.3174 11.8729 39.0241 12.3973 41.2161C13.1984 44.7921 13.6426 48.2308 14.1197 51.7014C14.4994 54.4601 13.1792 56.3961 10.9693 55.7934C10.1724 55.5748 9.38024 55.3588 8.58331 55.1361C8.23904 55.0414 7.89371 54.8921 7.55211 54.6975C5.69531 53.6228 3.96251 51.1615 3.33278 48.7468C2.39784 45.1548 1.43171 41.5694 0.808375 38.0388C0.335975 35.0881 2.48637 34.3308 4.55264 35.0574C5.36357 35.3428 6.16931 35.5615 6.95784 35.7148C7.50517 35.8201 8.10878 36.0548 8.70878 36.4014Z"
    fill="#C1CFE0"
  />
<path
    d="M33.3557 86.2881L37.2854 84.0041L37.3666 84.0428L33.4354 86.3268L33.3557 86.2881Z"
    fill="#212835"
  />
<path
    d="M33.4355 86.3267L37.3667 84.0427C37.5547 84.1334 37.7443 84.196 37.9255 84.2227L33.9964 86.5067C33.8151 86.4787 33.6251 86.4174 33.4355 86.3267Z"
    fill="#1D232D"
  />
<path
    d="M33.9964 86.5067L37.9255 84.2227C38.1755 84.2587 38.4088 84.232 38.6047 84.12L34.6751 86.404C34.4792 86.516 34.2464 86.5427 33.9964 86.5067Z"
    fill="#1A1E24"
  />
<path
    d="M36.1745 84.5721L40.1041 82.2881C39.4807 82.6507 39.2297 83.7667 38.6046 84.1201L34.675 86.4041C35.3 86.0507 35.55 84.9347 36.1745 84.5721Z"
    fill="#9B9B9A"
  />
<path
    d="M36.1755 84.5562L40.1057 82.2722C40.2625 82.1815 40.4432 82.1415 40.6599 82.1722L36.7307 84.4548C36.5136 84.4242 36.3317 84.4655 36.1755 84.5562Z"
    fill="#1A1E24"
  />
<path
    d="M36.7307 84.4548L40.6599 82.1721C40.7817 82.1908 40.9151 82.2321 41.0625 82.3014L37.1328 84.5841C36.986 84.5148 36.8521 84.4748 36.7307 84.4548Z"
    fill="#1D232D"
  />
<path
    d="M37.1328 84.584L41.0625 82.3014L41.2323 82.3894L41.2703 82.412L37.3412 84.696L37.3021 84.6734L37.1328 84.584Z"
    fill="#212835"
  />
<path
    d="M37.1328 84.584L41.0625 82.3014L41.2323 82.3894L41.2703 82.412L37.3412 84.696L37.3021 84.6734L37.1328 84.584Z"
    fill="#212835"
  />
<path
    d="M47.9079 86.3708C47.8823 86.0508 47.8208 85.7201 47.7306 85.3881C47.3656 84.0695 46.5136 82.7454 45.474 81.9334C45.3073 81.8068 45.1349 81.6895 44.9588 81.5881L44.0375 81.0548L41.4932 82.5348L41.3437 82.4561L41.2702 82.4121L37.3412 84.6961L37.414 84.7401L37.7448 84.9135C38.0339 85.0495 38.2959 85.1294 38.5312 85.1654C38.9145 85.2241 39.2287 85.1601 39.4745 85.0188L41.2229 84.0028L41.5442 84.2174C42.5849 85.0294 43.4355 86.3521 43.8 87.6735C43.8917 88.0041 43.9527 88.3335 43.9787 88.6561L43.9921 89.0068C43.9912 89.2001 43.9771 89.3788 43.9489 89.5481C43.8453 90.2015 43.5489 90.6681 43.1245 90.9148L47.0546 88.6308C47.4792 88.3841 47.775 87.9175 47.8802 87.2628C47.9068 87.0948 47.9202 86.9175 47.9218 86.7228L47.9079 86.3708Z"
    fill="#E9EFF4"
  />
<path
    d="M41.0286 83.8694C42.6713 84.8174 43.9973 87.1161 43.9921 89.0068C43.9864 90.8934 42.6516 91.6561 41.0098 90.7068L33.3557 86.2881C33.8317 86.5334 34.3177 86.6081 34.675 86.4041C35.5869 85.8881 35.701 83.7508 37.3021 84.6734L37.3412 84.6961L37.414 84.7401C39.453 85.9174 40.3254 84.5308 40.1088 83.3401L41.0286 83.8694Z"
    fill="#C1CFE0"
  />
<path
    d="M40.0677 83.1654L43.9979 80.8814L44.0375 81.0548L40.1088 83.3401L40.0677 83.1654Z"
    fill="#E2E1DF"
  />
<path
    d="M32.7552 67.1655C33.8052 67.7708 34.7557 68.8081 35.4432 69.9988C36.1307 71.1881 36.5552 72.5308 36.5521 73.7428C36.5817 73.9641 37.1672 78.1735 39.8781 82.7135C39.9927 82.9095 40.0677 83.1215 40.1088 83.3401C40.3255 84.5308 39.4531 85.9175 37.414 84.7401L37.3412 84.6961C35.7011 83.7508 35.5869 85.8881 34.6751 86.4041C34.3177 86.6081 33.8317 86.5335 33.3557 86.2881L33.2323 86.2201L33.1115 86.1468C32.5511 85.7868 32.0224 85.2055 31.7297 84.5655C30.7729 82.4681 30.1047 80.5708 29.6464 78.8561C28.5396 74.7188 28.6588 71.6388 28.9339 69.3428C29.2031 67.0975 30.6505 65.9508 32.7552 67.1655Z"
    fill="#17191C"
  />
<path
    d="M44.0375 81.0548L43.9921 80.8841L43.9979 80.8814L43.9787 80.8347C43.936 80.6947 43.8833 80.5574 43.8073 80.4294C43.6292 80.1321 43.4609 79.8334 43.2995 79.5374L43.1385 79.2294C43.0375 79.0374 42.9375 78.8468 42.8437 78.6588L42.6745 78.3041C42.5932 78.1374 42.5131 77.9681 42.4375 77.8014C42.3828 77.6801 42.3307 77.5614 42.2787 77.4401C42.2093 77.2828 42.1417 77.1254 42.0787 76.9708L41.936 76.6161C41.876 76.4654 41.8177 76.3174 41.7625 76.1694L41.6396 75.8347C41.5864 75.6907 41.5369 75.5494 41.4891 75.4094L41.3833 75.0961C41.338 74.9588 41.2948 74.8254 41.2547 74.6948L41.1661 74.4081C41.1271 74.2788 41.0921 74.1561 41.0579 74.0347L40.9823 73.7694L40.9369 73.5974L40.8469 73.2521L40.8041 73.0761L40.7369 72.7908L40.6989 72.6241L40.6489 72.3881L40.6203 72.2468L40.5812 72.0481L40.5604 71.9374L40.5312 71.7708L40.5193 71.7014L40.4969 71.5588L40.4943 71.5414L40.4817 71.4574C40.4817 71.3094 40.4765 71.1601 40.4636 71.0081C40.4317 70.5988 40.3536 70.1788 40.238 69.7574C40.0473 69.0614 39.7495 68.3668 39.3729 67.7148C38.8333 66.7788 38.1312 65.9388 37.3459 65.3294C37.1323 65.1614 36.9109 65.0121 36.6849 64.8814L36.3401 64.7014L36.3251 64.6948C36.1823 64.6294 36.0427 64.5734 35.9063 64.5294L35.8 64.5001L35.4995 64.4281L35.4391 64.4148L35.3708 64.4121L35.1615 64.3948L35.0303 64.3921L34.8307 64.4121L34.7115 64.4268L34.5088 64.4801L34.4167 64.5094L34.1432 64.6388L30.214 66.9214L30.4869 66.7948L30.5812 66.7641L30.7823 66.7108L30.9011 66.6961L31.1005 66.6761L31.2317 66.6774L31.4396 66.6934L31.5708 66.7121L31.8745 66.7841L31.9735 66.8121C32.1125 66.8574 32.2557 66.9121 32.4027 66.9801L32.7552 67.1654C32.9797 67.2961 33.2021 67.4468 33.4167 67.6134C34.2011 68.2228 34.9036 69.0641 35.4432 69.9987C35.8197 70.6481 36.1172 71.3454 36.3084 72.0414C36.4251 72.4628 36.5016 72.8814 36.5339 73.2921C36.5469 73.4428 36.5527 73.5921 36.5521 73.7428L36.5631 73.8214L36.5693 73.8534L36.5901 73.9854L36.6021 74.0588L36.6303 74.2174L36.6531 74.3388L36.6891 74.5268L36.7213 74.6801L36.7677 74.8961L36.8099 75.0894L36.8667 75.3268L36.9224 75.5534L36.9896 75.8174L37.0579 76.0734L37.0693 76.1148L37.1099 76.2574C37.1511 76.4028 37.1932 76.5481 37.2396 76.7041L37.3177 76.9548C37.3615 77.0961 37.4068 77.2401 37.4563 77.3894L37.5547 77.6801C37.6047 77.8268 37.6568 77.9748 37.7125 78.1281L37.8303 78.4454C37.8875 78.5974 37.9479 78.7521 38.0099 78.9094L38.1459 79.2481C38.2125 79.4094 38.2823 79.5707 38.3541 79.7347L38.5057 80.0801C38.5839 80.2534 38.6672 80.4281 38.7527 80.6028L38.9131 80.9388C39.0084 81.1348 39.1136 81.3308 39.2167 81.5294L39.3693 81.8187C39.5307 82.1147 39.6984 82.4148 39.8781 82.7134C39.9541 82.8428 40.0068 82.9788 40.0489 83.1201L40.1088 83.3401L44.0375 81.0548Z"
    fill="#1F2631"
  />
<path
    d="M30.6427 51.2001L34.5724 48.9148C35.364 48.4561 36.5584 48.7241 37.7292 49.4001L33.799 51.6854C32.6298 51.0094 31.4339 50.7388 30.6427 51.2001Z"
    fill="#E9EFF4"
  />
<mask
    id="mask10_0_1"
    style="mask-type:luminance"
    maskUnits="userSpaceOnUse"
    x="30"
    y="48"
    width="8"
    height="4"
  >
<path
      d="M30.6427 51.1988L34.5724 48.9148C35.364 48.4561 36.5584 48.7241 37.7292 49.4001L33.799 51.6854C32.6298 51.0094 31.4339 50.7388 30.6427 51.1988Z"
      fill="white"
    />
</mask>
<g mask="url(#mask10_0_1)">
<path
      d="M30.6427 51.2001L34.5724 48.9148C34.95 48.6961 35.4198 48.6427 35.9339 48.7187L32.0052 51.0027C31.4902 50.9254 31.0203 50.9787 30.6427 51.2001Z"
      fill="#E9EFF4"
    />
<path
      d="M32.0052 51.0028L35.9339 48.7188C36.3418 48.7815 36.7766 48.9255 37.2167 49.1335L33.287 51.4175C32.8464 51.2081 32.4115 51.0655 32.0052 51.0028Z"
      fill="#E9EFF4"
    />
<path
      d="M33.287 51.4174L37.2167 49.1334C37.3875 49.2121 37.5585 49.3028 37.7293 49.4001L33.799 51.6854C33.6293 51.5868 33.4579 51.4961 33.287 51.4174Z"
      fill="#E9EFF4"
    />
</g>
<path
    d="M42.5323 69.4401L38.6027 71.7255C39.1792 71.3908 39.6093 70.7975 39.8183 69.9841C40.5183 67.2441 41.2375 64.5401 41.6172 61.5361L45.5464 59.2548C45.1672 62.2561 44.4469 64.9588 43.7479 67.7015C43.5407 68.5135 43.1088 69.1055 42.5323 69.4401Z"
    fill="#E9EFF4"
  />
<mask
    id="mask11_0_1"
    style="mask-type:luminance"
    maskUnits="userSpaceOnUse"
    x="38"
    y="59"
    width="8"
    height="13"
  >
<path
      d="M42.5328 69.4401L38.6027 71.7255C39.1792 71.3908 39.6093 70.7975 39.8183 69.9841C40.5183 67.2441 41.2375 64.5401 41.6172 61.5361L45.5464 59.2548C45.1672 62.2561 44.4469 64.9588 43.7479 67.7001C43.5407 68.5135 43.1088 69.1055 42.5328 69.4401Z"
      fill="white"
    />
</mask>
<g mask="url(#mask11_0_1)">
<path
      d="M41.6172 61.5362L45.5464 59.2548C45.4912 59.6868 45.4297 60.1122 45.3625 60.5348L41.4317 62.8175C41.5 62.3975 41.562 61.9695 41.6172 61.5362Z"
      fill="#E9EFF4"
    />
<path
      d="M41.4317 62.8175L45.3625 60.5348C44.9609 63.0361 44.3469 65.3548 43.7479 67.7015C43.5407 68.5135 43.1088 69.1055 42.5323 69.4401L38.6027 71.7255C39.1792 71.3908 39.6093 70.7975 39.8183 69.9841C40.4167 67.6388 41.0312 65.3201 41.4317 62.8175Z"
      fill="#E9EFF4"
    />
</g>
<path
    d="M33.799 51.6855L37.7292 49.4001C38.1536 49.6455 38.5746 49.9415 38.9698 50.2788C39.7803 50.9561 40.5984 51.5881 41.4265 52.1628C43.5161 53.6001 45.812 56.6828 45.5464 59.2548L41.6172 61.5361C41.8823 58.9668 39.5864 55.8841 37.4969 54.4468C36.6688 53.8708 35.8505 53.2401 35.0407 52.5641C34.6432 52.2268 34.2235 51.9281 33.799 51.6855Z"
    fill="#E9EFF4"
  />
<mask
    id="mask12_0_1"
    style="mask-type:luminance"
    maskUnits="userSpaceOnUse"
    x="33"
    y="49"
    width="13"
    height="13"
  >
<path
      d="M33.799 51.6855L37.7292 49.4001C38.1536 49.6455 38.574 49.9415 38.9703 50.2788C39.7803 50.9561 40.5984 51.5868 41.4265 52.1628C43.5161 53.6001 45.812 56.6828 45.5464 59.2548L41.6172 61.5361C41.8823 58.9668 39.5864 55.8841 37.4969 54.4468C36.6688 53.8708 35.8505 53.2401 35.0407 52.5641C34.6432 52.2268 34.2235 51.9281 33.799 51.6855Z"
      fill="white"
    />
</mask>
<g mask="url(#mask12_0_1)">
<path
      d="M33.799 51.6855L37.7292 49.4001C38.0521 49.5881 38.374 49.8068 38.6844 50.0455L34.7547 52.3295C34.4432 52.0895 34.1224 51.8721 33.799 51.6855Z"
      fill="#E9EFF4"
    />
<path
      d="M34.7547 52.3295L38.6844 50.0455L38.9698 50.2788C39.3208 50.5721 39.6735 50.8575 40.026 51.1308L36.0964 53.4161C35.7427 53.1415 35.3907 52.8562 35.0407 52.5642L34.7547 52.3295Z"
      fill="#E9EFF4"
    />
<path
      d="M36.0964 53.4161L40.026 51.1308C40.4896 51.4921 40.9558 51.8361 41.4266 52.1628C41.5594 52.2561 41.6938 52.3535 41.8298 52.4588L37.899 54.7428C37.764 54.6388 37.6298 54.5388 37.497 54.4468C37.0266 54.1215 36.5599 53.7748 36.0964 53.4161Z"
      fill="#E9EFF4"
    />
<path
      d="M37.8989 54.7427L41.8297 52.4587C43.3276 53.6241 44.8391 55.5521 45.3693 57.4694L41.4396 59.7521C40.9088 57.8374 39.3979 55.9081 37.8989 54.7427Z"
      fill="#E9EFF4"
    />
<path
      d="M41.4396 59.7522L45.3694 57.4695C45.4631 57.8082 45.5266 58.1469 45.5531 58.4815L41.624 60.7668C41.5964 60.4308 41.5339 60.0908 41.4396 59.7522Z"
      fill="#E9EFF4"
    />
<path
      d="M41.624 60.7668L45.5531 58.4815C45.5735 58.7428 45.573 59.0001 45.5464 59.2548L41.6172 61.5361C41.6427 61.2841 41.6438 61.0268 41.624 60.7668Z"
      fill="#E9EFF4"
    />
</g>
<path
    d="M33.799 51.6854C34.2235 51.9281 34.6432 52.2268 35.0407 52.5641C35.8506 53.2401 36.6688 53.8708 37.497 54.4468C39.5864 55.8841 41.8823 58.9668 41.6172 61.5361C41.2375 64.5401 40.5183 67.2441 39.8183 69.9841C39.3146 71.9494 37.5109 72.6334 35.5047 71.4748C35.2869 71.3481 35.0672 71.2014 34.8459 71.0321C34.0364 70.4108 33.2282 69.7948 32.4183 69.1734C30.162 67.4414 28.6438 64.0254 28.8251 61.5574C29.0563 58.4601 29.2527 55.3521 29.8084 52.4868C30.2266 50.5694 32.0407 50.6681 33.799 51.6854Z"
    fill="#C1CFE0"
  />
<path
    d="M76.1114 44.3747L76.126 44.1894L76.1287 44.1574C76.1367 44.0094 76.1474 43.8107 76.1527 43.5801L76.1593 43.4401L76.1567 43.3774C76.1633 42.8147 76.1327 42.0854 75.982 41.2734C75.9473 41.0867 75.91 40.9054 75.8687 40.7347L75.794 40.4374C75.734 40.2041 75.6713 39.9827 75.6073 39.7854V39.7801L75.5874 39.7254C75.3807 39.0921 75.174 38.6481 75.0647 38.4347C75.002 38.3134 74.9487 38.2107 74.8993 38.1134L74.8153 37.9574C74.6393 37.6241 74.498 37.3921 74.2115 36.9787L74.2058 36.9707L74.1312 36.8681L73.9161 36.5841L73.7807 36.4054C73.6088 36.1921 73.4355 35.9974 73.264 35.8147L73.1803 35.7214C72.9188 35.4387 72.5412 35.0881 72.2375 34.8494L72.1364 34.7734C71.6088 34.3561 71.1531 34.0747 70.8604 33.896C66.7093 31.484 62.5593 29.072 58.4088 26.6587C57.7188 26.2774 57.188 26.0347 56.6746 25.8507L56.4984 25.7907L56.3625 25.7454C56.1364 25.6747 55.9057 25.6081 55.7088 25.5561C55.5287 25.5107 55.3536 25.4721 55.1817 25.4387C54.9527 25.3881 54.6901 25.3481 54.4307 25.3134L54.3584 25.3067L54.1396 25.2827C53.5921 25.2294 53.1432 25.2267 52.8558 25.2347L52.5677 25.2534L52.3194 25.26C51.7339 25.284 50.5307 25.5001 49.7948 25.7547C49.6047 25.8201 49.4297 25.8814 49.2599 25.9441L49.1375 25.9894C48.7036 26.1547 48.2959 26.3374 47.7812 26.6254L47.7558 26.6401C47.5995 26.7267 47.4287 26.8294 47.2469 26.9414L47.0973 27.0294L47.024 27.0774L46.9751 27.1067L46.7307 27.2734C46.5 27.4321 46.2896 27.5907 46.1229 27.724L46.0943 27.7454L45.8746 27.924L45.8604 27.9374L45.8229 27.9694L45.5995 28.1654C45.4511 28.2961 45.3235 28.4121 45.1927 28.5387L45.0703 28.66L45.0568 28.6747C44.9271 28.8054 44.7807 28.9587 44.6016 29.1547L44.4656 29.3041L44.4448 29.328C44.3093 29.4787 44.1172 29.7067 43.8902 30.0121L43.6979 30.2721L43.5521 30.4841L43.5156 30.5374C43.1746 31.0374 43.0984 31.1747 42.7672 31.7721L42.7631 31.7774L42.6787 31.9361L42.5839 32.124L42.5703 32.1507L42.4552 32.3947L42.4251 32.4587L42.3198 32.6987L42.2558 32.8481L42.1746 33.0481L42.0954 33.2534L42.0177 33.4627L41.9438 33.6667L41.8407 33.9841L41.8 34.1107C41.7522 34.2694 41.7052 34.4294 41.662 34.5907L41.6584 34.6081L41.6568 34.6147L41.6511 34.6387C41.5943 34.8587 41.5479 35.0681 41.5079 35.2721L41.4839 35.3921C41.438 35.6347 41.4006 35.8667 41.3724 36.0774L41.3703 36.0881L41.3656 36.1334C41.2839 36.7734 41.2735 37.2574 41.2694 37.5014C41.2683 37.6934 41.274 37.9214 41.2839 38.1667C41.297 38.5787 41.3156 38.7627 41.3776 39.2441L41.4115 39.4534L41.4563 39.7027C41.4839 39.8494 41.5151 39.9961 41.5479 40.1427L41.6063 40.4187L41.662 40.6201L41.6927 40.7414C41.7844 41.0974 41.949 41.5601 42.0912 41.8974L42.1188 41.9574C42.3203 42.4414 42.5307 42.8387 42.736 43.2081C43.086 43.8361 43.7479 44.7214 44.2469 45.2201C44.7651 45.7387 45.1454 46.0801 45.6068 46.4147C45.8855 46.6174 46.1896 46.8147 46.5646 47.0427C50.7146 49.4547 54.8651 51.8667 59.0161 54.2774C59.1292 54.3374 59.2522 54.4027 59.3798 54.4707C59.6104 54.5907 59.8255 54.6987 60.0235 54.7894L60.2161 54.8747C60.6473 55.0627 60.9984 55.1841 61.2473 55.2534L61.4161 55.2974C61.8317 55.4161 62.1505 55.4827 62.3995 55.5334C62.5177 55.556 62.6495 55.5747 62.7855 55.5947L62.8443 55.6041C63.2427 55.6654 63.7803 55.7067 64.1844 55.7067H64.3063H64.4506C64.6246 55.7107 64.8229 55.7014 65.024 55.6841L65.1041 55.6774H65.114C65.3573 55.6587 65.5864 55.6361 65.8084 55.6041C66.1172 55.5707 66.5984 55.4774 67.1312 55.332L67.2328 55.3081C67.3964 55.2641 67.6068 55.2001 67.8369 55.1187C68.1197 55.0241 68.4027 54.916 68.6667 54.7987C69.3864 54.4774 69.6527 54.3281 70.1588 54.0174L70.4541 53.8294C70.5703 53.7561 70.6979 53.6667 70.8369 53.5667L70.974 53.4707C71.2005 53.3041 71.4188 53.1334 71.5541 53.0147C71.7516 52.8414 71.9219 52.6934 72.0912 52.5347L72.1229 52.5041C72.2833 52.3547 72.45 52.1921 72.6323 51.9961L72.7531 51.8654L72.9609 51.6387L73.0531 51.5281L73.2855 51.2521L73.4265 51.0707C73.5683 50.8881 73.7036 50.7041 73.8328 50.5187L74.0194 50.2454L74.064 50.1814C74.1755 50.0054 74.2771 49.8347 74.3746 49.6707C74.466 49.5147 74.5553 49.3587 74.642 49.1947C74.7407 49.0134 74.8273 48.8441 74.9047 48.6854L74.9487 48.5947C75.178 48.1174 75.3207 47.7467 75.402 47.5134C75.4553 47.3587 75.4993 47.2267 75.538 47.1041L75.5927 46.9494L75.6167 46.8641C75.7647 46.3907 75.8234 46.1214 75.9287 45.6347C75.9594 45.4974 75.9873 45.3347 76.0127 45.1641L76.0167 45.1374C76.058 44.8681 76.0914 44.5907 76.1114 44.3747Z"
    fill="#E9EFF4"
  />
<path
    d="M64.3094 46.8908C69.9522 48.0188 73.764 45.2881 75.9714 41.2201C75.9394 41.0535 75.9047 40.8881 75.8687 40.7348L75.794 40.4375C75.734 40.2041 75.6714 39.9828 75.6074 39.7855V39.7801L75.5874 39.7255C75.3807 39.0921 75.174 38.6481 75.0647 38.4348C75.002 38.3135 74.9487 38.2108 74.8994 38.1135L74.8154 37.9575C74.6394 37.6241 74.498 37.3921 74.2115 36.9788L74.2058 36.9708L74.1312 36.8681L73.9162 36.5841L73.7807 36.4055C73.6088 36.1921 73.4355 35.9975 73.264 35.8148L73.1803 35.7215C72.9188 35.4388 72.5412 35.0881 72.2375 34.8495L72.1364 34.7735C71.6088 34.3561 71.1531 34.0748 70.8604 33.8961C66.7094 31.4841 62.5594 29.0721 58.4088 26.6588C57.7188 26.2775 57.188 26.0348 56.6746 25.8508L56.4984 25.7908L56.3626 25.7455C56.1364 25.6748 55.9058 25.6081 55.7088 25.5561C55.5287 25.5108 55.3536 25.4721 55.1818 25.4388C54.9527 25.3881 54.6902 25.3481 54.4307 25.3135L54.3584 25.3068L54.1396 25.2828C53.5922 25.2295 53.1432 25.2268 52.8558 25.2348L52.5678 25.2535L52.3194 25.2601C51.7339 25.2841 50.5307 25.5001 49.7948 25.7548C49.6047 25.8201 49.4298 25.8815 49.2599 25.9441L49.1375 25.9895C48.7036 26.1548 48.2959 26.3375 47.7812 26.6255L47.7558 26.6401C47.5995 26.7268 47.4287 26.8295 47.247 26.9415L47.0974 27.0295L47.024 27.0775L46.9751 27.1068L46.7307 27.2735C46.5 27.4321 46.2896 27.5908 46.123 27.7241L46.0943 27.7455L45.8746 27.9241L45.8604 27.9375L45.823 27.9695L45.5995 28.1655C45.4511 28.2961 45.3235 28.4121 45.1927 28.5388L45.0703 28.6601L45.0568 28.6748C44.9271 28.8055 44.7807 28.9588 44.6016 29.1548L44.4656 29.3041L44.4448 29.3281C44.3094 29.4788 44.1172 29.7068 43.8902 30.0121L43.6979 30.2721L43.5522 30.4841L43.5156 30.5375C43.1746 31.0375 43.0984 31.1748 42.7672 31.7721L42.7631 31.7775L42.6787 31.9361L42.585 32.1215C52.0594 31.1721 57.3402 45.4961 64.3094 46.8908Z"
    fill="#17191C"
  />
<path
    d="M43.7323 45.3321L42.7495 45.9042C41.988 46.3468 41.5213 47.2575 41.5183 48.5508C41.5104 51.2775 43.55 54.6682 46.0745 56.1255L47.0568 55.5548C44.5339 54.0975 42.4927 50.7055 42.5 47.9802C42.5047 46.6868 42.9719 45.7761 43.7323 45.3321Z"
    fill="#1F2631"
  />
<mask
    id="mask13_0_1"
    style="mask-type:luminance"
    maskUnits="userSpaceOnUse"
    x="41"
    y="45"
    width="7"
    height="12"
  >
<path
      d="M43.7323 45.3321L42.7495 45.9042C41.988 46.3468 41.5213 47.2575 41.5183 48.5508C41.5104 51.2775 43.5505 54.6682 46.074 56.1255L47.0568 55.5548C44.5339 54.0975 42.4927 50.7055 42.5 47.9802C42.5047 46.6868 42.9719 45.7761 43.7323 45.3321Z"
      fill="white"
    />
</mask>
<g mask="url(#mask13_0_1)">
<path
      d="M46.0745 56.1255L47.0568 55.5548C46.2093 55.0655 45.4166 54.3588 44.7369 53.5308L43.7546 54.1015C44.4338 54.9281 45.227 55.6362 46.0745 56.1255Z"
      fill="#1F2631"
    />
<path
      d="M43.7547 54.1014L44.7369 53.5308C44.1303 52.7935 43.6145 51.9588 43.2317 51.1001L42.2495 51.6708C42.6328 52.5308 43.1479 53.3641 43.7547 54.1014Z"
      fill="#1F2631"
    />
<path
      d="M42.2495 51.6708L43.2317 51.1001C42.7672 50.0548 42.4973 48.9748 42.5 47.9801C42.5047 46.6868 42.9719 45.7761 43.7323 45.3321L42.7495 45.9041C41.988 46.3468 41.5213 47.2574 41.5183 48.5508C41.5151 49.5441 41.7839 50.6281 42.2495 51.6708Z"
      fill="#1F2631"
    />
</g>
<path
    d="M49.4303 56.4841L50.4131 55.9148C49.5745 56.4015 48.3803 56.3188 47.0568 55.5548L46.0745 56.1255C47.3984 56.8895 48.5917 56.9721 49.4303 56.4841Z"
    fill="#1F2631"
  />
<mask
    id="mask14_0_1"
    style="mask-type:luminance"
    maskUnits="userSpaceOnUse"
    x="46"
    y="55"
    width="5"
    height="2"
  >
<path
      d="M49.4302 56.4841L50.413 55.9148C49.574 56.4015 48.3802 56.3188 47.0568 55.5548L46.074 56.1255C47.3984 56.8895 48.5917 56.9721 49.4302 56.4841Z"
      fill="white"
    />
</mask>
<g mask="url(#mask14_0_1)">
<path
      d="M49.4303 56.4841L50.4131 55.9148L50.3339 55.9587L49.3511 56.5294L49.4303 56.4841Z"
      fill="#1F2631"
    />
<path
      d="M49.3511 56.5294L50.3339 55.9588C49.836 56.2188 49.2208 56.2881 48.5317 56.1441L47.55 56.7148C48.238 56.8588 48.8527 56.7894 49.3511 56.5294Z"
      fill="#1F2631"
    />
<path
      d="M47.55 56.7148L48.5317 56.1442C48.0683 56.0482 47.5729 55.8535 47.0568 55.5548L46.0745 56.1255C46.5901 56.4242 47.0864 56.6162 47.55 56.7148Z"
      fill="#1F2631"
    />
</g>
<path
    d="M44.0698 35.4707C43.7418 35.66 43.4136 35.8507 43.0864 36.04C43.9974 35.5107 45.0334 35.4787 46.1303 36.1107L47.1136 35.54C46.0156 34.908 44.9798 34.94 44.0698 35.4707Z"
    fill="#1F2631"
  />
<mask
    id="mask15_0_1"
    style="mask-type:luminance"
    maskUnits="userSpaceOnUse"
    x="43"
    y="35"
    width="5"
    height="2"
  >
<path
      d="M44.0698 35.4707C43.7418 35.66 43.4136 35.8507 43.0864 36.04C43.9974 35.5107 45.0334 35.4774 46.1303 36.1107L47.1136 35.54C46.0156 34.908 44.9798 34.94 44.0698 35.4707Z"
      fill="white"
    />
</mask>
<g mask="url(#mask15_0_1)">
<path
      d="M46.1303 36.1107L47.1136 35.54C46.7584 35.336 46.4115 35.2014 46.0713 35.1307L45.0901 35.7014C45.4287 35.7734 45.7765 35.9067 46.1303 36.1107Z"
      fill="#1F2631"
    />
<path
      d="M45.0901 35.7014L46.0713 35.1307C45.4057 34.9881 44.7713 35.0934 44.1875 35.4041L43.2052 35.9747C43.7891 35.6654 44.4235 35.5614 45.0901 35.7014Z"
      fill="#1F2631"
    />
<path
      d="M43.2052 35.9747L44.1875 35.404L44.0698 35.4707L43.0864 36.04L43.2052 35.9747Z"
      fill="#1F2631"
    />
</g>
<path
    d="M50.7579 58.3281C51.0849 58.1375 51.412 57.9468 51.7396 57.7561C52.886 57.0908 53.5959 55.4148 53.6041 52.3481C53.6224 46.1055 50.7182 37.6215 47.1136 35.5401L46.1302 36.1108C49.7349 38.1935 52.6401 46.6761 52.6224 52.9188C52.6125 55.9841 51.9031 57.6615 50.7579 58.3281Z"
    fill="#1F2631"
  />
<mask
    id="mask16_0_1"
    style="mask-type:luminance"
    maskUnits="userSpaceOnUse"
    x="46"
    y="35"
    width="8"
    height="24"
  >
<path
      d="M50.7579 58.3281C51.0849 58.1375 51.412 57.9468 51.7396 57.7561C52.886 57.0895 53.5959 55.4148 53.6041 52.3481C53.6224 46.1055 50.7182 37.6215 47.1136 35.5401L46.1302 36.1108C49.7349 38.1935 52.6401 46.6761 52.6224 52.9188C52.6125 55.9841 51.9031 57.6615 50.7579 58.3281Z"
      fill="white"
    />
</mask>
<g mask="url(#mask16_0_1)">
<path
      d="M50.7579 58.3281L51.7396 57.7561C52.886 57.0908 53.5959 55.4148 53.6041 52.3481C53.6145 48.7081 52.6323 44.3068 51.0953 40.8575L50.1136 41.4268C51.6484 44.8788 52.6323 49.2788 52.6224 52.9188C52.6125 55.9841 51.9031 57.6615 50.7579 58.3281Z"
      fill="#1F2631"
    />
<path
      d="M50.1136 41.4268L51.0953 40.8574C50.4473 39.4001 49.7 38.1134 48.8874 37.1254L47.9041 37.6961C48.7177 38.6841 49.4645 39.9708 50.1136 41.4268Z"
      fill="#1F2631"
    />
<path
      d="M47.9041 37.6962L48.8875 37.1255C48.3245 36.4375 47.7286 35.8962 47.1136 35.5402L46.1302 36.1108C46.7469 36.4682 47.3417 37.0082 47.9041 37.6962Z"
      fill="#1F2631"
    />
</g>
<path
    d="M46.0745 56.1255C48.6021 57.5855 50.6557 56.5588 50.662 53.8321C50.6703 51.1135 48.6297 47.7202 46.1016 46.2615C43.5797 44.8055 41.5255 45.8321 41.5183 48.5508C41.5104 51.2775 43.55 54.6682 46.0745 56.1255ZM52.6224 52.9188C52.6041 59.1695 49.674 59.6442 46.0697 57.5628C42.4656 55.4815 39.5521 51.6335 39.5703 45.3841C39.5885 39.1415 42.5265 34.0308 46.1303 36.1108C49.7349 38.1935 52.6401 46.6761 52.6224 52.9188Z"
    fill="#17191C"
  />
<defs>
<radialGradient
      id="paint0_radial_0_1"
      cx="0"
      cy="0"
      r="1"
      gradientUnits="userSpaceOnUse"
      gradientTransform="translate(285.142 17.0975) rotate(180) scale(378.897 378.897)"
    >
<stop stop-color="#A5A0D7" />
<stop offset="1" stop-color="#928DCE" />
</radialGradient>
</defs>
</svg>
