<svg
  width="81"
  height="81"
  viewBox="0 0 81 81"
  fill="none"
  xmlns="http://www.w3.org/2000/svg"
>
<path
    d="M32.7419 44.728L36.7566 42.3947L37.9419 43.08L33.9273 45.412L32.7419 44.728Z"
    fill="#202734"
  />
<path
    d="M33.9273 45.412L37.942 43.08L38.1086 43.168L34.094 45.5L33.9273 45.412Z"
    fill="#212835"
  />
<path
    d="M34.0939 45.5001L38.1086 43.1681C38.2539 43.2374 38.3873 43.2774 38.5073 43.2974L34.4939 45.6294C34.3726 45.6121 34.2406 45.5694 34.0939 45.5001Z"
    fill="#1D232D"
  />
<path
    d="M34.494 45.6294L38.5073 43.2974C38.7073 43.3267 38.8779 43.2908 39.0259 43.2068L35.0113 45.5374C34.8646 45.6241 34.6926 45.6587 34.494 45.6294Z"
    fill="#1A1E24"
  />
<path
    d="M37.73 40.288L41.7446 37.9547C41.1753 38.2854 40.6686 38.8627 40.37 39.8293C39.9406 41.2147 39.7339 42.792 39.0259 43.2067L35.0113 45.5374C35.722 45.1254 35.9273 43.5467 36.3553 42.1613C36.6566 41.1933 37.162 40.6174 37.73 40.288Z"
    fill="#9B9B9A"
  />
<path
    d="M40.846 40.1334L44.8593 37.8014L45.142 38.0108L41.1286 40.3428L40.846 40.1334Z"
    fill="#212835"
  />
<path
    d="M48.2353 45.916L48.27 45.8293C48.3273 45.664 48.37 45.4853 48.4033 45.2947L48.4153 45.2427L48.422 45.1653C48.4513 44.96 48.4713 44.7427 48.4726 44.508C48.474 44.3547 48.4673 44.1947 48.4553 44.036L48.4127 43.7174L48.386 43.508C48.342 43.2454 48.2886 42.98 48.2166 42.712L48.202 42.6734L48.1633 42.5467C48.0913 42.3053 48.0046 42.0627 47.9113 41.824L47.8127 41.5854C47.7113 41.348 47.6006 41.1133 47.478 40.8827L47.4153 40.7613C47.2713 40.4947 47.1126 40.2387 46.9446 39.988L46.8033 39.7894C46.6673 39.596 46.5273 39.412 46.378 39.2347L46.226 39.0507C46.0353 38.8294 45.834 38.6187 45.6247 38.4254L45.5047 38.3227C45.386 38.216 45.266 38.1054 45.142 38.0107L45.13 38.0187L44.8593 37.8014L44.8526 37.8067L40.846 40.1334C41.0673 40.2894 41.282 40.4667 41.494 40.6534L41.6113 40.7574C41.8206 40.952 42.0207 41.1627 42.2153 41.384L42.362 41.5613C42.5113 41.744 42.6567 41.9307 42.794 42.1267L42.93 42.32C43.0993 42.5707 43.258 42.828 43.402 43.0947L43.4593 43.208C43.5833 43.4414 43.6966 43.68 43.798 43.9214L43.894 44.156C43.9887 44.3934 44.074 44.6334 44.146 44.8734L44.19 45.008C44.2686 45.2867 44.326 45.5627 44.37 45.8387L44.3967 46.0547C44.434 46.32 44.4607 46.5867 44.458 46.8427C44.458 47.0774 44.4366 47.292 44.406 47.5014L44.39 47.6254C44.3566 47.8174 44.3126 47.996 44.2566 48.1627L44.222 48.248C44.1673 48.396 44.102 48.5373 44.026 48.664L43.9926 48.728C43.9046 48.864 43.81 48.9854 43.706 49.0934L43.6366 49.1587C43.5273 49.2627 43.41 49.3587 43.2793 49.4333L43.2806 49.4307V49.4333L47.2953 47.1C47.4246 47.0253 47.5393 46.9307 47.6513 46.8267L47.7206 46.76C47.8233 46.652 47.9193 46.532 48.0047 46.396L48.0407 46.3293C48.1153 46.204 48.1793 46.064 48.2353 45.916Z"
    fill="#1F2631"
  />
<path
    d="M33.9713 29.3788C37.4566 31.3921 40.338 35.9974 40.846 40.1348C40.7873 40.1148 37.3766 38.8694 36.3553 42.1614C35.7633 44.0814 35.5939 46.3748 33.9273 45.4121L32.7419 44.7281L29.1219 42.6388C25.2686 40.4134 22.1566 35.0241 22.1686 30.5948C22.1819 26.1721 25.3126 24.3814 29.1659 26.6068L33.9713 29.3788Z"
    fill="#C1CFE0"
  />
<path
    d="M40.846 40.1334C42.8793 41.5454 44.466 44.4414 44.458 46.8427C44.45 49.4094 42.6326 50.4374 40.4059 49.1534L32.7419 44.7281L33.9273 45.4121C35.594 46.3747 35.7633 44.0814 36.3553 42.1614C37.3766 38.8694 40.7873 40.1147 40.846 40.1334Z"
    fill="#181B1F"
  />
<path
    d="M44.4953 35.9801C43.6406 32.8788 41.6393 29.7681 39.1953 27.8668C38.8046 27.5614 38.4006 27.2854 37.9859 27.0468L33.1793 24.2734L29.166 26.6068L33.9713 29.3788C34.3873 29.6188 34.7886 29.8934 35.182 30.2001C37.6246 32.1028 39.626 35.2121 40.482 38.3121C40.6473 38.9241 40.774 39.5334 40.846 40.1348L44.8592 37.8014C44.7872 37.2014 44.6619 36.5921 44.4953 35.9801Z"
    fill="white"
  />
<path
    d="M32.5327 23.9333C31.91 23.64 31.3127 23.4547 30.7473 23.372C29.7873 23.2267 28.9273 23.376 28.2167 23.7893L24.2033 26.1214C24.9126 25.708 25.7753 25.56 26.7327 25.704C27.2993 25.788 27.8953 25.9747 28.518 26.264C28.7313 26.3667 28.9487 26.48 29.166 26.6067L33.1794 24.2734C32.962 24.148 32.746 24.0333 32.5327 23.9333Z"
    fill="white"
  />
<path
    d="M61.5673 62.6227L65.5726 60.2974L65.6553 60.3374L61.6499 62.6627L61.5673 62.6227Z"
    fill="#212835"
  />
<path
    d="M61.65 62.6627L65.6553 60.3373C65.846 60.4293 66.0393 60.4893 66.2246 60.5187L62.222 62.8453C62.0366 62.8173 61.8433 62.7547 61.65 62.6627Z"
    fill="#1D232D"
  />
<path
    d="M62.222 62.8454L66.2247 60.5187C66.478 60.556 66.7166 60.528 66.9166 60.416L62.9113 62.7427C62.7126 62.8547 62.4767 62.8827 62.222 62.8454Z"
    fill="#1A1E24"
  />
<path
    d="M64.442 60.8748L68.4446 58.5468C67.8073 58.9175 67.5553 60.0548 66.9167 60.4161L62.9113 62.7428C63.5486 62.3815 63.8046 61.2441 64.442 60.8748Z"
    fill="#9B9B9A"
  />
<path
    d="M64.442 60.86L68.4446 58.5333C68.606 58.4386 68.7873 58.396 69.0113 58.4306L65.006 60.756C64.786 60.7226 64.602 60.764 64.442 60.86Z"
    fill="#1A1E24"
  />
<path
    d="M65.0059 60.756L69.0113 58.4307C69.1339 58.448 69.2713 58.4894 69.4193 58.5601L65.4166 60.8854C65.2686 60.8174 65.1313 60.7734 65.0059 60.756Z"
    fill="#1D232D"
  />
<path
    d="M65.4166 60.8855L69.4193 58.5601L69.5926 58.6521L69.63 58.6748L65.6286 61.0001L65.5886 60.9788L65.4166 60.8855Z"
    fill="#212835"
  />
<path
    d="M65.4166 60.8855L69.4193 58.5601L69.5926 58.6521L69.63 58.6748L65.6286 61.0001L65.5886 60.9788L65.4166 60.8855Z"
    fill="#212835"
  />
<path
    d="M76.394 62.7079C76.37 62.3799 76.306 62.0439 76.214 61.7079C75.842 60.3626 74.974 59.0146 73.914 58.1879C73.7446 58.0546 73.5686 57.9359 73.3886 57.8333L72.4513 57.2919L69.8593 58.7986L69.7073 58.7186L69.63 58.6746L65.6286 60.9999L65.7046 61.0439L66.0406 61.2213C66.334 61.3613 66.6019 61.4439 66.8419 61.4799C67.2313 61.5386 67.554 61.4746 67.802 61.3266L69.5833 60.2933L69.91 60.5146C70.9713 61.3399 71.8393 62.6893 72.2113 64.0346C72.3033 64.3706 72.3646 64.7066 72.3899 65.0359L72.4059 65.3933C72.4019 65.5906 72.3899 65.7733 72.3619 65.9439C72.2553 66.6093 71.9526 67.0866 71.522 67.3346L75.5246 65.0093C75.9566 64.7586 76.2593 64.2839 76.366 63.6173C76.394 63.4453 76.4073 63.2626 76.41 63.0666C76.41 62.9479 76.4033 62.8279 76.394 62.7079Z"
    fill="#E9EFF4"
  />
<path
    d="M69.3859 60.1599C71.0593 61.1266 72.4099 63.4666 72.4059 65.3933C72.3993 67.3159 71.0406 68.0919 69.366 67.1253L61.5673 62.6226C62.0539 62.8733 62.5499 62.9493 62.9113 62.7426C63.8419 62.2159 63.9566 60.0359 65.5886 60.9786L65.6286 60.9999L65.7046 61.0439C67.778 62.2439 68.6673 60.8319 68.4473 59.6173L69.3859 60.1599Z"
    fill="#C1CFE0"
  />
<path
    d="M68.4073 59.4413L72.4113 57.116L72.4512 57.292L68.4473 59.6173L68.4073 59.4413Z"
    fill="#E2E1DF"
  />
<path
    d="M60.9566 43.14C62.0273 43.76 62.9953 44.8147 63.6966 46.0254C64.3966 47.2387 64.8286 48.6054 64.8246 49.8387C64.8553 50.0667 65.4527 54.356 68.2127 58.9813C68.3327 59.1813 68.4073 59.396 68.4473 59.6174C68.6673 60.832 67.778 62.244 65.7047 61.044L65.6286 61C63.9566 60.036 63.842 62.216 62.9113 62.7427C62.55 62.9494 62.054 62.8734 61.5673 62.6227L61.4433 62.5547L61.3206 62.48C60.7473 62.1133 60.2113 61.5214 59.9113 60.8694C58.938 58.7294 58.2553 56.7987 57.7899 55.0507C56.6619 50.836 56.7833 47.6974 57.0633 45.3587C57.3367 43.0707 58.8113 41.9014 60.9566 43.14Z"
    fill="#17191C"
  />
<path
    d="M72.4513 57.292L72.406 57.1186L72.4113 57.116L72.3899 57.0666C72.3486 56.9266 72.2953 56.7853 72.2179 56.6546C72.0353 56.3506 71.8633 56.0466 71.6979 55.7466L71.5353 55.432C71.4327 55.236 71.3313 55.0426 71.2366 54.8506C71.1753 54.7293 71.1193 54.6106 71.0619 54.4893C70.9793 54.3186 70.8966 54.148 70.822 53.9773C70.766 53.8533 70.7126 53.7307 70.658 53.608C70.5886 53.448 70.5193 53.288 70.4553 53.1293C70.4046 53.008 70.3567 52.888 70.31 52.768C70.25 52.616 70.19 52.464 70.1326 52.3146L70.0073 51.9733C69.954 51.8253 69.9033 51.6826 69.8553 51.54L69.746 51.22C69.7007 51.08 69.6593 50.944 69.6153 50.8107L69.5246 50.52C69.486 50.3893 69.4513 50.264 69.4166 50.1386L69.338 49.8693L69.2926 49.6933L69.202 49.3427L69.158 49.1613L69.0899 48.8733L69.0526 48.704L68.9993 48.4626L68.97 48.3173L68.93 48.1146L68.9086 48.0013L68.8793 47.832L68.8673 47.7626L68.8446 47.616L68.8407 47.6L68.83 47.5133C68.83 47.364 68.8233 47.2093 68.81 47.056C68.778 46.6386 68.7006 46.208 68.5806 45.7813C68.386 45.0733 68.082 44.3626 67.7006 43.7C67.1513 42.7466 66.434 41.892 65.634 41.2693C65.4153 41.1 65.1886 40.9466 64.9593 40.8146L64.6113 40.6306L64.5953 40.624C64.4473 40.5547 64.306 40.4986 64.1673 40.4546L64.0566 40.4253L63.7526 40.3533L63.6899 40.3373L63.622 40.3346L63.4086 40.3173L63.2753 40.316L63.07 40.3346L62.9513 40.3506L62.7433 40.4066L62.65 40.4346L62.37 40.5653L58.3687 42.8907L58.646 42.7613L58.7407 42.7333L58.946 42.6773L59.066 42.66L59.2713 42.644L59.4033 42.6453L59.6153 42.6587L59.7513 42.6813L60.0593 42.752L60.1606 42.78C60.302 42.8266 60.4459 42.8813 60.5979 42.9533C60.7153 43.008 60.8353 43.0693 60.9566 43.14C61.1846 43.2733 61.4113 43.4266 61.6313 43.596C62.4313 44.2173 63.146 45.0733 63.6966 46.0253C64.0793 46.6907 64.382 47.4 64.5767 48.1093C64.6953 48.5373 64.7753 48.9653 64.8073 49.3813C64.818 49.5386 64.8246 49.6906 64.8246 49.8386L64.8366 49.9226L64.842 49.956L64.8619 50.088L64.8753 50.164L64.9033 50.324L64.9286 50.4493L64.9646 50.64L64.9979 50.7986L65.0446 51.016L65.0886 51.212L65.1446 51.456L65.202 51.688L65.2713 51.9546L65.3393 52.2146L65.3526 52.26L65.3926 52.4013C65.4353 52.5493 65.4779 52.7013 65.5259 52.86L65.6047 53.1146C65.6513 53.26 65.6953 53.4053 65.746 53.5573L65.846 53.8533C65.898 54.0026 65.9526 54.1533 66.006 54.3093L66.1273 54.6346C66.1846 54.788 66.2473 54.9453 66.3113 55.104L66.4487 55.4493C66.5153 55.6133 66.5873 55.78 66.6606 55.944L66.8153 56.2986C66.8953 56.4746 66.9806 56.6533 67.0646 56.8306L67.2286 57.1733C67.3299 57.372 67.434 57.5733 67.5407 57.772L67.6953 58.0706C67.8593 58.372 68.03 58.676 68.2127 58.9813C68.2913 59.1133 68.3446 59.2533 68.3873 59.3946L68.4473 59.6173L72.4513 57.292Z"
    fill="#1F2631"
  />
<path
    d="M25.674 50.58C24.558 50.3774 23.3953 49.9307 22.2166 49.236C16.582 45.928 12.0366 37.9614 12.0846 31.4867L12.2086 14.9147C12.2193 13.5014 11.2206 11.7534 9.99397 11.032C8.75531 10.3054 7.73798 10.8734 7.72998 12.2854C7.71131 14.7227 5.97664 15.688 3.85797 14.4427C1.73531 13.1974 0.0326328 10.212 0.0512995 7.77471C0.0832995 3.61605 2.06864 1.11604 4.98997 0.838711C5.8793 0.749378 6.84996 0.866718 7.87796 1.21205C8.58196 1.43872 9.31131 1.76805 10.058 2.20671C10.214 2.29871 10.366 2.38803 10.5206 2.48936C11.5273 3.13336 12.4953 3.92405 13.39 4.84138C17.21 8.66538 19.922 14.492 19.886 19.424L19.7619 35.9907C19.7486 37.6027 20.8807 39.588 22.282 40.4107C22.578 40.5854 22.8673 40.7014 23.1433 40.752C25.1473 41.096 27.3366 43.5787 28.03 46.2907C28.7313 49.008 27.6753 50.9254 25.674 50.58Z"
    fill="#1F2631"
  />
<path
    d="M34.566 60.2295L37.8406 58.3228C37.8353 59.5695 37.3966 60.4455 36.6899 60.8561L33.4139 62.7601C34.1206 62.3508 34.5593 61.4748 34.566 60.2295Z"
    fill="#556164"
  />
<path
    d="M34.5899 51.0294L37.87 49.124L37.8407 58.3227L34.566 60.2294L34.5899 51.0294Z"
    fill="#505B5E"
  />
<path
    d="M27.846 43.9454L31.1233 42.0374C31.8433 41.6214 32.838 41.6801 33.938 42.3161L30.6593 44.2214C29.562 43.5841 28.562 43.5268 27.846 43.9454Z"
    fill="#556164"
  />
<path
    d="M30.6592 44.2214L33.938 42.3161C36.1153 43.5734 37.8726 46.6188 37.8699 49.1241L34.5899 51.0294C34.5979 48.5254 32.8379 45.4801 30.6592 44.2214Z"
    fill="#556164"
  />
<path
    d="M30.6593 44.2215C32.838 45.4801 34.598 48.5254 34.59 51.0294L34.566 60.2294C34.5553 62.7361 32.786 63.7455 30.6086 62.4855C28.426 61.2281 26.6633 58.1761 26.6673 55.6695L26.694 46.4721C26.7047 43.9668 28.478 42.9615 30.6593 44.2215Z"
    fill="#8FA09F"
  />
<path
    d="M65.2793 54.9932C61.9926 65.2439 47.802 69.8519 33.582 65.2892C19.3593 60.7306 10.4966 48.7266 13.7793 38.4826C17.0606 28.2346 31.258 23.6279 45.4793 28.1866C59.698 32.7479 68.5633 44.7479 65.2793 54.9932Z"
    fill="#DAE3EC"
  />
<path
    d="M80.3006 42.0895C80.3006 51.5428 72.6313 59.2081 63.1766 59.2081C53.7219 59.2081 46.0539 51.5428 46.0539 42.0895C46.0539 32.6295 53.7219 24.9641 63.1766 24.9641C72.6313 24.9641 80.3006 32.6295 80.3006 42.0895Z"
    fill="#E9EFF4"
  />
<path
    d="M76.5193 31.3601C73.99 33.5774 70.9993 35.4094 69.05 36.5081C64.7753 38.9174 59.7713 41.0561 54.674 41.8694C54.93 44.4467 55.3233 47.0161 56.3167 49.4334C56.6807 50.3214 57.0953 51.1521 57.5513 51.9414C58.8153 51.8054 60.0753 51.6307 61.3247 51.3494C65.45 50.4214 69.662 49.2521 73.1513 46.7641C75.9193 44.7921 78.0953 42.3067 80.118 39.6841C79.678 36.5601 78.4073 33.7054 76.5193 31.3601Z"
    fill="#1F2631"
  />
<path
    d="M76.4699 49.0801L73.4487 54.3041C73.0753 54.9468 72.5686 55.4415 72.0846 55.6695C71.6739 55.8868 71.2686 55.9242 70.9526 55.7442L67.9433 54.0055C67.258 53.5975 67.258 52.3122 67.9433 51.1268L76.4699 46.1988C77.1579 46.5975 77.1579 47.8815 76.4699 49.0801Z"
    fill="#1F2631"
  />
<path
    d="M66.97 27.8574L65.6407 26.7787C70.9794 19.1361 75.3833 18.2561 75.726 18.0321L77.0553 19.1054C76.71 19.3334 71.906 21.3348 66.97 27.8574Z"
    fill="#17191C"
  />
<path
    d="M77.0553 19.1053C77.0699 19.4027 79.0979 22.7507 75.1952 29.62C72.8419 28.504 70.0192 27.6067 66.9699 27.8573C71.9059 21.3347 76.7099 19.3333 77.0553 19.1053Z"
    fill="#1F2631"
  />
<path
    d="M42.474 32.3413C42.826 32.1813 49.4447 29.4107 54.3487 31.988L56.3086 33.128C51.4033 30.5507 44.7833 33.32 44.4353 33.4827L42.474 32.3413Z"
    fill="#17191C"
  />
<path
    d="M49.9073 43.9694L47.9487 42.8294C43.234 39.9267 42.5113 32.7187 42.474 32.3414L44.4353 33.4827C44.4713 33.864 45.19 41.064 49.9073 43.9694Z"
    fill="#17191C"
  />
<path
    d="M44.4353 33.4828C44.7833 33.3201 51.4033 30.5508 56.3086 33.1281C56.3086 33.1281 54.4646 34.5681 52.5419 37.9174C50.5766 41.3454 49.9073 44.2214 49.9073 44.2214C45.19 41.3161 44.4713 33.8641 44.4353 33.4828Z"
    fill="#1F2631"
  />
<path
    d="M39.538 75.7601L43.5433 73.432L43.6233 73.4747L39.6193 75.8L39.538 75.7601Z"
    fill="#212835"
  />
<path
    d="M39.6193 75.8L43.6233 73.4747C43.8166 73.564 44.0086 73.628 44.1953 73.6547L40.19 75.9827C40.006 75.9533 39.8113 75.8907 39.6193 75.8Z"
    fill="#1D232D"
  />
<path
    d="M40.1899 75.9827L44.1953 73.6547C44.4473 73.6934 44.6859 73.6654 44.8846 73.5521L40.8806 75.8774C40.682 75.9907 40.4446 76.0201 40.1899 75.9827Z"
    fill="#1A1E24"
  />
<path
    d="M42.4086 74.0121L46.4126 71.6854C45.778 72.0548 45.5219 73.1934 44.8846 73.5521L40.8806 75.8774C41.5179 75.5188 41.7739 74.3801 42.4086 74.0121Z"
    fill="#9B9B9A"
  />
<path
    d="M42.4113 73.9961L46.414 71.6694C46.574 71.5761 46.758 71.5334 46.9793 71.5668L42.9767 73.8921C42.7553 73.8601 42.5713 73.9028 42.4113 73.9961Z"
    fill="#1A1E24"
  />
<path
    d="M42.9766 73.892L46.9793 71.5667C47.1046 71.5854 47.2379 71.6254 47.3886 71.6974L43.3859 74.024C43.2339 73.9534 43.0993 73.9107 42.9766 73.892Z"
    fill="#1D232D"
  />
<path
    d="M43.3859 74.024L47.3886 71.6973L47.5619 71.788L47.6006 71.812L43.5993 74.1373L43.5579 74.1147L43.3859 74.024Z"
    fill="#212835"
  />
<path
    d="M43.3859 74.024L47.3886 71.6973L47.5619 71.788L47.6006 71.812L43.5993 74.1373L43.5579 74.1147L43.3859 74.024Z"
    fill="#212835"
  />
<path
    d="M54.3633 75.8454C54.338 75.5174 54.2753 75.1814 54.182 74.8441C53.8113 73.4974 52.9446 72.152 51.8846 71.324C51.7153 71.192 51.5393 71.0734 51.3593 70.9707L50.4193 70.4294L47.8273 71.9347L47.6753 71.8574L47.6006 71.812L43.5993 74.1374L43.6713 74.1827L44.0086 74.3587C44.3033 74.4974 44.57 74.5814 44.8127 74.616C45.202 74.6747 45.522 74.6094 45.7713 74.464L47.5539 73.4307L47.8806 73.652C48.9393 74.4774 49.8073 75.824 50.1766 77.1707C50.2726 77.5067 50.3339 77.8427 50.3593 78.1707C50.3699 78.292 50.374 78.412 50.374 78.5307C50.3726 78.7254 50.3593 78.9107 50.3326 79.0814C50.2246 79.7467 49.9233 80.2227 49.4899 80.472L53.494 78.1467C53.9273 77.8947 54.2273 77.4187 54.3339 76.756C54.3633 76.5827 54.3766 76.3987 54.3793 76.204L54.3633 75.8454Z"
    fill="#E9EFF4"
  />
<path
    d="M47.3553 73.296C49.0286 74.264 50.3793 76.6027 50.374 78.5307C50.37 80.452 49.0073 81.228 47.3353 80.2627L39.538 75.76C40.022 76.0094 40.5166 76.0867 40.8806 75.8774C41.8113 75.3534 41.9273 73.172 43.558 74.1147L43.5993 74.1374L43.6713 74.1827C45.7486 75.3814 46.6379 73.9707 46.4166 72.756L47.3553 73.296Z"
    fill="#C1CFE0"
  />
<path
    d="M46.3766 72.5788L50.3806 70.2534L50.4193 70.4294L46.4166 72.7561L46.3766 72.5788Z"
    fill="#E2E1DF"
  />
<path
    d="M38.9259 56.276C39.9979 56.896 40.9633 57.9507 41.6646 59.1627C42.3633 60.376 42.798 61.7427 42.794 62.9787C42.826 63.204 43.4207 67.492 46.182 72.1173C46.3007 72.3187 46.3766 72.5333 46.4166 72.756C46.638 73.9707 45.7486 75.3813 43.6713 74.1827L43.5993 74.1373C41.9273 73.172 41.8113 75.3533 40.8806 75.8773C40.5166 76.0867 40.022 76.0093 39.538 75.76L39.4127 75.692L39.2873 75.616C38.7179 75.2507 38.178 74.6573 37.882 74.004C36.906 71.8667 36.2246 69.9347 35.7593 68.1893C34.6313 63.9733 34.754 60.8333 35.0326 58.4947C35.3073 56.208 36.7806 55.0387 38.9259 56.276Z"
    fill="#17191C"
  />
<path
    d="M50.4193 70.4294L50.374 70.2561L50.3806 70.2534L50.3593 70.2041C50.3179 70.0628 50.2646 69.9228 50.1873 69.7921C50.0046 69.4868 49.8326 69.1841 49.6673 68.8814L49.5046 68.5694C49.4006 68.3748 49.3006 68.1801 49.2046 67.9868C49.1433 67.8668 49.0886 67.7481 49.03 67.6268C48.9486 67.4548 48.8673 67.2841 48.7913 67.1134C48.734 66.9894 48.6806 66.8681 48.6273 66.7454C48.558 66.5854 48.4899 66.4241 48.4233 66.2654C48.3739 66.1454 48.3273 66.0254 48.2779 65.9068C48.2206 65.7534 48.1606 65.6001 48.1033 65.4508L47.9779 65.1094C47.9246 64.9628 47.8739 64.8188 47.8233 64.6761L47.7166 64.3574C47.6686 64.2174 47.6273 64.0814 47.5846 63.9468L47.4953 63.6561C47.4553 63.5268 47.4193 63.4001 47.386 63.2748L47.3086 63.0054L47.2606 62.8308L47.1686 62.4801L47.1259 62.2988L47.058 62.0094L47.0206 61.8401L46.9686 61.5988L46.9393 61.4534L46.8993 61.2521L46.8779 61.1388L46.8487 60.9708L46.8353 60.8988L46.8113 60.7534L46.81 60.7361L46.7979 60.6521C46.7979 60.5001 46.7926 60.3468 46.7793 60.1934C46.7446 59.7748 46.6673 59.3481 46.55 58.9188C46.3553 58.2094 46.0513 57.5001 45.6686 56.8361C45.118 55.8828 44.4033 55.0294 43.6033 54.4068C43.3859 54.2361 43.1593 54.0841 42.93 53.9508L42.5793 53.7668L42.5619 53.7614C42.4166 53.6921 42.2766 53.6361 42.1353 53.5934L42.0273 53.5614L41.722 53.4894L41.6606 53.4761L41.5913 53.4708L41.3766 53.4534L41.2433 53.4521L41.0406 53.4721L40.9193 53.4868L40.714 53.5428L40.6193 53.5721L40.3393 53.7028L36.3366 56.0281L36.614 55.8988L36.71 55.8708L36.9166 55.8148L37.0366 55.7988L37.2406 55.7801L37.3726 55.7814L37.586 55.7974L37.7193 55.8174L38.03 55.8894L38.1286 55.9174C38.2726 55.9641 38.4166 56.0201 38.566 56.0908C38.6833 56.1454 38.8046 56.2068 38.9259 56.2761C39.1553 56.4108 39.382 56.5628 39.602 56.7334C40.3993 57.3548 41.1139 58.2108 41.6646 59.1628C42.0473 59.8268 42.3513 60.5374 42.546 61.2468C42.6647 61.6734 42.742 62.1001 42.7766 62.5188C42.7873 62.6748 42.794 62.8268 42.794 62.9788L42.8073 63.0588L42.81 63.0934L42.8326 63.2254L42.8446 63.3014L42.8726 63.4614L42.8966 63.5868L42.9326 63.7761L42.9673 63.9321L43.014 64.1534L43.0566 64.3494L43.114 64.5934L43.1713 64.8241L43.2406 65.0921L43.31 65.3521L43.3206 65.3948L43.3633 65.5401C43.4033 65.6868 43.4473 65.8374 43.4953 65.9961L43.574 66.2521C43.618 66.3961 43.666 66.5414 43.7153 66.6961L43.8166 66.9894C43.866 67.1401 43.9193 67.2894 43.9766 67.4454L44.0966 67.7708C44.1553 67.9254 44.2166 68.0828 44.2779 68.2428L44.4193 68.5868C44.486 68.7508 44.5566 68.9174 44.63 69.0814L44.7833 69.4348C44.866 69.6108 44.95 69.7908 45.0353 69.9681L45.1993 70.3108C45.298 70.5081 45.4033 70.7094 45.51 70.9108L45.6646 71.2068C45.8286 71.5081 46.0007 71.8134 46.182 72.1174C46.262 72.2508 46.3153 72.3894 46.3566 72.5334L46.4166 72.7561L50.4193 70.4294Z"
    fill="#1F2631"
  />
<path
    d="M15.3833 62.4134L19.3966 60.0814L20.582 60.7641L16.5673 63.0988L15.3833 62.4134Z"
    fill="#202734"
  />
<path
    d="M16.5673 63.0986L20.582 60.764L20.7512 60.8533L16.7379 63.1866L16.5673 63.0986Z"
    fill="#212835"
  />
<path
    d="M16.738 63.1867L20.7513 60.8534C20.8953 60.924 21.0287 60.9627 21.15 60.9827L17.1353 63.316C17.014 63.2974 16.8833 63.2547 16.738 63.1867Z"
    fill="#1D232D"
  />
<path
    d="M17.1353 63.3161L21.15 60.9827C21.3487 61.0121 21.5207 60.9774 21.6687 60.8907L17.6567 63.2227C17.506 63.3094 17.334 63.3441 17.1353 63.3161Z"
    fill="#1A1E24"
  />
<path
    d="M20.374 57.9721L24.3886 55.6401C23.8193 55.9708 23.3126 56.5468 23.0113 57.5161C22.5846 58.9001 22.3766 60.4801 21.6686 60.8908L17.6566 63.2228C18.3633 62.8121 18.5686 61.2321 18.998 59.8494C19.298 58.8788 19.806 58.3041 20.374 57.9721Z"
    fill="#9B9B9A"
  />
<path
    d="M23.4872 57.8201L27.5006 55.4868L27.7846 55.6961L23.7699 58.0294L23.4872 57.8201Z"
    fill="#212835"
  />
<path
    d="M30.8793 63.6014L30.9113 63.5148C30.9686 63.3481 31.01 63.1694 31.046 62.9801L31.0579 62.9294L31.0633 62.8508C31.0926 62.6454 31.1139 62.4294 31.1139 62.1961C31.1139 62.0401 31.1086 61.8801 31.0966 61.7201L31.0553 61.4041L31.0259 61.1948C30.9832 60.9308 30.9299 60.6641 30.8566 60.3974L30.8433 60.3588L30.8033 60.2334C30.7313 59.9908 30.6486 59.7494 30.5526 59.5094L30.4539 59.2721C30.3499 59.0334 30.2406 58.7988 30.1193 58.5694L30.0579 58.4454C29.9139 58.1814 29.7552 57.9254 29.5872 57.6748L29.4446 57.4748C29.3099 57.2828 29.1686 57.0974 29.0206 56.9201L28.8713 56.7361C28.6753 56.5134 28.4766 56.3054 28.2673 56.1094L28.1473 56.0081C28.0286 55.9014 27.9086 55.7921 27.7846 55.6961L27.7713 55.7054L27.5006 55.4868L27.4939 55.4908L23.4872 57.8201C23.7099 57.9748 23.9233 58.1534 24.1339 58.3401L24.2526 58.4414C24.4633 58.6374 24.6646 58.8494 24.8566 59.0694L25.0033 59.2481C25.1539 59.4294 25.2966 59.6174 25.4353 59.8121L25.5713 60.0054C25.7393 60.2561 25.8993 60.5134 26.0446 60.7801L26.102 60.8934C26.226 61.1281 26.3366 61.3654 26.4419 61.6068L26.538 61.8414C26.6326 62.0801 26.7166 62.3201 26.7859 62.5601L26.8313 62.6934C26.9086 62.9721 26.9686 63.2481 27.0126 63.5228L27.0419 63.7414C27.0753 64.0068 27.102 64.2708 27.102 64.5281C27.102 64.7614 27.0792 64.9788 27.0512 65.1854L27.0313 65.3121C26.9979 65.5014 26.954 65.6828 26.8966 65.8468L26.8646 65.9334C26.8086 66.0814 26.742 66.2214 26.6686 66.3481L26.6326 66.4134C26.5486 66.5481 26.4513 66.6694 26.3473 66.7774L26.2779 66.8454C26.1673 66.9494 26.0513 67.0428 25.9219 67.1188L29.9366 64.7868C30.0646 64.7108 30.1806 64.6161 30.2913 64.5121L30.3619 64.4441C30.4659 64.3348 30.5606 64.2174 30.646 64.0814L30.682 64.0148C30.7566 63.8894 30.8233 63.7494 30.8793 63.6014Z"
    fill="#1F2631"
  />
<path
    d="M16.614 47.0654C20.0993 49.0788 22.9807 53.6841 23.4887 57.8201C23.43 57.7974 20.018 56.5548 18.998 59.8494C18.4033 61.7654 18.2366 64.0601 16.5673 63.0988L15.3833 62.4134L11.7647 60.3241C7.90867 58.0974 4.79665 52.7081 4.80998 48.2801C4.82331 43.8588 7.95398 42.0668 11.81 44.2921L16.614 47.0654Z"
    fill="#C1CFE0"
  />
<path
    d="M23.4873 57.8201C25.5193 59.2321 27.1073 62.128 27.102 64.528C27.0927 67.0947 25.2753 68.1241 23.0473 66.8374L15.3833 62.4134L16.5673 63.0987C18.2366 64.0601 18.4033 61.7654 18.998 59.8494C20.018 56.5547 23.4299 57.7974 23.4873 57.8201Z"
    fill="#181B1F"
  />
<path
    d="M27.1353 53.6639C26.282 50.5653 24.2806 47.4546 21.8366 45.5519C21.4446 45.2466 21.0406 44.9706 20.6273 44.7319L15.8233 41.96L11.8099 44.292L16.6139 47.0653C17.0273 47.3053 17.4313 47.5786 17.826 47.8839C20.2686 49.7879 22.2673 52.8973 23.1219 55.9959C23.2899 56.6079 23.4139 57.2186 23.4886 57.8199L27.502 55.4866C27.4286 54.8866 27.3046 54.2759 27.1353 53.6639Z"
    fill="white"
  />
<path
    d="M15.1726 41.6188C14.5539 41.3254 13.954 41.1401 13.39 41.0561C12.4286 40.9121 11.5686 41.0601 10.8606 41.4748L6.84595 43.8068C7.55528 43.3948 8.41528 43.2454 9.37661 43.3894C9.94194 43.4734 10.5406 43.6574 11.1606 43.9508C11.3726 44.0521 11.5913 44.1654 11.8099 44.2921L15.8233 41.9601C15.606 41.8321 15.3873 41.7188 15.1726 41.6188Z"
    fill="white"
  />
</svg>
