<svg
  width="62"
  height="135"
  viewBox="0 0 62 135"
  fill="none"
  xmlns="http://www.w3.org/2000/svg"
>
<mask
    id="mask0_0_1"
    style="mask-type:luminance"
    maskUnits="userSpaceOnUse"
    x="8"
    y="18"
    width="40"
    height="23"
  >
<path
      d="M10.1507 40.8334L8.72937 40.0081L45.7587 18.6254L47.1827 19.4534L10.1507 40.8347"
      fill="white"
    />
</mask>
<g mask="url(#mask0_0_1)">
<path
      d="M10.1507 40.8334L8.72937 40.0081L45.7587 18.6254L47.1827 19.4534L10.1507 40.8347"
      fill="url(#paint0_radial_0_1)"
    />
</g>
<mask
    id="mask1_0_1"
    style="mask-type:luminance"
    maskUnits="userSpaceOnUse"
    x="8"
    y="63"
    width="39"
    height="23"
  >
<path
      d="M9.90131 85.2494L8.47736 84.4214L45.5053 63.0441L46.9333 63.8694L9.90131 85.2494Z"
      fill="white"
    />
</mask>
<g mask="url(#mask1_0_1)">
<path
      d="M9.90131 85.2494L8.47736 84.4214L45.5053 63.0441L46.9333 63.8694L9.90131 85.2494Z"
      fill="url(#paint1_radial_0_1)"
    />
</g>
<mask
    id="mask2_0_1"
    style="mask-type:luminance"
    maskUnits="userSpaceOnUse"
    x="8"
    y="107"
    width="39"
    height="23"
  >
<path
      d="M9.65205 129.681L8.22803 128.853L45.2601 107.473L46.6854 108.301L9.65205 129.681Z"
      fill="white"
    />
</mask>
<g mask="url(#mask2_0_1)">
<path
      d="M9.65205 129.681L8.22803 128.853L45.2601 107.473L46.6854 108.301L9.65205 129.681Z"
      fill="url(#paint2_radial_0_1)"
    />
</g>
<path
    d="M46.504 23.0373L49.984 20.868C49.984 21.356 49.8133 21.6986 49.5333 21.86L46.0547 24.0293C46.3307 23.8666 46.5026 23.524 46.504 23.0373Z"
    fill="#C1CFE0"
  />
<path
    d="M36.892 8.18535L40.3733 6.01735C40.6547 5.85202 41.0427 5.87602 41.472 6.12402L37.992 8.29199C37.5614 8.04399 37.172 8.02268 36.892 8.18535Z"
    fill="#DAE3EC"
  />
<path
    d="M46.5267 15L50.0066 12.832L49.984 20.868L46.504 23.0374L46.5267 15Z"
    fill="#C1CFE0"
  />
<path
    d="M37.992 8.29189L41.472 6.12393L48.468 10.1639L44.9854 12.3306L37.992 8.29189Z"
    fill="#DAE3EC"
  />
<path
    d="M44.9854 12.3307L48.468 10.164C49.32 10.6547 50.0106 11.8493 50.0066 12.832L46.5267 15C46.5294 14.0173 45.8387 12.824 44.9854 12.3307Z"
    fill="#C1CFE0"
  />
<path
    d="M44.9854 12.3307C45.8387 12.824 46.5294 14.0174 46.5267 15L46.504 23.0374C46.5027 24.0174 45.8054 24.4134 44.9534 23.92L37.9601 19.8827C37.1054 19.3907 36.4147 18.1934 36.4187 17.2134L36.4427 9.17604C36.444 8.19604 37.14 7.79869 37.992 8.29202L44.9854 12.3307Z"
    fill="#DAE3EC"
  />
<path
    d="M44.712 22.1133C44.5853 22.1133 44.4387 22.0666 44.2854 21.9799L38.856 18.8466C38.2667 18.5026 37.772 17.6439 37.772 16.9666L37.7894 10.7293C37.7894 10.5813 37.8227 10.0999 38.2334 10.0999C38.3587 10.0999 38.5067 10.1479 38.6601 10.2359L44.0894 13.3693C44.676 13.7079 45.176 14.5706 45.1733 15.2466L45.1547 21.4853C45.1547 21.632 45.12 22.1133 44.712 22.1133Z"
    fill="#C1CFE0"
  />
<path
    d="M52.2187 82.584L55.1787 80.8626C55.1787 81.0146 55.172 81.1626 55.164 81.308L52.204 83.0266C52.216 82.8826 52.2187 82.7346 52.2187 82.584Z"
    fill="#1B2128"
  />
<path
    d="M52.204 83.0267L55.164 81.308C55.0627 82.7693 54.488 83.8053 53.608 84.316L50.648 86.0347C51.5307 85.5227 52.104 84.488 52.204 83.0267Z"
    fill="#181B20"
  />
<path
    d="M52.324 45.9613L55.2827 44.2413L55.1786 80.8626L52.2187 82.584L52.324 45.9613Z"
    fill="#1A1E25"
  />
<path
    d="M43.1214 36.2947L46.0814 34.5747C46.7427 34.1894 47.576 34.1014 48.5094 34.3494L45.5507 36.0707C44.6174 35.8214 43.7827 35.9107 43.1214 36.2947Z"
    fill="#181B20"
  />
<path
    d="M45.5507 36.0707L48.5093 34.3493C48.9587 34.4707 49.432 34.6693 49.9173 34.9507L46.96 36.6707C46.4734 36.388 46 36.1893 45.5507 36.0707Z"
    fill="#1B2128"
  />
<path
    d="M46.96 36.6706L49.9173 34.9506C50.0626 35.0333 50.208 35.1253 50.3506 35.2186L47.3907 36.9373C47.248 36.8439 47.1054 36.7546 46.96 36.6706Z"
    fill="#1B2128"
  />
<path
    d="M47.3907 36.9372L50.3506 35.2186C52.632 36.7439 54.5067 39.6746 55.0907 42.4719L52.1333 44.1919C51.5467 41.3932 49.672 38.4652 47.3907 36.9372Z"
    fill="#1F2631"
  />
<path
    d="M52.1334 44.1921L55.0907 42.4721C55.2174 43.0721 55.2827 43.6681 55.2827 44.2414L52.3241 45.9614C52.3254 45.3868 52.26 44.7921 52.1334 44.1921Z"
    fill="#1B2128"
  />
<path
    d="M46.9601 36.6707C49.9347 38.388 52.3334 42.5493 52.3241 45.9613L52.2187 82.584C52.2094 85.9947 49.7947 87.3787 46.82 85.6613C43.8454 83.9413 41.44 79.776 41.448 76.364L41.5534 39.7427C41.5614 36.332 43.9841 34.952 46.9601 36.6707Z"
    fill="#17191B"
  />
<path
    d="M44.5533 33.1654C45.5867 32.5641 46.9787 32.5814 48.5267 33.3348C48.6947 33.4161 48.8653 33.5054 49.0347 33.6041C51.2827 34.9014 53.252 37.3961 54.3613 40.0761C54.968 41.5428 55.32 43.0654 55.3147 44.4788C55.308 46.4641 54.6067 47.8641 53.476 48.5201L50.3414 50.4441C51.4734 49.7854 52.1733 48.3881 52.1787 46.4028C52.184 44.9908 51.836 43.4681 51.228 42.0001C50.1187 39.3201 48.1494 36.8267 45.9 35.5281C45.7307 35.4294 45.5613 35.3414 45.392 35.2587C43.8453 34.5081 42.452 34.4894 41.4187 35.0908L44.5533 33.1654Z"
    fill="#DAE3EC"
  />
<path
    d="M45.9 35.528C42.4214 33.52 39.5934 35.1306 39.58 39.128C39.5707 43.128 42.3814 47.9973 45.8601 50.0053C49.3387 52.0146 52.1693 50.4013 52.1787 46.4026C52.192 42.408 49.38 37.5373 45.9 35.528Z"
    fill="#E9EFF4"
  />
<path
    d="M45.892 38.3907C43.788 37.1774 42.0787 38.152 42.072 40.568C42.0654 42.9853 43.764 45.9293 45.868 47.144C47.9707 48.3573 49.6814 47.3813 49.6881 44.9653C49.6961 42.548 47.9974 39.6067 45.892 38.3907Z"
    fill="#1C2026"
  />
<path
    d="M45.7333 87.5613C47.224 86.6946 49.2293 86.7187 51.464 87.8027C51.7053 87.9227 51.9507 88.0506 52.1934 88.1933C55.4374 90.0653 58.2773 93.6587 59.8747 97.524C60.7493 99.6387 61.256 101.836 61.248 103.875C61.2427 106.736 60.228 108.752 58.5986 109.7L52.4467 113.275C54.0773 112.325 55.088 110.312 55.0947 107.449C55.104 105.411 54.5987 103.215 53.724 101.099C52.1254 97.2347 49.2853 93.64 46.044 91.7693C45.7973 91.6267 45.552 91.496 45.312 91.3787C43.0786 90.2947 41.072 90.268 39.58 91.136L45.7333 87.5613Z"
    fill="#17191C"
  />
<path
    d="M46.044 91.7694C41.0253 88.8734 36.948 91.1961 36.9306 96.9601C36.916 102.725 40.9693 109.747 45.9853 112.643C51 115.54 55.08 113.212 55.0946 107.449C55.1133 101.684 51.0587 94.6667 46.044 91.7694Z"
    fill="#1F2631"
  />
<path
    d="M46.0227 98.9854C44.476 98.0907 43.2174 98.8094 43.2134 100.588C43.2054 102.364 44.4573 104.533 46.004 105.425C47.552 106.319 48.812 105.601 48.8173 103.821C48.824 102.044 47.5693 99.8774 46.0227 98.9854Z"
    fill="#17191C"
  />
<path
    d="M48.9494 112.359L48.9054 96.4893C48.9067 97.108 48.5014 97.728 47.6854 98.1973L47.7294 114.065C48.544 113.596 48.952 112.976 48.9494 112.359Z"
    fill="white"
  />
<mask
    id="mask3_0_1"
    style="mask-type:luminance"
    maskUnits="userSpaceOnUse"
    x="47"
    y="96"
    width="2"
    height="19"
  >
<path
      d="M48.9494 112.359L48.9054 96.4893C48.9067 97.108 48.5014 97.728 47.6854 98.1973L47.7294 114.065C48.544 113.596 48.952 112.976 48.9494 112.359Z"
      fill="white"
    />
</mask>
<g mask="url(#mask3_0_1)">
<path
      d="M47.6854 98.1973L47.7294 114.065L47.972 113.915L47.9267 98.044L47.6854 98.1973Z"
      fill="white"
    />
<path
      d="M47.9267 98.044L47.972 113.915C48.6253 113.467 48.952 112.911 48.9494 112.359L48.9053 96.4893C48.9067 97.044 48.58 97.5987 47.9267 98.044Z"
      fill="white"
    />
</g>
<path
    d="M7.11469 95.168L7.1587 111.037C7.1627 111.645 7.56003 112.252 8.35603 112.713L8.31071 96.844C7.51338 96.384 7.11735 95.776 7.11469 95.168Z"
    fill="#C1CFE0"
  />
<mask
    id="mask4_0_1"
    style="mask-type:luminance"
    maskUnits="userSpaceOnUse"
    x="7"
    y="95"
    width="2"
    height="18"
  >
<path
      d="M7.11603 95.168L7.15867 111.037C7.16267 111.645 7.56 112.252 8.356 112.713L8.31069 96.844C7.51336 96.384 7.11736 95.776 7.11603 95.168Z"
      fill="white"
    />
</mask>
<g mask="url(#mask4_0_1)">
<path
      d="M7.11469 95.168L7.1587 111.037C7.1627 111.645 7.56003 112.252 8.35603 112.713L8.31071 96.844C7.51338 96.384 7.11735 95.776 7.11469 95.168Z"
      fill="#C1CFE0"
    />
</g>
<path
    d="M39.8187 102.739L39.8627 118.607L47.7293 114.065L47.6853 98.1973L39.8187 102.739Z"
    fill="white"
  />
<path
    d="M8.31073 96.8441L8.35604 112.713L26.1627 123.149L26.1147 107.281L8.31073 96.8441Z"
    fill="#C1CFE0"
  />
<path
    d="M31.9573 107.277L32.0026 123.145L39.8627 118.607L39.8187 102.739L31.9573 107.277Z"
    fill="white"
  />
<path
    d="M26.1147 107.281L26.1627 123.149C26.2867 123.223 26.42 123.291 26.556 123.351L26.5107 107.483C26.3734 107.423 26.2414 107.355 26.1147 107.281Z"
    fill="#C1CFE0"
  />
<path
    d="M26.5107 107.483L26.556 123.351C28.1693 124.076 30.512 124.005 32.0027 123.145L31.9574 107.277C30.468 108.139 28.1267 108.208 26.5107 107.483Z"
    fill="#DAE3EC"
  />
<path
    d="M8.33461 93.4614C6.72128 94.396 6.70665 95.9134 8.31065 96.844L26.1146 107.281C27.7213 108.215 30.3413 108.211 31.9573 107.277L39.8187 102.739L47.6853 98.1974C49.3013 97.264 49.316 95.7454 47.712 94.8134L29.9053 84.3787C28.2986 83.4454 25.6773 83.448 24.064 84.3814L16.1973 88.924L8.33461 93.4614Z"
    fill="#E9EFF4"
  />
<path
    d="M51.2667 51.2253L45.656 93.8586C45.656 95.1999 45.1174 96.5413 44.0214 97.788L49.0893 56.776C50.5133 55.0186 51.252 53.1226 51.2667 51.2253Z"
    fill="#1A1F25"
  />
<path
    d="M49.0893 56.776L44.0213 97.788C43.2307 98.6786 42.164 99.524 40.7933 100.271C39.436 101.016 37.88 101.612 36.2453 102.061L38.7013 62.8026C40.896 62.1906 42.9373 61.3493 44.7667 60.2919C46.5733 59.2359 48.016 58.0426 49.0893 56.776Z"
    fill="#1F2631"
  />
<path
    d="M38.7013 62.8027L36.2453 102.061C33.6746 102.733 30.8253 103.028 28.0319 102.953L27.7493 64.0881C31.496 64.1947 35.2573 63.7761 38.7013 62.8027Z"
    fill="#1A1F25"
  />
<path
    d="M27.7494 64.088L28.032 102.953C24.0386 102.831 20.1106 101.936 17.0653 100.271C13.756 98.4787 12.0973 96.12 12.1093 93.7574L6.50269 51.084C6.50269 54.4227 8.71871 57.76 13.1267 60.292C17.204 62.6507 22.4254 63.9134 27.7494 64.088Z"
    fill="#17191C"
  />
<path
    d="M44.64 41.9801C53.4147 47.0375 53.4627 55.2294 44.7667 60.2921C36.0654 65.3548 21.8801 65.3548 13.1267 60.2921C4.35472 55.2294 4.28535 47.0375 13.0227 41.9801C21.7227 36.9135 35.8893 36.9135 44.64 41.9801Z"
    fill="#1F2631"
  />
<path
    d="M9.33464 108.437C10.824 107.571 12.832 107.597 15.0627 108.68C15.304 108.799 15.552 108.928 15.796 109.069C19.0374 110.941 21.8773 114.536 23.4773 118.4C24.3507 120.516 24.856 122.712 24.848 124.748C24.8413 127.612 23.8306 129.628 22.1986 130.576L16.0467 134.151C17.6787 133.204 18.6894 131.188 18.6934 128.325C18.704 126.289 18.2 124.092 17.3253 121.975C15.7253 118.112 12.8853 114.516 9.64532 112.644C9.39865 112.505 9.15332 112.375 8.91198 112.256C6.67865 111.175 4.67198 111.147 3.17865 112.013L9.33464 108.437Z"
    fill="#17191C"
  />
<path
    d="M9.64534 112.644C4.62667 109.749 0.548051 112.072 0.529385 117.839C0.517385 123.601 4.56804 130.624 9.58537 133.519C14.5987 136.416 18.68 134.088 18.6934 128.325C18.716 122.563 14.66 115.543 9.64534 112.644Z"
    fill="#1F2631"
  />
<path
    d="M9.63064 117.029C6.72264 115.347 4.35332 116.696 4.34665 120.04C4.33599 123.383 6.68667 127.453 9.596 129.135C12.504 130.816 14.872 129.468 14.8813 126.123C14.892 122.781 12.54 118.708 9.63064 117.029Z"
    fill="white"
  />
<path
    d="M9.62269 119.863C8.07469 118.967 6.81605 119.687 6.81338 121.464C6.80671 123.241 8.05867 125.409 9.60401 126.301C11.1533 127.196 12.4107 126.477 12.4174 124.7C12.424 122.921 11.1694 120.755 9.62269 119.863Z"
    fill="#17191C"
  />
<path
    d="M5.21736 45.236L5.19073 84.412C5.19207 85.22 5.72136 86.024 6.77869 86.6387L6.80538 47.4627C5.74805 46.848 5.2187 46.0413 5.21736 45.236Z"
    fill="#C1CFE0"
  />
<path
    d="M22.292 56.4666L6.80538 47.4626C5.74805 46.848 5.2187 46.0413 5.21736 45.236L5.19073 84.412C5.19207 85.22 5.72136 86.024 6.77869 86.6386L22.268 95.64C22.4347 95.7373 22.6107 95.8266 22.792 95.9093L22.8174 56.7333C22.6374 56.6506 22.46 56.5626 22.292 56.4666Z"
    fill="#C1CFE0"
  />
<path
    d="M22.8173 56.7334L22.792 95.9094C24.9387 96.8734 28.052 96.7787 30.0307 95.6374L30.0574 56.46C28.076 57.6027 24.964 57.6947 22.8173 56.7334Z"
    fill="#DAE3EC"
  />
<path
    d="M6.8373 42.9667C4.6893 44.2067 4.672 46.224 6.80533 47.4627L22.292 56.4667C24.4266 57.7053 27.9093 57.7 30.0573 56.46L40.5013 50.428L50.9547 44.392C53.104 43.1533 53.1226 41.136 50.9893 39.8973L35.5013 30.896C33.3666 29.6547 29.884 29.66 27.736 30.9013L17.2827 36.9347L6.8373 42.9667Z"
    fill="#E9EFF4"
  />
<path
    d="M37.684 34.5332L37.676 44.6519C37.676 45.2799 37.44 45.9079 36.9547 46.4893L36.9627 36.3706C37.4334 35.7906 37.6773 35.1599 37.684 34.5332Z"
    fill="#1C2026"
  />
<path
    d="M36.9627 36.3706L36.9547 46.4893C36.6093 46.9066 36.1386 47.3026 35.5319 47.6519C34.9346 47.9999 34.2453 48.2799 33.5267 48.4893L33.528 38.3639C34.2533 38.1599 34.9279 37.8826 35.5346 37.5319C36.1319 37.1826 36.6093 36.7906 36.9627 36.3706Z"
    fill="#1C2026"
  />
<path
    d="M33.528 38.3641L33.5267 48.4894C32.3947 48.8054 31.1373 48.9428 29.9053 48.9068V38.7894C31.144 38.8254 32.3893 38.6841 33.528 38.3641Z"
    fill="#1C2026"
  />
<path
    d="M29.9054 38.7894V48.9067C28.1454 48.8507 26.4107 48.4321 25.068 47.6521C23.6107 46.8161 22.8774 45.7107 22.8827 44.6054L22.8774 34.4881C22.8774 35.5921 23.6107 36.6947 25.0694 37.5321C26.416 38.3121 28.1454 38.7321 29.9054 38.7894Z"
    fill="#1C2026"
  />
<path
    d="M35.4934 31.4774C38.3921 33.1494 38.4107 35.8587 35.5347 37.5321C32.656 39.2081 27.9627 39.2081 25.0694 37.5321C22.168 35.8587 22.1454 33.1494 25.0334 31.4774C27.912 29.8001 32.5961 29.8001 35.4934 31.4774Z"
    fill="#1C2026"
  />
<path
    d="M23.5414 45.4799L8.42535 36.4599C8.42935 37.6266 8.84 38.4466 9.50667 38.8346L24.6214 47.8533C23.9587 47.4666 23.544 46.6493 23.5414 45.4799Z"
    fill="#DAE3EC"
  />
<path
    d="M46.5601 9.91064L31.448 0.890658C30.7747 0.499991 29.8387 0.555985 28.812 1.15065L43.9267 10.168C44.9547 9.57597 45.8894 9.51998 46.5601 9.91064Z"
    fill="#FCFDFE"
  />
<path
    d="M23.488 26.2346L8.37201 17.2133L8.42533 36.46L23.5413 45.48L23.488 26.2346Z"
    fill="#C1CFE0"
  />
<path
    d="M43.9267 10.168L28.812 1.15063L12.0613 10.8226L27.1787 19.8386L43.9267 10.168Z"
    fill="#FCFDFE"
  />
<path
    d="M27.1787 19.8386L12.0614 10.8226C10.0187 12 8.36404 14.8613 8.37204 17.2133L23.4881 26.2346C23.4774 23.88 25.1347 21.02 27.1787 19.8386Z"
    fill="#E9EFF4"
  />
<path
    d="M27.1787 19.8388C25.1347 21.0201 23.4774 23.8801 23.488 26.2348L23.5413 45.4801C23.5467 47.8294 25.2133 48.7788 27.256 47.5974L44.0053 37.9268C46.0507 36.7468 47.7054 33.8814 47.696 31.5334L47.64 12.2855C47.636 9.93346 45.972 8.98811 43.9267 10.1681L27.1787 19.8388Z"
    fill="#DAE3EC"
  />
<path
    d="M27.8693 31.804C27.932 30.996 28.0853 30.1666 28.3146 29.3386C29.2333 26.008 31.3867 22.664 34.0133 20.6227C34.4347 20.292 34.868 19.9946 35.312 19.74C35.548 19.604 35.7813 19.4826 36.0093 19.3746C36.6786 19.0586 37.3213 18.8586 37.928 18.7693C38.964 18.616 39.888 18.7733 40.652 19.2187L42.4667 20.268C41.7027 19.8266 40.7786 19.664 39.7453 19.8187C39.1386 19.9107 38.4946 20.108 37.8226 20.424C37.5946 20.532 37.3626 20.656 37.1253 20.7907C36.6826 21.0467 36.248 21.3426 35.828 21.672C33.2013 23.7133 31.0493 27.0573 30.132 30.388C29.9 31.216 29.748 32.0453 29.684 32.8533C29.6613 33.152 29.648 33.444 29.6506 33.736C29.6506 34.2213 29.6867 34.6773 29.7547 35.1C30.02 36.748 30.7667 37.9266 31.836 38.5493L30.0213 37.5013C28.952 36.876 28.2053 35.6986 27.9387 34.0493C27.872 33.6267 27.836 33.1707 27.836 32.6867C27.8347 32.3987 27.8453 32.104 27.8693 31.804Z"
    fill="#17191C"
  />
<path
    d="M37.1253 20.7907C32.9853 23.1841 29.6346 28.98 29.6506 33.736C29.664 38.4987 33.0333 40.4174 37.1747 38.0241C41.3187 35.6334 44.6666 29.8374 44.6533 25.0761C44.6373 20.3161 41.268 18.3987 37.1253 20.7907Z"
    fill="#242E3D"
  />
<path
    d="M34.1614 37.0627C34.9187 37.0627 35.7907 36.7894 36.6854 36.2694C40.1147 34.2908 42.8973 29.4734 42.8867 25.5361C42.88 23.1681 41.852 21.7548 40.14 21.7548C39.3853 21.7548 38.5107 22.0268 37.6147 22.5441C34.1867 24.5254 31.404 29.3401 31.4173 33.2761C31.4253 35.6454 32.4507 37.0627 34.1614 37.0627Z"
    fill="#42A6C1"
  />
<path
    d="M44.6467 12.284C45.6054 11.7307 46.388 12.172 46.392 13.2733C46.3933 14.376 45.6173 15.7227 44.656 16.2773C43.6973 16.832 42.9214 16.3813 42.916 15.28C42.9134 14.1787 43.688 12.8373 44.6467 12.284Z"
    fill="#6CAE2F"
  />
<path
    d="M16.3614 101.697L19.3227 99.9774C19.3227 100.131 19.316 100.279 19.3067 100.423L16.3453 102.141C16.3573 101.997 16.3614 101.851 16.3614 101.697Z"
    fill="#1B2128"
  />
<path
    d="M16.3454 102.141L19.3067 100.423C19.2067 101.883 18.6307 102.92 17.7507 103.429L14.7894 105.152C15.6707 104.637 16.2454 103.603 16.3454 102.141Z"
    fill="#181B20"
  />
<path
    d="M16.4653 65.0747L19.4253 63.3561L19.3227 99.9774L16.3613 101.697L16.4653 65.0747Z"
    fill="#17191C"
  />
<path
    d="M7.26532 55.4094L10.224 53.6894C10.8867 53.3041 11.72 53.2147 12.6533 53.4641L9.69201 55.1854C8.76001 54.9348 7.92532 55.0254 7.26532 55.4094Z"
    fill="#181B20"
  />
<path
    d="M9.69202 55.1853L12.6533 53.4639C13.1027 53.5852 13.5734 53.7839 14.0601 54.0653L11.1027 55.7839C10.6147 55.5026 10.1413 55.3053 9.69202 55.1853Z"
    fill="#1B2128"
  />
<path
    d="M11.1027 55.7841L14.0601 54.0654C14.2054 54.1481 14.3494 54.2374 14.4934 54.3334L11.5347 56.0535C11.392 55.9575 11.2481 55.8681 11.1027 55.7841Z"
    fill="#1B2128"
  />
<path
    d="M11.5347 56.0534L14.4934 54.3334C16.7747 55.8601 18.6467 58.7894 19.2347 61.5868L16.276 63.3054C15.6893 60.5081 13.816 57.5788 11.5347 56.0534Z"
    fill="#1F2631"
  />
<path
    d="M16.276 63.3054L19.2347 61.5867C19.36 62.1867 19.4267 62.7827 19.4253 63.3561L16.4653 65.0747C16.4667 64.5014 16.3987 63.9067 16.276 63.3054Z"
    fill="#1B2128"
  />
<path
    d="M11.1027 55.7841C14.076 57.5014 16.4747 61.6654 16.4653 65.0747L16.3614 101.697C16.352 105.109 13.9387 106.492 10.9614 104.775C7.9867 103.056 5.58139 98.8907 5.59073 95.4787L5.69339 58.8561C5.70406 55.4454 8.12537 54.0667 11.1027 55.7841Z"
    fill="#1F2631"
  />
<path
    d="M8.69469 52.2786C9.72803 51.6799 11.12 51.6959 12.6694 52.4493C12.836 52.5306 13.008 52.6213 13.1774 52.72C15.4254 54.016 17.3947 56.5093 18.5054 59.1906C19.112 60.656 19.46 62.1799 19.456 63.5933C19.4507 65.5799 18.7467 66.9786 17.6147 67.6346L14.484 69.5586C15.6147 68.8999 16.3161 67.5026 16.3214 65.52C16.3281 64.1053 15.9787 62.5826 15.372 61.1146C14.2627 58.4333 12.2907 55.9399 10.044 54.6426C9.87471 54.5426 9.70267 54.4546 9.53467 54.3719C7.98667 53.6213 6.59473 53.6026 5.56006 54.2026L8.69469 52.2786Z"
    fill="#DAE3EC"
  />
<path
    d="M10.0441 54.6428C6.56408 52.6348 3.73209 54.2454 3.72409 58.2441C3.71342 62.2428 6.52007 67.1108 10.0027 69.1201C13.4801 71.1308 16.3094 69.5161 16.3214 65.5201C16.3348 61.5215 13.5241 56.6521 10.0441 54.6428Z"
    fill="#E9EFF4"
  />
<path
    d="M10.0347 57.5054C7.93199 56.2921 6.22267 57.2654 6.21467 59.6828C6.20934 62.1001 7.90667 65.0454 10.0093 66.2587C12.1133 67.4721 13.8227 66.4961 13.8307 64.0801C13.8374 61.6628 12.1373 58.7214 10.0347 57.5054Z"
    fill="#1C2026"
  />
<path
    d="M52.4627 81.872L52.48 81.808C52.5227 81.64 52.5534 81.4707 52.5521 81.3013L52.5787 42.124C52.5787 42.2934 52.5507 42.464 52.504 42.632L52.4894 42.6947C52.4387 42.8533 52.3667 43.0107 52.276 43.1667L52.2254 43.2467C52.128 43.3973 52.0107 43.544 51.8733 43.688L51.7974 43.76C51.6507 43.9027 51.488 44.0413 51.2974 44.1733C51.1907 44.2467 51.0774 44.3213 50.9547 44.392L40.4867 50.4267V50.4373L30.0574 56.46L30.0307 95.6373L40.476 89.6053V89.596L50.9294 83.5693L51.2507 83.368L51.2707 83.352C51.46 83.22 51.624 83.0827 51.772 82.9387L51.8467 82.864C51.9867 82.72 52.1027 82.572 52.2 82.424L52.2494 82.3427C52.3401 82.188 52.4134 82.0307 52.4627 81.872Z"
    fill="white"
  />
<path
    d="M33.9294 62.3415C34.1494 62.2135 34.2254 61.9774 34.2254 61.6361C34.2254 61.3054 34.1294 61.1921 33.9294 61.3081L33.2814 61.6801V62.7135L33.9294 62.3415ZM32.1653 61.2294L34.0454 60.1441C34.632 59.8055 35.348 59.5574 35.3454 60.9681C35.3454 62.5348 34.5747 63.1054 34.0454 63.3668C33.812 63.4801 33.3134 63.6748 33.2827 63.6735V65.4575L32.1653 66.1028V61.2294Z"
    fill="#1F2631"
  />
<path
    d="M37.3334 61.9867C37.8267 61.7014 37.9614 61.384 37.9614 60.352C37.9614 59.2214 37.856 59.0693 37.3334 59.372C36.824 59.6653 36.704 59.888 36.7027 61.0787C36.704 62.0974 36.7667 62.316 37.3334 61.9867ZM37.3334 58.212C38.3294 57.6347 39.08 57.424 39.08 59.7067C39.08 61.8587 38.3694 62.5467 37.3334 63.1454C36.292 63.744 35.5854 63.94 35.5854 61.7253C35.5854 59.4413 36.3627 58.772 37.3334 58.212Z"
    fill="#1F2631"
  />
<path
    d="M39.476 57.0079L40.5961 56.3613V59.7293C40.5961 60.0839 40.7854 59.9653 40.9534 59.8693L42.1414 59.1826V60.3399L40.4334 61.3279C39.9094 61.6306 39.4773 61.5946 39.476 60.8413V57.0079Z"
    fill="#1F2631"
  />
<path
    d="M42.5093 55.2561L43.628 54.6107V59.4827L42.5093 60.1294V55.2561Z"
    fill="#1F2631"
  />
<path
    d="M45.4574 53.5014C46.2867 53.0214 46.4854 52.9614 46.98 52.8881V53.8934C46.9747 53.8974 46.3974 54.1174 45.8027 54.4587C45.3174 54.7387 45.116 54.8281 45.1173 56.1881C45.1173 57.2788 45.2253 57.4428 45.8093 57.1054C46.416 56.7574 46.98 56.3694 46.98 56.3694V57.3761C46.62 57.7548 46.3094 57.9947 45.4574 58.4694C44.3907 59.0641 43.9987 58.4574 43.9987 56.8214C43.9987 55.2628 44.3107 54.1627 45.4574 53.5014Z"
    fill="#1F2631"
  />
<path
    d="M47.32 53.6093C47.32 52.6053 47.9867 52.096 48.392 51.86C48.392 51.86 49.604 51.16 50.28 50.876V51.9613L48.7387 52.852C48.4414 53.0253 48.4414 53.2173 48.4387 53.3986L48.4414 53.6907L49.9907 52.8653V53.9386L48.4414 54.896V55.188C48.4387 55.5413 48.6294 55.424 48.7974 55.328L50.28 54.472V55.5493C49.6854 55.9866 48.4507 56.7186 48.4507 56.7186C48.076 56.9466 47.32 57.3 47.32 56.2813V53.6093Z"
    fill="#1F2631"
  />
<path
    d="M18.08 39.2773L21.5613 37.1106C21.56 37.5973 21.388 37.94 21.1107 38.1013L17.6307 40.2693C17.9067 40.1066 18.08 39.7653 18.08 39.2773Z"
    fill="#DAE3EC"
  />
<path
    d="M8.46796 24.4268L11.948 22.2575C12.2293 22.0948 12.62 22.1174 13.0493 22.3654L9.56796 24.5334C9.13862 24.2854 8.74929 24.2628 8.46796 24.4268Z"
    fill="#FCFDFE"
  />
<path
    d="M18.1053 31.2413L21.584 29.0707L21.5613 37.1107L18.08 39.2773L18.1053 31.2413Z"
    fill="#DAE3EC"
  />
<path
    d="M9.56799 24.5333L13.0494 22.3653L20.0427 26.404L16.5614 28.5693L9.56799 24.5333Z"
    fill="#FCFDFE"
  />
<path
    d="M16.5613 28.5695L20.0427 26.4041C20.896 26.8948 21.588 28.0908 21.584 29.0708L18.1054 31.2415C18.108 30.2601 17.416 29.0641 16.5613 28.5695Z"
    fill="#E9EFF4"
  />
<path
    d="M16.5613 28.5693C17.416 29.064 18.108 30.26 18.1054 31.2413L18.08 39.2773C18.08 40.26 17.384 40.6546 16.5307 40.1613L9.53733 36.1253C8.68133 35.6306 7.99205 34.4346 7.99605 33.4546L8.01871 25.4173C8.01871 24.4346 8.71332 24.0413 9.56799 24.5333L16.5613 28.5693Z"
    fill="#DAE3EC"
  />
<path
    d="M16.288 38.3533C16.1627 38.3533 16.0146 38.3079 15.8613 38.2199L10.4333 35.0866C9.84265 34.7453 9.34796 33.8853 9.34796 33.2066L9.36665 26.9693C9.36665 26.8213 9.39729 26.3413 9.80929 26.3413C9.93596 26.3413 10.084 26.3866 10.2373 26.4759L15.6653 29.6106C16.2533 29.9506 16.7533 30.8119 16.7506 31.4879L16.7306 37.7266C16.7306 37.8746 16.6987 38.3533 16.288 38.3533Z"
    fill="#C1CFE0"
  />
<defs>
<radialGradient
      id="paint0_radial_0_1"
      cx="0"
      cy="0"
      r="1"
      gradientUnits="userSpaceOnUse"
      gradientTransform="translate(-201.911 184.632) rotate(180) scale(378.897 378.897)"
    >
<stop stop-color="#A5A0D7" />
<stop offset="1" stop-color="#928DCE" />
</radialGradient>
<radialGradient
      id="paint1_radial_0_1"
      cx="0"
      cy="0"
      r="1"
      gradientUnits="userSpaceOnUse"
      gradientTransform="translate(-201.911 184.632) rotate(180) scale(378.897 378.897)"
    >
<stop stop-color="#A5A0D7" />
<stop offset="1" stop-color="#928DCE" />
</radialGradient>
<radialGradient
      id="paint2_radial_0_1"
      cx="0"
      cy="0"
      r="1"
      gradientUnits="userSpaceOnUse"
      gradientTransform="translate(-201.911 184.632) rotate(180) scale(378.898 378.897)"
    >
<stop stop-color="#A5A0D7" />
<stop offset="1" stop-color="#928DCE" />
</radialGradient>
</defs>
</svg>
