<svg
  width="73"
  height="143"
  viewBox="0 0 73 143"
  fill="none"
  xmlns="http://www.w3.org/2000/svg"
>
<mask
    id="mask0_0_1"
    style="mask-type:luminance"
    maskUnits="userSpaceOnUse"
    x="51"
    y="124"
    width="30"
    height="19"
  >
<path
      d="M52.8846 142.316L51.4606 141.489L80.2793 124.85V126.498L52.8846 142.316Z"
      fill="white"
    />
</mask>
<g mask="url(#mask0_0_1)">
<path
      d="M52.8846 142.316L51.4606 141.489L80.2793 124.85V126.498L52.8846 142.316Z"
      fill="url(#paint0_radial_0_1)"
    />
</g>
<mask
    id="mask1_0_1"
    style="mask-type:luminance"
    maskUnits="userSpaceOnUse"
    x="2"
    y="52"
    width="40"
    height="24"
  >
<path
      d="M4.36662 75.1575L2.94263 74.3294L39.976 52.9495L41.3999 53.7802L4.36662 75.1575Z"
      fill="white"
    />
</mask>
<g mask="url(#mask1_0_1)">
<path
      d="M4.36662 75.1575L2.94263 74.3294L39.976 52.9495L41.3999 53.7802L4.36662 75.1575Z"
      fill="url(#paint1_radial_0_1)"
    />
</g>
<path
    d="M53.712 81.1614C55.2666 80.2587 57.364 80.2827 59.6947 81.4147C59.944 81.5387 60.2026 81.6747 60.4573 81.8214C63.8426 83.7747 66.8066 87.5281 68.4773 91.5614C69.388 93.7681 69.9146 96.0614 69.908 98.1894C69.8986 101.176 68.8426 103.283 67.1426 104.271L60.7186 108.003C62.424 107.012 63.4786 104.911 63.484 101.921C63.4933 99.7934 62.9666 97.5027 62.0533 95.2934C60.384 91.2587 57.4213 87.5067 54.0373 85.5534C53.7813 85.4067 53.524 85.2694 53.272 85.1467C50.9426 84.0174 48.8466 83.9881 47.2906 84.8947L53.712 81.1614Z"
    fill="#17191C"
  />
<path
    d="M54.0373 85.5534C48.8 82.5294 44.5426 84.9561 44.5253 90.9748C44.5093 96.9908 48.74 104.319 53.976 107.341C59.2093 110.365 63.468 107.937 63.484 101.921C63.5053 95.9054 59.272 88.5774 54.0373 85.5534Z"
    fill="#1F2631"
  />
<path
    d="M54.0227 90.1281C50.988 88.3747 48.516 89.7827 48.508 93.2734C48.496 96.7627 50.9507 101.012 53.988 102.767C57.0253 104.521 59.4946 103.113 59.504 99.6201C59.5146 96.1334 57.0587 91.8814 54.0227 90.1281Z"
    fill="white"
  />
<path
    d="M54.0147 93.0867C52.4013 92.1534 51.084 92.9027 51.0813 94.7587C51.0747 96.6134 52.38 98.8774 53.9947 99.8081C55.612 100.741 56.928 99.9921 56.9333 98.1361C56.936 96.2801 55.6293 94.0187 54.0147 93.0867Z"
    fill="#17191C"
  />
<path
    d="M46.9173 54.4494L48.8453 53.3307C48.724 53.7001 48.516 53.9614 48.2533 54.1134L46.3253 55.2334C46.5907 55.0814 46.7973 54.8187 46.9173 54.4494Z"
    fill="#181B20"
  />
<path
    d="M52.784 36.6987L54.7107 35.5775L48.8454 53.3308L46.9174 54.4495L52.784 36.6987Z"
    fill="#17191C"
  />
<path
    d="M48.7493 31.5534L50.6759 30.4348C51.1279 30.1708 51.7506 30.2268 52.4026 30.6028L50.4759 31.7228C49.8239 31.3454 49.2026 31.2908 48.7493 31.5534Z"
    fill="#181B20"
  />
<path
    d="M50.476 31.7228L52.4026 30.6028C52.6466 30.7428 52.8946 30.9294 53.1399 31.1614C54.4199 32.3601 55.1173 34.3374 54.7106 35.5774L52.784 36.6987C53.1906 35.4587 52.492 33.4801 51.2106 32.2801C50.968 32.0494 50.7186 31.8628 50.476 31.7228Z"
    fill="#181B20"
  />
<path
    d="M50.476 31.7228C50.7187 31.8628 50.968 32.0495 51.2107 32.2802C52.492 33.4802 53.1907 35.4588 52.784 36.6988L46.9174 54.4495C46.5907 55.4535 45.6307 55.6615 44.6027 55.0668C44.3587 54.9281 44.1094 54.7415 43.868 54.5108C42.5894 53.3108 41.884 51.3308 42.2894 50.0895L48.1574 32.3375C48.4854 31.3375 49.4427 31.1268 50.476 31.7228Z"
    fill="#1D242D"
  />
<path
    d="M40.924 52.3841L42.8506 51.2654C43.3106 50.9987 43.9359 51.0627 44.5853 51.4374L42.6573 52.5574C42.0106 52.184 41.3813 52.1201 40.924 52.3841Z"
    fill="#181B20"
  />
<path
    d="M42.6573 52.5575L44.5853 51.4375C44.9133 51.6268 45.248 51.8961 45.5667 52.2428L43.6387 53.3628C43.3213 53.0161 42.9867 52.7481 42.6573 52.5575Z"
    fill="#181B20"
  />
<path
    d="M49.416 54.6081L51.3413 53.4894L68.928 72.6307L67.0013 73.7507L49.416 54.6081Z"
    fill="#191D22"
  />
<path
    d="M67.0013 73.7508L68.928 72.6308C70.1547 73.9628 70.7027 75.9335 70.152 77.0215C70.028 77.2708 69.8587 77.4535 69.6547 77.5721L67.7267 78.6908C67.9307 78.5735 68.1 78.3908 68.224 78.1414C68.7747 77.0521 68.2267 75.0815 67.0013 73.7508Z"
    fill="#181B20"
  />
<path
    d="M48.4347 53.804C48.764 53.992 49.0973 54.2627 49.416 54.6081L67.0013 73.7507C68.2267 75.0814 68.7747 77.052 68.224 78.1414C67.8214 78.9534 66.9294 79.0587 65.996 78.52C65.668 78.3307 65.336 78.0614 65.02 77.7187L47.4294 58.5801C46.2107 57.2441 45.6587 55.28 46.2053 54.1814C46.608 53.3707 47.5013 53.2627 48.4347 53.804Z"
    fill="#1D242D"
  />
<path
    d="M50.3747 21.2521C51.452 20.6254 52.9053 20.644 54.5227 21.4294C54.6973 21.5147 54.876 21.608 55.0507 21.712C57.3987 23.064 59.456 25.6681 60.6133 28.4667C61.2467 29.9961 61.6107 31.5867 61.6067 33.0614C61.6 35.1361 60.8693 36.5947 59.6867 37.2801L56.4173 39.2881C57.5973 38.6028 58.3293 37.1441 58.3347 35.0721C58.34 33.5961 57.976 32.0067 57.3427 30.4747C56.184 27.6774 54.1267 25.0734 51.7813 23.7201C51.6027 23.6161 51.4253 23.5241 51.2507 23.4361C49.636 22.6534 48.1813 22.6347 47.1013 23.2614L50.3747 21.2521Z"
    fill="#DAE3EC"
  />
<path
    d="M51.7813 23.7201C48.1493 21.6227 45.196 23.3054 45.1853 27.4787C45.172 31.6521 48.104 36.7334 51.7387 38.832C55.3693 40.9294 58.3227 39.2454 58.3347 35.0721C58.348 30.9001 55.412 25.8161 51.7813 23.7201Z"
    fill="#E9EFF4"
  />
<path
    d="M51.7719 26.7068C49.5773 25.4388 47.7933 26.4588 47.784 28.9802C47.7773 31.5042 49.5506 34.5761 51.7466 35.8428C53.9413 37.1108 55.7266 36.0921 55.7333 33.5708C55.7426 31.0481 53.9679 27.9761 51.7719 26.7068Z"
    fill="#1C2026"
  />
<path
    d="M41.7413 47.1347C42.596 46.6387 43.748 46.6534 45.0293 47.2748C45.1653 47.3428 45.308 47.4174 45.448 47.4987C47.3093 48.5721 48.9373 50.6361 49.856 52.8534C50.3586 54.0654 50.648 55.3241 50.6453 56.4948C50.64 58.1361 50.0573 59.2947 49.1226 59.8374L46.5306 61.4281C47.4666 60.8841 48.044 59.7281 48.0506 58.0881C48.0533 56.9175 47.7653 55.6561 47.2666 54.4441C46.344 52.2255 44.716 50.1641 42.856 49.0907C42.7146 49.0067 42.576 48.9347 42.4373 48.8654C41.1546 48.2454 40.0026 48.2294 39.1506 48.7281L41.7413 47.1347Z"
    fill="white"
  />
<path
    d="M42.856 49.0907C39.9786 47.4294 37.6386 48.7614 37.6293 52.0681C37.6186 55.3774 39.9426 59.4041 42.8226 61.0654C45.7 62.7281 48.0426 61.3921 48.0506 58.0881C48.06 54.7814 45.7346 50.752 42.856 49.0907Z"
    fill="#E9EFF4"
  />
<path
    d="M42.8494 51.4574C41.1094 50.4547 39.696 51.2614 39.6907 53.26C39.684 55.2574 41.0894 57.6934 42.828 58.6974C44.568 59.7041 45.984 58.8947 45.9894 56.8974C45.9947 54.8987 44.5907 52.4654 42.8494 51.4574Z"
    fill="#1C2026"
  />
<path
    d="M68.5375 69.2158C65.8561 68.4104 63.0241 69.9291 62.2174 72.6144C61.4081 75.2984 62.9281 78.1277 65.6148 78.9357C68.2948 79.7451 71.1268 78.2251 71.9348 75.5411C72.7428 72.8558 71.2201 70.0264 68.5375 69.2158Z"
    fill="white"
  />
<path
    d="M59.9133 102.828L59.8507 68.0454C59.852 68.9014 59.288 69.7614 58.1573 70.4121L58.2187 105.199C59.3493 104.544 59.9173 103.687 59.9133 102.828Z"
    fill="white"
  />
<mask
    id="mask2_0_1"
    style="mask-type:luminance"
    maskUnits="userSpaceOnUse"
    x="58"
    y="68"
    width="2"
    height="38"
  >
<path
      d="M59.9133 102.828L59.8507 68.0454C59.852 68.9014 59.288 69.7614 58.1573 70.4121L58.2187 105.197C59.3493 104.544 59.9173 103.687 59.9133 102.828Z"
      fill="white"
    />
</mask>
<g mask="url(#mask2_0_1)">
<path
      d="M58.1573 70.4121L58.2187 105.199L58.5547 104.988L58.4907 70.2014L58.1573 70.4121Z"
      fill="white"
    />
<path
      d="M58.4907 70.2015L58.5547 104.988C59.4614 104.367 59.9174 103.597 59.9134 102.828L59.8507 68.0455C59.852 68.8135 59.3987 69.5815 58.4907 70.2015Z"
      fill="white"
    />
</g>
<path
    d="M47.2467 76.7134L47.308 111.499L58.2187 105.199L58.1574 70.4121L47.2467 76.7134Z"
    fill="white"
  />
<path
    d="M36.34 83.0081L36.404 117.793L47.308 111.499L47.2466 76.7134L36.34 83.0081Z"
    fill="white"
  />
<path
    d="M55.864 99.0188L38.6493 108.957L38.6973 113.927L47.3013 108.96L55.912 103.988L55.864 99.0188Z"
    fill="#C1CFE0"
  />
<path
    d="M28.2386 83.0148L28.3013 117.799C30.5266 119.091 34.1613 119.088 36.404 117.793L36.34 83.0081C34.1 84.3028 30.4653 84.3081 28.2386 83.0148Z"
    fill="#C1CFE0"
  />
<mask
    id="mask3_0_1"
    style="mask-type:luminance"
    maskUnits="userSpaceOnUse"
    x="28"
    y="83"
    width="9"
    height="36"
  >
<path
      d="M28.2386 83.0148L28.3013 117.799C30.5266 119.091 34.1613 119.088 36.404 117.793L36.34 83.0081C34.0986 84.3028 30.4653 84.3081 28.2386 83.0148Z"
      fill="white"
    />
</mask>
<g mask="url(#mask3_0_1)">
<path
      d="M28.7853 83.2921L28.8466 118.079C31.0879 119.085 34.3373 118.985 36.4039 117.793L36.3399 83.0081C34.2746 84.2015 31.0253 84.2988 28.7853 83.2921Z"
      fill="#DAE3EC"
    />
</g>
<path
    d="M12.1053 68.9241C9.86392 70.2187 9.84392 72.3241 12.0706 73.6161L28.2386 83.0148C30.4652 84.3081 34.0999 84.3028 36.3399 83.0081L47.2466 76.7134L58.1573 70.4121C60.3986 69.1188 60.4199 67.0148 58.1946 65.7201L42.0226 56.3228C39.7973 55.0321 36.1599 55.0347 33.9239 56.3294L23.0093 62.6281L12.1053 68.9241Z"
    fill="#E9EFF4"
  />
<path
    d="M28.7853 83.2922C28.596 83.2082 28.4133 83.1149 28.2386 83.0149L12.0706 73.6162C10.9666 72.9749 10.4147 72.1349 10.412 71.2922L10.4747 106.078C10.4773 106.92 11.0293 107.76 12.132 108.402L28.3013 117.799C28.476 117.898 28.6573 117.995 28.8467 118.079L28.7853 83.2922Z"
    fill="#C1CFE0"
  />
<path
    d="M12.7946 105.037C14.3506 104.133 16.444 104.16 18.776 105.291C19.028 105.416 19.2853 105.549 19.5399 105.697C22.9239 107.652 25.8893 111.403 27.5573 115.437C28.4693 117.645 28.9973 119.939 28.9893 122.064C28.9826 125.052 27.9266 127.157 26.224 128.145L19.8026 131.879C21.5039 130.889 22.5599 128.785 22.5666 125.799C22.5759 123.671 22.0493 121.377 21.1373 119.168C19.4666 115.136 16.5013 111.383 13.1186 109.429C12.8626 109.281 12.6066 109.145 12.3546 109.024C10.024 107.892 7.92928 107.865 6.37195 108.769L12.7946 105.037Z"
    fill="#17191C"
  />
<path
    d="M52.7626 53.1347L52.7466 68.3747C52.7466 69.9467 52.1506 71.5201 50.9386 72.9774L50.9586 57.7307C52.1373 56.2774 52.7506 54.7054 52.7626 53.1347Z"
    fill="#1C2026"
  />
<path
    d="M50.9587 57.7308L50.9387 72.9775C50.068 74.0242 48.8907 75.0121 47.376 75.8868C45.8774 76.7615 44.156 77.4588 42.3494 77.9855L42.3534 62.7241C44.172 62.2161 45.8627 61.5188 47.376 60.6442C48.8747 59.7695 50.068 58.7815 50.9587 57.7308Z"
    fill="#1F2631"
  />
<path
    d="M42.3534 62.7241L42.3494 77.9854C39.5147 78.7721 36.3667 79.1201 33.2814 79.0321V63.7894C36.3854 63.8788 39.5014 63.5294 42.3534 62.7241Z"
    fill="#1C2026"
  />
<path
    d="M33.2813 63.7894V79.0321C28.872 78.8841 24.5319 77.8388 21.1706 75.8868C17.5159 73.7894 15.684 71.0254 15.6973 68.2588L15.684 53.0161C15.684 55.7841 17.5186 58.5468 21.1706 60.6441C24.5466 62.5961 28.872 63.6441 33.2813 63.7894Z"
    fill="#1C2026"
  />
<path
    d="M47.2707 45.4775C54.5413 49.6655 54.5813 56.4522 47.376 60.6442C40.1693 64.8388 28.4213 64.8388 21.1707 60.6442C13.9053 56.4522 13.848 49.6655 21.084 45.4775C28.2907 41.2802 40.024 41.2802 47.2707 45.4775Z"
    fill="#1C2026"
  />
<path
    d="M59.9133 61.8948L59.9399 31.6588C59.9413 32.5148 59.376 33.3748 58.248 34.0255L58.2186 64.2615C59.3493 63.6081 59.9173 62.7508 59.9133 61.8948Z"
    fill="white"
  />
<mask
    id="mask4_0_1"
    style="mask-type:luminance"
    maskUnits="userSpaceOnUse"
    x="58"
    y="31"
    width="2"
    height="34"
  >
<path
      d="M59.9133 61.8948L59.9399 31.6588C59.9413 32.5161 59.376 33.3748 58.248 34.0255L58.2186 64.2615C59.3493 63.6095 59.9173 62.7508 59.9133 61.8948Z"
      fill="white"
    />
</mask>
<g mask="url(#mask4_0_1)">
<path
      d="M58.248 34.0255L58.2186 64.2615L58.5546 64.0508L58.5813 33.8162L58.248 34.0255Z"
      fill="white"
    />
<path
      d="M58.5813 33.8162L58.5546 64.0508C59.4613 63.4308 59.9173 62.6615 59.9133 61.8949L59.9399 31.6589C59.9413 32.4282 59.488 33.1962 58.5813 33.8162Z"
      fill="white"
    />
</g>
<path
    d="M10.5013 34.9055L10.4746 65.1415C10.4773 65.9855 11.0293 66.8241 12.132 67.4655L12.16 37.2321C11.056 36.5895 10.5026 35.7482 10.5013 34.9055Z"
    fill="#C1CFE0"
  />
<path
    d="M36.432 46.6228L36.4039 76.8574L58.2186 64.2614L58.2479 34.0254L36.432 46.6228Z"
    fill="white"
  />
<path
    d="M28.328 46.6282L12.16 37.2321C11.056 36.5895 10.5026 35.7482 10.5013 34.9055L10.4746 65.1415C10.4773 65.9855 11.0293 66.8241 12.132 67.4655L28.3013 76.8615C28.4759 76.9628 28.6573 77.0561 28.8466 77.1415L28.8759 46.9082C28.6866 46.8215 28.5026 46.7282 28.328 46.6282Z"
    fill="#C1CFE0"
  />
<path
    d="M28.876 46.9081L28.8467 77.1414C31.088 78.1467 34.3373 78.0494 36.404 76.8574L36.432 46.6227C34.3654 47.8161 31.116 47.9121 28.876 46.9081Z"
    fill="#DAE3EC"
  />
<path
    d="M12.1946 32.5374C9.95195 33.8321 9.93328 35.9388 12.1599 37.2321L28.3279 46.6281C30.5533 47.9214 34.1906 47.9174 36.432 46.6228L47.3346 40.3281L58.2479 34.0254C60.4879 32.7334 60.5066 30.6268 58.2813 29.3348L42.1133 19.9374C39.8853 18.6441 36.2519 18.6495 34.0106 19.9441L23.0986 26.2428L12.1946 32.5374Z"
    fill="#E9EFF4"
  />
<path
    d="M10.1186 75.5921L12.0453 74.4721C11.9253 74.8415 11.7173 75.1028 11.4546 75.2561L9.52661 76.3761C9.79061 76.2228 9.99727 75.9614 10.1186 75.5921Z"
    fill="#181B20"
  />
<path
    d="M15.9867 57.8388L17.9146 56.7189L12.0453 74.4722L10.1187 75.5922L15.9867 57.8388Z"
    fill="#17191C"
  />
<path
    d="M11.9493 52.6961L13.8773 51.5748C14.3293 51.3135 14.952 51.3681 15.604 51.7455L13.6773 52.8641C13.0253 52.4868 12.4027 52.4321 11.9493 52.6961Z"
    fill="#181B20"
  />
<path
    d="M13.6774 52.8641L15.604 51.7454C15.848 51.8841 16.096 52.0707 16.3414 52.3014C17.62 53.5027 18.32 55.4801 17.9147 56.7188L15.9867 57.8387C16.3907 56.6001 15.692 54.6214 14.4134 53.4227C14.168 53.1894 13.9214 53.0041 13.6774 52.8641Z"
    fill="#181B20"
  />
<path
    d="M13.6773 52.8641C13.9213 53.0041 14.168 53.1894 14.4133 53.4227C15.692 54.6214 16.3906 56.6001 15.9866 57.8387L10.1186 75.5921C9.79064 76.5921 8.83062 76.8014 7.80262 76.208C7.55996 76.068 7.31329 75.8841 7.06929 75.6534C5.79062 74.4534 5.08531 72.4707 5.48931 71.232L11.3586 53.4787C11.6866 52.4774 12.6453 52.2681 13.6773 52.8641Z"
    fill="#1D242D"
  />
<path
    d="M4.12671 73.5267L6.05203 72.4067C6.5107 72.1414 7.1387 72.2054 7.78537 72.5774L5.85871 73.6987C5.21071 73.3241 4.58404 73.2614 4.12671 73.5267Z"
    fill="#181B20"
  />
<path
    d="M5.85864 73.6988L7.7853 72.5775C8.11464 72.7695 8.44795 73.0375 8.76662 73.3841L6.83862 74.5042C6.51996 74.1588 6.18798 73.8881 5.85864 73.6988Z"
    fill="#181B20"
  />
<path
    d="M6.83862 74.5041L8.76662 73.3841L26.3533 92.5267L24.4266 93.6467L6.83862 74.5041Z"
    fill="#191D22"
  />
<path
    d="M24.4266 93.6468L26.3533 92.5268C27.58 93.8588 28.1266 95.8295 27.5773 96.9161C27.4506 97.1668 27.2813 97.3481 27.08 97.4668L25.1546 98.5868C25.3546 98.4695 25.5253 98.2868 25.6506 98.0361C26.2013 96.9481 25.652 94.9775 24.4266 93.6468Z"
    fill="#181B20"
  />
<path
    d="M5.8587 73.6988C6.18803 73.8881 6.52001 74.1588 6.83868 74.5041L24.4267 93.6468C25.652 94.9775 26.2014 96.9481 25.6507 98.0361C25.2454 98.8495 24.352 98.9548 23.4227 98.4161C23.096 98.2268 22.7627 97.9588 22.444 97.6135L4.85336 78.4748C3.63203 77.1388 3.08404 75.1748 3.62937 74.0775C4.03337 73.2642 4.92537 73.1588 5.8587 73.6988Z"
    fill="#1D242D"
  />
<path
    d="M13.5746 42.3921C14.6546 41.7668 16.1066 41.7841 17.7226 42.5721C17.8986 42.6548 18.076 42.7494 18.2533 42.8534C20.6 44.2068 22.6573 46.8081 23.8146 49.6081C24.448 51.1388 24.8146 52.7281 24.808 54.2028C24.804 56.2775 24.0693 57.7374 22.8866 58.4228L19.6186 60.4308C20.7973 59.7428 21.5293 58.2841 21.5359 56.2135C21.5426 54.7375 21.1773 53.1495 20.544 51.6161C19.3853 48.8188 17.328 46.2147 14.9826 44.8601C14.8053 44.7561 14.6266 44.6654 14.4533 44.5788C12.836 43.7948 11.3826 43.7748 10.3026 44.4028L13.5746 42.3921Z"
    fill="white"
  />
<path
    d="M14.9826 44.86C11.3493 42.764 8.39728 44.4467 8.38528 48.62C8.37462 52.7934 11.3066 57.8761 14.9386 59.9721C18.5706 62.0707 21.5239 60.3854 21.5359 56.2134C21.5479 52.0414 18.6146 46.956 14.9826 44.86Z"
    fill="#E9EFF4"
  />
<path
    d="M14.9746 47.8495C12.7786 46.5815 10.9919 47.5988 10.9866 50.1215C10.9799 52.6455 12.7519 55.7175 14.9479 56.9841C17.1426 58.2508 18.9279 57.2348 18.9346 54.7121C18.9426 52.1881 17.1692 49.1175 14.9746 47.8495Z"
    fill="#1C2026"
  />
<path
    d="M4.94269 68.2748C5.79736 67.7815 6.94938 67.7935 8.23071 68.4161C8.36938 68.4855 8.50937 68.5588 8.6507 68.6415C10.512 69.7121 12.14 71.7761 13.0574 73.9934C13.5587 75.2068 13.848 76.4655 13.844 77.6348C13.84 79.2788 13.26 80.4374 12.3227 80.9801L9.73205 82.5708C10.6654 82.0255 11.2467 80.8708 11.252 79.2281C11.2547 78.0575 10.968 76.7988 10.4654 75.5841C9.54671 73.3681 7.91737 71.3055 6.05737 70.2308C5.91871 70.1481 5.77602 70.0774 5.63869 70.0068C4.35602 69.3854 3.20537 69.3721 2.34937 69.8708L4.94269 68.2748Z"
    fill="white"
  />
<path
    d="M6.05735 70.2308C3.18001 68.5708 0.838684 69.9028 0.828017 73.2108C0.821351 76.5188 3.14535 80.5455 6.02535 82.2068C8.90135 83.8708 11.2427 82.5348 11.252 79.2282C11.2627 75.9228 8.93735 71.8922 6.05735 70.2308Z"
    fill="#E9EFF4"
  />
<path
    d="M6.05063 72.6001C4.31197 71.5947 2.89597 72.4041 2.89064 74.4001C2.88531 76.3987 4.29198 78.8361 6.03065 79.8374C7.76931 80.8441 9.18397 80.0361 9.18931 78.0387C9.19731 76.0401 7.79063 73.6054 6.05063 72.6001Z"
    fill="#1C2026"
  />
<path
    d="M25.8854 90.6974C23.2067 89.8921 20.3734 91.4094 19.5667 94.0934C18.76 96.7801 20.2787 99.6081 22.9641 100.415C25.6441 101.225 28.476 99.7054 29.2854 97.0214C30.092 94.3361 28.5707 91.5068 25.8854 90.6974Z"
    fill="white"
  />
<path
    d="M47.7493 6.79876C48.6267 6.28943 49.8053 6.30547 51.1187 6.94147C51.2613 7.01214 51.4053 7.08944 51.5493 7.17077C53.4547 8.27077 55.1227 10.3828 56.0627 12.6548C56.5773 13.8975 56.8746 15.1881 56.8693 16.3868C56.8666 18.0708 56.2693 19.2535 55.312 19.8108L51.696 21.9121C52.6547 21.3561 53.2507 20.1708 53.2533 18.4895C53.2573 17.2921 52.9613 16.0001 52.448 14.7561C51.5067 12.4855 49.836 10.3735 47.932 9.27214C47.788 9.18947 47.644 9.11347 47.504 9.04414C46.1906 8.40681 45.012 8.39213 44.1346 8.90013L47.7493 6.79876Z"
    fill="#17191C"
  />
<path
    d="M47.932 9.27206C44.9853 7.57073 42.5866 8.93601 42.5759 12.324C42.5693 15.712 44.9493 19.8387 47.8973 21.54C50.8453 23.2427 53.244 21.8747 53.2533 18.4894C53.2653 15.1014 50.88 10.9747 47.932 9.27206Z"
    fill="#1F2631"
  />
<path
    d="M47.9267 11.848C46.2147 10.8614 44.824 11.6534 44.8213 13.6174C44.8146 15.5827 46.1973 17.9774 47.9053 18.9641C49.616 19.9534 51.0053 19.1587 51.012 17.1934C51.0186 15.228 49.636 12.8347 47.9267 11.848Z"
    fill="white"
  />
<path
    d="M42.9333 25.0694L42.928 35.6321C42.928 36.2881 42.68 36.9414 42.1733 37.5494L42.1827 26.9867C42.6733 26.3827 42.9307 25.7254 42.9333 25.0694Z"
    fill="#1C2026"
  />
<path
    d="M42.1827 26.9868L42.1734 37.5495C41.812 37.9842 41.3214 38.3975 40.6881 38.7641C40.0641 39.1268 39.3481 39.4201 38.5947 39.6375L38.5974 29.0668C39.3547 28.8561 40.0574 28.5655 40.6907 28.2001C41.3161 27.8361 41.812 27.4255 42.1827 26.9868Z"
    fill="#1C2026"
  />
<path
    d="M38.5974 29.0667L38.5947 39.6373C37.4134 39.9667 36.1 40.1107 34.816 40.0733V29.512C36.108 29.5493 37.4054 29.4014 38.5974 29.0667Z"
    fill="#1C2026"
  />
<path
    d="M34.816 29.512V40.0734C32.9773 40.0134 31.1666 39.5787 29.7666 38.7641C28.244 37.8894 27.48 36.7374 27.4867 35.584L27.48 25.0214C27.48 26.1734 28.244 27.3241 29.7666 28.2001C31.1746 29.0134 32.9773 29.4507 34.816 29.512Z"
    fill="#1C2026"
  />
<path
    d="M40.6467 21.8787C43.676 23.6254 43.6933 26.4534 40.6907 28.2001C37.6853 29.9494 32.7893 29.9494 29.7667 28.2001C26.7373 26.4534 26.7147 23.6254 29.7293 21.8787C32.7347 20.1294 37.6253 20.1294 40.6467 21.8787Z"
    fill="#1C2026"
  />
<path
    d="M53.832 26.1121L53.7866 9.54812C53.7866 10.1935 53.364 10.8401 52.5106 11.3308L52.5586 27.8934C53.4093 27.4041 53.8346 26.7575 53.832 26.1121Z"
    fill="white"
  />
<mask
    id="mask5_0_1"
    style="mask-type:luminance"
    maskUnits="userSpaceOnUse"
    x="52"
    y="9"
    width="2"
    height="19"
  >
<path
      d="M53.832 26.1121L53.7866 9.54812C53.7866 10.1935 53.364 10.8401 52.5106 11.3294L52.5586 27.8934C53.4093 27.4041 53.8346 26.7575 53.832 26.1121Z"
      fill="white"
    />
</mask>
<g mask="url(#mask5_0_1)">
<path
      d="M52.5106 11.3308L52.5586 27.8934L52.8106 27.7374L52.7626 11.1721L52.5106 11.3308Z"
      fill="white"
    />
<path
      d="M52.7626 11.1722L52.8106 27.7375C53.4919 27.2695 53.8346 26.6895 53.832 26.1122L53.7866 9.54816C53.7866 10.1268 53.444 10.7055 52.7626 11.1722Z"
      fill="white"
    />
</g>
<path
    d="M16.5826 11.9907L16.6293 28.5548C16.6293 29.1894 17.0466 29.8228 17.8773 30.3054L17.8293 13.7414C16.9987 13.2588 16.584 12.6254 16.5826 11.9907Z"
    fill="#C1CFE0"
  />
<mask
    id="mask6_0_1"
    style="mask-type:luminance"
    maskUnits="userSpaceOnUse"
    x="16"
    y="11"
    width="2"
    height="20"
  >
<path
      d="M16.5826 11.9907L16.6293 28.5548C16.6293 29.1894 17.0466 29.8228 17.8773 30.3054L17.8293 13.7414C16.9987 13.2588 16.584 12.6254 16.5826 11.9907Z"
      fill="white"
    />
</mask>
<g mask="url(#mask6_0_1)">
<path
      d="M16.5826 11.9907L16.6293 28.5548C16.6293 29.1894 17.0466 29.8228 17.8773 30.3054L17.8293 13.7414C16.9987 13.2588 16.584 12.6254 16.5826 11.9907Z"
      fill="#C1CFE0"
    />
</g>
<path
    d="M44.2999 16.0708L44.3453 32.6348L52.5586 27.8934L52.5106 11.3308L44.2999 16.0708Z"
    fill="white"
  />
<path
    d="M17.8293 13.7415L17.8773 30.3055L30.044 37.3761L29.9973 20.8135L17.8293 13.7415Z"
    fill="#C1CFE0"
  />
<path
    d="M36.0959 20.8081L36.1426 37.3707L44.3453 32.6347L44.2999 16.0707L36.0959 20.8081Z"
    fill="white"
  />
<path
    d="M29.9973 20.8135L30.044 37.3761C30.176 37.4521 30.3133 37.5228 30.456 37.5868L30.4093 21.0228C30.2666 20.9588 30.1293 20.8882 29.9973 20.8135Z"
    fill="#C1CFE0"
  />
<path
    d="M30.4093 21.0228L30.456 37.5868C32.1413 38.3428 34.5866 38.2708 36.1426 37.3708L36.096 20.8082C34.54 21.7068 32.0946 21.7801 30.4093 21.0228Z"
    fill="#DAE3EC"
  />
<path
    d="M17.856 10.2095C16.1694 11.1842 16.1547 12.7695 17.8294 13.7415L29.9974 20.8135C31.672 21.7869 34.4067 21.7829 36.096 20.8082L44.3 16.0708L52.5107 11.3309C54.2 10.3562 54.2147 8.7722 52.5387 7.8002L40.372 0.728197C38.6947 -0.245136 35.96 -0.241133 34.2733 0.730867L26.0614 5.47221L17.856 10.2095Z"
    fill="#E9EFF4"
  />
<path
    d="M43.5693 28.7627C43.744 30.4614 45.0653 31.0974 46.668 30.1734C48.2707 29.2467 49.592 27.0854 49.7627 25.1894L43.5693 28.7627Z"
    fill="#242E3D"
  />
<path
    d="M47.08 20.9721C47.1013 20.6774 47.1573 20.3774 47.2413 20.076C47.5747 18.868 48.356 17.6534 49.3093 16.912C49.4627 16.792 49.62 16.6854 49.7813 16.592L50.0347 16.46C50.2773 16.3454 50.512 16.272 50.732 16.24C51.1053 16.184 51.4427 16.2414 51.7187 16.4027L52.3787 16.7827C52.1027 16.6227 51.7667 16.564 51.3907 16.62C51.172 16.6534 50.936 16.7254 50.6933 16.84L50.44 16.9734C50.28 17.0654 50.1227 17.1734 49.9693 17.2934C49.016 18.0347 48.2333 19.248 47.9 20.4587C47.8173 20.7587 47.7627 21.0587 47.7387 21.3521L47.7267 21.6734C47.7267 21.848 47.74 22.0147 47.7653 22.168C47.8613 22.7667 48.132 23.1934 48.52 23.42L47.8627 23.0387C47.4733 22.8134 47.2027 22.384 47.104 21.7867C47.08 21.6334 47.0667 21.468 47.0667 21.292L47.08 20.9721Z"
    fill="#17191C"
  />
<path
    d="M50.44 16.9735C48.9373 17.8415 47.7214 19.9468 47.7267 21.6735C47.7307 23.4015 48.956 24.0975 50.4587 23.2295C51.9614 22.3615 53.1773 20.2575 53.1733 18.5295C53.168 16.8015 51.944 16.1055 50.44 16.9735Z"
    fill="#242E3D"
  />
<path
    d="M49.236 23.2081C49.544 23.2081 49.896 23.0974 50.2613 22.8868C51.6533 22.0841 52.7813 20.1281 52.776 18.5294C52.7747 17.5694 52.3573 16.9948 51.6627 16.9948C51.3547 16.9948 51.0027 17.1055 50.6387 17.3161C49.2453 18.1201 48.1173 20.0748 48.12 21.6708C48.1253 22.6334 48.5426 23.2081 49.236 23.2081Z"
    fill="#6CCFE9"
  />
<path
    d="M48.9 21.9054L48.88 21.904L48.6866 21.6734C48.7773 20.6174 49.4813 19.4534 50.3226 18.9654C50.772 18.7054 51.212 18.6641 51.5653 18.8467C51.9107 19.0267 52.128 19.4 52.1786 19.9014L51.9853 20.1347L51.7506 19.9414C51.7173 19.5907 51.5813 19.336 51.368 19.2254C51.1506 19.1134 50.8546 19.1534 50.5373 19.3361C49.8186 19.7534 49.192 20.7961 49.1106 21.7107L48.9 21.9054Z"
    fill="#242E3D"
  />
<path
    d="M37.1826 26.2494C37.2053 25.9561 37.26 25.6548 37.3426 25.3548C37.676 24.1455 38.4586 22.9307 39.4106 22.1907C39.564 22.0707 39.7213 21.9627 39.8813 21.8707L40.136 21.7374C40.3786 21.6227 40.6107 21.5494 40.8307 21.5174C41.2093 21.4614 41.544 21.5188 41.8213 21.6801L42.48 22.0614C42.2026 21.9014 41.8653 21.8427 41.4906 21.8987C41.2706 21.9321 41.04 22.0041 40.7933 22.1174L40.5413 22.2507C40.38 22.3441 40.2213 22.4521 40.0693 22.5707C39.1146 23.3134 38.336 24.5268 38.0026 25.7361C37.9186 26.0361 37.8626 26.3374 37.8386 26.6294L37.8267 26.9507C37.8267 27.1267 37.8387 27.2921 37.8653 27.4468C37.9613 28.0441 38.232 28.4721 38.6213 28.6987L37.9613 28.3174C37.5733 28.0907 37.304 27.6641 37.2066 27.0641C37.1826 26.9108 37.1693 26.7454 37.1666 26.5707L37.1826 26.2494Z"
    fill="#17191C"
  />
<path
    d="M40.5413 22.2507C39.0373 23.12 37.8213 25.224 37.8267 26.9507C37.832 28.68 39.0547 29.3747 40.5573 28.5081C42.0613 27.6387 43.276 25.5347 43.2733 23.8067C43.2667 22.0787 42.044 21.384 40.5413 22.2507Z"
    fill="#242E3D"
  />
<path
    d="M39.3373 28.4855C39.644 28.4855 39.9987 28.3761 40.36 28.1654C41.7534 27.3614 42.884 25.4068 42.8773 23.8081C42.8747 22.8468 42.4574 22.2721 41.764 22.2721C41.4547 22.2721 41.1013 22.3841 40.7387 22.5948C39.348 23.3974 38.216 25.3521 38.2227 26.9495C38.2254 27.9108 38.6413 28.4855 39.3373 28.4855Z"
    fill="#6CCFE9"
  />
<path
    d="M39.0173 27.2987L38.9986 27.2974L38.804 27.0654C38.8946 26.0094 39.6 24.8467 40.4413 24.3587C40.892 24.1001 41.3346 24.0587 41.6826 24.24C42.0306 24.4187 42.2493 24.7934 42.296 25.2947L42.104 25.5281L41.8706 25.3361C41.8373 24.9841 41.7013 24.7294 41.488 24.6201C41.268 24.5067 40.9746 24.5467 40.6546 24.7294C39.9346 25.1454 39.3106 26.1894 39.232 27.1027L39.0173 27.2987Z"
    fill="#242E3D"
  />
<path
    d="M20.5947 18.4068C21.4707 17.8988 22.6493 17.9135 23.9627 18.5495C24.1027 18.6202 24.2493 18.6962 24.3933 18.7775C26.2973 19.8788 27.9666 21.9921 28.9066 24.2628C29.4226 25.5055 29.7173 26.7961 29.7133 27.9948C29.7106 29.6775 29.1133 30.8628 28.1546 31.4188L24.5413 33.5201C25.4986 32.9628 26.0933 31.7775 26.0973 30.0961C26.1 28.8988 25.804 27.6082 25.292 26.3642C24.3507 24.0935 22.6813 21.9802 20.7746 20.8802C20.6346 20.7962 20.488 20.7201 20.348 20.6508C19.0346 20.0148 17.856 19.9988 16.9786 20.5082L20.5947 18.4068Z"
    fill="#17191C"
  />
<path
    d="M20.7746 20.8801C17.8279 19.1788 15.432 20.5428 15.4213 23.9321C15.412 27.3201 17.7919 31.4468 20.7413 33.1481C23.6893 34.8508 26.088 33.4827 26.0973 30.0961C26.1093 26.7081 23.7253 22.5841 20.7746 20.8801Z"
    fill="#1F2631"
  />
<path
    d="M20.768 23.4574C19.0587 22.468 17.6681 23.2614 17.6627 25.2267C17.6574 27.1907 19.0414 29.5841 20.7494 30.5721C22.4601 31.5614 23.8494 30.7667 23.8561 28.8014C23.8627 26.8374 22.4787 24.4427 20.768 23.4574Z"
    fill="white"
  />
<path
    d="M43.1693 57.6215L41.9667 56.9201C42.7293 56.4788 43.4214 56.4374 43.9214 56.7267L45.1254 57.4294C44.628 57.1387 43.9347 57.1815 43.1693 57.6215Z"
    fill="#F89C0F"
  />
<path
    d="M41.2373 64.1334L40.0307 63.4308C39.5374 63.1441 39.228 62.5321 39.2254 61.6627C39.2214 59.9187 40.4467 57.7974 41.9667 56.9201L43.1693 57.6214C41.652 58.4961 40.4293 60.6201 40.4333 62.3654C40.4347 63.2334 40.7413 63.8454 41.2373 64.1334Z"
    fill="#F89C0F"
  />
<path
    d="M43.1694 57.6215C44.688 56.7442 45.9241 57.4481 45.9267 59.1934C45.9334 60.9374 44.708 63.0641 43.1894 63.9441C41.6707 64.8188 40.436 64.1108 40.4334 62.3654C40.4294 60.6201 41.652 58.4962 43.1694 57.6215Z"
    fill="#F9BC0C"
  />
<path
    d="M43.1427 48.1641L42 47.5001C42.7227 47.0827 43.3787 47.044 43.852 47.3174L44.992 47.9814C44.5214 47.708 43.8667 47.7454 43.1427 48.1641Z"
    fill="#E7312E"
  />
<path
    d="M41.3066 54.332L40.1613 53.6654C39.6933 53.3947 39.4039 52.8161 39.4013 51.9947C39.3959 50.3441 40.5613 48.3307 41.9999 47.5001L43.1426 48.1641C41.7053 48.9934 40.5399 51.0067 40.5426 52.66C40.5453 53.48 40.8373 54.0587 41.3066 54.332Z"
    fill="#E7312E"
  />
<path
    d="M43.1426 48.1642C44.5813 47.3322 45.7493 48.0002 45.7546 49.6522C45.7573 51.3042 44.5973 53.3201 43.1586 54.1508C41.72 54.9801 40.5479 54.3108 40.5426 52.6601C40.5399 51.0068 41.7053 48.9935 43.1426 48.1642Z"
    fill="#F05555"
  />
<path
    d="M50.9614 49.9561L49.7547 49.2534L49.7454 45.9414L50.952 46.6414L50.9614 49.9561Z"
    fill="#C1CFE0"
  />
<path
    d="M50.952 46.6415L49.7454 45.9415L54.34 43.2882L55.5454 43.9895L50.952 46.6415Z"
    fill="#C1CFE0"
  />
<path
    d="M55.5454 43.9894L55.556 47.3027L50.9614 49.9561L50.952 46.6414L55.5454 43.9894Z"
    fill="#E9EFF4"
  />
<path
    d="M54.596 51.2694L53.3906 50.5694C54.1546 50.1267 54.8493 50.0854 55.3493 50.376L56.556 51.0774C56.056 50.7868 55.3626 50.8267 54.596 51.2694Z"
    fill="#466C29"
  />
<path
    d="M52.66 57.7814L51.4546 57.0801C50.9613 56.7934 50.6546 56.1801 50.6506 55.3134C50.648 53.5681 51.8706 51.4467 53.3906 50.5694L54.596 51.2694C53.0773 52.1467 51.8506 54.2694 51.8573 56.0134C51.8613 56.8827 52.1653 57.4934 52.66 57.7814Z"
    fill="#555658"
  />
<mask
    id="mask7_0_1"
    style="mask-type:luminance"
    maskUnits="userSpaceOnUse"
    x="50"
    y="50"
    width="5"
    height="8"
  >
<path
      d="M52.66 57.7814L51.4546 57.0801C50.9613 56.7934 50.6546 56.18 50.6506 55.312C50.648 53.568 51.8706 51.4467 53.3906 50.5694L54.5946 51.2694C53.0773 52.1467 51.8506 54.2694 51.8573 56.0134C51.8613 56.8827 52.1653 57.4934 52.66 57.7814Z"
      fill="white"
    />
</mask>
<g mask="url(#mask7_0_1)">
<path
      d="M52.66 57.7814L51.4546 57.0801C50.9613 56.7934 50.6546 56.1801 50.6506 55.3134C50.648 53.5681 51.8706 51.4467 53.3906 50.5694L54.596 51.2694C53.0773 52.1467 51.8506 54.2694 51.8573 56.0134C51.8613 56.8827 52.1653 57.4934 52.66 57.7814Z"
      fill="#466C29"
    />
</g>
<path
    d="M54.596 51.2694C56.1133 50.3934 57.3533 51.0921 57.3587 52.8388C57.3613 54.5841 56.132 56.7121 54.6133 57.5921C53.096 58.4681 51.8627 57.7588 51.8573 56.0135C51.8507 54.2695 53.0773 52.1468 54.596 51.2694Z"
    fill="#6CAE2F"
  />
<defs>
<radialGradient
      id="paint0_radial_0_1"
      cx="0"
      cy="0"
      r="1"
      gradientUnits="userSpaceOnUse"
      gradientTransform="translate(-235.858 286.113) rotate(180) scale(378.898 378.897)"
    >
<stop stop-color="#A5A0D7" />
<stop offset="1" stop-color="#928DCE" />
</radialGradient>
<radialGradient
      id="paint1_radial_0_1"
      cx="0"
      cy="0"
      r="1"
      gradientUnits="userSpaceOnUse"
      gradientTransform="translate(-16.592 330.013) rotate(180) scale(378.897 378.897)"
    >
<stop stop-color="#A5A0D7" />
<stop offset="1" stop-color="#928DCE" />
</radialGradient>
</defs>
</svg>
