<svg
  width="76"
  height="141"
  viewBox="0 0 76 141"
  fill="none"
  xmlns="http://www.w3.org/2000/svg"
>
<path
    d="M71.9463 74.5625L71.64 74.5492C61.4864 73.6518 53.7875 69.8372 48.7567 63.2132C40.0405 51.7332 42.8124 36.1345 42.9348 35.4758C43.2801 33.6185 45.0656 32.3905 46.9244 32.7372C48.7807 33.0812 50.0067 34.8625 49.6656 36.7185C49.6421 36.8518 47.3427 50.0705 54.2339 59.1065C58.05 64.1092 64.1088 67.0118 72.2437 67.7318C74.1259 67.8985 75.5179 69.5585 75.3512 71.4425C75.1939 73.2225 73.6995 74.5625 71.9463 74.5625Z"
    fill="#17191C"
  />
<path
    d="M43.0151 28.1772C44.114 27.5385 45.5932 27.5572 47.2396 28.3572C47.4161 28.4426 47.5984 28.5399 47.7781 28.6439C50.1681 30.0225 52.2619 32.6732 53.44 35.5212C54.0848 37.0799 54.4572 38.6972 54.4515 40.2012C54.4468 42.3119 53.6995 43.7972 52.4984 44.4959L46.9812 47.7999C48.1833 47.0999 48.9285 45.6146 48.9339 43.5066C48.9396 42.0026 48.5676 40.3839 47.9239 38.8253C46.7443 35.9773 44.6509 33.3252 42.2619 31.9465C42.0807 31.8425 41.8995 31.7479 41.7229 31.6599C40.0765 30.8612 38.5973 30.8425 37.4968 31.4799L43.0151 28.1772Z"
    fill="#C1CFE0"
  />
<path
    d="M42.2619 31.9465C38.564 29.8118 35.5572 31.5252 35.5452 35.7745C35.5339 40.0225 38.5197 45.1985 42.2176 47.3332C45.9151 49.4679 48.9224 47.7545 48.9339 43.5065C48.9484 39.2572 45.9599 34.0812 42.2619 31.9465Z"
    fill="#E9EFF4"
  />
<path
    d="M55.9452 119.904L55.926 126.819C55.926 128.84 55.1599 130.861 53.6031 132.735L53.6281 125.813C55.1421 123.944 55.9296 121.924 55.9452 119.904Z"
    fill="#1A1F25"
  />
<path
    d="M30.9025 133.603V140.52C25.2312 140.329 19.6525 138.987 15.3301 136.476C10.6323 133.777 8.27654 130.227 8.29267 126.668L8.27654 119.753C8.27654 123.311 10.6364 126.863 15.3343 129.56C19.6739 132.069 25.2312 133.415 30.9025 133.603Z"
    fill="#17191C"
  />
<path
    d="M48.8885 110.06C58.2323 115.447 58.2828 124.169 49.0224 129.56C39.7572 134.952 24.6525 134.952 15.3343 129.56C5.99053 124.169 5.9172 115.447 15.2208 110.06C24.4853 104.664 39.5697 104.664 48.8885 110.06Z"
    fill="#1F2631"
  />
<path
    d="M53.2989 74.5146L57.0077 119.831C57.0077 121.94 56.2077 124.051 54.5839 126.005L51.2416 79.7599C52.5859 78.0999 53.2848 76.3079 53.2989 74.5146Z"
    fill="#DAE3EC"
  />
<path
    d="M51.2416 79.7598L54.5839 126.005C53.4135 127.407 51.8339 128.736 49.8015 129.909C47.79 131.083 45.4853 132.017 43.0609 132.723L41.4307 85.4519C43.5041 84.8745 45.4296 84.0785 47.1572 83.0812C48.8667 82.0825 50.2255 80.9558 51.2416 79.7598Z"
    fill="#FAFBFE"
  />
<path
    d="M41.4307 85.4519L43.0609 132.723C39.2563 133.777 35.0328 134.245 30.8957 134.127L31.0853 86.6665C34.6239 86.7692 38.176 86.3692 41.4307 85.4519Z"
    fill="#DAE3EC"
  />
<path
    d="M31.0853 86.6666L30.8957 134.127C24.9781 133.931 19.1557 132.528 14.6452 129.909C9.7432 127.095 7.28333 123.385 7.30147 119.675L11.0151 74.3799C11.0151 77.5386 13.1088 80.6893 17.2749 83.0813C21.1244 85.3079 26.0541 86.4999 31.0853 86.6666Z"
    fill="#C1CFE0"
  />
<path
    d="M26.6391 114.732V129.453C23.0963 128.913 19.8536 127.888 17.2187 126.441L19.1937 113.112C21.1785 113.763 24.4317 114.424 26.6391 114.732Z"
    fill="#DAE3EC"
  />
<path
    d="M47.0385 65.7838C55.3265 70.5598 55.3729 78.2985 47.1572 83.0811C38.9391 87.8611 25.5405 87.8611 17.2749 83.0811C8.98747 78.2985 8.92294 70.5598 17.1739 65.7838C25.3927 60.9971 38.7729 60.9971 47.0385 65.7838Z"
    fill="#ECF0F4"
  />
<path
    d="M46.3 57.4065L46.288 72.9505C46.288 74.1931 45.8161 75.4371 44.8588 76.5905L44.8739 61.0425C45.8057 59.8918 46.29 58.6491 46.3 57.4065Z"
    fill="#1A1F25"
  />
<path
    d="M44.8739 61.0425L44.8588 76.5905C44.1692 77.4172 43.238 78.1998 42.0396 78.8905C40.8531 79.5825 39.4952 80.1345 38.0661 80.5505L38.0692 64.9905C39.5067 64.5918 40.8427 64.0385 42.0411 63.3492C43.2276 62.6572 44.1692 61.8745 44.8739 61.0425Z"
    fill="#1F2631"
  />
<path
    d="M38.0692 64.9905L38.0661 80.5506C35.8224 81.1732 33.3339 81.4479 30.8943 81.3786V65.8346C33.3484 65.9052 35.8119 65.6279 38.0692 64.9905Z"
    fill="#1A1F25"
  />
<path
    d="M30.8943 65.8345V81.3785C27.4057 81.2625 23.9733 80.4359 21.3145 78.8905C18.4244 77.2319 16.9749 75.0465 16.9843 72.8572L16.9749 57.3158C16.9749 59.5025 18.426 61.6892 21.3161 63.3492C23.9859 64.8918 27.4057 65.7185 30.8943 65.8345Z"
    fill="#17191C"
  />
<path
    d="M41.9583 51.3519C47.7063 54.6665 47.7385 60.0305 42.0411 63.3492C36.3405 66.6639 27.0489 66.6639 21.3161 63.3492C15.5692 60.0305 15.5244 54.6665 21.2468 51.3519C26.9463 48.0319 36.226 48.0319 41.9583 51.3519Z"
    fill="#1F2631"
  />
<path
    d="M51.4807 64.2612L51.6229 64.0825L51.7963 63.7425L51.8687 63.5825C51.9224 63.4132 51.9525 63.2412 51.952 63.0705L51.9 33.7759C51.9 33.9479 51.8692 34.1199 51.8161 34.2892L51.7427 34.4518L51.5719 34.7866L51.4213 34.9732L51.1656 35.2559L50.9432 35.4399C50.7979 35.5532 50.6531 35.6679 50.4749 35.7705L41.2839 41.0759L32.1015 46.3785L32.1552 75.6705L41.3369 70.3719L50.5271 65.0652L50.8088 64.8879L51.0041 64.7265L51.2145 64.5545L51.4807 64.2612Z"
    fill="#FAFBFE"
  />
<path
    d="M25.7391 46.6173L25.7916 75.9119C27.6781 76.7586 30.4156 76.6759 32.1552 75.6706L32.1015 46.3786C30.3619 47.3826 27.626 47.4653 25.7391 46.6173Z"
    fill="#DAE3EC"
  />
<path
    d="M11.6916 34.5158C9.80414 35.6065 9.788 37.3798 11.6635 38.4705L25.2785 46.3825C27.1541 47.4718 30.2145 47.4679 32.1015 46.3785L41.2839 41.0759L50.4749 35.7705C52.3615 34.6812 52.3785 32.9092 50.5041 31.8199L36.8875 23.9052C35.0119 22.8172 31.9515 22.8199 30.064 23.9119L20.8744 29.2158L11.6916 34.5158Z"
    fill="#ECF0F4"
  />
<path
    d="M10.2667 36.5119L10.3192 65.8053C10.3213 66.5159 10.7859 67.2226 11.7156 67.7626L11.6635 38.4706C10.7333 37.9292 10.2692 37.2213 10.2667 36.5119Z"
    fill="#C1CFE0"
  />
<path
    d="M25.7391 46.6172C25.5796 46.5452 25.426 46.4665 25.2785 46.3825L11.6635 38.4705C10.7333 37.9292 10.2692 37.2212 10.2667 36.5119L10.3192 65.8052C10.3213 66.5159 10.7859 67.2225 11.7156 67.7625L25.3317 75.6759C25.4776 75.7612 25.6323 75.8412 25.7916 75.9119L25.7391 46.6172Z"
    fill="#C1CFE0"
  />
<path
    d="M39.3729 21.4479L39.3629 33.4079C39.3629 34.1705 39.0729 34.9319 38.488 35.6399L38.4968 23.6799C39.0676 22.9732 39.3661 22.2132 39.3729 21.4479Z"
    fill="#1A1F25"
  />
<path
    d="M38.4968 23.6798L38.488 35.6399C38.064 36.1465 37.4932 36.6252 36.7593 37.0505C36.0317 37.4745 35.1984 37.8132 34.3208 38.0692L34.3239 26.1012C35.2047 25.8532 36.0255 25.5159 36.7599 25.0919C37.4859 24.6679 38.064 24.1892 38.4968 23.6798Z"
    fill="#1F2631"
  />
<path
    d="M34.3239 26.1012L34.3208 38.0692C32.9452 38.4519 31.4203 38.6186 29.9229 38.5786V26.6185C31.4276 26.6612 32.94 26.4919 34.3239 26.1012Z"
    fill="#1A1F25"
  />
<path
    d="M29.9229 26.6185V38.5785C27.7817 38.5065 25.6785 37.9972 24.0479 37.0505C22.2755 36.0345 21.3864 34.6945 21.3927 33.3505L21.3864 21.3945C21.3864 22.7358 22.2755 24.0758 24.0489 25.0918C25.6864 26.0398 27.7817 26.5465 29.9229 26.6185Z"
    fill="#17191C"
  />
<path
    d="M36.7083 17.7345C40.2339 19.7665 40.2536 23.0585 36.7599 25.0918C33.264 27.1252 27.564 27.1252 24.0489 25.0918C20.5244 23.0585 20.4957 19.7665 24.0067 17.7345C27.5015 15.6985 33.1943 15.6985 36.7083 17.7345Z"
    fill="#1F2631"
  />
<path
    d="M49.7 55.6185L34.3239 64.4958V51.6359L49.7 42.7598V55.6185Z"
    fill="#1C2026"
  />
<path
    d="M37.3197 54.9946L37.1421 54.3372L36.9385 55.2132L37.3197 54.9946ZM36.7489 53.6186L37.5192 53.1759L38.2661 55.5852L37.5957 55.9706L37.4515 55.5586L36.79 55.9426L36.6495 56.5199L35.9785 56.9053L36.7489 53.6186Z"
    fill="#EF3029"
  />
<path
    d="M38.4385 52.6465L39.0891 52.2693L39.0905 54.2333C39.0891 54.4373 39.2005 54.3719 39.2963 54.3146L39.9891 53.9146V54.5905L38.9963 55.1652C38.6891 55.3412 38.438 55.3212 38.438 54.8825L38.4385 52.6465Z"
    fill="#EF3029"
  />
<path
    d="M41.4791 52.5932L41.3015 51.9359L41.0957 52.8132L41.4791 52.5932ZM40.9072 51.2185L41.6776 50.7745L42.4229 53.1852L41.7547 53.5719L41.6104 53.1586L40.9484 53.5386L40.8067 54.1185L40.1369 54.5052L40.9072 51.2185Z"
    fill="#EF3029"
  />
<path
    d="M43.6067 50.8745C43.7781 50.7785 43.7885 50.6706 43.788 50.4706C43.788 50.2986 43.7541 50.2159 43.6067 50.3012L43.2484 50.5105L43.2463 51.0826L43.6067 50.8745ZM42.5921 50.2479L43.6916 49.6132C44.1265 49.3599 44.4443 49.3826 44.4432 50.0893C44.4432 50.7639 44.252 50.9759 44.0801 51.1519L44.5063 51.9852L43.7619 52.4132L43.4463 51.5906L43.2452 51.6519L43.2432 52.7119L42.5921 53.0879V50.2479Z"
    fill="#EF3029"
  />
<path
    d="M44.8905 48.9212L45.7979 48.3972L46.0072 49.8692L46.2285 48.1465L47.1364 47.6225L47.4025 50.3105L46.7593 50.6798L46.5921 49.2292L46.3869 50.8972L45.6405 51.3279L45.4255 49.9039L45.2724 51.5425L44.6285 51.9119L44.8905 48.9212Z"
    fill="#EF3029"
  />
<path
    d="M47.6839 49.6052L47.7651 49.4612L48.152 49.2372L48.2281 49.2905L48.2285 49.7425L48.152 49.8785L47.764 50.1012L47.6839 50.0599V49.6052ZM48.2765 46.9679L48.2047 49.0852L47.7145 49.3679L47.6572 47.3252L48.2765 46.9679Z"
    fill="#EF3029"
  />
<path
    d="M35.5452 72.4038L34.3391 71.7011L34.3239 66.3532L35.5296 67.0545L35.5452 72.4038Z"
    fill="#C1CFE0"
  />
<path
    d="M35.5296 67.0546L34.3239 66.3533L38.9176 63.7026L40.1229 64.4026L35.5296 67.0546Z"
    fill="#DAE3EC"
  />
<path
    d="M40.1229 64.4025L40.1391 69.7505L35.5452 72.4038L35.5296 67.0545L40.1229 64.4025Z"
    fill="#ECF0F4"
  />
<path
    d="M15.5791 99.7239C14.8615 99.7239 14.1385 99.4986 13.5203 99.0332C5.38334 92.8932 0.871869 85.5813 0.112936 77.2999C-1.2032 62.9453 9.40933 51.1812 9.86147 50.6879C11.1391 49.2945 13.3036 49.1999 14.6968 50.4759C16.0896 51.7519 16.1848 53.9119 14.9135 55.3066C14.8224 55.4066 5.87293 65.4025 6.9328 76.7159C7.52027 82.9799 11.1239 88.6506 17.6437 93.5692C19.152 94.7079 19.452 96.8545 18.3145 98.3625C17.6405 99.2532 16.6161 99.7239 15.5791 99.7239Z"
    fill="#17191C"
  />
<path
    d="M12.2375 41.7278C13.3353 41.0892 14.8161 41.1091 16.4619 41.9065C16.6385 41.9945 16.8213 42.0905 17.0009 42.1945C19.3905 43.5732 21.4839 46.2225 22.6629 49.0731C23.3063 50.6305 23.6791 52.2478 23.6739 53.7505C23.6687 55.8612 22.9224 57.3478 21.7208 58.0465L16.2041 61.3491C17.4057 60.6505 18.15 59.1665 18.1563 57.0558C18.1609 55.5545 17.7896 53.9345 17.1468 52.3758C15.9667 49.5265 13.8739 46.8772 11.4843 45.4972C11.3031 45.3918 11.1219 45.2971 10.9448 45.2091C9.2984 44.4118 7.81973 44.3931 6.71973 45.0318L12.2375 41.7278Z"
    fill="white"
  />
<path
    d="M11.4843 45.4972C7.78694 43.3625 4.78014 45.0758 4.76761 49.3252C4.75667 53.5732 7.74267 58.7478 11.44 60.8851C15.1369 63.0198 18.1448 61.3038 18.1563 57.0558C18.1703 52.8092 15.1812 47.6332 11.4843 45.4972Z"
    fill="#E9EFF4"
  />
<path
    d="M11.4749 48.5399C9.24053 47.2492 7.42293 48.2852 7.41507 50.8546C7.40827 53.4226 9.21347 56.5492 11.4484 57.8399C13.6839 59.1319 15.5015 58.0946 15.5088 55.5266C15.5172 52.9586 13.7104 49.8306 11.4749 48.5399Z"
    fill="#1C2026"
  />
<path
    d="M20.8948 93.7732C17.838 92.8532 14.6077 94.5852 13.688 97.6465C12.7661 100.709 14.4989 103.936 17.5635 104.857C20.6208 105.778 23.8495 104.048 24.7729 100.985C25.6937 97.9225 23.9567 94.6958 20.8948 93.7732Z"
    fill="white"
  />
<path
    d="M32.1672 31.7225C32.9099 32.1705 32.8843 32.8825 32.1109 33.3118C31.3375 33.7452 30.1083 33.7318 29.3656 33.2851C28.6239 32.8398 28.6495 32.1278 29.4224 31.6958C30.1963 31.2638 31.4255 31.2785 32.1672 31.7225Z"
    fill="#DAE3EC"
  />
<path
    d="M15.4312 21.6559C15.4239 19.3212 17.0009 16.9839 20.1396 15.2332C26.2385 11.8346 35.9265 11.9319 41.7796 15.4532C41.7963 21.4679 37.4937 28.7545 32.1672 31.7225C31.4255 31.2785 30.1963 31.2638 29.4224 31.6958C28.6495 32.1278 28.6239 32.8398 29.3656 33.2852C30.1083 33.7318 31.3375 33.7452 32.1109 33.3119C32.8843 32.8825 32.9099 32.1705 32.1672 31.7225C37.4937 28.7545 41.7963 21.4679 41.7796 15.4532C44.6192 17.1639 46.0339 19.3639 46.04 21.5666C46.0192 22.3412 45.9697 24.1558 45.4072 25.7878C44.7301 27.7545 44.2629 28.6425 43.0281 30.3172C42.34 31.2479 40.9952 32.5025 40.2172 33.0438C39.0047 33.8892 37.9864 34.5425 35.9285 35.2652C34.8937 35.6265 31.1724 36.7265 26.7339 35.6158C22.8921 34.6532 20.4312 32.5946 19.0416 31.0386C15.5552 27.1279 15.4619 23.0092 15.4312 21.6559Z"
    fill="#DAE3EC"
  />
<path
    d="M46.04 21.5665C46.0339 19.3639 44.6192 17.1638 41.7796 15.4532L41.7588 8.34114C44.5995 10.0518 46.014 12.2545 46.0203 14.4585C46.0265 16.5905 46.0339 19.4345 46.04 21.5665Z"
    fill="#DAE3EC"
  />
<path
    d="M15.4104 14.5452C15.4047 12.2105 16.9801 9.87455 20.1203 8.12255C26.2197 4.72388 35.9077 4.82117 41.7588 8.34117L41.7796 15.4532C35.9265 11.9319 26.2385 11.8346 20.1396 15.2332C17.0009 16.9839 15.4239 19.3212 15.4312 21.6559C15.4239 19.5226 15.4161 16.6799 15.4104 14.5452Z"
    fill="#DAE3EC"
  />
<path
    d="M22.4432 33.8426C19.4927 32.0159 18.0995 30.0159 17.2145 28.4799C16.4255 27.1079 15.4755 24.8092 15.4312 21.6559C15.438 23.8586 16.8515 26.0599 19.6916 27.7706C25.5437 31.2919 35.2323 31.3919 41.3317 27.9879C44.4697 26.2385 46.0468 23.9013 46.04 21.5666C46.0015 22.6439 45.9599 23.7559 45.6557 24.8799C45.4109 25.7892 45.0396 27.1639 44.1063 28.7346C42.1172 32.0759 39.3785 33.6799 38.5875 34.0919C37.3973 34.7106 34.6077 36.1613 30.5615 36.0999C26.5676 36.0386 23.7615 34.6586 22.4432 33.8426Z"
    fill="#FAFBFE"
  />
<path
    d="M45.976 13.5533C45.9203 12.6253 45.8172 11.8093 45.4724 10.5973L45.426 10.4453L45.39 10.328C45.1672 9.59729 44.9187 8.99196 44.6656 8.46662L44.6192 8.37326C44.488 8.1066 44.3567 7.85995 44.2281 7.62795L44.1063 7.39859L43.9635 7.16395L43.9281 7.09996C43.6156 6.55729 42.9 5.47328 41.6489 4.28394L41.5624 4.19592C41.1317 3.76259 40.6229 3.36524 40.1312 3.01591L39.8135 2.79462C39.5219 2.59595 39.2411 2.40928 39.0057 2.25595C37.7588 1.51861 36.4697 0.965284 35.1203 0.591951L35.0563 0.575935C33.7411 0.217269 32.3667 0.0266279 30.9172 0.00262794H30.8921H30.8916H30.8905C30.6025 -0.00403873 30.3072 0.00257586 30.0145 0.0159092C29.8156 0.0239092 29.6181 0.0385811 29.4208 0.0545811L29.2005 0.0719639C28.9099 0.0986305 28.6208 0.133235 28.3328 0.174568L28.1052 0.207901C27.9505 0.233235 27.7957 0.257279 27.6405 0.286612C27.4391 0.322612 27.2567 0.359953 27.1208 0.39462L27.0176 0.421248C26.7853 0.474581 26.5552 0.535927 26.3244 0.601261C26.202 0.633261 26.0796 0.669297 25.9599 0.705297L25.7005 0.783943C25.1239 0.965276 24.5619 1.18257 23.9213 1.47991L23.7083 1.58127C23.4875 1.68794 23.2577 1.80126 23.0115 1.92926L22.9187 1.98127L22.8656 2.0079L22.7703 2.06259C22.6249 2.14392 22.4729 2.23059 22.3063 2.33192L22.15 2.42926C22.002 2.52126 21.8515 2.61992 21.6916 2.72926L21.3765 2.95328L21.0489 3.19592C20.8749 3.32792 20.6995 3.47328 20.5224 3.62261L20.3615 3.75862C20.1229 3.96662 19.8839 4.18792 19.6443 4.42659L19.6291 4.44123C18.8348 5.2319 18.0479 6.18926 17.3484 7.36526C17.2473 7.53326 17.1509 7.70791 17.0588 7.88257L16.9443 8.10393L16.838 8.31591L16.6765 8.65725L16.652 8.71324C16.5963 8.83724 16.5416 8.9586 16.4932 9.0786C16.2609 9.63327 16.0932 10.1212 16.014 10.4159L15.9276 10.7466C15.8796 10.9146 15.8353 11.0773 15.7952 11.228C15.6932 11.6066 15.6281 11.9826 15.5749 12.3559C15.4771 12.9866 15.4369 13.6106 15.4104 14.5453C15.4161 16.7479 16.8307 18.9493 19.6713 20.6613C25.5229 24.1813 35.2119 24.2786 41.3109 20.8772C44.4495 19.1266 46.0276 16.7919 46.0203 14.4586C46.0129 14.1733 45.9984 13.8679 45.976 13.5533Z"
    fill="#FAFBFE"
  />
<path
    d="M15.4312 21.6559L15.4104 14.5452C15.4161 16.7479 16.8307 18.9492 19.6713 20.6612C25.5229 24.1812 35.2119 24.2785 41.3109 20.8772C44.4495 19.1265 46.0276 16.7919 46.0203 14.4585L46.04 21.5665C46.0468 23.9012 44.4697 26.2385 41.3317 27.9878C35.2323 31.3918 25.5437 31.2919 19.6916 27.7705C16.8515 26.0599 15.438 23.8585 15.4312 21.6559Z"
    fill="#1C2026"
  />
<path
    d="M44.0973 19.7425C44.7333 19.3758 45.2515 19.6678 45.2541 20.3985C45.2557 21.1278 44.7405 22.0211 44.1052 22.3878C43.4697 22.7545 42.9536 22.4585 42.9505 21.7278C42.9495 20.9972 43.4624 20.1091 44.0973 19.7425Z"
    fill="#6CAE2F"
  />
</svg>
