<svg
  width="130"
  height="150"
  viewBox="0 0 130 150"
  fill="none"
  xmlns="http://www.w3.org/2000/svg"
>
<mask
    id="mask0_0_1"
    style="mask-type:luminance"
    maskUnits="userSpaceOnUse"
    x="0"
    y="82"
    width="40"
    height="24"
  >
<path
      d="M2.13016 105.473L0.704834 104.648L38.4608 82.8479L39.8848 83.6786L2.13016 105.473Z"
      fill="white"
    />
</mask>
<g mask="url(#mask0_0_1)">
<path
      d="M2.13016 105.473L0.704834 104.648L38.4608 82.8479L39.8848 83.6786L2.13016 105.473Z"
      fill="url(#paint0_radial_0_1)"
    />
</g>
<mask
    id="mask1_0_1"
    style="mask-type:luminance"
    maskUnits="userSpaceOnUse"
    x="38"
    y="105"
    width="41"
    height="23"
  >
<path
      d="M40.3435 127.684L38.9208 126.855L76.6754 105.057L78.1008 105.885L40.3435 127.684Z"
      fill="white"
    />
</mask>
<g mask="url(#mask1_0_1)">
<path
      d="M40.3435 127.684L38.9208 126.855L76.6754 105.057L78.1008 105.885L40.3435 127.684Z"
      fill="url(#paint1_radial_0_1)"
    />
</g>
<mask
    id="mask2_0_1"
    style="mask-type:luminance"
    maskUnits="userSpaceOnUse"
    x="0"
    y="127"
    width="39"
    height="23"
  >
<path
      d="M1.87812 149.891L0.452759 149.063L37.4861 127.684L38.9114 128.509L1.87812 149.891Z"
      fill="white"
    />
</mask>
<g mask="url(#mask2_0_1)">
<path
      d="M1.87812 149.891L0.452759 149.063L37.4861 127.684L38.9114 128.509L1.87812 149.891Z"
      fill="url(#paint2_radial_0_1)"
    />
</g>
<mask
    id="mask3_0_1"
    style="mask-type:luminance"
    maskUnits="userSpaceOnUse"
    x="77"
    y="127"
    width="40"
    height="23"
  >
<path
      d="M78.5621 149.891L77.1367 149.063L114.893 127.268L116.318 128.095L78.5621 149.891Z"
      fill="white"
    />
</mask>
<g mask="url(#mask3_0_1)">
<path
      d="M78.5621 149.891L77.1367 149.063L114.893 127.268L116.318 128.095L78.5621 149.891Z"
      fill="url(#paint3_radial_0_1)"
    />
</g>
<path
    d="M117.389 27.5293L103.886 19.8533C103.719 19.756 103.499 19.7507 103.254 19.8493L116.757 27.528C117.001 27.4267 117.222 27.4333 117.389 27.5293Z"
    fill="#1C2026"
  />
<path
    d="M103.091 19.9319L103.254 19.8493L116.757 27.5279L116.593 27.608C116.055 27.9173 115.61 28.612 115.503 29.2546L102.003 21.5773C102.106 20.936 102.554 20.2413 103.091 19.9319Z"
    fill="#1C2026"
  />
<path
    d="M115.503 29.2546L102.003 21.5773L101.979 21.8586C101.979 22.2106 102.103 22.4573 102.305 22.5746L115.806 30.2506C115.606 30.1346 115.481 29.8866 115.481 29.5346L115.503 29.2546Z"
    fill="#1C2026"
  />
<path
    d="M116.593 27.6079C115.977 27.9626 115.477 28.8279 115.481 29.5345C115.481 30.2439 115.983 30.5292 116.599 30.1732C117.217 29.8172 117.715 28.9546 117.713 28.2466C117.71 27.5372 117.209 27.2519 116.593 27.6079Z"
    fill="#1C2026"
  />
<path
    d="M111.153 30.3399L111.155 32.144C111.153 32.3613 111.174 32.576 111.216 32.7866L111.214 30.984C111.17 30.772 111.149 30.5586 111.153 30.3399Z"
    fill="#17191C"
  />
<path
    d="M111.214 30.984L111.215 32.7866C111.451 33.9586 112.349 35.0133 113.691 35.8226L113.689 34.0173C112.346 33.212 111.449 32.1546 111.214 30.984Z"
    fill="#17191C"
  />
<path
    d="M113.689 34.0173L113.691 35.8226C114.309 36.1946 115.022 36.5146 115.809 36.7679L115.807 34.964C115.019 34.7093 114.307 34.3906 113.689 34.0173Z"
    fill="#17191C"
  />
<path
    d="M115.807 34.9639L115.809 36.7679C117.123 37.1946 118.642 37.4373 120.261 37.4373C120.701 37.4373 121.134 37.4199 121.557 37.3839L121.553 35.58C121.131 35.616 120.698 35.6333 120.258 35.6333C118.639 35.6333 117.121 35.3919 115.807 34.9639Z"
    fill="#17191C"
  />
<path
    d="M121.553 35.5799L121.557 37.3839C123.558 37.2199 125.355 36.6772 126.723 35.8866C128.379 34.9306 129.41 33.6093 129.419 32.1493L129.417 30.3452C129.407 31.8039 128.378 33.1279 126.723 34.0826C125.353 34.8746 123.555 35.4159 121.553 35.5799Z"
    fill="#17191C"
  />
<path
    d="M113.841 26.5986C112.182 27.5559 111.155 28.8813 111.153 30.3399C111.125 33.2626 115.203 35.6333 120.258 35.6333C122.779 35.6333 125.063 35.0413 126.723 34.0826C128.378 33.128 129.407 31.8039 129.417 30.3453C129.434 27.4186 125.355 25.048 120.307 25.0533C117.786 25.0506 115.499 25.6426 113.841 26.5986Z"
    fill="#1F2631"
  />
<path
    d="M114.671 27.0826C113.227 27.9159 112.331 29.0679 112.327 30.3413C112.306 32.8879 115.859 34.9532 120.261 34.9532C122.454 34.9532 124.446 34.4373 125.891 33.5999C127.334 32.7679 128.232 31.6159 128.241 30.3439C128.254 27.7946 124.701 25.7306 120.305 25.7346C118.109 25.7332 116.115 26.2479 114.671 27.0826Z"
    fill="#17191C"
  />
<path
    d="M120.837 29.7292C120.119 29.4092 120.192 28.7039 120.129 28.2225C120.074 27.7985 119.613 27.3999 120.094 27.0399C121.131 26.2652 123.162 26.4079 124.505 27.0079C125.841 27.6079 125.726 28.2105 124.689 28.9865C123.649 29.7585 122.178 30.3278 120.837 29.7292Z"
    fill="white"
  />
<path
    d="M122.231 28.3999C121.605 28.1226 121.493 27.6039 121.974 27.2439C122.458 26.8826 123.357 26.8172 123.979 27.0959C124.605 27.3745 124.719 27.8932 124.237 28.2532C123.753 28.6146 122.855 28.6799 122.231 28.3999Z"
    fill="#F8BC14"
  />
<path
    d="M120.898 33.1426C120.381 32.9106 119.321 32.6026 119.425 32.0292C119.506 31.5772 119.711 31.1333 120.23 30.7466C121.154 30.0586 123.13 29.9333 124.395 30.4079C125.171 30.7026 124.569 31.2613 124.909 31.5639C125.355 31.9599 124.974 32.6413 124.435 33.0439C123.514 33.7306 122.09 33.6759 120.898 33.1426Z"
    fill="white"
  />
<path
    d="M122.134 32.8666C121.578 32.6186 121.477 32.1586 121.907 31.8386C122.339 31.52 123.134 31.4586 123.69 31.708C124.243 31.956 124.343 32.416 123.914 32.736C123.487 33.0546 122.687 33.1146 122.134 32.8666Z"
    fill="#F8BC14"
  />
<path
    d="M115.057 31.6107C113.789 31.0253 113.239 29.7213 114.295 28.932C114.935 28.4573 116.217 28.0813 117.183 28.0986C117.821 28.1106 118.342 28.512 118.885 28.7533C120.251 29.364 120.254 30.196 119.195 30.9853C118.138 31.7747 117.229 32.6147 115.057 31.6107Z"
    fill="white"
  />
<path
    d="M116.91 30.6666C116.276 30.384 116.159 29.856 116.65 29.4893C117.141 29.1213 118.057 29.0546 118.693 29.3373C119.332 29.6226 119.447 30.152 118.953 30.5173C118.459 30.8866 117.548 30.9533 116.91 30.6666Z"
    fill="#F8BC14"
  />
<path
    d="M104.063 61.0146C98.6554 61.0146 94.0088 59.5 90.2101 56.4893C81.4914 49.58 80.5688 37.356 80.5354 36.8387C80.4541 35.6587 81.3461 34.64 82.5247 34.56C83.7061 34.4866 84.7221 35.3693 84.8034 36.5467C84.8127 36.6773 85.6621 47.4453 92.8874 53.1533C96.9154 56.3333 102.267 57.4013 108.786 56.3293C109.954 56.136 111.054 56.928 111.243 58.0933C111.435 59.2586 110.646 60.3587 109.481 60.5507C107.601 60.86 105.793 61.0146 104.063 61.0146Z"
    fill="#17191C"
  />
<path
    d="M87.1555 41.9679C81.7235 41.9679 77.4941 40.5559 77.2035 40.4572C76.0848 40.0746 75.4888 38.8572 75.8715 37.7399C76.2542 36.6239 77.4675 36.0253 78.5862 36.4079C78.7395 36.4599 88.9808 39.8253 97.0275 35.3773C101.517 32.8946 104.572 28.3759 106.108 21.9466C106.381 20.7986 107.532 20.0892 108.685 20.3626C109.834 20.6372 110.542 21.7919 110.269 22.9399C108.439 30.6026 104.671 36.0532 99.0662 39.1372C95.1168 41.3119 90.8568 41.9679 87.1555 41.9679Z"
    fill="#17191C"
  />
<path
    d="M75.4622 28.9719C76.5608 28.3333 78.0408 28.3533 79.6861 29.1506C79.8621 29.2386 80.0462 29.3346 80.2262 29.4386C82.6168 30.8173 84.7088 33.468 85.8888 36.316C86.5328 37.8746 86.9048 39.4932 86.8995 40.9959C86.8942 43.1052 86.1488 44.5919 84.9462 45.2906L79.4288 48.5946C80.6328 47.8946 81.3741 46.4106 81.3808 44.3012C81.3875 42.7972 81.0155 41.1786 80.3715 39.6199C79.1928 36.7719 77.0995 34.1213 74.7102 32.7413C74.5288 32.6373 74.3462 32.5413 74.1715 32.4546C72.5235 31.656 71.0448 31.6373 69.9462 32.2759L75.4622 28.9719Z"
    fill="#DAE3EC"
  />
<path
    d="M74.7101 32.7413C71.0114 30.6066 68.006 32.3199 67.9927 36.5693C67.982 40.8173 70.9674 45.9932 74.6674 48.1292C78.3634 50.2626 81.3714 48.5492 81.3807 44.3012C81.3967 40.0519 78.4074 34.8773 74.7101 32.7413Z"
    fill="#E9EFF4"
  />
<path
    d="M74.7021 35.7853C72.4648 34.4946 70.6474 35.5293 70.6408 38.0986C70.6341 40.6666 72.4394 43.796 74.6741 45.0853C76.9074 46.3773 78.7275 45.3399 78.7341 42.7706C78.7395 40.2039 76.9368 37.0746 74.7021 35.7853Z"
    fill="#1C2026"
  />
<path
    d="M80.0982 81.6039C81.5875 80.7372 83.5942 80.7626 85.8288 81.8466C86.0702 81.9653 86.3155 82.0946 86.5595 82.2346C89.8008 84.1079 92.6422 87.7026 94.2408 91.5666C95.1155 93.6826 95.6195 95.8773 95.6128 97.9159C95.6062 100.777 94.5942 102.796 92.9622 103.741L86.8115 107.317C88.4421 106.369 89.4528 104.356 89.4581 101.493C89.4675 99.4546 88.9635 97.2573 88.0902 95.1426C86.4915 91.2773 83.6501 87.6826 80.4088 85.8119C80.1621 85.6706 79.9155 85.5399 79.6755 85.4213C77.4421 84.3386 75.4368 84.3119 73.9462 85.1799L80.0982 81.6039Z"
    fill="#17191C"
  />
<path
    d="M80.4087 85.812C75.3914 82.916 71.3128 85.2387 71.2941 91.004C71.2808 96.768 75.3341 103.789 80.3488 106.685C85.3635 109.583 89.4448 107.256 89.4581 101.493C89.4794 95.728 85.4247 88.708 80.4087 85.812Z"
    fill="#1F2631"
  />
<path
    d="M80.3875 93.0279C78.8408 92.1346 77.5808 92.8519 77.5768 94.6292C77.5701 96.4079 78.8221 98.5759 80.3688 99.4666C81.9168 100.361 83.1754 99.6439 83.1808 97.8652C83.1874 96.0866 81.9342 93.9212 80.3875 93.0279Z"
    fill="#17191C"
  />
<path
    d="M83.3154 105.603L83.2714 89.7347C83.2727 90.352 82.8634 90.972 82.05 91.4413L82.0941 107.309C82.9074 106.839 83.3167 106.22 83.3154 105.603Z"
    fill="white"
  />
<mask
    id="mask4_0_1"
    style="mask-type:luminance"
    maskUnits="userSpaceOnUse"
    x="82"
    y="89"
    width="2"
    height="19"
  >
<path
      d="M83.3154 105.603L83.2714 89.7347C83.2727 90.352 82.8634 90.972 82.05 91.4413L82.0941 107.309C82.9074 106.839 83.3167 106.22 83.3154 105.603Z"
      fill="white"
    />
</mask>
<g mask="url(#mask4_0_1)">
<path
      d="M82.05 91.4413L82.0941 107.309L82.3367 107.159L82.2901 91.2907L82.05 91.4413Z"
      fill="white"
    />
<path
      d="M82.2901 91.2906L82.3367 107.159C82.99 106.711 83.3168 106.156 83.3154 105.603L83.2714 89.7346C83.2727 90.2893 82.9461 90.8426 82.2901 91.2906Z"
      fill="white"
    />
</g>
<path
    d="M41.4795 88.4133L41.5221 104.28C41.5261 104.889 41.9248 105.495 42.7208 105.957L42.6755 90.0893C41.8782 89.6279 41.4822 89.0199 41.4795 88.4133Z"
    fill="#C1CFE0"
  />
<mask
    id="mask5_0_1"
    style="mask-type:luminance"
    maskUnits="userSpaceOnUse"
    x="41"
    y="88"
    width="2"
    height="18"
  >
<path
      d="M41.4795 88.4133L41.5221 104.28C41.5261 104.889 41.9248 105.496 42.7208 105.957L42.6755 90.0893C41.8782 89.6279 41.4822 89.0199 41.4795 88.4133Z"
      fill="white"
    />
</mask>
<g mask="url(#mask5_0_1)">
<path
      d="M41.4795 88.4133L41.5221 104.28C41.5261 104.889 41.9248 105.495 42.7208 105.957L42.6755 90.0893C41.8782 89.6279 41.4822 89.0199 41.4795 88.4133Z"
      fill="#C1CFE0"
    />
</g>
<path
    d="M74.1821 95.9826L74.2274 111.853L82.0941 107.309L82.0501 91.4413L74.1821 95.9826Z"
    fill="white"
  />
<path
    d="M42.6754 90.0893L42.7207 105.957L60.5261 116.392L60.4808 100.527L42.6754 90.0893Z"
    fill="#C1CFE0"
  />
<path
    d="M66.3221 100.521L66.3675 116.389L74.2275 111.853L74.1822 95.9826L66.3221 100.521Z"
    fill="white"
  />
<path
    d="M60.4808 100.527L60.5261 116.392C60.6515 116.467 60.7848 116.535 60.9195 116.596L60.8755 100.728C60.7368 100.665 60.6062 100.599 60.4808 100.527Z"
    fill="#C1CFE0"
  />
<path
    d="M60.8755 100.728L60.9195 116.596C62.5341 117.32 64.8781 117.251 66.3675 116.389L66.3221 100.521C64.8328 101.383 62.4915 101.452 60.8755 100.728Z"
    fill="#DAE3EC"
  />
<path
    d="M42.6994 86.7054C41.0847 87.64 41.0701 89.1573 42.6754 90.0893L60.4807 100.527C62.0847 101.459 64.7061 101.455 66.3221 100.521L74.1821 95.9827L82.05 91.4413C83.666 90.5093 83.6807 88.9907 82.0754 88.0587L64.2701 77.6227C62.6634 76.6907 60.0434 76.6947 58.4287 77.6253L50.5621 82.1667L42.6994 86.7054Z"
    fill="#E9EFF4"
  />
<path
    d="M85.6301 45.2694L80.0194 87.9027C80.0194 89.244 79.4821 90.584 78.3861 91.8293L83.4541 50.82C84.8781 49.0627 85.6168 47.164 85.6301 45.2694Z"
    fill="#1A1F25"
  />
<path
    d="M83.4541 50.82L78.3861 91.8293C77.5968 92.72 76.5288 93.568 75.1581 94.3133C73.7994 95.0587 72.2434 95.656 70.6101 96.1053L73.0648 56.8467C75.2621 56.2347 77.3008 55.392 79.1301 54.3373C80.9394 53.28 82.3808 52.084 83.4541 50.82Z"
    fill="#1F2631"
  />
<path
    d="M73.0648 56.8466L70.6101 96.1053C68.0408 96.7746 65.1901 97.072 62.3968 96.996L62.1155 58.1319C65.8595 58.2386 69.6208 57.8173 73.0648 56.8466Z"
    fill="#1A1F25"
  />
<path
    d="M62.1154 58.1319L62.3968 96.996C58.4021 96.8746 54.4754 95.98 51.4301 94.3133C48.1194 92.5226 46.4621 90.1613 46.4728 87.8013L40.8661 45.128C40.8661 48.4666 43.0821 51.8039 47.4941 54.3373C51.5674 56.6919 56.7888 57.9559 62.1154 58.1319Z"
    fill="#17191C"
  />
<path
    d="M79.0048 36.0226C87.7795 41.0799 87.8275 49.2732 79.1301 54.3372C70.4301 59.3972 56.2448 59.3972 47.4941 54.3372C38.7194 49.2732 38.6501 41.0799 47.3888 36.0226C56.0874 30.9559 70.2528 30.9559 79.0048 36.0226Z"
    fill="#1F2631"
  />
<path
    d="M43.6981 100.465C45.1875 99.5987 47.1955 99.624 49.4275 100.707C49.6701 100.827 49.9141 100.956 50.1608 101.097C53.3995 102.969 56.2421 106.564 57.8408 110.429C58.7155 112.544 59.2208 114.74 59.2128 116.777C59.2061 119.64 58.1941 121.657 56.5635 122.604L50.4115 126.179C52.0435 125.231 53.0541 123.217 53.0581 120.355C53.0675 118.316 52.5635 116.119 51.6901 114.004C50.0915 110.139 47.2488 106.545 44.0088 104.673C43.7635 104.532 43.5181 104.401 43.2768 104.284C41.0435 103.201 39.0368 103.175 37.5461 104.043L43.6981 100.465Z"
    fill="#17191C"
  />
<path
    d="M44.0087 104.673C38.9928 101.777 34.9127 104.1 34.8941 109.865C34.8821 115.629 38.9328 122.651 43.9501 125.547C48.9621 128.443 53.0447 126.117 53.0581 120.355C53.0794 114.591 49.0247 107.571 44.0087 104.673Z"
    fill="#1F2631"
  />
<path
    d="M43.9968 109.056C41.0861 107.377 38.7195 108.725 38.7115 112.068C38.7008 115.411 41.0514 119.483 43.9594 121.163C46.8714 122.844 49.2355 121.495 49.2475 118.149C49.2555 114.808 46.9034 110.735 43.9968 109.056Z"
    fill="white"
  />
<path
    d="M43.9874 111.891C42.4408 110.996 41.1794 111.715 41.1768 113.492C41.1714 115.269 42.4221 117.439 43.9674 118.331C45.5168 119.223 46.7754 118.507 46.7821 116.728C46.7874 114.948 45.5328 112.783 43.9874 111.891Z"
    fill="#17191C"
  />
<path
    d="M86.9981 76.2293L87.022 37.0533C87.026 37.8733 86.4847 38.696 85.4021 39.32L85.3754 78.4987C86.458 77.872 87.0008 77.0507 86.9981 76.2293Z"
    fill="white"
  />
<mask
    id="mask6_0_1"
    style="mask-type:luminance"
    maskUnits="userSpaceOnUse"
    x="85"
    y="37"
    width="3"
    height="42"
  >
<path
      d="M86.9981 76.2293L87.022 37.0533C87.026 37.8733 86.4847 38.696 85.4021 39.32L85.3754 78.4987C86.458 77.872 87.0008 77.0507 86.9981 76.2293Z"
      fill="white"
    />
</mask>
<g mask="url(#mask6_0_1)">
<path
      d="M85.4021 39.32L85.3754 78.4987L85.6954 78.296L85.722 39.1214L85.4021 39.32Z"
      fill="white"
    />
<path
      d="M85.7221 39.1214L85.6954 78.296C86.5648 77.7026 87.0008 76.964 86.9981 76.2293L87.0221 37.0533C87.0261 37.7893 86.5901 38.5254 85.7221 39.1214Z"
      fill="white"
    />
</g>
<path
    d="M39.6608 40.164L39.6355 79.34C39.6368 80.1493 40.1675 80.9547 41.2248 81.5667L41.2488 42.392C40.1928 41.776 39.6622 40.9707 39.6608 40.164Z"
    fill="#C1CFE0"
  />
<path
    d="M64.5008 51.388L64.4768 90.5653L85.3754 78.4986L85.4021 39.32L64.5008 51.388Z"
    fill="white"
  />
<path
    d="M56.7382 51.3946L41.2488 42.3919C40.1928 41.7759 39.6622 40.9706 39.6608 40.1639L39.6355 79.3399C39.6368 80.1492 40.1675 80.9546 41.2248 81.5666L56.7142 90.5693C56.8808 90.6666 57.0568 90.7559 57.2368 90.8373L57.2635 51.6613C57.0808 51.5786 56.9048 51.4906 56.7382 51.3946Z"
    fill="#C1CFE0"
  />
<path
    d="M57.2635 51.6613L57.2368 90.8373C59.3835 91.8013 62.4968 91.7067 64.4768 90.5653L64.5008 51.388C62.5221 52.5307 59.4101 52.624 57.2635 51.6613Z"
    fill="#DAE3EC"
  />
<path
    d="M41.2848 37.8959C39.1368 39.1359 39.1168 41.1519 41.2488 42.3919L56.7381 51.3946C58.8728 52.6333 62.3541 52.628 64.5008 51.388L74.9474 45.3559L85.4021 39.3199C87.5488 38.0826 87.5675 36.0653 85.4355 34.8253L69.9461 25.8239C67.8115 24.5839 64.3301 24.5879 62.1821 25.8293L51.7288 31.864L41.2848 37.8959Z"
    fill="#E9EFF4"
  />
<path
    d="M65.1741 41.2893C65.9168 41.7373 65.8915 42.4494 65.1195 42.8774C64.3448 43.312 63.1155 43.2987 62.3715 42.8507C61.6288 42.4053 61.6541 41.6933 62.4275 41.2627C63.2021 40.8307 64.4315 40.844 65.1741 41.2893Z"
    fill="#DAE3EC"
  />
<path
    d="M48.4381 31.2213C48.4315 28.888 50.0061 26.5506 53.1461 24.7999C59.2448 21.4013 68.9341 21.4973 74.7861 25.0199C74.8021 31.0346 70.4995 38.3199 65.1741 41.2893C64.4315 40.8439 63.2021 40.8306 62.4275 41.2626C61.6541 41.6932 61.6288 42.4053 62.3715 42.8506C63.1155 43.2986 64.3448 43.312 65.1194 42.8773C65.8914 42.4493 65.9168 41.7373 65.1741 41.2893C70.4995 38.3199 74.8021 31.0346 74.7861 25.0199C77.6248 26.7293 79.0408 28.9306 79.0461 31.1333C79.0261 31.9079 78.9755 33.7226 78.4128 35.3533C77.7355 37.3199 77.2702 38.2093 76.0342 39.8826C75.3448 40.8146 74.0008 42.0693 73.2248 42.6093C72.0101 43.4546 70.9928 44.1079 68.9342 44.8319C67.8995 45.1932 64.1781 46.2933 59.7395 45.1826C55.8995 44.22 53.4368 42.1612 52.0501 40.6039C48.5608 36.6946 48.4688 32.576 48.4381 31.2213Z"
    fill="#DAE3EC"
  />
<path
    d="M79.0461 31.1333C79.0408 28.9306 77.6248 26.7293 74.7861 25.02L74.7661 17.908C77.6061 19.6186 79.0195 21.82 79.0261 24.0253C79.0328 26.156 79.0408 29 79.0461 31.1333Z"
    fill="#DAE3EC"
  />
<path
    d="M48.4168 24.1106C48.4101 21.776 49.9874 19.4413 53.1261 17.6893C59.2247 14.2906 68.9154 14.388 74.7661 17.908L74.7861 25.0199C68.9341 21.4973 59.2448 21.4013 53.1461 24.8C50.0061 26.5506 48.4314 28.888 48.4381 31.2213C48.4314 29.0893 48.4221 26.2466 48.4168 24.1106Z"
    fill="#DAE3EC"
  />
<path
    d="M55.4501 43.408C52.4995 41.5827 51.1061 39.5827 50.2208 38.0467C49.4314 36.6734 48.4821 34.376 48.4381 31.2214C48.4448 33.4254 49.8581 35.6267 52.6981 37.3373C58.5514 40.8587 68.2394 40.9587 74.3381 37.5533C77.4768 35.804 79.0554 33.468 79.0461 31.1334C79.0074 32.2107 78.9648 33.3227 78.6621 34.4467C78.4168 35.356 78.0461 36.7307 77.1128 38.3013C75.1221 41.6427 72.3861 43.2467 71.5928 43.6587C70.4035 44.2774 67.6141 45.728 63.5688 45.6667C59.5728 45.604 56.7675 44.2254 55.4501 43.408Z"
    fill="#FAFBFE"
  />
<path
    d="M78.9821 23.1187C78.9261 22.192 78.8234 21.3747 78.4794 20.164L78.4327 20.012L78.3967 19.8947C78.1741 19.164 77.926 18.5587 77.6727 18.0334L77.6247 17.9387C77.4967 17.6747 77.3634 17.4267 77.2341 17.1947L77.1127 16.964L76.97 16.7293L76.9327 16.6667C76.6207 16.124 75.9048 15.0387 74.6568 13.8507L74.5687 13.7627C74.1394 13.3293 73.6287 12.932 73.1354 12.5827L72.8194 12.3614C72.53 12.1627 72.246 11.976 72.0114 11.8227C70.766 11.0854 69.4754 10.532 68.1261 10.1587L68.0634 10.1427C66.7461 9.78401 65.3727 9.59337 63.9234 9.56937L63.8981 9.568C63.6101 9.56267 63.3141 9.56938 63.0194 9.58271C62.8207 9.59071 62.6234 9.60535 62.4274 9.62002L62.2074 9.6387C61.9154 9.66404 61.6261 9.69871 61.3407 9.74137L61.1127 9.77471C60.9567 9.79871 60.8007 9.82269 60.6474 9.85335C60.4447 9.88935 60.2621 9.92803 60.1261 9.96136L60.0234 9.98669C59.7914 10.0414 59.5621 10.1027 59.3327 10.1667C59.2087 10.2 59.0861 10.236 58.9674 10.2707L58.7061 10.3507C58.1301 10.532 57.5674 10.7494 56.9287 11.0467L56.7167 11.148C56.4941 11.2533 56.2647 11.368 56.0167 11.496L55.9247 11.548L55.8727 11.5747L55.7767 11.6293C55.6301 11.7093 55.4781 11.796 55.3127 11.8987L55.1567 11.996C55.0074 12.088 54.8594 12.1867 54.6981 12.296L54.3834 12.52L54.0554 12.7627C53.8821 12.8947 53.7061 13.0387 53.5287 13.1894L53.3674 13.3254C53.1301 13.532 52.8914 13.7547 52.6501 13.9933L52.6354 14.008C51.8407 14.7987 51.0554 15.756 50.3541 16.932C50.2541 17.1 50.1594 17.2733 50.0647 17.448L49.9501 17.6707L49.8434 17.8827L49.6821 18.224L49.6581 18.28C49.6034 18.4027 49.5474 18.5254 49.5007 18.644C49.2674 19.1987 49.1007 19.688 49.0194 19.9827L48.9341 20.3147C48.8874 20.4813 48.8407 20.644 48.8021 20.7947C48.6981 21.1734 48.6341 21.5494 48.5821 21.9227C48.4847 22.5534 48.4447 23.176 48.4167 24.1107C48.4221 26.3147 49.8367 28.516 52.6767 30.2267C58.5301 33.748 68.2181 33.8453 74.3181 30.4427C77.4554 28.692 79.0341 26.3587 79.0261 24.0254C79.0194 23.7387 79.0047 23.4347 78.9821 23.1187Z"
    fill="#FAFBFE"
  />
<path
    d="M48.4381 31.2213L48.4167 24.1106C48.4221 26.3146 49.8367 28.5159 52.6767 30.2265C58.5301 33.7479 68.2181 33.8452 74.3181 30.4425C77.4554 28.6919 79.0341 26.3586 79.0261 24.0252L79.0461 31.1332C79.0554 33.4679 77.4767 35.8039 74.3381 37.5532C68.2394 40.9586 58.5514 40.8585 52.6981 37.3372C49.8581 35.6265 48.4447 33.4253 48.4381 31.2213Z"
    fill="#1C2026"
  />
<path
    d="M77.1035 29.3093C77.7408 28.9413 78.2595 29.2346 78.2595 29.9653C78.2635 30.6946 77.7475 31.588 77.1128 31.9547C76.4755 32.3214 75.9581 32.0253 75.9581 31.2947C75.9555 30.564 76.4675 29.6746 77.1035 29.3093Z"
    fill="#6CAE2F"
  />
<path
    d="M98.6488 91.1079L80.9982 80.8506L101.705 68.8959L119.355 79.1506L98.6488 91.1079Z"
    fill="#E9EFF4"
  />
<path
    d="M112.338 77.4613C114.078 78.5799 114.017 80.3652 112.203 81.4452C110.389 82.5279 107.507 82.4973 105.769 81.3773C104.026 80.2559 104.086 78.4693 105.899 77.3893C107.714 76.3079 110.595 76.3399 112.338 77.4613Z"
    fill="#1F2631"
  />
<path
    d="M112.311 77.352C114.042 78.392 113.982 80.052 112.179 81.0547C110.379 82.06 107.515 82.0307 105.786 80.9893C104.059 79.9493 104.118 78.292 105.919 77.288C107.721 76.2814 110.583 76.312 112.311 77.352Z"
    fill="#1F2631"
  />
<path
    d="M102.905 73.3066C103.897 73.9466 103.863 74.9627 102.827 75.58C101.793 76.1987 100.149 76.1813 99.158 75.54C98.1647 74.9026 98.1994 73.884 99.2327 73.264C100.267 72.648 101.911 72.6666 102.905 73.3066Z"
    fill="#1F2631"
  />
<path
    d="M102.891 73.2452C103.878 73.8386 103.842 74.7839 102.817 75.3586C101.789 75.9293 100.154 75.9133 99.1675 75.3199C98.1822 74.7253 98.2154 73.7799 99.2448 73.2079C100.271 72.6346 101.905 72.6506 102.891 73.2452Z"
    fill="#1F2631"
  />
<path
    d="M101.533 85.1519C102.527 85.7919 102.493 86.8079 101.455 87.4279C100.422 88.0439 98.7782 88.0252 97.7848 87.3839C96.7915 86.7492 96.8275 85.7279 97.8608 85.1119C98.8968 84.4945 100.541 84.5106 101.533 85.1519Z"
    fill="#1F2631"
  />
<path
    d="M101.518 85.0907C102.506 85.6827 102.47 86.6307 101.443 87.204C100.417 87.776 98.7834 87.76 97.7967 87.1667C96.81 86.572 96.8447 85.628 97.8727 85.0546C98.8993 84.4786 100.531 84.4973 101.518 85.0907Z"
    fill="#1F2631"
  />
<path
    d="M94.6675 78.1387C96.4075 79.2574 96.3475 81.044 94.5328 82.1253C92.7222 83.208 89.8382 83.176 88.0955 82.056C86.3555 80.936 86.4155 79.1507 88.2302 78.0667C90.0448 76.9867 92.9249 77.0187 94.6675 78.1387Z"
    fill="#1F2631"
  />
<path
    d="M94.6434 78.0307C96.3701 79.072 96.3101 80.7307 94.5087 81.7333C92.7087 82.7387 89.8448 82.7094 88.1168 81.6694C86.3874 80.6294 86.4474 78.9693 88.2488 77.9667C90.0501 76.9613 92.9128 76.9907 94.6434 78.0307Z"
    fill="#1F2631"
  />
<path
    d="M70.5275 140.619L52.8728 130.36L52.7941 98.572L52.7875 98.0987V97.144L70.4435 107.404V108.296L70.4501 108.767L70.5275 140.619Z"
    fill="#C1CFE0"
  />
<path
    d="M70.4395 107.407L52.7875 97.148L81.0288 80.8306L98.6808 91.0906L70.4395 107.407Z"
    fill="#1F2631"
  />
<path
    d="M119.385 87.8186L119.377 87.3426L119.358 80.5227V79.1533L98.6488 91.1066V91.1106L70.4395 107.404L70.5275 140.619L98.7408 124.32V124.319L99.4848 123.884L101.646 122.64L119.415 112.381V100.309L119.385 87.8186Z"
    fill="white"
  />
<path
    d="M68.5661 102.596L68.5755 99.8506V99.4146L68.5835 99.2693L68.5982 99.1679L68.6301 99.0226C68.6541 98.9519 68.6968 98.8119 68.7995 98.6439L68.9248 98.4666L69.0462 98.3359L69.1408 98.2452L69.2301 98.1732L69.4182 98.0412L69.5688 97.9613L69.6728 97.9146L69.8075 97.8613L69.9288 97.8213L70.1475 97.7653L70.2608 97.7479L70.3701 97.7333L70.5875 97.7226L70.6968 97.7239L70.8061 97.7293L70.9168 97.7412L71.1448 97.7826L71.2781 97.8132L71.4941 97.8879L71.6395 97.9546L71.7462 98.0106L71.9288 98.1239L72.1088 98.2653L72.2368 98.3933L72.3075 98.4772L72.4035 98.6106L72.4822 98.7439L72.5301 98.8386L72.5835 98.9759L72.6102 99.0772L72.6368 99.2199L72.6528 99.4279L72.6501 99.8639L72.6421 102.607L72.6395 103.74L72.6262 103.888L72.6102 103.968L72.5622 104.107L72.4941 104.232L72.3822 104.383L72.2768 104.489L72.1061 104.627L72.0048 104.692L71.8715 104.767L71.7421 104.827L71.6195 104.875L71.4835 104.917L71.3475 104.955C71.1995 104.993 71.0728 105.009 71.0688 105.009C70.9461 105.027 70.8901 105.032 70.7861 105.039C70.7475 105.04 70.6368 105.045 70.4968 105.04C70.2981 105.033 70.1035 105.009 69.9208 104.969C69.8848 104.96 69.7741 104.935 69.6448 104.891L69.5155 104.845L69.3742 104.781L69.2595 104.723L69.1248 104.639L68.9155 104.472L68.8421 104.399L68.7462 104.28L68.6675 104.147L68.6301 104.069L68.5982 103.975L68.5688 103.812L68.5635 103.729L68.5661 102.596Z"
    fill="#EF2C3B"
  />
<path
    d="M69.7995 96.7946C69.3662 97.0533 69.3808 97.4693 69.8368 97.7226C70.2861 97.976 71.0061 97.9666 71.4395 97.7066C71.8728 97.4439 71.8595 97.0266 71.4061 96.7759C70.9541 96.5226 70.2342 96.5306 69.7995 96.7946Z"
    fill="#F04156"
  />
<path
    d="M71.9955 98.1933L71.9968 97.4506C71.9968 97.6493 71.8702 97.8466 71.6155 98C71.0875 98.3186 70.2128 98.328 69.6662 98.0213C69.3835 97.8626 69.2421 97.6533 69.2421 97.444L69.2382 98.1853C69.2382 98.3933 69.3808 98.6066 69.6635 98.7626C70.2128 99.0706 71.0835 99.0613 71.6128 98.744C71.8702 98.5906 71.9955 98.392 71.9955 98.1933Z"
    fill="#DD2832"
  />
<path
    d="M71.5234 96.7626L71.4488 96.7213L71.3541 96.6786L71.1781 96.6226L71.0807 96.5973L70.8874 96.5626L70.7874 96.5533L70.6901 96.5493L70.5941 96.5479L70.3981 96.5573L70.3021 96.5693L70.1167 96.6066L70.0208 96.6319L69.8514 96.6933L69.7661 96.7319L69.6754 96.7826L69.7994 96.7946C70.2341 96.5306 70.9541 96.5226 71.4061 96.7759C71.8594 97.0266 71.8727 97.4439 71.4394 97.7066C71.0061 97.9666 70.2861 97.9759 69.8367 97.7226C69.3807 97.4693 69.3661 97.0533 69.7994 96.7946L69.6754 96.7826L69.6101 96.8253L69.4968 96.9146L69.3648 97.0639L69.3074 97.1586L69.2754 97.2412L69.2541 97.3173L69.2447 97.3679L69.2421 97.4439C69.2421 97.6532 69.3834 97.8626 69.6661 98.0213C70.2128 98.3279 71.0874 98.3186 71.6154 97.9999C71.8701 97.8466 71.9968 97.6493 71.9968 97.4506L71.9914 97.3519L71.9701 97.2653L71.8727 97.0639L71.8048 96.9786L71.7101 96.8866L71.6154 96.8186L71.5234 96.7626Z"
    fill="#F04156"
  />
<path
    d="M84.2221 92.1133L84.2181 93.168C84.2194 93.3867 84.1994 93.6 84.1594 93.8107V92.756C84.2034 92.5467 84.2221 92.332 84.2221 92.1133Z"
    fill="#C9CBD6"
  />
<path
    d="M84.1595 92.7559V93.8106C83.9235 94.9839 83.0221 96.0372 81.6781 96.8479L81.6821 95.7906C83.0248 94.9852 83.9248 93.9292 84.1595 92.7559Z"
    fill="#C9CBD6"
  />
<path
    d="M81.6822 95.7907L81.6781 96.848C81.0635 97.2173 80.3488 97.5387 79.5635 97.7933L79.5661 96.7373C80.3528 96.4827 81.0662 96.164 81.6822 95.7907Z"
    fill="#C9CBD6"
  />
<path
    d="M79.5661 96.7373L79.5634 97.7933C78.2487 98.2186 76.7301 98.4613 75.1101 98.4613C74.6728 98.4613 74.2381 98.444 73.8154 98.408L73.8181 97.3533C74.2408 97.3893 74.6741 97.4066 75.1141 97.4066C76.7314 97.4066 78.2514 97.164 79.5661 96.7373Z"
    fill="#C9CBD6"
  />
<path
    d="M73.8181 97.3533L73.8155 98.408C71.8128 98.2453 70.0168 97.7026 68.6501 96.912C66.9914 95.9546 65.9594 94.632 65.9528 93.1733L65.9568 92.1186C65.9634 93.5786 66.9955 94.9013 68.6515 95.8573C70.0195 96.648 71.8168 97.1893 73.8181 97.3533Z"
    fill="#C9CBD6"
  />
<path
    d="M81.5314 88.3733C83.1888 89.3306 84.2154 90.656 84.2221 92.1133C84.2474 95.0373 80.17 97.4066 75.114 97.4066C72.5954 97.4066 70.3101 96.8146 68.6514 95.8573C66.9954 94.9013 65.9634 93.5786 65.9567 92.1186C65.9394 89.192 70.0167 86.8226 75.0634 86.8253C77.5874 86.824 79.8714 87.416 81.5314 88.3733Z"
    fill="#DDE1ED"
  />
<path
    d="M78.3568 90.2186C79.1981 90.7026 79.7221 91.3746 79.7221 92.1146C79.7328 93.5986 77.6661 94.8013 75.1008 94.8013C73.8248 94.8013 72.6648 94.5012 71.8221 94.0132C70.9834 93.5279 70.4581 92.8586 70.4541 92.1173C70.4461 90.6333 72.5167 89.4306 75.0754 89.4319C76.3541 89.4319 77.5168 89.7333 78.3568 90.2186Z"
    fill="#F1F2F8"
  />
<path
    d="M78.8381 88.2199C76.4835 88.2199 76.2608 89.4866 73.7488 89.1613C72.3408 88.9786 69.1541 89.3013 69.0715 90.7986C69.0608 91.0213 69.0608 91.9506 69.0715 92.1946C69.0821 92.4386 69.1755 92.7146 69.3675 93.0253C70.8102 95.3333 74.2808 95.9946 76.2941 95.2053C78.3101 94.4186 79.6995 93.8306 80.7928 92.3826C80.9595 92.1626 81.0662 91.8679 81.0982 91.5533C81.1222 91.2826 81.1141 90.2679 81.1048 90.0199C81.0741 89.1519 80.4408 88.2199 78.8381 88.2199Z"
    fill="#901921"
  />
<path
    d="M73.7488 89.1613C72.0834 88.944 67.9248 89.4347 69.3674 91.744C70.8101 94.0507 74.2807 94.7107 76.2941 93.9253C78.3101 93.1387 79.6994 92.5507 80.7928 91.104C81.4528 90.2267 81.1954 88.22 78.8381 88.22C76.4834 88.22 76.2608 89.4867 73.7488 89.1613Z"
    fill="#F793AC"
  />
<path
    d="M74.4368 93.692C72.9381 93.692 70.8101 93.0907 69.7515 91.392C69.4595 90.9254 69.4248 90.5533 69.6394 90.2493C70.1061 89.5947 71.6755 89.2987 72.9408 89.2987C73.2155 89.2987 73.4728 89.312 73.6821 89.3387C73.9848 89.3774 74.2581 89.3987 74.5248 89.3987C75.5034 89.3987 76.1168 89.1387 76.7101 88.8867C77.3008 88.6387 77.8608 88.404 78.8381 88.404C79.5941 88.404 80.1488 88.644 80.4448 89.1014C80.7928 89.6387 80.7088 90.348 80.4248 90.7254C79.4048 92.076 78.1208 92.6267 76.1128 93.4107C75.6381 93.596 75.0594 93.692 74.4368 93.692Z"
    fill="#EC1E32"
  />
<path
    d="M79.3982 89.8092C79.3435 89.3639 78.3888 89.0799 77.2595 89.1786C76.1315 89.2746 75.1448 89.7346 75.3141 90.1586C75.4608 90.5266 75.0315 90.7666 74.5128 91.0612C74.0008 91.3546 71.1515 91.0492 71.1515 91.0492C71.1515 91.0492 73.7862 91.3546 73.2595 91.5946C72.8795 91.7692 72.5675 91.9519 72.4675 92.1626C72.2728 92.5879 74.1901 90.7639 77.1368 90.9106C78.0554 90.9586 79.4528 90.2546 79.3982 89.8092Z"
    fill="#F793AC"
  />
<path
    d="M79.0421 89.84C78.9981 89.472 78.2102 89.2373 77.2795 89.32C76.3448 89.3986 75.6248 89.7626 75.6701 90.1306C75.7155 90.496 76.5061 90.7293 77.4368 90.6506C78.3675 90.5693 79.0875 90.208 79.0421 89.84Z"
    fill="white"
  />
<path
    d="M71.222 89.844C71.178 89.76 70.9701 89.7533 70.7541 89.8293C70.5381 89.908 70.398 90.0387 70.4394 90.1253C70.4834 90.208 70.6941 90.216 70.9074 90.1387C71.1247 90.0613 71.2634 89.9293 71.222 89.844Z"
    fill="white"
  />
<path
    d="M71.9767 89.7412C71.9634 89.6852 71.8407 89.6573 71.7047 89.6773C71.5674 89.6986 71.4634 89.7573 71.4767 89.8133C71.4861 89.8666 71.6074 89.8959 71.7434 89.8746C71.8847 89.8559 71.9861 89.7946 71.9767 89.7412Z"
    fill="white"
  />
<path
    d="M78.1995 89.912C78.1768 89.7293 77.7821 89.612 77.3168 89.6533C76.8514 89.692 76.4941 89.872 76.5141 90.056C76.5368 90.2413 76.9315 90.356 77.3955 90.3173C77.8608 90.2773 78.2221 90.096 78.1995 89.912Z"
    fill="#901921"
  />
<path
    d="M96.7328 71.644L96.7342 72.1946L100.311 74.272V73.7253L96.7328 71.644Z"
    fill="#232729"
  />
<path
    d="M100.311 73.7253V74.272C100.947 73.8893 101.274 73.412 101.274 72.964L101.27 72.4173C101.27 72.864 100.943 73.3426 100.311 73.7253Z"
    fill="#1F2223"
  />
<path
    d="M96.7328 71.644L100.311 73.7253C101.451 73.036 101.597 72.036 100.626 71.4707C99.6515 70.9053 97.9261 70.9854 96.7328 71.644Z"
    fill="#272C2E"
  />
<path
    d="M100.365 72.9467L100.332 80.292C100.328 81.4267 99.5795 82.5587 98.0928 83.4267C96.8635 84.14 95.3168 84.5613 93.7168 84.6893L93.7475 77.3427C95.3515 77.2147 96.8955 76.7934 98.1235 76.08C99.6142 75.2134 100.362 74.08 100.365 72.9467Z"
    fill="#E33834"
  />
<path
    d="M93.7475 77.3427L93.7168 84.6893C91.4088 84.8747 88.9808 84.4533 87.2048 83.4267C85.6835 82.548 84.9275 81.3974 84.9288 80.2494L84.9635 72.9027C84.9608 74.052 85.7181 75.2027 87.2368 76.08C89.0168 77.1054 91.4421 77.5267 93.7475 77.3427Z"
    fill="#A92D29"
  />
<path
    d="M98.0901 69.7705C101.107 71.5105 101.122 74.3372 98.1234 76.0799C95.1288 77.8186 90.2554 77.8186 87.2367 76.0799C84.222 74.3372 84.2047 71.5132 87.2021 69.7705C90.2007 68.0292 95.0728 68.0292 98.0901 69.7705Z"
    fill="#F04647"
  />
<path
    d="M97.2047 70.2867C99.7301 71.744 99.7421 74.1067 97.2341 75.564C94.7274 77.02 90.6461 77.02 88.1221 75.564C85.5994 74.1067 85.5861 71.744 88.0914 70.2867C90.6034 68.828 94.6781 68.828 97.2047 70.2867Z"
    fill="#F4F5F5"
  />
<path
    d="M88.1221 75.564C90.6461 77.02 94.7275 77.02 97.2342 75.564C98.1902 75.0067 98.7781 74.3186 99.0021 73.6013C98.7781 72.872 98.1808 72.1707 97.2048 71.608C94.6782 70.1507 90.6035 70.1507 88.0915 71.608C87.1355 72.164 86.5488 72.8533 86.3262 73.5706C86.5515 74.3 87.1448 74.9987 88.1221 75.564Z"
    fill="#F9BC0C"
  />
<path
    d="M93.5367 72.208L92.8834 72.2706L93.2354 72.5373C93.2821 72.8253 92.9474 73.0919 92.4527 73.1533C91.9194 73.2253 91.3821 73.0306 91.2581 72.7226L91.4354 72.3973L90.842 72.4613C90.486 72.404 90.2167 72.2386 90.1367 72.0306C90.0154 71.7173 90.3581 71.4066 90.8994 71.3373C91.1341 71.3066 91.3727 71.3253 91.5861 71.392L92.0887 71.764L92.2994 71.316C92.4421 71.2226 92.6234 71.1613 92.8314 71.1373C93.3714 71.0639 93.9088 71.2626 94.0314 71.5746C94.1274 71.8226 93.9247 72.0853 93.5367 72.208ZM92.7021 70.8053C92.3621 70.8493 92.0741 70.9533 91.8594 71.0893C91.5394 70.9919 91.154 70.9559 90.77 71.0039C89.9127 71.1146 89.3701 71.6079 89.5634 72.1039C89.6941 72.4453 90.1367 72.6986 90.6807 72.788C90.8727 73.2853 91.7247 73.5973 92.5821 73.4866C93.3754 73.3839 93.8941 72.9613 93.8208 72.5053C94.4248 72.3133 94.7647 71.9079 94.6034 71.5013C94.4114 71.0039 93.5621 70.692 92.7021 70.8053Z"
    fill="#CD2624"
  />
<path
    d="M93.9221 74.1319L93.5515 74.5013L94.1982 74.512C94.6635 74.6933 94.8235 75.0479 94.5715 75.3373C94.2941 75.6533 93.6261 75.7826 93.0795 75.628L92.7221 75.3107L92.3968 75.6506C92.0581 75.7866 91.6208 75.8026 91.2528 75.6973C90.7034 75.536 90.4795 75.1466 90.7595 74.8293C90.8795 74.6919 91.0741 74.5866 91.3221 74.5266L92.2368 74.5373L91.7155 74.116C91.6781 73.9827 91.7155 73.8466 91.8208 73.7253C92.0995 73.408 92.7714 73.2786 93.3248 73.4386C93.7648 73.5666 94.0088 73.8519 93.9221 74.1319ZM91.2342 73.5547C91.0622 73.7547 91.0102 73.972 91.0675 74.176C90.6942 74.268 90.3701 74.4306 90.1741 74.6599C89.7315 75.1626 90.0834 75.7799 90.9608 76.0346C91.5621 76.2093 92.2541 76.168 92.7715 75.9613C93.6488 76.2173 94.7155 76.012 95.1568 75.5093C95.5635 75.044 95.2955 74.484 94.5661 74.2C94.7048 73.764 94.3408 73.3119 93.6194 73.1013C92.7421 72.8453 91.6768 73.0507 91.2342 73.5547Z"
    fill="#4DBD38"
  />
<path
    d="M97.2155 74.452L93.0421 72.3027C94.3568 71.4933 96.3021 71.3013 97.4355 71.8867C98.5661 72.4693 98.4595 73.6054 97.2155 74.452Z"
    fill="#EC1E32"
  />
<path
    d="M97.0902 74.3879L93.0421 72.3026C94.0474 71.6933 95.7181 71.6453 96.8168 72.2133C97.9128 72.7786 98.0262 73.7413 97.0902 74.3879Z"
    fill="#F0411F"
  />
<path
    d="M96.8034 74.24L95.9341 73.7947C96.2875 73.5653 96.2154 73.1906 95.7701 72.9626C95.3247 72.7333 94.6755 72.7333 94.3208 72.9626L93.4528 72.5147C94.4408 72.06 95.7714 72.012 96.5834 72.432C97.4008 72.8533 97.4701 73.6213 96.8034 74.24Z"
    fill="#CD2624"
  />
<path
    d="M96.5368 73.4466C96.6728 73.4639 96.7662 73.5199 96.7488 73.5719C96.7288 73.6226 96.6035 73.6532 96.4675 73.6372C96.3328 73.6212 96.2381 73.5666 96.2555 73.5133C96.2741 73.4613 96.3994 73.4306 96.5368 73.4466Z"
    fill="#FCCD68"
  />
<path
    d="M94.5288 72.6387L94.6088 72.4707L94.8488 72.58L94.7675 72.7467L94.5288 72.6387Z"
    fill="#FCCD68"
  />
<path
    d="M94.1914 72.7652L94.2674 72.9359L93.894 72.7413L94.1914 72.7652Z"
    fill="#FCCD68"
  />
<path
    d="M96.2861 73.844L96.3634 74.0146L95.9874 73.82L96.2861 73.844Z"
    fill="#FCCD68"
  />
<path
    d="M96.1874 72.8373L95.8967 72.8827L95.9367 72.708L96.2288 72.664L96.1874 72.8373Z"
    fill="#FCCD68"
  />
<path
    d="M95.2474 72.5653L95.4648 72.4427L95.5781 72.604L95.3608 72.7253L95.2474 72.5653Z"
    fill="#FCCD68"
  />
<path
    d="M96.4074 73.0319C96.5394 73.0066 96.6714 73.028 96.7008 73.08C96.7288 73.1293 96.6447 73.1906 96.514 73.216C96.382 73.2413 96.2501 73.2199 96.2234 73.1706C96.1928 73.1199 96.2781 73.0573 96.4074 73.0319Z"
    fill="#FCCD68"
  />
<path
    d="M98.0101 72.6199C97.9661 72.4759 97.8501 72.3653 97.7541 72.3773C97.6595 72.384 97.6155 72.5107 97.6595 72.6547C97.7008 72.7987 97.8155 72.9093 97.9128 72.9C98.0101 72.892 98.0555 72.7653 98.0101 72.6199Z"
    fill="white"
  />
<path
    d="M84.5394 78.0226V78.572C84.5394 78.7947 84.6221 79.0106 84.7888 79.2013L84.7875 78.6533C84.6208 78.4613 84.5394 78.2466 84.5394 78.0226Z"
    fill="#1F2223"
  />
<path
    d="M84.7875 78.6533L84.7888 79.2013C84.8914 79.316 85.0194 79.424 85.1834 79.52C85.4928 79.6947 85.8755 79.812 86.2928 79.8613L86.2901 79.3133C85.8741 79.2613 85.4901 79.148 85.1834 78.9693C85.0194 78.8747 84.8888 78.7693 84.7875 78.6533Z"
    fill="#252A2C"
  />
<path
    d="M86.2902 79.3133L86.2928 79.8613C87.1955 79.9746 88.2608 79.7933 89.0781 79.3453V78.7946C88.2608 79.2466 87.1942 79.4253 86.2902 79.3133Z"
    fill="#1F2223"
  />
<path
    d="M85.4981 76.7146C84.3568 77.4039 84.2101 78.4039 85.1834 78.9693C86.1554 79.5346 87.8821 79.4533 89.0781 78.7946L85.4981 76.7146Z"
    fill="#272C2E"
  />
<path
    d="M88.3488 74.8866L84.5434 67.5639L84.2781 67.3532L88.2514 75.0012L88.3488 74.8866Z"
    fill="#1A1B1B"
  />
<path
    d="M84.5434 67.564L84.2781 67.3533L85.1807 66.5599L85.4447 66.7693L84.5434 67.564Z"
    fill="#24292A"
  />
<path
    d="M89.3381 74.2559L85.4448 66.7693L84.5435 67.5639L88.3488 74.8866C88.6075 74.6079 88.9568 74.3919 89.3381 74.2559Z"
    fill="#232729"
  />
<path
    d="M73.7474 75.6693C58.1101 75.6693 49.0595 61.1239 48.9461 60.9373C48.3328 59.9279 48.6555 58.6133 49.6635 58C50.6741 57.3866 51.9861 57.708 52.6008 58.7146C53.1008 59.5333 65.0808 78.6186 85.3634 68.3653C86.4154 67.8319 87.7035 68.2546 88.2355 69.3093C88.7701 70.3626 88.3475 71.6506 87.2928 72.184C82.3581 74.6786 77.8274 75.6693 73.7474 75.6693Z"
    fill="#17191C"
  />
<path
    d="M68.8715 88.5706C68.9155 88.0653 68.5688 87.832 68.0981 88.0506C67.6261 88.2706 67.2128 88.8573 67.1715 89.3613C67.1261 89.868 67.4741 90.0986 67.9408 89.8786C68.4115 89.6613 68.8288 89.0746 68.8715 88.5706Z"
    fill="#FAC637"
  />
<path
    d="M66.4488 89.528L67.0488 89.9626C66.8888 89.848 66.8021 89.6293 66.8288 89.3306C66.8821 88.7173 67.3848 88.0053 67.9528 87.74C68.2474 87.604 68.5007 87.6107 68.6701 87.7333L68.0728 87.2986C67.8994 87.1733 67.6488 87.1667 67.3541 87.304C66.7848 87.5693 66.2781 88.28 66.2288 88.8933C66.2021 89.1906 66.2888 89.4093 66.4488 89.528Z"
    fill="#FAC637"
  />
<path
    d="M67.8848 89.9826L67.9621 89.9426L68.0514 89.8932L68.2021 89.7866L68.2808 89.7199L68.4181 89.5826L68.4848 89.5092L68.5461 89.4346L68.6048 89.3559L68.7114 89.1906L68.7581 89.1052L68.8367 88.9319L68.8727 88.8412L68.9208 88.6666L68.9408 88.5746L68.9514 88.4719L68.8714 88.5706C68.8288 89.0746 68.4114 89.6612 67.9408 89.8786C67.4741 90.0986 67.1261 89.8679 67.1714 89.3612C67.2128 88.8572 67.6261 88.2706 68.0981 88.0506C68.5687 87.8319 68.9154 88.0652 68.8714 88.5706L68.9514 88.4719L68.9554 88.3972L68.9501 88.2506L68.9048 88.0586L68.8621 87.9572L68.8141 87.8799L68.7648 87.8186L68.7301 87.7826L68.6701 87.7332C68.5007 87.6106 68.2474 87.6039 67.9527 87.7399C67.3847 88.0052 66.8821 88.7172 66.8287 89.3306C66.8021 89.6292 66.8888 89.8479 67.0488 89.9626L67.1341 90.0159L67.2168 90.0492L67.4354 90.0892L67.5448 90.0826L67.6754 90.0586L67.7861 90.0252L67.8848 89.9826Z"
    fill="#FAC637"
  />
<path
    d="M64.8927 84.168L67.1087 85.784L67.4621 86.0386L67.5754 86.132L67.6514 86.2026L67.7474 86.3146C67.7941 86.3746 67.8807 86.492 67.9554 86.6746L68.0274 86.8773L68.0634 87.0546L68.0807 87.184L68.0874 87.296L68.0781 87.528L68.0594 87.6973L68.0367 87.8093L68.0007 87.9493L67.9621 88.0706L67.8781 88.2786L67.8274 88.3813L67.7741 88.4786L67.6554 88.6613L67.5887 88.7493L67.5221 88.8333L67.4474 88.9173L67.2807 89.08L67.1767 89.1666L66.9887 89.2973L66.8501 89.38L66.7434 89.432L66.5447 89.5133L66.3247 89.5746L66.1421 89.604L66.0354 89.6146L65.8714 89.6133L65.7154 89.5986L65.6154 89.58L65.4701 89.5426L65.3727 89.5066L65.2407 89.444L65.0647 89.3346L64.7101 89.0773L62.4927 87.4653L61.5767 86.7973L61.4634 86.7013L61.4087 86.6386L61.3274 86.5186L61.2647 86.3893L61.2087 86.2133L61.1821 86.0626L61.1741 85.8453L61.1781 85.724L61.1954 85.572L61.2247 85.432L61.2581 85.304L61.3007 85.1693L61.3487 85.0399C61.4061 84.8973 61.4674 84.7826 61.4687 84.7813L61.6141 84.5346L61.7807 84.2986C61.9021 84.1413 62.0354 83.9973 62.1741 83.8746L62.4021 83.6946L62.5141 83.62L62.6461 83.5413L62.7647 83.4826L62.9087 83.4226L63.1687 83.3493L63.2701 83.3346L63.4207 83.3253L63.5741 83.3399L63.6607 83.3573L63.7554 83.3853L63.9047 83.456L63.9767 83.5013L64.8927 84.168Z"
    fill="#F0A40F"
  />
<path
    d="M63.9648 90.1599L63.6502 90.1373C55.8555 88.9946 50.0941 85.7226 46.5235 80.4133C40.3155 71.1813 43.1515 59.2559 43.2741 58.7519C43.5568 57.6053 44.7168 56.9026 45.8608 57.1866C47.0075 57.4679 47.7088 58.6252 47.4288 59.7706C47.3915 59.9292 44.9461 70.4266 50.0875 78.0479C52.9581 82.3026 57.7315 84.9453 64.2728 85.9053C65.4408 86.0759 66.2501 87.1626 66.0768 88.3306C65.9208 89.3946 65.0075 90.1599 63.9648 90.1599Z"
    fill="#17191C"
  />
<path
    d="M44.6915 52.4893C40.9915 50.3533 37.9875 52.0692 37.9728 56.3172C37.9635 60.5666 40.9501 65.7413 44.6475 67.8746C48.3435 70.0119 51.3515 68.2959 51.3621 64.0493C51.3768 59.7986 48.3875 54.6239 44.6915 52.4893Z"
    fill="#E9EFF4"
  />
<path
    d="M44.6808 55.5319C42.4474 54.2426 40.6287 55.2773 40.6207 57.8466C40.6154 60.4133 42.4181 63.5426 44.6554 64.8333C46.8901 66.1239 48.7088 65.0853 48.7141 62.5199C48.7248 59.9506 46.9168 56.8226 44.6808 55.5319Z"
    fill="#1C2026"
  />
<path
    d="M45.4422 48.72C46.5422 48.0827 48.0222 48.1013 49.6688 48.8986C49.8435 48.9866 50.0275 49.0827 50.2075 49.1867C52.5968 50.5653 54.6888 53.216 55.8675 56.064C56.5115 57.6227 56.8848 59.24 56.8808 60.744C56.8755 62.8547 56.1288 64.34 54.9261 65.0387L49.4088 68.3427C50.6128 67.6427 51.3568 66.1587 51.3622 64.0494C51.3675 62.544 50.9968 60.9267 50.3515 59.3667C49.1742 56.52 47.0795 53.868 44.6915 52.4893C44.5088 52.384 44.3288 52.2907 44.1502 52.2027C42.5062 51.404 41.0261 51.3853 39.9261 52.0227L45.4422 48.72Z"
    fill="white"
  />
<path
    d="M117.418 56.728L117.417 57.5693C117.435 59.8987 114.185 61.7893 110.155 61.7893C108.146 61.7893 106.325 61.316 105.005 60.5533C103.681 59.788 102.861 58.736 102.853 57.572L102.854 56.732C102.861 57.896 103.683 58.948 105.005 59.7133C106.327 60.4747 108.149 60.948 110.158 60.9467C114.185 60.9467 117.435 59.0586 117.418 56.728Z"
    fill="#E4E6ED"
  />
<path
    d="M115.273 53.744C116.593 54.508 117.413 55.5626 117.418 56.728C117.435 59.0586 114.185 60.9467 110.158 60.9467C108.149 60.948 106.327 60.4747 105.005 59.7133C103.683 58.948 102.861 57.8959 102.854 56.7319C102.841 54.3959 106.094 52.508 110.115 52.512C112.126 52.5106 113.95 52.98 115.273 53.744Z"
    fill="white"
  />
<path
    d="M113.039 55.0413C113.786 55.4733 114.25 56.0706 114.251 56.728C114.263 58.0453 112.425 59.1119 110.147 59.1119C109.011 59.1119 107.983 58.8466 107.234 58.4146C106.487 57.9839 106.023 57.3866 106.021 56.7306C106.013 55.4106 107.85 54.3426 110.123 54.3466C111.262 54.3466 112.293 54.612 113.039 55.0413Z"
    fill="#E4E6ED"
  />
<path
    d="M112.865 55.4599C111.309 54.5613 108.787 54.5613 107.233 55.4599C105.677 56.3586 105.677 57.8133 107.233 58.7106C108.787 59.6093 111.309 59.6093 112.865 58.7106C114.421 57.8133 114.421 56.3586 112.865 55.4599Z"
    fill="#A4781E"
  />
<path
    d="M112.865 55.1253C111.309 54.2267 108.787 54.2267 107.233 55.1253C105.677 56.0227 105.677 57.48 107.233 58.3747C108.787 59.2747 111.309 59.2747 112.865 58.3747C114.421 57.48 114.421 56.0227 112.865 55.1253Z"
    fill="#F9B10C"
  />
<path
    d="M112.865 55.4372C112.739 55.3639 112.626 55.2466 112.485 55.1839C112.351 55.1253 112.151 55.2266 112.009 55.1786C111.869 55.1319 111.695 55.2399 111.549 55.2026C111.403 55.1679 111.306 54.9706 111.155 54.944C111.009 54.9173 110.845 55.0999 110.697 55.0839C110.546 55.0706 110.423 54.8052 110.275 54.8012C110.123 54.7972 109.982 55.0066 109.833 55.0106C109.681 55.016 109.493 54.4679 109.342 54.4839C109.194 54.4986 109.11 55.0359 108.961 55.0613C108.813 55.0866 108.658 55.0226 108.514 55.0599C108.367 55.0959 108.13 54.8333 107.99 54.8813C107.845 54.9293 107.849 55.3533 107.714 55.4106C107.571 55.4733 107.233 55.144 107.107 55.2186C106.963 55.3 107.051 55.7213 106.934 55.8119C106.805 55.9133 106.327 55.6586 106.229 55.7679C106.119 55.8919 106.274 56.248 106.205 56.3773C106.129 56.52 106.069 56.6773 106.045 56.8253C106.015 56.9786 106.238 57.1106 106.265 57.2639C106.291 57.4119 106.005 57.6733 106.079 57.8173C106.149 57.9479 106.67 57.7452 106.781 57.8706C106.878 57.9799 106.543 58.5533 106.67 58.6533C106.786 58.7439 107.114 58.5653 107.257 58.6493C107.386 58.7213 107.638 58.5052 107.777 58.5679C107.913 58.6292 108.003 58.7253 108.147 58.7746C108.289 58.8226 108.415 58.8292 108.563 58.8652C108.709 58.9026 108.843 58.8639 108.993 58.8893C109.141 58.9133 109.226 59.2826 109.378 59.2959C109.527 59.3119 109.682 59.0919 109.833 59.0959C109.982 59.0999 110.123 59.3999 110.275 59.3932C110.426 59.3892 110.61 59.6999 110.758 59.6866C110.91 59.6719 111.03 59.3453 111.177 59.3199C111.329 59.2946 111.562 59.5986 111.706 59.5626C111.853 59.5252 111.781 58.732 111.919 58.6853C112.063 58.6373 112.327 58.9519 112.462 58.8919C112.602 58.8293 112.838 58.9333 112.963 58.8613C113.107 58.7773 113.182 58.5826 113.298 58.4893C113.43 58.3919 113.575 58.2946 113.674 58.1839C113.782 58.0613 113.827 57.8826 113.894 57.752C113.971 57.608 114.342 57.5066 114.367 57.3572C114.395 57.2026 114.17 56.964 114.145 56.8106C114.118 56.6626 114.131 56.4346 114.057 56.2906C113.987 56.1612 113.631 56.1986 113.523 56.0773C113.425 55.9653 113.346 55.8439 113.218 55.7413C113.101 55.6519 113.007 55.5186 112.865 55.4372Z"
    fill="#8FC529"
  />
<path
    d="M112.865 54.924C111.309 54.0253 108.787 54.0253 107.233 54.924C105.677 55.8226 105.677 57.2786 107.233 58.176C108.787 59.0746 111.309 59.0746 112.865 58.176C114.421 57.2786 114.421 55.8226 112.865 54.924Z"
    fill="#46271B"
  />
<path
    d="M112.865 54.5893C111.309 53.6919 108.787 53.6919 107.233 54.5893C105.677 55.4866 105.677 56.9439 107.233 57.8413C108.787 58.7386 111.309 58.7386 112.865 57.8413C114.421 56.9439 114.421 55.4866 112.865 54.5893Z"
    fill="#7D4327"
  />
<path
    d="M112.865 54.5972C111.309 53.7012 108.787 53.7012 107.233 54.5972C105.677 55.4959 105.677 56.9519 107.233 57.8506C108.787 58.7479 111.309 58.7479 112.865 57.8506C114.421 56.9519 114.421 55.4959 112.865 54.5972Z"
    fill="#F9B10C"
  />
<path
    d="M112.865 54.4306C111.309 53.5332 108.787 53.5332 107.233 54.4306C105.677 55.3292 105.677 56.7839 107.233 57.6826C108.787 58.5799 111.309 58.5799 112.865 57.6826C114.421 56.7839 114.421 55.3292 112.865 54.4306Z"
    fill="#F9B10C"
  />
<path
    d="M112.865 54.4306C111.309 53.5332 108.787 53.5332 107.233 54.4306C105.677 55.3292 105.677 56.7839 107.233 57.6826C108.787 58.5799 111.309 58.5799 112.865 57.6826C114.421 56.7839 114.421 55.3292 112.865 54.4306Z"
    fill="#46271B"
  />
<path
    d="M112.865 54.096C111.309 53.1986 108.787 53.1986 107.233 54.096C105.677 54.9946 105.677 56.4507 107.233 57.3494C108.787 58.2454 111.309 58.2454 112.865 57.3494C114.421 56.4507 114.421 54.9946 112.865 54.096Z"
    fill="#7D4327"
  />
<path
    d="M111.295 56.6946C110.649 56.3213 109.603 56.3213 108.957 56.6946C108.311 57.0666 108.311 57.6719 108.957 58.0452C109.603 58.4159 110.649 58.4159 111.295 58.0452C111.942 57.6719 111.942 57.0666 111.295 56.6946Z"
    fill="#DD2832"
  />
<path
    d="M111.295 56.5559C110.649 56.1813 109.603 56.1813 108.957 56.5559C108.311 56.9279 108.311 57.5319 108.957 57.9053C109.603 58.2799 110.649 58.2799 111.295 57.9053C111.942 57.5319 111.942 56.9279 111.295 56.5559Z"
    fill="#EF2C3B"
  />
<path
    d="M114.172 55.6C113.525 55.228 112.478 55.228 111.832 55.6C111.186 55.972 111.186 56.5799 111.832 56.9506C112.478 57.3226 113.525 57.3226 114.172 56.9506C114.817 56.5799 114.817 55.972 114.172 55.6Z"
    fill="#DD2832"
  />
<path
    d="M114.172 55.4625C113.525 55.0879 112.478 55.0879 111.832 55.4625C111.186 55.8319 111.186 56.4372 111.832 56.8119C112.478 57.1866 113.525 57.1866 114.172 56.8119C114.817 56.4372 114.817 55.8319 114.172 55.4625Z"
    fill="#EF2C3B"
  />
<path
    d="M108.442 55.8092C107.795 55.4372 106.747 55.4372 106.102 55.8092C105.453 56.1812 105.453 56.7866 106.102 57.1586C106.747 57.5319 107.795 57.5319 108.442 57.1586C109.087 56.7866 109.087 56.1812 108.442 55.8092Z"
    fill="#DD2832"
  />
<path
    d="M108.442 55.6693C107.795 55.2959 106.747 55.2959 106.102 55.6693C105.453 56.0439 105.453 56.6466 106.102 57.0199C106.747 57.3933 107.795 57.3933 108.442 57.0199C109.087 56.6466 109.087 56.0439 108.442 55.6693Z"
    fill="#EF2C3B"
  />
<path
    d="M107.191 54.0746C107.318 54 107.431 53.884 107.571 53.8213C107.706 53.7613 107.905 53.8639 108.049 53.8146C108.187 53.7693 108.361 53.8759 108.509 53.8399C108.654 53.8039 108.75 53.6053 108.901 53.58C109.049 53.556 109.211 53.736 109.361 53.7213C109.511 53.7053 109.634 53.4426 109.782 53.4373C109.933 53.4319 110.074 53.6413 110.226 53.6466C110.374 53.6533 110.563 53.1053 110.714 53.1213C110.863 53.1346 110.949 53.672 111.095 53.6973C111.243 53.7213 111.397 53.6613 111.542 53.6973C111.689 53.732 111.927 53.4706 112.066 53.5173C112.211 53.5666 112.209 53.9893 112.343 54.0493C112.483 54.112 112.825 53.7799 112.95 53.8533C113.091 53.9373 113.007 54.3586 113.121 54.4479C113.251 54.5493 113.73 54.296 113.829 54.4053C113.937 54.5266 113.783 54.8826 113.851 55.0146C113.927 55.1586 113.987 55.3146 114.011 55.4626C114.041 55.6159 113.818 55.748 113.791 55.9C113.766 56.0493 114.054 56.3119 113.978 56.4533C113.909 56.5839 113.387 56.384 113.278 56.5053C113.179 56.6146 113.514 57.1906 113.386 57.2933C113.271 57.3826 112.945 57.2053 112.801 57.2866C112.673 57.3613 112.418 57.1453 112.281 57.2053C112.143 57.264 112.054 57.3639 111.907 57.4119C111.769 57.4599 111.639 57.4679 111.491 57.5039C111.349 57.5386 111.214 57.5 111.063 57.5253C110.917 57.5506 110.83 57.9186 110.678 57.9346C110.53 57.9479 110.374 57.728 110.226 57.7306C110.074 57.7373 109.933 58.036 109.782 58.0306C109.63 58.0253 109.447 58.3373 109.298 58.3226C109.147 58.308 109.026 57.9826 108.879 57.9573C108.73 57.9319 108.497 58.236 108.351 58.2C108.203 58.1626 108.277 57.3679 108.138 57.3199C107.994 57.2733 107.73 57.588 107.594 57.528C107.455 57.468 107.221 57.5706 107.091 57.4986C106.95 57.4159 106.873 57.2186 106.757 57.1293C106.627 57.0279 106.482 56.9293 106.385 56.8213C106.277 56.6986 106.23 56.52 106.165 56.3893C106.085 56.244 105.715 56.1426 105.689 55.9946C105.663 55.84 105.886 55.6 105.913 55.4466C105.938 55.2986 105.925 55.0719 106.001 54.9293C106.069 54.7986 106.425 54.8346 106.533 54.7119C106.631 54.6039 106.711 54.4813 106.841 54.38C106.955 54.288 107.049 54.156 107.191 54.0746Z"
    fill="#8FC529"
  />
<path
    d="M112.865 53.9653C111.309 53.0666 108.787 53.0666 107.233 53.9653C105.677 54.8626 105.677 56.32 107.233 57.216C108.787 58.1147 111.309 58.1147 112.865 57.216C114.421 56.32 114.421 54.8626 112.865 53.9653Z"
    fill="#A4781E"
  />
<path
    d="M112.865 53.6306C111.309 52.7333 108.787 52.7333 107.233 53.6306C105.677 54.528 105.677 55.984 107.233 56.8826C108.787 57.7813 111.309 57.7813 112.865 56.8826C114.421 55.984 114.421 54.528 112.865 53.6306Z"
    fill="#F9B10C"
  />
<path
    d="M109.581 56.0653V56.172H109.397L109.181 56.0467V55.9426H109.368L109.581 56.0653Z"
    fill="#FEF6DC"
  />
<path
    d="M109.941 53.8799V53.9866H109.757L109.543 53.8612V53.7572H109.727L109.941 53.8799Z"
    fill="#FEF6DC"
  />
<path
    d="M108.465 54.4599V54.5667H108.279L108.065 54.4413V54.3373H108.251L108.465 54.4599Z"
    fill="#FEF6DC"
  />
<path
    d="M110.811 54.5973V54.7026H110.995L111.209 54.58V54.4733H111.026L110.811 54.5973Z"
    fill="#FEF6DC"
  />
<path
    d="M111.581 53.5386V53.6466H111.765L111.981 53.5226V53.4172H111.794L111.581 53.5386Z"
    fill="#FEF6DC"
  />
<path
    d="M111.214 56.2854V56.3906H111.397L111.613 56.2667V56.1587H111.427L111.214 56.2854Z"
    fill="#FEF6DC"
  />
<path
    d="M109.779 56.9692V57.0746H109.963L110.177 56.9519V56.8452H109.993L109.779 56.9692Z"
    fill="#FEF6DC"
  />
<path
    d="M107.47 55.6266V55.7333H107.286L107.07 55.6093V55.5039H107.257L107.47 55.6266Z"
    fill="#FEF6DC"
  />
<path
    d="M112.903 55.0199V55.1252H112.721L112.507 55.0012V54.8946H112.689L112.903 55.0199Z"
    fill="#FEF6DC"
  />
<path d="M64.4208 13.1666H63.5635V3.14664H64.4208V13.1666Z" fill="#182023" />
<path
    d="M65.0994 0.95595C63.4274 0.453283 61.6607 1.39993 61.1581 3.07327C60.6554 4.74793 61.6008 6.51198 63.2768 7.01598C64.9488 7.51998 66.7141 6.57329 67.2181 4.89996C67.7208 3.22529 66.7714 1.46128 65.0994 0.95595Z"
    fill="#1C2026"
  />
<path
    d="M63.2008 1.93601C62.6475 1.76934 62.0635 2.08265 61.8968 2.63731C61.7301 3.19198 62.0435 3.77468 62.5981 3.94135C63.1501 4.10802 63.7328 3.79602 63.9008 3.24135C64.0675 2.68668 63.7541 2.10401 63.2008 1.93601Z"
    fill="#242E3D"
  />
<defs>
<radialGradient
      id="paint0_radial_0_1"
      cx="0"
      cy="0"
      r="1"
      gradientUnits="userSpaceOnUse"
      gradientTransform="translate(-133.739 338.113) rotate(180) scale(378.897 378.897)"
    >
<stop stop-color="#A5A0D7" />
<stop offset="1" stop-color="#928DCE" />
</radialGradient>
<radialGradient
      id="paint1_radial_0_1"
      cx="0"
      cy="0"
      r="1"
      gradientUnits="userSpaceOnUse"
      gradientTransform="translate(-133.739 338.113) rotate(180) scale(378.898 378.897)"
    >
<stop stop-color="#A5A0D7" />
<stop offset="1" stop-color="#928DCE" />
</radialGradient>
<radialGradient
      id="paint2_radial_0_1"
      cx="0"
      cy="0"
      r="1"
      gradientUnits="userSpaceOnUse"
      gradientTransform="translate(-133.739 338.113) rotate(180) scale(378.898 378.897)"
    >
<stop stop-color="#A5A0D7" />
<stop offset="1" stop-color="#928DCE" />
</radialGradient>
<radialGradient
      id="paint3_radial_0_1"
      cx="0"
      cy="0"
      r="1"
      gradientUnits="userSpaceOnUse"
      gradientTransform="translate(-133.74 338.113) rotate(180) scale(378.898 378.897)"
    >
<stop stop-color="#A5A0D7" />
<stop offset="1" stop-color="#928DCE" />
</radialGradient>
</defs>
</svg>
