<svg
  width="565"
  height="563"
  viewBox="0 0 565 563"
  fill="none"
  xmlns="http://www.w3.org/2000/svg"
>
<path
    d="M359.141 416.805C311.633 361.472 234.025 334.049 162.524 347.332C142.425 351.067 122.633 357.903 105.877 369.668C89.1213 381.433 75.5579 398.436 70.1921 418.261C62.9265 445.105 72.2265 475.761 93.1587 493.961C108.071 506.925 127.453 513.359 146.601 518.086C184.392 527.42 223.508 531.317 262.387 529.624C285.316 528.624 308.581 525.572 329.427 515.921C348.675 507.014 366.712 490.703 376.397 471.507C386.349 451.785 371.873 431.635 359.141 416.805Z"
    fill="#EEE3F3"
  />
<path
    d="M445.268 386.193C454.015 372.228 464.573 359.056 478.253 349.933C491.935 340.812 509.097 336.093 525.083 339.851C541.069 343.607 555.163 356.881 557.356 373.237C558.977 385.341 554.307 397.352 549.064 408.368C536.745 434.248 519.964 459.069 495.668 474.119C476.339 486.091 435.357 498.424 424.3 469.68C414.139 443.268 431.693 407.872 445.268 386.193Z"
    fill="#EEE3F3"
  />
<path
    d="M209.495 0.861372C240.251 -0.618628 271.305 0.225406 301.905 1.82941C341.773 3.91874 381.897 7.21073 420.299 18.1827C463.432 30.5067 506.505 53.6481 532.736 91.3161C558.584 128.439 574.449 185.729 556.893 229.316C544.948 258.971 518.664 280.053 492.547 298.336C466.429 316.619 438.624 334.251 420.825 360.775C417.451 365.805 414.417 371.176 409.985 375.293C405.553 379.411 399.275 382.139 393.455 380.532C388.992 379.303 385.555 375.799 382.48 372.321C371.577 359.989 362.228 346.092 349.511 335.663C325.596 316.053 293.269 311.28 262.673 307.232C228.195 302.669 193.717 298.1 159.237 293.543C132.02 289.947 99.8626 285.693 74.6666 274.592C34.3084 256.812 6.32079 215.301 1.25359 171.3C-4.82761 118.491 20.3213 53.3014 70.1527 30.8827C113.935 11.1867 161.348 3.17737 209.495 0.861372Z"
    fill="#EEE3F3"
  />
<path
    d="M346.779 538.328H322.233C318.457 538.328 315.396 535.251 315.396 531.455V365.979C315.396 362.183 312.335 359.105 308.557 359.105H211.229"
    stroke="#5B55AF"
    stroke-width="1.33333"
    stroke-miterlimit="10"
    stroke-linecap="round"
    stroke-linejoin="round"
  />
<path
    d="M354.124 516.177H329.579C325.803 516.177 322.741 513.098 322.741 509.304V351.883C322.741 348.087 319.68 345.009 315.903 345.009H218.575"
    stroke="#5B55AF"
    stroke-width="1.33333"
    stroke-miterlimit="10"
    stroke-linecap="round"
    stroke-linejoin="round"
  />
<path
    d="M346.111 488.656H313.791C310.637 488.656 308.081 486.085 308.081 482.916V371.015C308.081 367.217 305.019 364.139 301.243 364.139H181.849"
    stroke="#5B55AF"
    stroke-width="1.33333"
    stroke-miterlimit="10"
    stroke-linecap="round"
    stroke-linejoin="round"
  />
<path
    d="M236.139 548.685L260 376.688C260.045 376.123 260.861 376.093 260.947 376.653L286.96 548.685"
    stroke="#040606"
    stroke-width="2.66667"
    stroke-miterlimit="10"
    stroke-linecap="round"
    stroke-linejoin="round"
  />
<path
    d="M108.047 547.383L135.072 435.168L176.197 547.383"
    stroke="#040606"
    stroke-width="2.66667"
    stroke-miterlimit="10"
    stroke-linecap="round"
    stroke-linejoin="round"
  />
<path
    d="M48.1047 387.719C47.8385 386.984 47.5531 386.263 47.312 385.515C47.5531 386.263 47.8193 386.996 48.1047 387.719Z"
    fill="#5B55AF"
  />
<path
    d="M56.5807 327.377C59.7145 334.779 63.2057 342.016 66.6454 349.276C70.2886 356.969 73.9984 364.528 78.5995 371.703C88.0787 386.483 100.069 399.564 113.371 410.943C127.703 423.205 144.18 432.692 161.049 440.945C161.188 441.013 161.329 441.076 161.468 441.143C157.968 441.277 154.464 441.299 150.969 441.185C143.98 440.957 137.039 440.087 130.156 438.836C136.276 440.441 142.476 441.644 148.967 441.856C159.605 442.201 170.337 441.421 180.787 439.364C191.153 437.321 201.596 434.012 210.44 428.06C214.444 425.364 218.111 422.064 220.916 418.105C222.424 415.976 223.648 413.687 224.595 411.281C224.531 411.021 224.491 410.756 224.42 410.499C219.311 391.757 203.025 389.316 188.441 380.992C173.057 372.212 159.893 359.485 150.704 344.28C142.18 330.177 137.173 314.373 130.36 299.443C124.001 285.513 115.749 278.328 101.191 273.212C90.3907 269.416 78.4615 266.813 67.6188 270.481C57.9527 273.753 50.8073 281.543 46.2245 290.861C46.9917 303.471 51.7771 316.036 56.5807 327.377Z"
    fill="#5B55AF"
  />
<path
    d="M209.941 359.445C210.017 352.111 209.808 345.44 211.696 338.139C214.197 328.471 221.615 323.191 230.865 320.211C232.897 319.556 235.133 319.087 237.135 319.831C239.447 320.692 240.924 322.984 241.824 325.293C244.733 332.759 243.219 341.139 241.665 349.004C238.188 366.615 234.709 384.225 231.232 401.836C231.031 402.851 230.74 403.993 229.833 404.481C229.139 404.857 228.291 404.721 227.517 404.565C219.704 403 212.077 400.497 204.851 397.125C207.889 398.543 209.924 361.088 209.941 359.445Z"
    fill="#CFB9E1"
  />
<path
    d="M228.908 463.448C234.692 461.811 237.587 461.293 243.177 459.073C243.188 484.653 246.761 527.788 246.645 535.151C239.464 535.967 233.845 538.632 226.581 538.709C220.885 529.843 218.563 504.744 215.344 495.043C214.6 492.802 211.355 481.598 207.729 468.852C214.836 467.251 221.896 465.432 228.908 463.448Z"
    fill="#CFB9E1"
  />
<path
    d="M215.623 412.127C223.901 414.044 232.396 414.924 240.791 416.168C245.212 416.824 254.251 419.352 258.423 416.247C263.697 412.317 255.057 410.024 251.148 407.827C244.417 404.044 237.588 400.44 230.803 396.759C224.533 393.359 216.484 386.112 210.089 393.124C205.977 397.633 205.507 404.827 205.039 410.609C208.625 410.736 212.099 411.309 215.623 412.127Z"
    fill="#040606"
  />
<path
    d="M81.7213 382.129C85.5493 369.979 102.875 367.195 113.571 368.056C135.827 369.849 158.149 370.399 180.281 372.219C198.311 373.7 217.935 377.62 230.333 392.072C240.465 403.881 242.099 420.133 244.968 434.932C250.279 462.336 251.765 488.028 251.147 515.795C251.132 516.447 251.103 517.145 250.717 517.671C250.213 518.357 249.279 518.524 248.439 518.637C237.855 520.06 227.272 521.484 216.688 522.909C216.06 522.993 215.377 523.067 214.835 522.739C214.241 522.377 214 521.646 213.807 520.977C212.155 515.261 190.325 427.808 191.865 427.564C173.589 430.477 159.137 429.633 140.693 428.143C127.657 427.091 114.395 424.828 103.023 418.339C92.0293 412.064 77.2937 396.185 81.7213 382.129Z"
    fill="#171717"
  />
<path
    d="M76.4145 377.375C77.7271 379.355 77.626 381.156 78.2823 382.235C81.6312 382.188 84.9867 382.241 88.3347 382.292C97.1093 382.427 105.963 382.553 114.593 380.731C122.1 379.144 129.565 376.845 136.799 374.293C147.964 370.351 158.435 367.571 157.613 353.823C156.583 336.105 154.451 313.783 159.425 296.503C161.433 289.528 162.524 284.329 165.529 277.727C166.356 275.913 167.185 274.043 167.304 272.052C167.388 270.628 167.103 269.211 166.764 267.825C161.209 245.151 142.351 244.876 122.343 243.097C119.244 242.821 116.104 242.548 113.039 243.076C109.257 243.725 104.844 244.847 101.555 246.831C84.0187 257.405 82.832 275.173 77.5527 293.528C74.9167 302.696 70.7844 311.376 68.1396 320.541C62.4912 340.113 65.1084 360.327 76.4145 377.375Z"
    fill="#F14C62"
  />
<path
    d="M251.567 534.886C253.719 536.096 256.94 536.819 259.247 537.519C265.208 539.324 271.388 540.341 277.269 542.428C280.353 543.522 283.299 547.398 279.944 550.145C278.481 551.344 276.507 551.645 274.633 551.863C259.713 553.596 244.628 552.752 229.632 551.908C228.815 551.861 227.921 551.783 227.34 551.203C227.011 550.875 226.831 550.427 226.665 549.991C224.841 545.189 223.587 539.821 222.436 534.915C224.445 534.42 226.573 535.263 228.593 535.417C231.213 535.616 234.08 535.825 236.469 534.502C239.697 532.712 242.664 530.448 245.247 527.805C245.487 527.559 245.733 527.302 246.052 527.172C247.096 526.748 248.12 527.883 248.473 528.959C249.161 531.055 249.197 533.403 251.171 534.651C251.299 534.732 251.431 534.81 251.567 534.886Z"
    fill="#040606"
  />
<path
    d="M209.307 354.583C209.129 352.092 209.32 349.781 211.635 348.907C214.827 347.697 215.907 349.407 217.948 346.08C221.88 339.669 224.672 331.661 227.333 324.636C230.54 316.169 236.587 305.121 236.269 296.024C236.252 295.551 236.213 295.049 235.937 294.668C235.615 294.221 235.052 294.039 234.523 293.9C229.808 292.659 224.853 292.787 219.991 293.101C187.927 295.173 170.025 330.123 154.859 354.056C152.571 357.665 139.248 375.036 135.749 374.759C148.003 375.733 157.44 381.973 168.773 385.416C175.731 387.528 183.383 393.764 189.892 394.66C191.996 394.949 200.58 379.087 201.833 377.011C205.115 371.565 209.749 365.359 209.648 358.756C209.628 357.459 209.408 355.992 209.307 354.583Z"
    fill="#171717"
  />
<path
    d="M247.529 357.617C246.803 363.037 245.972 368.257 244.623 373.552C244.505 374.013 244.377 374.493 244.057 374.847C243.549 375.404 242.705 375.485 241.952 375.443C240.363 375.355 238.824 374.887 237.26 374.585C227.528 372.712 211.34 379.293 203.849 370.172C202.344 368.339 201.865 365.884 201.549 363.528C199.261 346.513 204.669 329.891 204.439 312.796C204.316 303.665 207.689 298.156 212.305 290.705C216.732 283.56 222.963 281.132 230.949 283.856C244.407 288.444 252.104 302.777 251.472 316.4C250.836 330.144 249.365 343.931 247.529 357.617Z"
    fill="#171717"
  />
<path
    d="M122.276 225.457C122.145 227.105 125.577 230.872 126.627 232.06C128.292 233.944 130.229 235.4 132.568 236.328C138.663 238.744 145.051 238.967 149.827 233.916C152.095 231.519 153.636 228.524 154.927 225.48C156.895 220.844 159.639 208.06 158.393 203.177C157.263 198.747 152.536 202.609 148.233 201.121C144.489 199.828 141.639 198.668 137.635 199.368C134.075 199.991 130.641 201.769 128.405 204.673C127.803 205.456 127.256 206.249 126.756 207.043C125.573 209.571 124.481 212.147 123.695 214.829C123.037 217.067 122.815 219.336 122.46 221.603C122.435 222.891 122.377 224.177 122.276 225.457Z"
    fill="#CFB9E1"
  />
<path
    d="M119.74 254.92C123.281 257.416 127.659 259.065 131.965 259.415C132.793 259.483 143.311 258.301 141.805 256.303C137.857 251.065 140.013 246.401 142.489 240.709C142.868 239.836 146.183 234.461 145.84 233.856C145.743 233.684 145.623 233.523 145.471 233.376C144.677 232.613 143.448 232.635 142.349 232.621C138.244 232.573 134.401 231.273 131.064 228.88C129.477 227.743 128.048 226.401 126.684 225.004C125.904 224.204 124.472 221.419 123.28 221.32C123.167 221.311 123.08 221.369 122.987 221.411C121.585 227.056 120.9 231.993 118.088 237.392C115.911 241.572 110.535 243.641 109.011 243.921C111.419 248.216 115.689 252.068 119.74 254.92Z"
    fill="#CFB9E1"
  />
<path
    d="M131.548 216.973C131.655 216.105 131.761 215.045 132.556 214.689C133.364 214.325 134.236 214.984 135.101 215.177C137.865 215.8 140.416 212.783 141.997 210.871C142.319 210.481 142.635 210.123 142.953 209.792C144.761 207.917 146.621 207.008 149.697 207.261C152.733 207.512 155.773 208.565 158.763 207.979C162.079 207.328 164.843 204.545 165.619 201.241C166.876 195.891 162.508 188.767 156.484 189.772C154.859 190.043 153.1 190.868 151.672 190.044C150.869 189.581 150.413 188.707 149.861 187.96C147.741 185.085 143.584 183.945 140.305 185.339C139.443 185.705 138.64 186.225 137.744 186.504C136.028 187.036 134.187 186.628 132.393 186.532C130.273 186.417 128.056 186.78 126.311 187.993C124.564 189.207 123.392 191.388 123.772 193.488C123.883 194.105 124.12 194.717 124.041 195.339C123.763 197.528 120.297 197.615 119.261 199.56C118.269 201.427 120.081 203.723 119.569 205.776C119.265 206.997 118.168 207.945 118.041 209.199C117.885 210.751 119.304 211.839 119.916 213.132C120.591 214.56 121.224 216.433 121.363 218C121.648 221.231 119.703 224.705 124.456 224.301C128.367 223.968 131.068 220.839 131.548 216.973Z"
    fill="#171717"
  />
<path
    d="M191.612 300.352C193.488 302.612 195.024 304.943 200.421 304.584C207.276 304.129 213.945 300.629 217.861 294.887C218.949 293.292 219.844 291.515 220.103 289.597C221.66 278.057 208.739 270.58 200.492 265.911C191.04 260.559 180.816 256.797 170.512 253.483C161.372 250.541 151.823 245.435 141.98 246.224C141.724 246.245 141.459 246.292 141.201 246.361C141.307 247.64 141.372 248.924 141.384 250.207C145.881 257.319 148.673 265.751 150.491 273.949C151.665 279.249 154.285 285.365 153.751 290.832C164.636 292.336 175.456 294.305 186.173 296.737C188.964 297.369 190.363 298.845 191.612 300.352Z"
    fill="#F14C62"
  />
<path
    d="M208.02 275.924C203.849 276.396 200.356 279.536 198.332 283.231C196.307 286.925 195.507 291.152 194.735 295.3C192.529 307.147 191.811 320.888 187.86 332.247C185.404 339.303 175.852 349.036 180.577 357.087C181.963 359.448 184.889 360.783 187.568 360.276C192.309 359.379 194.521 354.036 196.537 349.631C199.137 343.948 202.996 339.576 206.44 334.587C210.748 328.348 213.867 320.693 216.987 313.8C220.987 304.964 224.529 294.889 221.264 285.753C219.264 280.159 213.921 275.273 208.02 275.924Z"
    fill="#CFB9E1"
  />
<mask
    id="mask0_2_626"
    style="mask-type:luminance"
    maskUnits="userSpaceOnUse"
    x="96"
    y="221"
    width="60"
    height="66"
  >
<path
      d="M155.177 266.364C155.215 266.179 155.229 265.992 155.253 265.804C154.035 261.401 147.763 261.475 144.237 259.621C143.525 259.247 142.919 258.78 142.392 258.251C142.323 258.181 142.252 258.112 142.187 258.039C141.08 256.833 140.405 255.3 140.141 253.565C139.069 246.476 142.712 240.084 145.84 233.856C145.743 233.684 145.623 233.523 145.471 233.376C144.677 232.613 143.448 232.635 142.349 232.621C138.244 232.573 134.401 231.273 131.064 228.88C129.477 227.743 128.048 226.401 126.684 225.004C125.904 224.204 124.472 221.419 123.28 221.32C123.167 221.311 123.08 221.369 122.987 221.411C121.585 227.056 121.471 232.335 118.088 237.392C116.808 239.305 115.296 241.007 113.5 242.256C112.559 243.164 111.412 243.828 109.835 244.096C109.436 244.164 109.028 244.196 108.615 244.207C108.448 244.231 108.292 244.276 108.121 244.292C107.921 244.312 107.761 244.263 107.619 244.189C105.076 244.079 102.451 243.475 100.496 244.975C99.5733 245.683 99 246.751 98.5506 247.825C95.236 255.752 97.5653 266.076 101.753 273.207C104.945 278.64 110.551 283.667 116.647 285.373C122.451 286.997 128.508 285.627 134.029 283.607C136.451 282.721 138.752 281.843 140.963 280.823C147.613 277.751 153.352 274.331 155.095 266.749C155.123 266.621 155.152 266.493 155.177 266.364Z"
      fill="white"
    />
</mask>
<g mask="url(#mask0_2_626)">
<path
      d="M133.117 235.68C133.275 235.767 133.463 235.844 133.661 235.917C137.121 237.347 140.929 238.224 144.575 237.689C145.488 238.081 145.185 238.832 144.725 240.188C144.081 242.088 143.5 244.009 142.985 245.949C139.621 242.493 136.256 239.037 132.891 235.581C132.967 235.615 133.043 235.648 133.117 235.68Z"
      fill="#111629"
    />
</g>
<path
    d="M80.4057 259.761C73.514 267.68 70.6875 278.357 68.3453 288.357C65.3177 301.283 62.2907 314.208 59.2625 327.135C58.5521 330.168 57.838 333.228 57.75 336.344C57.6093 341.344 59.0364 347.707 60.2036 352.523C61.7021 358.703 65.3812 358.323 70.8588 357.776C79.5203 356.911 91.304 354.276 97.152 347.176C99.932 343.801 100.824 339.289 101.625 334.981C102.727 329.059 103.828 323.137 104.929 317.213C109.429 293.015 113.927 268.053 108.836 243.972C96.7053 245.785 87.4907 251.621 80.4057 259.761Z"
    fill="#F14C62"
  />
<path
    d="M109.077 283.787C99.064 286.408 99.9613 299.289 99.0547 307.233C97.7147 318.969 95.488 330.601 92.3973 341.997"
    stroke="#171717"
    stroke-width="1.33333"
    stroke-miterlimit="10"
    stroke-linecap="round"
    stroke-linejoin="round"
  />
<path
    d="M215.436 312.116C211.605 328.72 202.835 353.937 202.671 370.981"
    stroke="#111629"
    stroke-width="0.666667"
    stroke-miterlimit="10"
    stroke-linecap="round"
    stroke-linejoin="round"
  />
<path
    d="M143.925 226.635C144.524 228.197 145.841 229.34 147.28 229.545C148.719 229.749 150.227 229.008 151.12 227.657"
    fill="white"
  />
<path
    d="M51.1969 367.375C78.9255 361.047 102.427 356.423 127.383 368.225C143.635 375.913 154.601 390.227 157.679 405.461C160.756 420.695 155.808 431.367 142.453 438.08"
    stroke="#534AA8"
    stroke-width="5.33333"
    stroke-miterlimit="10"
    stroke-linecap="round"
    stroke-linejoin="round"
  />
<path
    d="M196.656 429.596C195.897 423.819 195.729 416.661 194.971 410.885"
    stroke="#111629"
    stroke-width="0.666667"
    stroke-miterlimit="10"
    stroke-linecap="round"
    stroke-linejoin="round"
  />
<path
    d="M203.063 376.569C185.212 373.84 173.725 376.231 150.744 376.231"
    stroke="#111629"
    stroke-width="0.666667"
    stroke-miterlimit="10"
    stroke-linecap="round"
    stroke-linejoin="round"
  />
<path
    d="M126.163 216.355C126.163 219.291 128.529 221.671 131.451 221.671C134.372 221.671 136.74 219.291 136.74 216.355C136.74 213.419 134.372 211.039 131.451 211.039C128.529 211.039 126.163 213.419 126.163 216.355Z"
    fill="#CFB9E1"
  />
<path
    d="M162.708 441.659C162.568 441.592 161.188 441.013 161.049 440.945C144.18 432.692 127.703 423.205 113.371 410.943C100.069 399.564 88.0787 386.483 78.5995 371.703C73.9984 364.528 70.2885 356.969 66.6453 349.276C63.2057 342.016 59.7145 334.779 56.5807 327.377C51.7771 316.036 46.9917 303.471 46.2245 290.861C43.6636 296.072 41.8932 301.752 40.9536 307.407C36.8849 331.879 39.6672 361.855 47.312 385.515C47.5531 386.263 47.8385 386.984 48.1047 387.719C53.2021 401.799 63.4828 414.372 82.7253 425.34C116.857 444.792 143.923 441.879 150.912 442.107C154.405 442.221 159.207 441.795 162.708 441.659Z"
    fill="#534AA8"
  />
<path
    d="M94.7853 331.319C100.156 332.499 105.424 334.224 110.696 335.827C119.065 338.372 127.544 339.84 136.047 342.115C138.463 342.761 140.915 343.392 143.415 343.416C147.712 343.456 151.863 341.708 156.16 341.613C161.907 341.487 167.52 344.711 170.643 349.508C175.901 357.587 167.185 355.423 161.7 355.343C157.423 355.28 153.144 355.217 148.867 355.155C132.052 354.908 116.149 355.764 99.28 357.191C90.116 357.965 74.1385 360.124 65.9864 354.659C62.0255 352.004 55.4964 339.076 59.1323 335.211C59.814 334.487 60.7552 334.08 61.6765 333.711C69.9255 330.411 78.8568 329.207 87.7173 330.144C90.0987 330.396 92.4507 330.805 94.7853 331.319Z"
    fill="#CFB9E1"
  />
<path
    d="M44.7568 329.183C45.0396 332.631 45.5995 336.08 46.1459 339.421C46.8432 343.691 47.5448 347.964 48.5907 352.159C49.5068 355.836 50.736 359.539 53.1219 362.473C57.0417 367.293 64.174 369.163 70.0151 367.224C74.6151 365.697 73.9807 364.051 72.0203 360.217C67.9557 352.271 63.7307 343.955 60.2391 335.687C56.7005 327.307 53.4427 319.375 50.5421 310.756C49.9303 308.939 49.3183 307.12 48.7891 305.275C48.0005 302.527 47.3973 299.724 46.9849 296.895C47.3516 299.412 46.5932 302.607 46.3459 305.139C46.0645 308.019 45.7235 310.892 45.3213 313.757C44.6057 318.871 44.3317 324 44.7568 329.183Z"
    fill="#534AA8"
  />
<path
    d="M19.2375 548.685L44.2521 376.688C44.2989 376.123 45.1547 376.093 45.2443 376.653L72.5136 548.685"
    stroke="#040606"
    stroke-width="2.66667"
    stroke-miterlimit="10"
    stroke-linecap="round"
    stroke-linejoin="round"
  />
<path d="M276.684 371.263H28.8875V378.899H276.684V371.263Z" fill="#9384CA" />
<path
    d="M133.936 215.588C133.621 213.672 131.011 212.601 129.452 213.749"
    stroke="#171717"
    stroke-width="0.666667"
    stroke-miterlimit="10"
    stroke-linecap="round"
    stroke-linejoin="round"
  />
<path
    d="M216.24 371.605H104.708C103.585 371.605 102.675 370.695 102.675 369.573V368.357C102.675 367.235 103.585 366.324 104.708 366.324H216.24C217.361 366.324 218.272 367.235 218.272 368.357V369.573C218.272 370.695 217.361 371.605 216.24 371.605Z"
    fill="#040606"
  />
<path
    d="M218.633 371.605H119.851L128.445 314.876C128.744 312.908 130.416 311.437 132.36 311.437H223.313C225.661 311.437 227.428 313.553 227.068 315.932L218.633 371.605Z"
    fill="#040606"
  />
<path
    d="M176.505 339.592L180.791 343.173"
    stroke="#F14C62"
    stroke-width="1.33333"
    stroke-miterlimit="10"
    stroke-linecap="round"
    stroke-linejoin="round"
  />
<path
    d="M170.875 339.592L175.159 343.173"
    stroke="#F14C62"
    stroke-width="1.33333"
    stroke-miterlimit="10"
    stroke-linecap="round"
    stroke-linejoin="round"
  />
<path
    d="M189.827 291.177C189.56 294.888 191.532 299.692 193.201 302.04"
    stroke="#171717"
    stroke-width="1.33333"
    stroke-miterlimit="10"
    stroke-linecap="round"
    stroke-linejoin="round"
  />
<path
    d="M419.424 197.871C427.081 196.917 434.059 202.385 435.007 210.084C435.955 217.781 430.516 224.796 422.857 225.748C415.199 226.701 408.223 221.233 407.275 213.535C406.327 205.836 411.767 198.823 419.424 197.871ZM415.333 191.755C414.028 192.136 412.783 192.637 411.607 193.249C411.689 193.337 411.777 193.417 411.852 193.515C412.992 195.033 412.693 197.195 411.181 198.343C409.671 199.489 407.521 199.188 406.379 197.669C406.299 197.561 406.243 197.445 406.176 197.332C405.244 198.308 404.408 199.372 403.679 200.508C403.801 200.545 403.924 200.571 404.045 200.623C405.789 201.364 406.604 203.387 405.865 205.14C405.128 206.892 403.116 207.712 401.372 206.971C401.236 206.912 401.116 206.833 400.991 206.76C400.667 208.067 400.467 209.417 400.403 210.796C400.54 210.761 400.675 210.719 400.82 210.7C402.699 210.467 404.412 211.808 404.643 213.697C404.876 215.587 403.541 217.308 401.663 217.541C401.497 217.561 401.336 217.556 401.175 217.553C401.555 218.895 402.063 220.175 402.683 221.383C402.796 221.268 402.908 221.151 403.039 221.051C404.551 219.903 406.7 220.205 407.841 221.724C408.983 223.243 408.683 225.404 407.172 226.552C407.027 226.66 406.873 226.744 406.72 226.828C407.712 227.789 408.795 228.652 409.955 229.399C409.997 229.231 410.04 229.063 410.109 228.897C410.848 227.144 412.86 226.325 414.603 227.067C416.347 227.809 417.161 229.832 416.424 231.584C416.349 231.761 416.253 231.923 416.153 232.08C417.481 232.411 418.855 232.612 420.255 232.672C420.205 232.499 420.157 232.324 420.136 232.14C419.903 230.251 421.237 228.529 423.116 228.296C424.996 228.063 426.708 229.404 426.94 231.293C426.964 231.485 426.961 231.675 426.953 231.863C428.303 231.471 429.587 230.947 430.799 230.308C430.669 230.183 430.541 230.056 430.431 229.908C429.289 228.389 429.589 226.228 431.1 225.081C432.612 223.933 434.761 224.236 435.903 225.755C436.015 225.904 436.101 226.063 436.187 226.223C437.137 225.22 437.987 224.124 438.723 222.953C438.56 222.911 438.396 222.869 438.237 222.801C436.492 222.059 435.677 220.037 436.415 218.284C437.153 216.531 439.165 215.712 440.911 216.453C441.069 216.521 441.211 216.611 441.355 216.699C441.671 215.377 441.86 214.013 441.915 212.62C441.765 212.659 441.619 212.704 441.463 212.723C439.581 212.957 437.871 211.615 437.637 209.725C437.405 207.836 438.741 206.116 440.62 205.883C440.772 205.863 440.921 205.871 441.072 205.872C440.684 204.547 440.171 203.281 439.547 202.089C439.448 202.187 439.356 202.288 439.243 202.373C437.732 203.521 435.581 203.219 434.44 201.7C433.3 200.181 433.599 198.02 435.111 196.872C435.221 196.788 435.341 196.728 435.46 196.66C434.483 195.728 433.419 194.893 432.283 194.168C432.248 194.288 432.223 194.409 432.172 194.527C431.435 196.279 429.421 197.099 427.679 196.356C425.935 195.615 425.12 193.592 425.859 191.839C425.909 191.719 425.979 191.615 426.04 191.503C424.753 191.191 423.425 191 422.069 190.941C422.095 191.056 422.132 191.165 422.147 191.284C422.379 193.173 421.044 194.893 419.165 195.128C417.287 195.361 415.575 194.02 415.341 192.131C415.327 192.004 415.335 191.88 415.333 191.755Z"
    fill="#F14C62"
  />
<path
    d="M410.519 210.727C411.204 205.152 416.533 201.1 422.399 201.696C428.263 202.291 432.475 207.311 431.789 212.885C431.103 218.46 425.773 222.512 419.911 221.917C414.045 221.321 409.832 216.301 410.519 210.727ZM419.277 228.645C428.515 229.685 436.869 222.977 437.904 213.692C438.939 204.407 432.267 196.007 423.029 194.967C413.795 193.927 405.437 200.635 404.404 209.919C403.368 219.204 410.041 227.605 419.277 228.645Z"
    fill="#F14C62"
  />
<path
    d="M306.297 228.487C312.54 227.701 318.244 232.333 319.036 238.831C319.828 245.328 315.409 251.231 309.165 252.016C302.921 252.8 297.219 248.169 296.427 241.672C295.635 235.175 300.053 229.271 306.297 228.487ZM302.945 223.316C301.881 223.635 300.867 224.055 299.909 224.568C299.976 224.643 300.049 224.709 300.109 224.793C301.044 226.077 300.805 227.9 299.576 228.864C298.345 229.828 296.591 229.568 295.656 228.284C295.591 228.193 295.544 228.095 295.489 227.999C294.732 228.82 294.052 229.715 293.461 230.672C293.561 230.704 293.663 230.725 293.76 230.769C295.185 231.4 295.855 233.108 295.256 234.585C294.659 236.063 293.02 236.749 291.596 236.119C291.484 236.069 291.387 236.001 291.284 235.94C291.023 237.043 290.863 238.18 290.813 239.344C290.927 239.315 291.036 239.279 291.155 239.265C292.688 239.072 294.085 240.208 294.281 241.803C294.475 243.397 293.391 244.845 291.86 245.039C291.724 245.056 291.592 245.049 291.461 245.047C291.775 246.179 292.192 247.261 292.7 248.281C292.793 248.185 292.883 248.087 292.991 248.001C294.22 247.037 295.975 247.299 296.909 248.583C297.844 249.867 297.604 251.689 296.375 252.653C296.257 252.745 296.132 252.816 296.007 252.885C296.817 253.699 297.703 254.431 298.652 255.064C298.687 254.921 298.72 254.779 298.776 254.64C299.373 253.164 301.013 252.477 302.437 253.108C303.861 253.737 304.531 255.445 303.933 256.923C303.872 257.073 303.795 257.208 303.715 257.34C304.799 257.623 305.917 257.797 307.061 257.851C307.02 257.704 306.98 257.556 306.961 257.401C306.767 255.807 307.852 254.359 309.384 254.165C310.916 253.973 312.315 255.109 312.509 256.704C312.529 256.867 312.528 257.027 312.523 257.184C313.62 256.857 314.668 256.417 315.653 255.883C315.548 255.777 315.444 255.669 315.353 255.544C314.417 254.26 314.657 252.437 315.888 251.473C317.117 250.509 318.871 250.769 319.805 252.055C319.897 252.18 319.969 252.315 320.037 252.449C320.811 251.605 321.501 250.683 322.099 249.696C321.967 249.66 321.832 249.625 321.701 249.568C320.277 248.937 319.608 247.229 320.205 245.752C320.804 244.275 322.443 243.588 323.865 244.219C323.996 244.277 324.113 244.352 324.229 244.427C324.484 243.312 324.637 242.161 324.676 240.987C324.555 241.02 324.435 241.056 324.307 241.072C322.776 241.265 321.376 240.129 321.181 238.535C320.987 236.94 322.072 235.492 323.604 235.299C323.729 235.283 323.851 235.289 323.972 235.291C323.652 234.172 323.231 233.104 322.72 232.096C322.639 232.177 322.564 232.263 322.472 232.335C321.243 233.299 319.488 233.039 318.553 231.755C317.619 230.471 317.859 228.648 319.087 227.684C319.179 227.612 319.276 227.563 319.372 227.504C318.573 226.717 317.703 226.009 316.775 225.395C316.747 225.496 316.727 225.597 316.687 225.696C316.088 227.173 314.449 227.86 313.025 227.229C311.601 226.599 310.931 224.891 311.528 223.413C311.571 223.312 311.628 223.224 311.677 223.131C310.628 222.863 309.543 222.7 308.436 222.647C308.459 222.743 308.488 222.835 308.501 222.936C308.695 224.529 307.611 225.979 306.08 226.171C304.547 226.364 303.147 225.228 302.953 223.633C302.94 223.527 302.947 223.423 302.945 223.316Z"
    fill="#F14C62"
  />
<path
    d="M299.22 239.328C299.755 234.709 304.015 231.365 308.713 231.873C313.415 232.38 316.801 236.551 316.264 241.168C315.728 245.787 311.469 249.132 306.769 248.624C302.071 248.116 298.684 243.945 299.22 239.328ZM306.433 252.735C313.059 253.527 319.035 248.568 319.756 241.684C320.477 234.799 315.676 228.555 309.051 227.763C302.425 226.971 296.449 231.927 295.727 238.812C295.005 245.696 299.808 251.943 306.433 252.735Z"
    fill="#F14C62"
  />
<path
    d="M359.675 201.628C372.209 200.068 383.628 209.019 385.18 221.62C386.731 234.22 377.827 245.699 365.293 247.259C352.757 248.819 341.34 239.868 339.788 227.268C338.236 214.667 347.139 203.188 359.675 201.628ZM352.264 189.156C349.971 189.827 347.776 190.709 345.707 191.785C345.852 191.94 346.008 192.08 346.137 192.252C348.145 194.925 347.617 198.728 344.959 200.748C342.3 202.765 338.517 202.235 336.509 199.561C336.367 199.373 336.267 199.168 336.151 198.969C334.511 200.687 333.039 202.557 331.757 204.557C331.972 204.623 332.191 204.668 332.403 204.759C335.471 206.064 336.905 209.623 335.605 212.708C334.307 215.792 330.767 217.233 327.697 215.928C327.459 215.827 327.247 215.687 327.027 215.557C326.456 217.859 326.104 220.233 325.991 222.661C326.233 222.599 326.472 222.525 326.727 222.493C330.032 222.081 333.045 224.443 333.455 227.767C333.864 231.091 331.516 234.119 328.208 234.531C327.919 234.567 327.636 234.556 327.352 234.549C328.02 236.911 328.913 239.164 330.004 241.289C330.203 241.087 330.399 240.881 330.633 240.704C333.292 238.685 337.075 239.216 339.083 241.889C341.089 244.563 340.563 248.365 337.903 250.384C337.649 250.576 337.379 250.723 337.108 250.869C338.855 252.561 340.759 254.081 342.801 255.395C342.875 255.099 342.951 254.803 343.073 254.512C344.371 251.428 347.912 249.985 350.979 251.292C354.048 252.597 355.481 256.156 354.184 259.24C354.052 259.552 353.883 259.835 353.708 260.112C356.044 260.695 358.459 261.049 360.925 261.153C360.839 260.849 360.753 260.543 360.713 260.217C360.304 256.893 362.653 253.865 365.96 253.453C369.267 253.043 372.279 255.404 372.689 258.727C372.731 259.067 372.725 259.4 372.711 259.729C375.083 259.04 377.347 258.117 379.477 256.995C379.251 256.775 379.027 256.552 378.829 256.291C376.821 253.619 377.351 249.815 380.009 247.797C382.668 245.779 386.451 246.309 388.459 248.983C388.656 249.245 388.808 249.525 388.957 249.805C390.631 248.041 392.127 246.112 393.421 244.052C393.135 243.977 392.847 243.905 392.565 243.785C389.497 242.48 388.063 238.921 389.361 235.836C390.66 232.752 394.2 231.311 397.269 232.616C397.549 232.735 397.8 232.892 398.052 233.047C398.609 230.723 398.944 228.321 399.036 225.869C398.775 225.939 398.517 226.017 398.241 226.052C394.935 226.463 391.921 224.101 391.513 220.777C391.103 217.453 393.452 214.425 396.759 214.013C397.028 213.98 397.292 213.993 397.556 213.996C396.871 211.664 395.969 209.439 394.871 207.34C394.696 207.509 394.533 207.689 394.336 207.84C391.677 209.859 387.893 209.328 385.885 206.655C383.877 203.981 384.405 200.179 387.065 198.16C387.26 198.012 387.471 197.907 387.679 197.785C385.96 196.147 384.087 194.679 382.088 193.403C382.027 193.612 381.981 193.825 381.895 194.032C380.596 197.116 377.056 198.557 373.987 197.252C370.919 195.947 369.485 192.388 370.784 189.304C370.872 189.092 370.996 188.908 371.105 188.713C368.841 188.161 366.504 187.827 364.117 187.724C364.163 187.924 364.228 188.117 364.253 188.327C364.663 191.651 362.313 194.679 359.008 195.089C355.7 195.501 352.689 193.14 352.28 189.816C352.251 189.593 352.267 189.376 352.264 189.156Z"
    fill="#F14C62"
  />
<path
    d="M343.855 222.337C345.007 211.999 354.311 204.529 364.596 205.688C374.881 206.845 382.309 216.199 381.159 226.537C380.007 236.877 370.701 244.348 360.416 243.189C350.132 242.031 342.701 232.676 343.855 222.337ZM359.396 252.349C374.705 254.073 388.555 242.953 390.269 227.563C391.984 212.173 380.925 198.251 365.617 196.528C350.307 194.804 336.457 205.92 334.743 221.311C333.028 236.7 344.087 250.625 359.396 252.349Z"
    stroke="#202022"
    stroke-width="1.33333"
    stroke-miterlimit="10"
    stroke-linecap="round"
    stroke-linejoin="round"
  />
<path
    d="M233.433 37.128C236.301 33.7907 241.316 33.4213 244.636 36.304C247.956 39.1853 248.323 44.228 245.456 47.5654"
    stroke="#040606"
    stroke-width="1.33333"
    stroke-miterlimit="10"
    stroke-linecap="round"
    stroke-linejoin="round"
  />
<path
    d="M263.539 69.8494C263.539 74.0601 260.144 77.472 255.956 77.472C251.768 77.472 248.372 74.0601 248.372 69.8494C248.372 65.6387 251.768 62.2267 255.956 62.2267C260.144 62.2267 263.539 65.6387 263.539 69.8494Z"
    stroke="#040606"
    stroke-width="1.33333"
    stroke-miterlimit="10"
    stroke-linecap="round"
    stroke-linejoin="round"
  />
<path
    d="M452.087 96.4947C451.925 85.536 461.349 77.0707 471.676 77.5667C475.265 77.7387 478.559 78.9347 481.323 80.8347C485.624 75.8907 492.043 72.8934 499.076 73.2307C508.725 73.6934 518.065 80.2547 518.845 89.2507C528.293 91.9627 535.415 100.768 534.924 111.06C534.623 117.419 531.635 123.009 527.116 126.777C528.257 130.041 528.148 133.877 526.065 137.7C524.949 139.749 523.188 141.409 521.084 142.404C517.236 144.225 513.601 144.135 510.536 142.932L510.292 160.696C510.277 161.763 508.911 162.181 508.307 161.305L499.063 147.892C490.448 151.436 482.719 146.12 482.143 138.253C479.853 139.399 477.26 140.003 474.524 139.872C466.624 139.492 460.399 133.241 459.792 125.517C455.473 128.101 449.839 128.649 444.245 125.833C441.144 124.273 438.708 121.569 437.481 118.309C433.153 106.8 441.549 96.3334 452.087 96.4947Z"
    fill="#9384CA"
  />
<path
    d="M515.719 118.239C520.812 118.483 525.064 121.705 526.887 126.152"
    stroke="#040606"
    stroke-width="1.33333"
    stroke-miterlimit="10"
    stroke-linecap="round"
    stroke-linejoin="round"
  />
<path
    d="M459.912 124.216C460.32 115.6 467.6 108.949 476.172 109.361"
    stroke="#040606"
    stroke-width="1.33333"
    stroke-miterlimit="10"
    stroke-linecap="round"
    stroke-linejoin="round"
  />
<path
    d="M450.761 96.512C454.037 96.2934 457.092 97.0827 459.668 98.5894"
    stroke="#040606"
    stroke-width="1.33333"
    stroke-miterlimit="10"
    stroke-linecap="round"
    stroke-linejoin="round"
  />
<path
    d="M468.408 84.5374C475.292 84.868 480.605 90.7467 480.276 97.6667"
    stroke="#040606"
    stroke-width="1.33333"
    stroke-miterlimit="10"
    stroke-linecap="round"
    stroke-linejoin="round"
  />
<path
    d="M479.336 132.231C473.264 132.809 467.875 128.331 467.299 122.227"
    stroke="#040606"
    stroke-width="1.33333"
    stroke-miterlimit="10"
    stroke-linecap="round"
    stroke-linejoin="round"
  />
<path
    d="M444.576 115.972C442.777 110.759 445.524 105.067 450.709 103.259"
    stroke="#040606"
    stroke-width="1.33333"
    stroke-miterlimit="10"
    stroke-linecap="round"
    stroke-linejoin="round"
  />
<path
    d="M520.481 130.616C519.196 134.6 514.943 136.781 510.98 135.491"
    stroke="#040606"
    stroke-width="1.33333"
    stroke-miterlimit="10"
    stroke-linecap="round"
    stroke-linejoin="round"
  />
<path
    d="M502.337 92.3173C506.916 89.1493 512.679 87.9933 518.557 89.1947"
    stroke="#040606"
    stroke-width="1.33333"
    stroke-miterlimit="10"
    stroke-linecap="round"
    stroke-linejoin="round"
  />
<path
    d="M522.088 98.8173C525.161 101.105 527.179 104.753 527.247 108.895"
    stroke="#040606"
    stroke-width="1.33333"
    stroke-miterlimit="10"
    stroke-linecap="round"
    stroke-linejoin="round"
  />
<path
    d="M488.748 103.609C492.583 102.837 496.804 104.675 498.867 108.016C500.929 111.357 500.695 115.976 498.304 119.088"
    stroke="#040606"
    stroke-width="1.33333"
    stroke-miterlimit="10"
    stroke-linecap="round"
    stroke-linejoin="round"
  />
<path
    d="M487.457 122.588C486.12 123.811 485.437 125.72 485.696 127.517C485.956 129.316 487.148 130.951 488.776 131.741"
    stroke="#040606"
    stroke-width="1.33333"
    stroke-miterlimit="10"
    stroke-linecap="round"
    stroke-linejoin="round"
  />
<path
    d="M389.679 38.24L390.255 94.5147L378.527 94.5774L377.951 38.3027L389.679 38.24Z"
    fill="#5B55AF"
  />
<path
    d="M363.609 47.5427L364.091 94.6547L352.363 94.7187L351.88 47.6054L363.609 47.5427Z"
    fill="#F14C62"
  />
<path
    d="M325.788 54.684L326.199 94.86L337.927 94.796L337.517 54.684H325.788Z"
    fill="#5B55AF"
  />
<path
    d="M313.411 73.3333L313.631 94.9267L301.903 94.9907L301.681 73.3973L313.411 73.3333Z"
    fill="#F14C62"
  />
<path
    d="M400.039 94.5333L296.988 95.1747"
    stroke="#1F2952"
    stroke-width="1.33333"
    stroke-miterlimit="10"
    stroke-linecap="round"
    stroke-linejoin="round"
  />
<path
    d="M354.093 50.9787V63.8"
    stroke="#040606"
    stroke-width="1.33333"
    stroke-miterlimit="10"
    stroke-linecap="round"
    stroke-linejoin="round"
  />
<path
    d="M380.655 70.864V87.0613"
    stroke="#040606"
    stroke-width="1.33333"
    stroke-miterlimit="10"
    stroke-linecap="round"
    stroke-linejoin="round"
  />
<path
    d="M303.403 79.3014V84.66"
    stroke="#040606"
    stroke-width="1.33333"
    stroke-miterlimit="10"
    stroke-linecap="round"
    stroke-linejoin="round"
  />
<path
    d="M328.196 69.1587C328.196 69.924 328.196 70.6894 328.196 71.4547"
    stroke="#040606"
    stroke-width="1.33333"
    stroke-miterlimit="10"
    stroke-linecap="round"
    stroke-linejoin="round"
  />
<path
    d="M160.701 291.972C160.852 289.876 160.704 287.759 160.263 285.705"
    stroke="#171717"
    stroke-width="1.33333"
    stroke-miterlimit="10"
    stroke-linecap="round"
    stroke-linejoin="round"
  />
<path
    d="M448.025 142.809L421.456 169.519H315.913L283.136 203.027"
    stroke="#5B55AF"
    stroke-width="1.33333"
    stroke-miterlimit="10"
    stroke-linecap="round"
    stroke-linejoin="round"
  />
<path
    d="M448.864 154.303L425.193 178.099H331.889L295.757 214.42"
    stroke="#5B55AF"
    stroke-width="1.33333"
    stroke-miterlimit="10"
    stroke-linecap="round"
    stroke-linejoin="round"
  />
<path
    d="M423.548 104.284H261.441"
    stroke="#5B55AF"
    stroke-width="1.33333"
    stroke-miterlimit="10"
    stroke-linecap="round"
    stroke-linejoin="round"
  />
<path
    d="M418.717 129.536H288.664L261.263 157.081"
    stroke="#5B55AF"
    stroke-width="1.33333"
    stroke-miterlimit="10"
    stroke-linecap="round"
    stroke-linejoin="round"
  />
<path
    d="M372.021 145.4L357.528 159.968H291.509L272.991 178.584"
    stroke="#5B55AF"
    stroke-width="1.33333"
    stroke-miterlimit="10"
    stroke-linecap="round"
    stroke-linejoin="round"
  />
<path
    d="M298.593 144.752H352.053"
    stroke="#5B55AF"
    stroke-width="1.33333"
    stroke-miterlimit="10"
    stroke-linecap="round"
    stroke-linejoin="round"
  />
<path
    d="M402.293 116.263H308.9"
    stroke="#5B55AF"
    stroke-width="1.33333"
    stroke-miterlimit="10"
    stroke-linecap="round"
    stroke-linejoin="round"
  />
<path
    d="M383.615 151.227H417.751"
    stroke="#5B55AF"
    stroke-width="1.33333"
    stroke-miterlimit="10"
    stroke-linecap="round"
    stroke-linejoin="round"
  />
<path
    d="M428.057 103.96C428.057 106.464 426.039 108.493 423.548 108.493C421.059 108.493 419.04 106.464 419.04 103.96C419.04 101.457 421.059 99.428 423.548 99.428C426.039 99.428 428.057 101.457 428.057 103.96Z"
    fill="#5B55AF"
  />
<path
    d="M265.951 103.96C265.951 106.464 263.932 108.493 261.441 108.493C258.952 108.493 256.933 106.464 256.933 103.96C256.933 101.457 258.952 99.428 261.441 99.428C263.932 99.428 265.951 101.457 265.951 103.96Z"
    fill="#5B55AF"
  />
<path
    d="M420.972 151.875C420.972 154.377 418.953 156.407 416.464 156.407C413.973 156.407 411.955 154.377 411.955 151.875C411.955 149.372 413.973 147.343 416.464 147.343C418.953 147.343 420.972 149.372 420.972 151.875Z"
    fill="#5B55AF"
  />
<path
    d="M356.563 144.752C356.563 147.255 354.544 149.284 352.053 149.284C349.564 149.284 347.545 147.255 347.545 144.752C347.545 142.249 349.564 140.22 352.053 140.22C354.544 140.22 356.563 142.249 356.563 144.752Z"
    fill="#5B55AF"
  />
<path
    d="M374.597 144.752C374.597 147.255 372.579 149.284 370.088 149.284C367.599 149.284 365.58 147.255 365.58 144.752C365.58 142.249 367.599 140.22 370.088 140.22C372.579 140.22 374.597 142.249 374.597 144.752Z"
    fill="#5B55AF"
  />
<path
    d="M305.679 144.105C305.679 146.608 303.66 148.637 301.171 148.637C298.68 148.637 296.661 146.608 296.661 144.105C296.661 141.601 298.68 139.572 301.171 139.572C303.66 139.572 305.679 141.601 305.679 144.105Z"
    fill="#5B55AF"
  />
<path
    d="M288.932 201.084C288.932 203.587 286.915 205.616 284.423 205.616C281.933 205.616 279.915 203.587 279.915 201.084C279.915 198.581 281.933 196.552 284.423 196.552C286.915 196.552 288.932 198.581 288.932 201.084Z"
    fill="#5B55AF"
  />
<path
    d="M300.54 214.273C300.54 216.777 298.521 218.805 296.031 218.805C293.541 218.805 291.523 216.777 291.523 214.273C291.523 211.771 293.541 209.741 296.031 209.741C298.521 209.741 300.54 211.771 300.54 214.273Z"
    fill="#5B55AF"
  />
<path
    d="M279.271 175.832C279.271 178.335 277.252 180.364 274.763 180.364C272.272 180.364 270.253 178.335 270.253 175.832C270.253 173.329 272.272 171.3 274.763 171.3C277.252 171.3 279.271 173.329 279.271 175.832Z"
    fill="#5B55AF"
  />
<path
    d="M391.988 151.875C391.988 154.377 389.969 156.407 387.479 156.407C384.989 156.407 382.971 154.377 382.971 151.875C382.971 149.372 384.989 147.343 387.479 147.343C389.969 147.343 391.988 149.372 391.988 151.875Z"
    fill="#5B55AF"
  />
<path
    d="M423.227 129.536C423.227 132.04 421.208 134.068 418.717 134.068C416.228 134.068 414.209 132.04 414.209 129.536C414.209 127.033 416.228 125.004 418.717 125.004C421.208 125.004 423.227 127.033 423.227 129.536Z"
    fill="#5B55AF"
  />
<path
    d="M453.373 154.303C453.373 156.805 451.356 158.835 448.864 158.835C446.375 158.835 444.357 156.805 444.357 154.303C444.357 151.8 446.375 149.771 448.864 149.771C451.356 149.771 453.373 151.8 453.373 154.303Z"
    fill="#5B55AF"
  />
<path
    d="M452.211 142.487C452.211 144.989 450.193 147.019 447.701 147.019C445.212 147.019 443.193 144.989 443.193 142.487C443.193 139.983 445.212 137.953 447.701 137.953C450.193 137.953 452.211 139.983 452.211 142.487Z"
    fill="#5B55AF"
  />
<path
    d="M406.803 116.263C406.803 118.767 404.784 120.795 402.293 120.795C399.804 120.795 397.785 118.767 397.785 116.263C397.785 113.76 399.804 111.731 402.293 111.731C404.784 111.731 406.803 113.76 406.803 116.263Z"
    fill="#5B55AF"
  />
<path
    d="M313.408 116.263C313.408 118.767 311.389 120.795 308.9 120.795C306.409 120.795 304.391 118.767 304.391 116.263C304.391 113.76 306.409 111.731 308.9 111.731C311.389 111.731 313.408 113.76 313.408 116.263Z"
    fill="#5B55AF"
  />
<path
    d="M267.677 155.76C267.677 158.263 265.659 160.292 263.168 160.292C260.679 160.292 258.66 158.263 258.66 155.76C258.66 153.256 260.679 151.227 263.168 151.227C265.659 151.227 267.677 153.256 267.677 155.76Z"
    fill="#5B55AF"
  />
<path
    d="M52.4437 105.64C52.4437 107.016 53.5531 108.132 54.9224 108.132H102.616C103.985 108.132 105.095 107.016 105.095 105.64C105.095 104.264 103.985 103.148 102.616 103.148H54.9224C53.5531 103.148 52.4437 104.264 52.4437 105.64Z"
    fill="#AD93D1"
  />
<path
    d="M128.444 103.148H113.203C111.833 103.148 110.724 104.264 110.724 105.64C110.724 107.016 111.833 108.132 113.203 108.132H128.444C129.813 108.132 130.923 107.016 130.923 105.64C130.923 104.264 129.813 103.148 128.444 103.148Z"
    fill="#AD93D1"
  />
<path
    d="M113.213 115.415H69.8235C68.4541 115.415 67.3453 116.529 67.3453 117.905C67.3453 119.281 68.4541 120.397 69.8235 120.397H113.213C114.581 120.397 115.691 119.281 115.691 117.905C115.691 116.529 114.581 115.415 113.213 115.415Z"
    fill="#AD93D1"
  />
<path
    d="M119.889 117.905C119.889 119.281 121 120.397 122.368 120.397H131.607C132.976 120.397 134.085 119.281 134.085 117.905C134.085 116.529 132.976 115.415 131.607 115.415H122.368C121 115.415 119.889 116.529 119.889 117.905Z"
    fill="#AD93D1"
  />
<path
    d="M60.3833 115.415H54.9224C53.5531 115.415 52.4437 116.529 52.4437 117.905C52.4437 119.281 53.5531 120.397 54.9224 120.397H60.3833C61.7527 120.397 62.862 119.281 62.862 117.905C62.862 116.529 61.7527 115.415 60.3833 115.415Z"
    fill="#AD93D1"
  />
<path
    d="M44.136 115.415H22.276C20.9068 115.415 19.7973 116.529 19.7973 117.905C19.7973 119.281 20.9068 120.397 22.276 120.397H44.136C44.9588 120.397 45.626 119.727 45.626 118.899V116.912C45.626 116.084 44.9588 115.415 44.136 115.415Z"
    fill="#AD93D1"
  />
<path
    d="M74.2125 129.348C74.2125 130.723 75.3224 131.839 76.6907 131.839H130.676C132.045 131.839 133.155 130.723 133.155 129.348C133.155 127.972 132.045 126.856 130.676 126.856H76.6907C75.3224 126.856 74.2125 127.972 74.2125 129.348Z"
    fill="#AD93D1"
  />
<path
    d="M35.8011 129.348C35.8011 130.723 36.9099 131.839 38.2787 131.839H63.4557C64.8245 131.839 65.9344 130.723 65.9344 129.348C65.9344 127.972 64.8245 126.856 63.4557 126.856H38.2787C36.9099 126.856 35.8011 127.972 35.8011 129.348Z"
    fill="#AD93D1"
  />
<path
    d="M17.2568 141.613C17.2568 142.989 18.3667 144.105 19.7349 144.105H23.0568C24.4255 144.105 25.5355 142.989 25.5355 141.613C25.5355 140.237 24.4255 139.121 23.0568 139.121H19.7349C18.3667 139.121 17.2568 140.237 17.2568 141.613Z"
    fill="#AD93D1"
  />
<path
    d="M28.8464 141.613C28.8464 142.989 29.9563 144.105 31.3251 144.105H63.7864C65.1557 144.105 66.2651 142.989 66.2651 141.613C66.2651 140.237 65.1557 139.121 63.7864 139.121H31.3251C29.9563 139.121 28.8464 140.237 28.8464 141.613Z"
    fill="#AD93D1"
  />
<path
    d="M71.563 141.613C71.563 142.989 72.6734 144.105 74.0417 144.105H85.972C87.3413 144.105 88.4506 142.989 88.4506 141.613C88.4506 140.237 87.3413 139.121 85.972 139.121H74.0417C72.6734 139.121 71.563 140.237 71.563 141.613Z"
    fill="#AD93D1"
  />
<path
    d="M95.736 141.613C95.736 142.989 96.8453 144.105 98.2147 144.105H110.477C111.845 144.105 112.955 142.989 112.955 141.613C112.955 140.237 111.845 139.121 110.477 139.121H98.2147C96.8453 139.121 95.736 140.237 95.736 141.613Z"
    fill="#AD93D1"
  />
<path
    d="M121.565 141.613C121.565 142.989 122.675 144.105 124.044 144.105H130.676C132.045 144.105 133.155 142.989 133.155 141.613C133.155 140.237 132.045 139.121 130.676 139.121H124.044C122.675 139.121 121.565 140.237 121.565 141.613Z"
    fill="#AD93D1"
  />
<path
    d="M44.7412 153.879C44.7412 155.255 45.8511 156.371 47.2193 156.371H51.8656C53.2344 156.371 54.3443 155.255 54.3443 153.879C54.3443 152.503 53.2344 151.388 51.8656 151.388H47.2193C45.8511 151.388 44.7412 152.503 44.7412 153.879Z"
    fill="#AD93D1"
  />
<path
    d="M64.1593 153.879C64.1593 155.255 65.2688 156.371 66.6375 156.371H89.9627C91.3307 156.371 92.44 155.255 92.44 153.879C92.44 152.503 91.3307 151.388 89.9627 151.388H66.6375C65.2688 151.388 64.1593 152.503 64.1593 153.879Z"
    fill="#AD93D1"
  />
<path
    d="M97.4653 153.879C97.4653 155.255 98.5747 156.371 99.944 156.371H118.167C119.536 156.371 120.645 155.255 120.645 153.879C120.645 152.503 119.536 151.388 118.167 151.388H99.944C98.5747 151.388 97.4653 152.503 97.4653 153.879Z"
    fill="#AD93D1"
  />
<path
    d="M74.8412 70.2493C74.8412 71.6253 75.9511 72.7413 77.3197 72.7413H131.305C132.673 72.7413 133.784 71.6253 133.784 70.2493C133.784 68.8733 132.673 67.7573 131.305 67.7573H77.3197C75.9511 67.7573 74.8412 68.8733 74.8412 70.2493Z"
    fill="#AD93D1"
  />
<path
    d="M94.5693 57.1601H87.9707C86.6013 57.1601 85.492 58.2761 85.492 59.6521C85.492 61.0281 86.6013 62.1427 87.9707 62.1427H94.5693C95.9387 62.1427 97.048 61.0281 97.048 59.6521C97.048 58.2761 95.9387 57.1601 94.5693 57.1601Z"
    fill="#AD93D1"
  />
<path
    d="M77.9453 57.1601H55.5333C54.1645 57.1601 53.0547 58.2761 53.0547 59.6521C53.0547 61.0281 54.1645 62.1427 55.5333 62.1427H77.9453C79.3145 62.1427 80.424 61.0281 80.424 59.6521C80.424 58.2761 79.3145 57.1601 77.9453 57.1601Z"
    fill="#AD93D1"
  />
<path
    d="M100.9 59.6521C100.9 61.0281 102.009 62.1427 103.379 62.1427H131.305C132.673 62.1427 133.784 61.0281 133.784 59.6521C133.784 58.2761 132.673 57.1601 131.305 57.1601H103.379C102.009 57.1601 100.9 58.2761 100.9 59.6521Z"
    fill="#AD93D1"
  />
<path
    d="M72.1921 82.5147C72.1921 83.8907 73.3016 85.0067 74.6703 85.0067H86.6013C87.9707 85.0067 89.08 83.8907 89.08 82.5147C89.08 81.1387 87.9707 80.024 86.6013 80.024H74.6703C73.3016 80.024 72.1921 81.1387 72.1921 82.5147Z"
    fill="#AD93D1"
  />
<path
    d="M96.3653 82.5147C96.3653 83.8907 97.4747 85.0067 98.844 85.0067H111.105C112.475 85.0067 113.584 83.8907 113.584 82.5147C113.584 81.1387 112.475 80.024 111.105 80.024H98.844C97.4747 80.024 96.3653 81.1387 96.3653 82.5147Z"
    fill="#AD93D1"
  />
<path
    d="M120.768 82.5147C120.768 83.8907 121.877 85.0067 123.247 85.0067H132.277C133.647 85.0067 134.756 83.8907 134.756 82.5147C134.756 81.1387 133.647 80.024 132.277 80.024H123.247C121.877 80.024 120.768 81.1387 120.768 82.5147Z"
    fill="#AD93D1"
  />
<path
    d="M83.552 94.7814C83.552 96.1574 84.6613 97.2734 86.0307 97.2734H99.948C101.317 97.2734 102.427 96.1574 102.427 94.7814C102.427 93.4054 101.317 92.2894 99.948 92.2894H86.0307C84.6613 92.2894 83.552 93.4054 83.552 94.7814Z"
    fill="#AD93D1"
  />
<path
    d="M45.3702 94.7814C45.3702 96.1574 46.4797 97.2734 47.8484 97.2734H52.4948C53.8636 97.2734 54.9734 96.1574 54.9734 94.7814C54.9734 93.4054 53.8636 92.2894 52.4948 92.2894H47.8484C46.4797 92.2894 45.3702 93.4054 45.3702 94.7814Z"
    fill="#AD93D1"
  />
<path
    d="M59.6088 94.7814C59.6088 96.1574 60.7188 97.2734 62.0869 97.2734H72.3625C73.7317 97.2734 74.8412 96.1574 74.8412 94.7814C74.8412 93.4054 73.7317 92.2894 72.3625 92.2894H62.0869C60.7188 92.2894 59.6088 93.4054 59.6088 94.7814Z"
    fill="#AD93D1"
  />
<path
    d="M111.597 94.7814C111.597 96.1574 112.707 97.2734 114.076 97.2734H132.299C133.667 97.2734 134.777 96.1574 134.777 94.7814C134.777 93.4054 133.667 92.2894 132.299 92.2894H114.076C112.707 92.2894 111.597 93.4054 111.597 94.7814Z"
    fill="#AD93D1"
  />
<path
    d="M44.3412 65.3507C44.0563 65.3507 43.7708 65.248 43.5448 65.0374L37.6437 59.5547L43.4995 53.4894C43.9511 53.0214 44.6953 53.0107 45.1593 53.4641C45.6251 53.9187 45.6355 54.6667 45.1844 55.1334L41.0047 59.4628L45.1385 63.304C45.6151 63.7467 45.6448 64.4934 45.2041 64.9721C44.9729 65.2241 44.6579 65.3507 44.3412 65.3507Z"
    fill="#AD93D1"
  />
<path
    d="M51.4578 65.3507C51.1734 65.3507 50.8874 65.248 50.6614 65.0374L44.7604 59.5547L50.6156 53.4894C51.0677 53.0214 51.812 53.0107 52.276 53.4641C52.7417 53.9187 52.7526 54.6667 52.3016 55.1334L48.1208 59.4628L52.2552 63.304C52.7317 63.7467 52.7609 64.4934 52.3208 64.9721C52.089 65.2241 51.774 65.3507 51.4578 65.3507Z"
    fill="#AD93D1"
  />
<path
    d="M131.488 160.327C131.172 160.327 130.857 160.199 130.625 159.947C130.185 159.468 130.215 158.723 130.691 158.279L134.825 154.439L130.644 150.109C130.193 149.641 130.204 148.893 130.669 148.44C131.133 147.987 131.879 147.997 132.331 148.465L138.185 154.529L132.284 160.013C132.059 160.223 131.773 160.327 131.488 160.327Z"
    fill="#AD93D1"
  />
<path
    d="M124.372 160.327C124.055 160.327 123.74 160.199 123.508 159.947C123.068 159.468 123.097 158.723 123.575 158.279L127.708 154.439L123.528 150.109C123.077 149.641 123.088 148.893 123.553 148.44C124.017 147.987 124.761 147.997 125.213 148.465L131.069 154.529L125.168 160.013C124.943 160.223 124.656 160.327 124.372 160.327Z"
    fill="#AD93D1"
  />
<path
    d="M224.737 171.421H223.273C219.272 171.421 216.028 168.177 216.028 164.177V111.133C216.028 107.133 219.272 103.889 223.273 103.889H224.737C228.739 103.889 231.981 107.133 231.981 111.133V164.177C231.981 168.177 228.739 171.421 224.737 171.421Z"
    fill="#9384CA"
  />
<path
    d="M250.512 220.244L249.088 221.019C246.001 222.696 242.145 221.543 240.475 218.44L219.995 180.387C218.325 177.283 219.473 173.407 222.56 171.728L223.984 170.953C227.072 169.275 230.928 170.428 232.597 173.532L253.077 211.584C254.748 214.688 253.6 218.564 250.512 220.244Z"
    fill="#9384CA"
  />
<path
    d="M245.899 243.424C241.461 234.623 243.572 224.58 250.612 220.992C257.653 217.405 266.959 221.633 271.396 230.435"
    stroke="#9384CA"
    stroke-width="6.66667"
    stroke-miterlimit="10"
    stroke-linecap="round"
    stroke-linejoin="round"
  />
<path
    d="M227.115 164.676C227.115 166.1 225.967 167.255 224.549 167.255C223.133 167.255 221.984 166.1 221.984 164.676C221.984 163.251 223.133 162.097 224.549 162.097C225.967 162.097 227.115 163.251 227.115 164.676Z"
    fill="#171717"
  />
<path
    d="M229.313 176.833C229.313 178.257 228.165 179.412 226.748 179.412C225.332 179.412 224.183 178.257 224.183 176.833C224.183 175.409 225.332 174.253 226.748 174.253C228.165 174.253 229.313 175.409 229.313 176.833Z"
    fill="#171717"
  />
<path
    d="M240.857 107.021C240.857 115.872 233.72 123.047 224.916 123.047C216.111 123.047 208.975 115.872 208.975 107.021C208.975 98.1707 216.111 90.996 224.916 90.996C233.72 90.996 240.857 98.1707 240.857 107.021Z"
    stroke="#040606"
    stroke-width="1.33333"
    stroke-miterlimit="10"
    stroke-linecap="round"
    stroke-linejoin="round"
  />
<path
    d="M235.763 107.021C235.763 113.043 230.907 117.925 224.916 117.925C218.925 117.925 214.069 113.043 214.069 107.021C214.069 100.999 218.925 96.1173 224.916 96.1173C230.907 96.1173 235.763 100.999 235.763 107.021Z"
    fill="#040606"
  />
<path
    d="M245.899 243.424C241.461 234.623 243.572 224.58 250.612 220.992C257.653 217.405 266.959 221.633 271.396 230.435"
    stroke="#040606"
    stroke-width="1.33333"
    stroke-miterlimit="10"
    stroke-linecap="round"
    stroke-linejoin="round"
  />
<path
    d="M225.225 103.889V83.232C225.225 75.012 218.597 68.348 210.42 68.348H138.117"
    stroke="#5B55AF"
    stroke-width="1.33333"
    stroke-miterlimit="10"
    stroke-linecap="round"
    stroke-linejoin="round"
  />
<path
    d="M138.117 100.399H170.517C177.259 100.399 183.724 103.091 188.491 107.883L219.208 138.763"
    stroke="#5B55AF"
    stroke-width="1.33333"
    stroke-miterlimit="10"
    stroke-linecap="round"
    stroke-linejoin="round"
  />
<path
    d="M138.117 111.083H163.755C170.496 111.083 176.961 113.775 181.727 118.567L218.725 155.76"
    stroke="#5B55AF"
    stroke-width="1.33333"
    stroke-miterlimit="10"
    stroke-linecap="round"
    stroke-linejoin="round"
  />
<path
    d="M218.633 371.605L228.065 314.615C228.34 312.952 227.064 311.437 225.388 311.437H183.732"
    stroke="#F14C62"
    stroke-width="1.33333"
    stroke-miterlimit="10"
    stroke-linecap="round"
    stroke-linejoin="round"
  />
<path d="M504.363 562.573H342.104V412.796H504.363V562.573Z" fill="#9384CA" />
<path
    d="M504.363 442.331H342.104"
    stroke="#171717"
    stroke-width="1.33333"
    stroke-miterlimit="10"
    stroke-linecap="round"
    stroke-linejoin="round"
  />
<path
    d="M504.363 471.865H342.104"
    stroke="#171717"
    stroke-width="1.33333"
    stroke-miterlimit="10"
    stroke-linecap="round"
    stroke-linejoin="round"
  />
<path
    d="M504.363 501.401H342.104"
    stroke="#171717"
    stroke-width="1.33333"
    stroke-miterlimit="10"
    stroke-linecap="round"
    stroke-linejoin="round"
  />
<path
    d="M504.363 530.934H342.104"
    stroke="#171717"
    stroke-width="1.33333"
    stroke-miterlimit="10"
    stroke-linecap="round"
    stroke-linejoin="round"
  />
<path d="M384.172 541.676H353.456V550.401H384.172V541.676Z" fill="#5B55AF" />
<path d="M399.529 541.676V550.401H490.341V541.676H399.529Z" fill="#5B55AF" />
<path d="M384.172 512.81H353.456V521.537H384.172V512.81Z" fill="#5B55AF" />
<path d="M399.529 512.81V521.537H490.341V512.81H399.529Z" fill="#5B55AF" />
<path d="M384.172 483.948H353.456V492.675H384.172V483.948Z" fill="#5B55AF" />
<path d="M399.529 483.948V492.675H490.341V483.948H399.529Z" fill="#5B55AF" />
<path d="M384.172 455.084H353.456V463.811H384.172V455.084Z" fill="#5B55AF" />
<path d="M399.529 455.084V463.811H490.341V455.084H399.529Z" fill="#5B55AF" />
<path d="M384.172 426.221H353.456V434.947H384.172V426.221Z" fill="#5B55AF" />
<path d="M399.529 426.221V434.947H490.341V426.221H399.529Z" fill="#5B55AF" />
<path
    d="M461.797 171.147C461.797 173.651 459.779 175.68 457.288 175.68C454.799 175.68 452.78 173.651 452.78 171.147C452.78 168.644 454.799 166.615 457.288 166.615C459.779 166.615 461.797 168.644 461.797 171.147Z"
    fill="#5B55AF"
  />
<path
    d="M495.295 163.316C495.295 165.819 493.276 167.848 490.787 167.848C488.296 167.848 486.277 165.819 486.277 163.316C486.277 160.812 488.296 158.784 490.787 158.784C493.276 158.784 495.295 160.812 495.295 163.316Z"
    fill="#5B55AF"
  />
<path
    d="M484.945 157.275C484.945 159.777 482.925 161.807 480.436 161.807C477.947 161.807 475.927 159.777 475.927 157.275C475.927 154.772 477.947 152.743 480.436 152.743C482.925 152.743 484.945 154.772 484.945 157.275Z"
    fill="#5B55AF"
  />
<path
    d="M475.632 147.591C475.632 150.093 473.613 152.123 471.123 152.123C468.633 152.123 466.615 150.093 466.615 147.591C466.615 145.087 468.633 143.057 471.123 143.057C473.613 143.057 475.632 145.087 475.632 147.591Z"
    fill="#5B55AF"
  />
<path
    d="M490.915 161.079L491.917 381.584L535.487 425.381V492.339L509.195 518.769"
    stroke="#5B55AF"
    stroke-width="1.33333"
    stroke-miterlimit="10"
    stroke-linecap="round"
    stroke-linejoin="round"
  />
<path
    d="M471.309 145.975V367.487L432.748 406.251"
    stroke="#5B55AF"
    stroke-width="1.33333"
    stroke-miterlimit="10"
    stroke-linecap="round"
    stroke-linejoin="round"
  />
<path
    d="M480.684 156.911V400.713"
    stroke="#5B55AF"
    stroke-width="1.33333"
    stroke-miterlimit="10"
    stroke-linecap="round"
    stroke-linejoin="round"
  />
<path
    d="M457.288 171.147V361.445L413.719 405.245"
    stroke="#5B55AF"
    stroke-width="1.33333"
    stroke-miterlimit="10"
    stroke-linecap="round"
    stroke-linejoin="round"
  />
<path
    d="M418.172 405.189C418.172 407.692 416.153 409.721 413.663 409.721C411.173 409.721 409.155 407.692 409.155 405.189C409.155 402.685 411.173 400.656 413.663 400.656C416.153 400.656 418.172 402.685 418.172 405.189Z"
    fill="#5B55AF"
  />
<path
    d="M485.724 404.517C485.724 407.021 483.705 409.049 481.215 409.049C478.725 409.049 476.707 407.021 476.707 404.517C476.707 402.015 478.725 399.984 481.215 399.984C483.705 399.984 485.724 402.015 485.724 404.517Z"
    fill="#5B55AF"
  />
<path
    d="M512.877 519.972C512.877 522.475 510.86 524.504 508.369 524.504C505.88 524.504 503.86 522.475 503.86 519.972C503.86 517.469 505.88 515.439 508.369 515.439C510.86 515.439 512.877 517.469 512.877 519.972Z"
    fill="#5B55AF"
  />
<path
    d="M437.257 405.189C437.257 407.692 435.24 409.721 432.748 409.721C430.259 409.721 428.241 407.692 428.241 405.189C428.241 402.685 430.259 400.656 432.748 400.656C435.24 400.656 437.257 402.685 437.257 405.189Z"
    fill="#5B55AF"
  />
</svg>
