<svg
  width="103"
  height="97"
  viewBox="0 0 103 97"
  fill="none"
  xmlns="http://www.w3.org/2000/svg"
>
<path
    d="M2.42507 61.3587C3.912 73.3027 17.4896 82.9134 33.0317 86.6414C39.5088 88.1947 46.3312 88.7387 52.7683 87.9827C55.3432 87.6774 58.0375 87.1467 60.7584 86.4027C76.7521 82.0627 93.86 70.3827 93.9 54.2573C93.9533 34.932 69.3193 22.3227 52.7683 20.5187C40.5047 19.1907 26.1432 23.08 25.5068 27.752C25.2412 29.7293 27.5104 31.3613 26.6745 33.1533C25.5193 35.636 20.2907 34.4013 16.3349 35.424C7.774 37.6533 1.19067 51.5627 2.42507 61.3587Z"
    fill="#00A1D3"
  />
<path
    d="M22.5369 91.4774L13.9751 88.8467C15.5271 82.3747 17.0932 77.0027 18.3339 73.0307C23.7281 55.7667 27.0541 51.9387 30.6328 51.0414C31.3432 50.8627 31.9473 50.8293 32.3307 50.8267C32.3079 57.4453 32.286 64.0653 32.2631 70.6853C29.0208 77.616 25.7792 84.5467 22.5369 91.4774Z"
    fill="#FEFDFF"
  />
<path
    d="M22.9047 76.6987C22.8776 76.6987 22.8506 76.692 22.8246 76.6773C22.7443 76.6333 22.7146 76.532 22.7588 76.4507L29.087 64.9814C29.1328 64.9014 29.2312 64.8707 29.314 64.916C29.3938 64.96 29.4235 65.0613 29.3792 65.1427L23.0511 76.612C23.0203 76.6667 22.9636 76.6987 22.9047 76.6987Z"
    fill="#A7CAEA"
  />
<path
    d="M24.8161 56.248C27.5765 65.4854 29.7136 72.44 30.5902 75.1213C31.0678 76.5947 31.4921 77.7494 31.5855 78.0147C32.1427 79.5414 32.7266 81.0147 33.3246 82.408C33.2178 83.8147 33.1251 85.2347 33.0317 86.6414C39.5088 88.1947 46.3312 88.7387 52.7683 87.9827C55.3432 87.6774 58.0375 87.1467 60.7584 86.4027L60.6385 83.416C61.064 82.6067 61.488 81.784 61.8995 80.9213C61.8995 80.9213 62.3511 79.9667 62.7891 78.9707C63.5188 77.3254 66.2136 68.14 69.2 55.372C67.3547 53.6067 64.2495 51.072 59.8156 49.16C58.7011 48.6827 53.8031 46.652 47.764 46.572C35.5672 46.4134 26.8599 54.3094 24.8161 56.248Z"
    fill="#FEFDFF"
  />
<path
    d="M82.0651 86.0333L89.4427 80.9533C86.0187 75.2453 82.9131 70.592 80.5364 67.176C70.2079 52.328 65.8855 49.6747 62.2027 49.8933C61.4713 49.9373 60.8849 50.0853 60.5183 50.1987C62.5271 56.5053 64.5364 62.8133 66.5459 69.12C71.7188 74.7573 76.8917 80.396 82.0651 86.0333Z"
    fill="#FEFDFF"
  />
<path
    d="M52.7297 42.8V50.7907C52.7297 53.9013 50.6193 56.436 48.0303 56.436H45.4084C42.8183 56.436 40.7084 53.9013 40.7084 50.7907V42.8C40.7084 39.728 42.8183 37.1547 45.4084 37.1547H48.0303C49.7885 37.1547 51.3547 38.3453 52.1224 40.112C52.5057 40.9187 52.7297 41.84 52.7297 42.8Z"
    fill="#242E60"
  />
<path
    d="M52.7297 42.8V48.2933C52.3776 48.1787 52.026 47.9867 51.6745 47.7947C47.8697 45.6427 45.664 42.3013 44.7041 40.5733C46.0473 40.4187 47.3901 40.2654 48.7328 40.112H52.1224C52.5058 40.9187 52.7297 41.84 52.7297 42.8Z"
    fill="#210B04"
  />
<path
    d="M61.1172 28.1013C61.1172 29.3693 61.0021 30.5973 60.7713 31.788C59.4656 38.3947 54.8177 43.2733 49.2869 43.2733C43.8328 43.2733 39.3 38.6254 37.8792 32.2494C37.5714 30.9427 37.4183 29.56 37.4183 28.1013C37.4183 19.728 42.7188 12.9667 49.2869 12.9667C49.6713 12.9667 50.0552 13.0054 50.4011 13.044C50.4782 13.044 50.5547 13.0827 50.5932 13.0827C54.3953 13.5814 57.6599 16.424 59.5036 20.4573C60.5412 22.6853 61.1172 25.2973 61.1172 28.1013Z"
    fill="#FEFDFF"
  />
<path
    d="M59.774 23.8853C59.774 30.1307 53.9292 35.1933 46.7188 35.1933C39.5084 35.1933 33.664 30.1307 33.664 23.8853C33.664 17.6387 39.5084 12.576 46.7188 12.576C53.9292 12.576 59.774 17.6387 59.774 23.8853Z"
    fill="#FEFDFF"
  />
<path
    d="M61.1172 28.1014C61.1172 29.3694 61.0021 30.5973 60.7713 31.788C59.6579 31.404 58.3901 31.0587 57.0459 30.828C56.5849 30.7133 56.0855 30.6747 55.586 30.5973C50.0172 29.9827 45.638 31.404 43.564 32.2107L38.6855 26.9867C39.9145 25.604 43.7177 21.572 50.1703 20.2267C53.5891 19.4973 56.6229 19.7654 59.1197 20.3427C59.2735 20.3814 59.3885 20.4187 59.5036 20.4573C60.5412 22.6853 61.1172 25.2974 61.1172 28.1014Z"
    fill="#210B04"
  />
<path
    d="M39.8989 30.5147C40.6385 32.864 39.8755 35.1974 38.1937 35.7267C36.5131 36.2574 34.5511 34.7814 33.8115 32.4307C33.0713 30.0814 33.8349 27.748 35.5161 27.2187C37.1973 26.6893 39.1593 28.1654 39.8989 30.5147Z"
    fill="#242E60"
  />
<path
    d="M77.7823 81.4774C77.7823 85.0187 80.6541 87.8907 84.1969 87.8907C87.7387 87.8907 90.6107 85.0187 90.6107 81.4774C90.6107 77.9347 87.7387 75.0627 84.1969 75.0627C80.6541 75.0627 77.7823 77.9347 77.7823 81.4774Z"
    fill="#242E60"
  />
<path
    d="M11.2937 89.7507C11.2937 93.2933 14.1645 96.164 17.7073 96.164C21.2495 96.164 24.1208 93.2933 24.1208 89.7507C24.1208 86.208 21.2495 83.336 17.7073 83.336C14.1645 83.336 11.2937 86.208 11.2937 89.7507Z"
    fill="#242E60"
  />
<path
    d="M75.8303 44.9373C78.0855 44.8747 80.3407 44.812 82.5959 44.7494C83.6937 49.5547 84.8253 53.4253 85.6667 56.1067C88.8133 66.1173 91.3947 70.528 90.56 76.856C90.2267 79.3947 89.4573 81.3653 88.8667 82.624C88.732 82.8733 87.368 85.2987 84.432 85.6973C84.4027 85.7 84.3733 85.704 84.3427 85.708C81.7177 86.024 79.2979 84.1507 78.7625 81.5613C78.2229 78.9507 77.9615 76.8093 77.8197 75.336C76.8131 64.848 79.2036 59.6187 77.226 50.052C76.7536 47.7693 76.1849 45.9747 75.8303 44.9373Z"
    fill="#FEFDFF"
  />
<path
    d="M83.6817 45.3973C84.2063 44.6013 84.8947 43.3613 85.3253 41.7267C85.592 40.7147 86.052 38.9694 85.6 36.8494C84.9107 33.6227 82.5807 31.744 81.7088 31.0413C80.5781 30.1293 79.4912 29.5947 78.75 29.288C78.6323 24.8787 78.8079 21.6373 79.014 19.3773C79.1224 18.1933 79.3792 15.7507 78.4213 15.3147C78.0375 15.14 77.5943 15.3493 77.4349 15.424C75.2401 16.4587 74.6703 26.44 74.5312 29.452C73.4849 30.4733 72.4391 31.4947 71.3927 32.516C71.2693 33.54 71.1473 34.5653 71.024 35.5893C71.2177 36.536 71.4792 37.5453 71.8307 38.5987C72.9927 42.0747 74.7167 44.7533 76.2297 46.6587C78.7136 46.2373 81.1979 45.8173 83.6817 45.3973Z"
    fill="#210B04"
  />
<path
    d="M82.6803 38.844C83.1584 39.0307 84.114 38.432 86.224 35.2213C86.7013 34.504 87.2333 33.6413 87.8307 32.632C87.9893 31.636 87.472 30.6947 86.6493 30.3893C85.8787 30.084 85.1627 30.456 84.9373 30.588C84.9107 30.6013 84.884 30.628 84.8707 30.628C84.432 31.052 83.5964 31.9427 82.986 33.2427C82.826 33.548 82.6937 33.88 82.5869 34.2253C82.3751 34.796 82.2421 35.4453 82.1896 36.136C82.1495 36.72 82.0172 38.592 82.6803 38.844Z"
    fill="#FEFDFF"
  />
<path
    d="M79.9864 36.4814C80.3844 36.6401 81.1145 36.2427 82.5869 34.2254C82.7735 33.972 82.9729 33.6814 83.1713 33.3627C83.6896 32.6187 84.2735 31.7027 84.9374 30.588C85.0027 30.4827 85.0694 30.3627 85.136 30.2574C85.2814 29.2614 84.764 28.3321 83.9542 28.0134C83.3574 27.7747 82.7735 27.96 82.4552 28.12C82.2959 28.1854 82.2027 28.252 82.1755 28.2654C81.6984 28.7307 80.7427 29.752 80.1058 31.2387C79.947 31.6107 79.814 32.008 79.7208 32.4334C79.6011 32.8587 79.5214 33.3094 79.4948 33.7734C79.4422 34.344 79.3094 36.2294 79.9864 36.4814Z"
    fill="#FEFDFF"
  />
<path
    d="M77.2787 34.4774C77.6636 34.6227 78.3536 34.2654 79.7079 32.4467C79.9328 32.1414 80.1719 31.8227 80.4109 31.4507C80.9948 30.6147 81.6584 29.5667 82.4417 28.252C82.4417 28.1987 82.4552 28.16 82.4552 28.12C82.5344 27.1774 82.0303 26.3147 81.2604 26.0094C80.3844 25.664 79.5615 26.1947 79.4817 26.248C78.9912 26.74 77.9954 27.8014 77.3454 29.3667C77.0662 30.0707 76.8536 30.8667 76.7869 31.7574C76.7473 32.34 76.6146 34.212 77.2787 34.4774Z"
    fill="#FEFDFF"
  />
<path
    d="M69.5 35.6133C69.7656 36.3307 70.3099 36.9147 70.9604 37.3253C72.2079 38.148 73.8536 38.3346 74.464 37.7506C75.1412 37.1 74.6099 35.44 74.0797 34.5387C73.8265 34.1 73.4688 33.6627 73.0573 33.2907C72.1547 32.468 71.0396 31.964 70.2432 32.3747C69.3276 32.8653 69.0885 34.472 69.5 35.6133Z"
    fill="#FEFDFF"
  />
<path
    d="M79.0464 19.0333C78.7708 19.0907 78.4448 19.1307 78.0787 19.124C77.0385 19.108 76.2375 18.7253 75.7964 18.464C75.7088 18.5507 75.474 18.808 75.4391 19.2C75.4245 19.3587 75.4469 19.4947 75.4729 19.592C75.6593 19.7613 75.9541 19.996 76.3599 20.1907C77.2063 20.596 78.6407 20.8733 79.0776 20.2373C79.1396 20.1467 79.3453 19.7987 79.0464 19.0333Z"
    fill="#242E60"
  />
<path
    d="M78.7307 24.6454C78.4437 24.74 78.0954 24.82 77.6954 24.8414C76.3588 24.9147 75.3454 24.2867 74.9298 23.992C74.8364 24.16 74.6765 24.5107 74.7167 24.956C74.7297 25.1053 74.7636 25.2334 74.8011 25.34C75.0031 25.5974 75.3391 25.9453 75.8443 26.1933C77.1869 26.8493 78.5542 26.22 78.7672 26.1173C78.7891 25.9853 78.8068 25.84 78.8151 25.684C78.8364 25.28 78.7917 24.9267 78.7307 24.6454Z"
    fill="#242E60"
  />
<path
    d="M70.9604 37.3253C72.2079 38.148 73.8536 38.3346 74.464 37.7506C75.1412 37.1 74.6099 35.44 74.0797 34.5387C73.8265 34.1 73.4688 33.6627 73.0573 33.2907C72.6588 33.596 72.1151 34.1267 71.6771 34.924C71.1459 35.8653 71 36.7547 70.9604 37.3253Z"
    fill="#242E60"
  />
<path
    d="M77.2787 34.4773C77.6636 34.6227 78.3536 34.2653 79.7079 32.4467C79.6011 32.8587 79.5214 33.3093 79.4948 33.7733C79.4422 34.344 79.3094 36.2294 79.9864 36.4814C80.3844 36.64 81.1145 36.2427 82.5869 34.2253C82.3751 34.796 82.2422 35.4453 82.1896 36.136C82.1495 36.72 82.0172 38.592 82.6803 38.844C83.1584 39.0307 84.114 38.432 86.224 35.2213C85.9587 35.0347 85.4947 34.836 84.6053 34.3173C84.4053 34.1987 83.9683 33.9067 83.1713 33.3627C83.1188 33.3227 83.0522 33.2827 82.986 33.2427C82.7864 33.1093 82.5746 32.964 82.349 32.8053C81.5918 32.2867 80.9552 31.8493 80.4109 31.4507C80.3047 31.3853 80.1984 31.3053 80.1058 31.2387C78.6194 30.164 77.8626 29.58 77.3454 29.3667C77.0662 30.0707 76.8536 30.8667 76.7869 31.7573C76.7473 32.34 76.6146 34.212 77.2787 34.4773Z"
    fill="#242E60"
  />
<path
    d="M82.5869 34.392C82.55 34.392 82.5136 34.38 82.4823 34.3547C82.4109 34.2973 82.3995 34.1933 82.4579 34.12L82.7973 33.6987C82.8557 33.6267 82.9593 33.616 83.0317 33.6733C83.1036 33.7307 83.1145 33.836 83.0568 33.908L82.7167 34.3307C82.6844 34.3707 82.636 34.392 82.5869 34.392Z"
    fill="#210B04"
  />
<path
    d="M83.2688 33.388C83.2364 33.388 83.2031 33.3787 83.1745 33.3587C83.0989 33.3067 83.0797 33.2027 83.1312 33.1267L84.7627 30.7494C84.816 30.6747 84.92 30.656 84.9947 30.7067C85.0693 30.7587 85.0893 30.8627 85.0373 30.9387L83.4063 33.316C83.374 33.3627 83.3213 33.388 83.2688 33.388Z"
    fill="#210B04"
  />
<path
    d="M79.7208 32.6C79.5921 32.5747 79.5369 32.484 79.5584 32.3947L79.6136 32.1667C79.6349 32.0787 79.7297 32.0267 79.8145 32.044C79.9036 32.0654 79.9588 32.156 79.9375 32.2454L79.8828 32.472C79.8645 32.5494 79.7964 32.6 79.7208 32.6Z"
    fill="#210B04"
  />
<path
    d="M79.9864 31.7427C79.8391 31.696 79.7973 31.5987 79.8312 31.5133L80.0803 30.8907C80.1145 30.8053 80.2136 30.7653 80.2969 30.7973C80.3823 30.832 80.424 30.9293 80.3901 31.0147L80.1412 31.6373C80.1151 31.7027 80.0527 31.7427 79.9864 31.7427Z"
    fill="#210B04"
  />
<path
    d="M80.638 30.3667C80.5973 30.3667 80.5573 30.352 80.5255 30.3227C80.4579 30.26 80.4531 30.156 80.5151 30.0867L82.1807 28.2667C82.2448 28.1973 82.3495 28.1933 82.4167 28.256C82.4844 28.3187 82.4891 28.424 82.4271 28.492L80.7609 30.312C80.7281 30.348 80.6828 30.3667 80.638 30.3667Z"
    fill="#210B04"
  />
<path
    d="M83.6355 46.38C83.8917 48.2067 84.1484 50.0333 84.404 51.86C82.1735 52.2133 79.9421 52.5667 77.7115 52.9187C77.2568 51.0053 76.8021 49.0907 76.3473 47.1747C75.762 46.4654 75.7188 46.1227 75.8203 45.9427C76.0177 45.5934 76.7661 45.8414 78.4615 45.64C78.9297 45.5854 78.7912 45.576 79.6484 45.4494C81.5005 45.1747 81.6177 45.2974 82.2973 45.104C83.6323 44.7267 84.1683 43.976 84.3987 44.1613C84.5507 44.284 84.5133 44.7654 83.6355 46.38Z"
    fill="#242E60"
  />
<path
    d="M72.8527 54.792C72.7584 56.392 71.2917 57.0427 69.9303 58.4814C65.5131 63.1507 67.3973 70.6347 66.2412 70.756C65.5912 70.824 64.9235 68.472 63.3912 63.2667C60.486 53.3947 59.5751 50.5987 60.9807 49.3853C61.6797 48.7813 62.6719 48.8147 64.5599 48.8747C65.6703 48.9094 67.6516 48.9974 69.6016 50.2627C70.0651 50.5627 72.9901 52.46 72.8527 54.792Z"
    fill="#242E60"
  />
<path
    d="M78.2875 79.1454C78.2074 79.1454 78.136 79.0867 78.123 79.0053C77.8156 77.052 77.6006 75.0653 77.4823 73.1C77.299 70.0213 77.3484 66.8973 77.6303 63.8173C77.6386 63.7267 77.7162 63.6467 77.8115 63.6667C77.9031 63.6747 77.9708 63.756 77.9626 63.848C77.6823 66.912 77.6328 70.0174 77.8156 73.08C77.9323 75.036 78.1464 77.0107 78.4527 78.952C78.4667 79.044 78.4041 79.1294 78.314 79.1427C78.3047 79.144 78.2964 79.1454 78.2875 79.1454Z"
    fill="#A7CAEA"
  />
<path
    d="M77.2271 72.0547C77.1855 72.0547 77.1448 72.04 77.112 72.008L67.6323 62.9667C67.5656 62.904 67.5631 62.7987 67.6271 62.732C67.6918 62.6667 67.7959 62.664 67.8626 62.7267L77.3421 71.768C77.4088 71.8307 77.4115 71.936 77.3473 72.0027C77.3151 72.0373 77.2714 72.0547 77.2271 72.0547Z"
    fill="#A7CAEA"
  />
<path
    d="M21.9448 58.912C22.5151 60.4093 24.1093 60.5893 25.8407 61.5533C31.4552 64.6813 31.9057 72.3853 33.0448 72.1533C33.6849 72.024 33.6156 69.58 33.514 64.1547C33.3213 53.8653 33.3511 50.924 31.6459 50.1907C30.7973 49.824 29.8604 50.152 28.0781 50.776C27.0292 51.144 25.1661 51.8227 23.686 53.6147C23.3339 54.0413 21.114 56.728 21.9448 58.912Z"
    fill="#242E60"
  />
<path
    d="M84.0849 85.2973C83.9573 85.272 83.9011 85.1813 83.9224 85.092C84.876 81.0253 85.2613 76.9667 85.0693 73.028C84.9027 69.596 84.36 67.1333 83.5396 63.4053C82.9751 60.84 82.2724 57.648 81.4921 53.1773C81.086 50.848 80.7167 48.5107 80.3959 46.2307C80.3828 46.14 80.4459 46.0547 80.5369 46.0427C80.6255 46.0227 80.7125 46.092 80.7251 46.184C81.0469 48.4613 81.4145 50.7947 81.8203 53.12C82.5995 57.584 83.3016 60.772 83.8651 63.3333C84.6893 67.0773 85.2347 69.552 85.4027 73.0133C85.596 76.9813 85.2067 81.0707 84.2469 85.168C84.2292 85.2453 84.1599 85.2973 84.0849 85.2973Z"
    fill="#A7CAEA"
  />
<path
    d="M15.4349 54.252C13.2473 54.8053 11.0604 55.3574 8.87294 55.9094C9.11974 60.832 9.08174 64.864 8.99841 67.672C8.68801 78.1614 7.40054 83.1067 9.92134 88.972C10.9317 91.324 12.2063 93.012 13.1167 94.064C13.3145 94.268 15.286 96.2307 18.2188 95.8173C18.2484 95.812 18.2781 95.808 18.3079 95.804C20.9203 95.3947 22.7412 92.936 22.5531 90.2974C22.3645 87.6387 22.0355 85.5067 21.7708 84.0494C19.8932 73.6827 16.1735 69.3 15.4797 59.5547C15.3151 57.2294 15.3751 55.348 15.4349 54.252Z"
    fill="#FEFDFF"
  />
<path
    d="M18.4005 95.344C18.3417 95.344 18.2855 95.312 18.2547 95.2573C16.2183 91.576 14.7339 87.7454 13.8421 83.872C13.0651 80.4947 12.9172 77.9667 12.6948 74.1374C12.5421 71.5187 12.3527 68.2613 11.8907 63.7533C11.6505 61.4107 11.3719 59.064 11.062 56.7814C11.0495 56.6907 11.114 56.6067 11.2052 56.5933C11.2959 56.5867 11.3803 56.6454 11.3927 56.7374C11.7027 59.024 11.9817 61.3733 12.2229 63.72C12.6849 68.2347 12.8751 71.4973 13.0271 74.1173C13.2495 77.9293 13.3959 80.448 14.1667 83.7973C15.0516 87.64 16.5255 91.4427 18.5464 95.096C18.5907 95.1773 18.562 95.2787 18.4812 95.3227C18.4557 95.3373 18.4276 95.344 18.4005 95.344Z"
    fill="#A7CAEA"
  />
<path
    d="M15.2588 56.8533C17.3912 55.5107 18.485 54.0547 19.086 52.9947C19.886 51.5853 19.626 51.212 21.0662 47.512C22.2246 44.5374 22.7959 43.7427 23.0136 43.4507C24.0839 42.0187 25.4735 41.5694 25.3303 40.7427C25.2464 40.2614 24.7088 39.8827 24.2292 39.8053C23.3798 39.6667 22.6251 40.4533 21.9058 41.252C20.9079 42.36 19.5902 43.916 18.1126 45.956C17.8328 45.2453 17.5531 44.5333 17.2735 43.824C17.6156 40.5907 17.9016 38.02 18.1688 35.892C18.3751 34.2467 18.2412 32.5667 18.4984 30.928C18.5312 30.72 18.6396 30.0653 18.4484 29.2707C18.3203 28.7373 17.9927 27.8654 17.7094 27.8147C17.1724 27.7187 15.9683 30.4347 13.1787 41.352C11.9146 35.972 10.9896 31.9974 10.6938 30.0827C10.6303 29.6694 10.4266 28.2493 9.35162 27.172C9.05629 26.876 8.61042 26.4293 8.31042 26.4947C7.64016 26.6427 7.31402 29.44 8.47869 39.9987C7.95789 38.3267 6.40789 33.388 5.42402 30.86C5.24176 30.3933 4.86362 29.4534 4.41669 29.4734C4.05109 29.4894 3.80416 30.1427 3.71149 30.388C2.95056 32.4027 4.48803 39.1347 5.08802 41.624C5.16936 40.5613 5.37083 36.7133 3.40936 34.956C3.19016 34.7587 2.82763 34.4427 2.53696 34.5494C2.11043 34.708 2.06509 35.6973 2.36936 39.66C2.54176 41.912 2.62083 42.4333 2.73803 44.1613C2.93496 47.0493 2.79269 46.748 2.94016 47.952C3.16616 49.8027 3.45736 51.9907 4.88643 54.0787C5.62509 55.156 6.44176 55.8787 7.00162 56.312C9.75362 56.492 12.5068 56.6733 15.2588 56.8533Z"
    fill="#210B04"
  />
<path
    d="M21.3588 41.5907C21.4557 41.8947 21.8864 43.1373 22.9454 43.46C23.0579 43.4947 23.1844 43.52 23.3245 43.5307C23.5828 43.38 23.8745 43.1573 23.864 42.9013C23.8547 42.6667 23.5984 42.5747 23.2093 42.2547C22.412 41.596 22.3391 41.0347 21.9636 41.0494C21.8281 41.0547 21.6136 41.136 21.3588 41.5907Z"
    fill="#242E60"
  />
<path
    d="M14.8828 34.052C15.1713 34.424 16.3896 35.9253 17.7609 35.8546C17.9068 35.8466 18.0625 35.8213 18.226 35.768C18.424 35.4333 18.6177 34.984 18.4541 34.636C18.3047 34.3173 17.964 34.316 17.3407 34.0626C16.0604 33.5453 15.6453 32.8053 15.2349 33.0093C15.088 33.0813 14.8964 33.2986 14.8828 34.052Z"
    fill="#242E60"
  />
<path
    d="M13.3099 39.3973C13.6713 39.828 15.2027 41.5693 17.0443 41.3893C17.2401 41.3693 17.4511 41.328 17.6724 41.252C17.9609 40.8333 18.25 40.2747 18.0547 39.864C17.8755 39.488 17.4193 39.508 16.6011 39.244C14.9213 38.7027 14.4145 37.8333 13.8516 38.1067C13.6489 38.2053 13.3781 38.4827 13.3099 39.3973Z"
    fill="#242E60"
  />
<path
    d="M7.89842 33.7027C8.31615 33.9147 10.0531 34.7493 11.2636 34.0947C11.3927 34.0253 11.523 33.9347 11.6479 33.816C11.6855 33.4294 11.6714 32.9387 11.376 32.6947C11.1063 32.472 10.797 32.616 10.126 32.656C8.74949 32.7373 8.06149 32.2467 7.77602 32.6067C7.67402 32.736 7.59175 33.0147 7.89842 33.7027Z"
    fill="#242E60"
  />
<path
    d="M3.29121 34.7107C3.70881 34.9227 5.44588 35.7574 6.65681 35.104C6.78601 35.0334 6.91614 34.9427 7.04068 34.8254C7.07868 34.4374 7.06401 33.948 6.76881 33.704C6.49841 33.48 6.18961 33.624 5.51881 33.664C4.14268 33.7467 3.45361 33.2547 3.16881 33.616C3.06614 33.7454 2.98494 34.024 3.29121 34.7107Z"
    fill="#242E60"
  />
<path
    d="M2.26507 41.3147C2.64534 41.508 4.226 42.2667 5.32867 41.6693C5.44587 41.6053 5.56507 41.5214 5.67867 41.4147C5.7136 41.0614 5.70107 40.6147 5.4328 40.3933C5.18747 40.1893 4.90573 40.3213 4.2948 40.3587C3.0412 40.4347 2.41453 39.9893 2.15467 40.3173C2.06147 40.436 1.9864 40.6894 2.26507 41.3147Z"
    fill="#242E60"
  />
<path
    d="M2.16095 37.7213C2.49321 37.8907 3.87601 38.56 4.83641 38.0427C4.93908 37.988 5.04214 37.916 5.14121 37.8227C5.17028 37.5147 5.15681 37.1254 4.92241 36.9307C4.70735 36.752 4.46148 36.8667 3.92868 36.896C2.83495 36.9574 2.28641 36.5667 2.06041 36.852C1.97975 36.9533 1.91508 37.1747 2.16095 37.7213Z"
    fill="#242E60"
  />
<path
    d="M8.16615 39.2133C8.67508 39.448 10.7964 40.364 12.386 39.4093C12.5552 39.308 12.7287 39.1787 12.8964 39.0147C12.9797 38.512 13.0052 37.8827 12.6547 37.5947C12.3339 37.332 11.9297 37.5467 11.0776 37.66C9.32975 37.8907 8.50308 37.3227 8.10988 37.8133C7.96882 37.9893 7.84068 38.356 8.16615 39.2133Z"
    fill="#242E60"
  />
<path
    d="M4.64268 39.768C5.07028 39.9707 6.85054 40.7653 8.15841 40C8.29694 39.92 8.43908 39.816 8.57601 39.6827C8.63748 39.268 8.64841 38.748 8.35214 38.5027C8.08068 38.28 7.74734 38.4507 7.04068 38.5307C5.58908 38.6933 4.89268 38.2093 4.57348 38.6093C4.45881 38.752 4.35841 39.0533 4.64268 39.768Z"
    fill="#242E60"
  />
<path
    d="M18.5156 44.6307C18.7417 44.9893 19.7109 46.4427 21.2021 46.5C21.3599 46.5053 21.5339 46.4973 21.7213 46.464C22.0099 46.1827 22.3203 45.7973 22.2235 45.472C22.1344 45.1733 21.7683 45.1413 21.1547 44.86C19.8964 44.2827 19.6177 43.5853 19.1303 43.7307C18.9557 43.7827 18.7005 43.96 18.5156 44.6307Z"
    fill="#242E60"
  />
<path
    d="M15.6349 57.632C15.7339 59.5333 15.8328 61.436 15.9317 63.3387C13.6323 63.3867 11.3328 63.436 9.03228 63.4853C8.78961 61.532 8.54694 59.58 8.30414 57.6267C7.10628 56.7907 6.93694 56.46 7.00161 56.312C7.13441 56.0067 8.28961 56.4 10.5729 56.3333C11.0812 56.3173 11.0333 56.2987 11.774 56.272C13.6448 56.2013 13.7479 56.3347 14.4448 56.2173C15.8125 55.9867 16.4271 55.3 16.636 55.5107C16.7735 55.648 16.6839 56.1227 15.6349 57.632Z"
    fill="#242E60"
  />
<path
    d="M50.3303 85.0267C50.2271 85.02 50.1579 84.94 50.164 84.8494L51.6432 63.1507C51.6584 63.0907 57.7412 49.9667 57.7412 49.9667C57.7792 49.8827 57.8807 49.8493 57.9625 49.8853C58.0459 49.924 58.0817 50.024 58.0427 50.1067L51.9735 63.204L50.4964 84.8707C50.4902 84.96 50.4172 85.0267 50.3303 85.0267Z"
    fill="#A7CAEA"
  />
<path
    d="M42.4667 84.5053C42.3797 84.5053 42.3068 84.4374 42.3011 84.3494L40.8229 62.6814L34.7536 49.5853C34.7145 49.5013 34.7516 49.4027 34.8349 49.364C34.9167 49.324 35.0177 49.3613 35.0563 49.4453L41.138 62.5693C41.1531 62.628 42.6328 84.3267 42.6328 84.3267C42.6396 84.4187 42.5697 84.4973 42.4781 84.504C42.4745 84.5053 42.4708 84.5053 42.4667 84.5053Z"
    fill="#A7CAEA"
  />
<path
    d="M44.5765 25.992C44.6667 26.364 48.0552 25.9894 54.8333 25.24C62.2943 24.416 62.6547 24.1507 62.6588 23.9814C62.6735 23.4187 58.8052 22.5267 54.8333 22.7227C49.2751 22.9947 44.4203 25.352 44.5765 25.992Z"
    fill="#BDD5FF"
  />
<path
    d="M21.9213 85.0867C21.8473 85.0867 21.7803 85.0373 21.7604 84.9627L18.8011 73.8454C18.7765 73.756 18.8303 73.6654 18.9188 73.6414C19.0079 73.6214 19.0989 73.672 19.1224 73.76L22.0817 84.8774C22.1063 84.9667 22.0527 85.0574 21.964 85.0814C21.95 85.0854 21.9355 85.0867 21.9213 85.0867Z"
    fill="#A7CAEA"
  />
<path
    d="M75.1609 18.6293C75.1609 20.5053 76.6817 22.0267 78.5579 22.0267C80.4344 22.0267 81.9557 20.5053 81.9557 18.6293C81.9557 16.752 80.4344 15.232 78.5579 15.232C76.6817 15.232 75.1609 16.752 75.1609 18.6293Z"
    fill="white"
  />
<path
    d="M78.5579 12.9413C75.4219 12.9413 72.8703 15.4933 72.8703 18.6293C72.8703 21.7653 75.4219 24.316 78.5579 24.316C81.6937 24.316 84.2453 21.7653 84.2453 18.6293C84.2453 15.4933 81.6937 12.9413 78.5579 12.9413ZM78.5579 24.9827C75.0541 24.9827 72.2036 22.1333 72.2036 18.6293C72.2036 15.1253 75.0541 12.2747 78.5579 12.2747C82.062 12.2747 84.912 15.1253 84.912 18.6293C84.912 22.1333 82.062 24.9827 78.5579 24.9827Z"
    fill="#3D00F9"
  />
<path
    d="M78.5579 8.08C72.7418 8.08 68.0088 12.812 68.0088 18.6293C68.0088 24.4453 72.7418 29.1773 78.5579 29.1773C84.3747 29.1773 89.1067 24.4453 89.1067 18.6293C89.1067 12.812 84.3747 8.08 78.5579 8.08ZM78.5579 29.844C72.374 29.844 67.3421 24.8133 67.3421 18.6293C67.3421 12.4453 72.374 7.41333 78.5579 7.41333C84.7427 7.41333 89.7734 12.4453 89.7734 18.6293C89.7734 24.8133 84.7427 29.844 78.5579 29.844Z"
    fill="#3D00F9"
  />
<path
    d="M8.28601 39.4427C8.28601 43.1067 11.2557 46.076 14.9193 46.076C18.5833 46.076 21.5531 43.1067 21.5531 39.4427C21.5531 35.7787 18.5833 32.8094 14.9193 32.8094C11.2557 32.8094 8.28601 35.7787 8.28601 39.4427Z"
    fill="white"
  />
<path
    d="M14.9193 29.9947C9.70934 29.9947 5.47134 34.2334 5.47134 39.4427C5.47134 44.652 9.70934 48.8907 14.9193 48.8907C20.1292 48.8907 24.3672 44.652 24.3672 39.4427C24.3672 34.2334 20.1292 29.9947 14.9193 29.9947ZM14.9193 49.5573C9.34174 49.5573 4.80467 45.02 4.80467 39.4427C4.80467 33.8654 9.34174 29.328 14.9193 29.328C20.4969 29.328 25.0339 33.8654 25.0339 39.4427C25.0339 45.02 20.4969 49.5573 14.9193 49.5573Z"
    fill="#3D00F9"
  />
<path
    d="M14.9194 27.6067C8.39322 27.6067 3.08335 32.916 3.08335 39.4427C3.08335 45.9694 8.39322 51.2787 14.9194 51.2787C21.4454 51.2787 26.7552 45.9694 26.7552 39.4427C26.7552 32.916 21.4454 27.6067 14.9194 27.6067ZM14.9194 51.9454C8.02549 51.9454 2.41669 46.336 2.41669 39.4427C2.41669 32.5494 8.02549 26.94 14.9194 26.94C21.8131 26.94 27.4219 32.5494 27.4219 39.4427C27.4219 46.336 21.8131 51.9454 14.9194 51.9454Z"
    fill="#3D00F9"
  />
<path
    d="M14.9193 25.7107C7.34693 25.7107 1.18693 31.8707 1.18693 39.4427C1.18693 47.0147 7.34693 53.1747 14.9193 53.1747C22.4917 53.1747 28.6516 47.0147 28.6516 39.4427C28.6516 31.8707 22.4917 25.7107 14.9193 25.7107ZM14.9193 53.8414C6.97973 53.8414 0.520264 47.3827 0.520264 39.4427C0.520264 31.5027 6.97973 25.044 14.9193 25.044C22.8588 25.044 29.3183 31.5027 29.3183 39.4427C29.3183 47.3827 22.8588 53.8414 14.9193 53.8414Z"
    fill="#3D00F9"
  />
<path
    d="M93.08 53.336C92.8947 53.336 92.7467 53.188 92.7467 53.0027V38.9147C92.7467 38.7307 92.8947 38.5813 93.08 38.5813H100.127V25.7107H88.9533C88.7693 25.7107 88.62 25.5613 88.62 25.3773C88.62 25.1933 88.7693 25.044 88.9533 25.044H100.46C100.644 25.044 100.793 25.1933 100.793 25.3773V38.9147C100.793 39.1 100.644 39.248 100.46 39.248H93.4133V53.0027C93.4133 53.188 93.264 53.336 93.08 53.336Z"
    fill="#3D00F9"
  />
<path
    d="M96.4693 35.2654C96.284 35.2654 96.136 35.116 96.136 34.932V29.308H88.724C88.54 29.308 88.3907 29.16 88.3907 28.9747C88.3907 28.7907 88.54 28.6414 88.724 28.6414H96.4693C96.6533 28.6414 96.8027 28.7907 96.8027 28.9747V34.932C96.8027 35.116 96.6533 35.2654 96.4693 35.2654Z"
    fill="#3D00F9"
  />
<path
    d="M21.5088 23.9027C21.3251 23.9027 21.1755 23.7533 21.1755 23.5693V15.46C21.1755 15.276 21.3251 15.1267 21.5088 15.1267H34.9203V10.3C34.9203 10.1147 35.0697 9.96668 35.2536 9.96668H67.3084C67.4927 9.96668 67.6417 10.1147 67.6417 10.3C67.6417 10.484 67.4927 10.6333 67.3084 10.6333H35.5869V15.46C35.5869 15.644 35.438 15.7933 35.2536 15.7933H21.8421V23.5693C21.8421 23.7533 21.6932 23.9027 21.5088 23.9027Z"
    fill="#3D00F9"
  />
<path
    d="M62.4417 20.5161C62.2573 20.5161 62.1084 20.3667 62.1084 20.1827V13.2307C62.1084 13.0467 62.2573 12.8974 62.4417 12.8974H66.1855C66.3697 12.8974 66.5188 13.0467 66.5188 13.2307C66.5188 13.4147 66.3697 13.564 66.1855 13.564H62.7751V20.1827C62.7751 20.3667 62.6255 20.5161 62.4417 20.5161Z"
    fill="#3D00F9"
  />
<path
    d="M91.464 17.04C91.3067 17.04 91.1667 16.928 91.1373 16.768C91.1027 16.5867 91.2227 16.4133 91.4027 16.38L101.413 14.5107C101.588 14.4773 101.768 14.5947 101.801 14.776C101.835 14.9573 101.716 15.1307 101.535 15.1653L91.5253 17.0347C91.504 17.0387 91.484 17.04 91.464 17.04Z"
    fill="#3D00F9"
  />
<path
    d="M86.0213 8.48666C85.9653 8.48666 85.908 8.47202 85.8547 8.44135C85.6947 8.34935 85.64 8.14533 85.7333 7.98666L89.152 2.06801C89.244 1.90934 89.4493 1.85469 89.6067 1.94669C89.7667 2.03869 89.8213 2.24268 89.728 2.40134L86.3093 8.32C86.248 8.42666 86.136 8.48666 86.0213 8.48666Z"
    fill="#3D00F9"
  />
<path
    d="M90.832 53.8827C90.832 55.136 91.848 56.1533 93.1027 56.1533C94.3574 56.1533 95.3734 55.136 95.3734 53.8827C95.3734 52.6293 94.3574 51.612 93.1027 51.612C91.848 51.612 90.832 52.6293 90.832 53.8827Z"
    fill="white"
  />
<path
    d="M93.9 34.5067C93.9 35.76 94.9173 36.7773 96.1707 36.7773C97.4253 36.7773 98.4414 35.76 98.4414 34.5067C98.4414 33.252 97.4253 32.236 96.1707 32.236C94.9173 32.236 93.9 33.252 93.9 34.5067Z"
    fill="white"
  />
<path
    d="M94.7067 29.3814C94.7067 30.2921 95.444 31.0307 96.3547 31.0307C97.2653 31.0307 98.0027 30.2921 98.0027 29.3814C98.0027 28.4721 97.2653 27.7334 96.3547 27.7334C95.444 27.7334 94.7067 28.4721 94.7067 29.3814Z"
    fill="white"
  />
<path
    d="M87.3053 29.2893C87.3053 30.2 88.0427 30.9387 88.9533 30.9387C89.8627 30.9387 90.6013 30.2 90.6013 29.2893C90.6013 28.3787 89.8627 27.6414 88.9533 27.6414C88.0427 27.6414 87.3053 28.3787 87.3053 29.2893Z"
    fill="white"
  />
<path
    d="M87.5347 25.052C87.5347 25.9627 88.2733 26.7 89.1827 26.7C90.0933 26.7 90.832 25.9627 90.832 25.052C90.832 24.1413 90.0933 23.404 89.1827 23.404C88.2733 23.404 87.5347 24.1413 87.5347 25.052Z"
    fill="white"
  />
<path
    d="M99.188 25.052C99.188 25.9627 99.9254 26.7 100.836 26.7C101.747 26.7 102.485 25.9627 102.485 25.052C102.485 24.1413 101.747 23.404 100.836 23.404C99.9254 23.404 99.188 24.1413 99.188 25.052Z"
    fill="white"
  />
<path
    d="M98.9693 38.8747C98.9693 39.784 99.7067 40.5227 100.617 40.5227C101.528 40.5227 102.265 39.784 102.265 38.8747C102.265 37.964 101.528 37.2267 100.617 37.2267C99.7067 37.2267 98.9693 37.964 98.9693 38.8747Z"
    fill="white"
  />
<path
    d="M91.4093 38.8747C91.4093 39.784 92.148 40.5227 93.0573 40.5227C93.9693 40.5227 94.7067 39.784 94.7067 38.8747C94.7067 37.964 93.9693 37.2267 93.0573 37.2267C92.148 37.2267 91.4093 37.964 91.4093 38.8747Z"
    fill="white"
  />
<path
    d="M99.5574 14.888C99.5574 15.7973 100.296 16.536 101.207 16.536C102.117 16.536 102.855 15.7973 102.855 14.888C102.855 13.9773 102.117 13.24 101.207 13.24C100.296 13.24 99.5574 13.9773 99.5574 14.888Z"
    fill="white"
  />
<path
    d="M90.316 16.7067C90.316 17.6174 91.0547 18.3547 91.964 18.3547C92.8747 18.3547 93.612 17.6174 93.612 16.7067C93.612 15.796 92.8747 15.0587 91.964 15.0587C91.0547 15.0587 90.316 15.796 90.316 16.7067Z"
    fill="white"
  />
<path
    d="M87.5347 2.05732C87.5347 2.96932 88.2733 3.70667 89.1827 3.70667C90.0933 3.70667 90.832 2.96932 90.832 2.05732C90.832 1.14798 90.0933 0.409334 89.1827 0.409334C88.2733 0.409334 87.5347 1.14798 87.5347 2.05732Z"
    fill="white"
  />
<path
    d="M84.832 7.74667C84.832 8.65734 85.5693 9.39465 86.48 9.39465C87.3907 9.39465 88.128 8.65734 88.128 7.74667C88.128 6.83601 87.3907 6.09866 86.48 6.09866C85.5693 6.09866 84.832 6.83601 84.832 7.74667Z"
    fill="white"
  />
<path
    d="M19.7104 23.8853C19.7104 24.796 20.4484 25.5333 21.3588 25.5333C22.2693 25.5333 23.0073 24.796 23.0073 23.8853C23.0073 22.9746 22.2693 22.2373 21.3588 22.2373C20.4484 22.2373 19.7104 22.9746 19.7104 23.8853Z"
    fill="white"
  />
<path
    d="M19.7104 15.772C19.7104 16.6827 20.4484 17.42 21.3588 17.42C22.2693 17.42 23.0073 16.6827 23.0073 15.772C23.0073 14.8614 22.2693 14.124 21.3588 14.124C20.4484 14.124 19.7104 14.8614 19.7104 15.772Z"
    fill="white"
  />
<path
    d="M33.2568 15.232C33.2568 16.1413 33.9948 16.88 34.9047 16.88C35.8151 16.88 36.5531 16.1413 36.5531 15.232C36.5531 14.3213 35.8151 13.5827 34.9047 13.5827C33.9948 13.5827 33.2568 14.3213 33.2568 15.232Z"
    fill="white"
  />
<path
    d="M65.6599 9.86002C65.6599 10.772 66.3984 11.5094 67.3084 11.5094C68.2193 11.5094 68.9573 10.772 68.9573 9.86002C68.9573 8.95069 68.2193 8.21204 67.3084 8.21204C66.3984 8.21204 65.6599 8.95069 65.6599 9.86002Z"
    fill="white"
  />
<path
    d="M64.5369 13.24C64.5369 14.1494 65.2755 14.888 66.1855 14.888C67.0959 14.888 67.8339 14.1494 67.8339 13.24C67.8339 12.3294 67.0959 11.5907 66.1855 11.5907C65.2755 11.5907 64.5369 12.3294 64.5369 13.24Z"
    fill="white"
  />
<path
    d="M60.5183 13.4094C60.5183 14.32 61.2568 15.0587 62.1667 15.0587C63.0765 15.0587 63.8151 14.32 63.8151 13.4094C63.8151 12.5 63.0765 11.7614 62.1667 11.7614C61.2568 11.7614 60.5183 12.5 60.5183 13.4094Z"
    fill="white"
  />
<path
    d="M61.0104 19.784C61.0104 20.6947 61.7484 21.4333 62.6588 21.4333C63.5697 21.4333 64.3073 20.6947 64.3073 19.784C64.3073 18.8747 63.5697 18.136 62.6588 18.136C61.7484 18.136 61.0104 18.8747 61.0104 19.784Z"
    fill="white"
  />
</svg>
