<svg
  width="323"
  height="444"
  viewBox="0 0 323 444"
  fill="none"
  xmlns="http://www.w3.org/2000/svg"
>
<path
    d="M310.708 268.881C310.708 270.38 310.096 271.745 309.101 272.735C308.12 273.729 306.752 274.34 305.253 274.34H188.528C185.531 274.34 183.075 271.885 183.075 268.881C183.075 267.383 183.685 266.015 184.681 265.027C185.664 264.031 187.029 263.42 188.528 263.42H194.047C196.225 258.356 201.257 254.817 207.115 254.817C211.057 254.817 214.621 256.423 217.203 259.011C220.641 253.18 226.984 249.263 234.245 249.263C236.241 249.263 238.163 249.564 239.976 250.112C243.773 242.971 251.281 238.108 259.935 238.108C270.327 238.108 279.068 245.124 281.707 254.672C283.621 253.716 285.781 253.167 288.073 253.167C294.553 253.167 300.02 257.495 301.74 263.42H305.253C308.251 263.42 310.708 265.877 310.708 268.881Z"
    fill="#DCC9C6"
  />
<path
    d="M296.893 152.62C292.847 155.339 287.344 154.259 284.625 150.212C281.908 146.165 282.987 140.663 287.033 137.944C291.08 135.225 296.583 136.305 299.301 140.352C302.019 144.399 300.94 149.901 296.893 152.62ZM320.664 156.411L322.52 146.945L313.653 145.205C313.647 142.875 313.249 140.539 312.479 138.279L319.787 133.369L314.407 125.363L307.413 130.061C305.332 127.948 302.884 126.321 300.235 125.232L301.976 116.363L292.512 114.507L290.719 123.647C288.776 123.755 286.844 124.125 284.96 124.768L280.051 117.46L272.044 122.839L276.743 129.832C274.629 131.913 273.003 134.36 271.913 137.011L264.161 135.488L262.301 144.953L270.328 146.528C270.465 149.005 271.02 151.473 272.032 153.831L265.037 158.529L270.416 166.535L277.725 161.627C279.821 163.453 282.216 164.825 284.775 165.723L283.021 174.645L292.487 176.501L294.385 166.829C296.465 166.6 298.528 166.067 300.513 165.213L305.211 172.208L313.216 166.829L308.307 159.523C309.615 158.024 310.687 156.372 311.523 154.615L320.664 156.411Z"
    fill="#DCC9C6"
  />
<path
    d="M85.9186 429.412C92.22 416.552 102.787 392.398 106.844 367.811C113.256 328.947 131.381 326.42 138.535 337.136C155.824 363.032 121.443 408.055 102.705 429.412H85.9186Z"
    fill="#C2B1AE"
  />
<path
    d="M116.08 387.755C111.199 399.348 103.848 414.677 94.0519 429.412H91.9706C102.007 414.504 109.519 398.873 114.473 387.109C121.66 370.052 125.172 357.232 125.207 357.103C125.332 356.643 125.807 356.371 126.268 356.496C126.731 356.62 127.003 357.096 126.876 357.556C126.843 357.685 123.304 370.596 116.08 387.755Z"
    fill="#A19395"
  />
<path
    d="M92.1385 429.412C107.168 413.713 132.815 384.421 149.636 351.637C176.649 298.985 203.739 303.691 209.052 322.304C220.441 362.184 166.821 404.933 129 429.412H92.1385Z"
    fill="#DCC9C6"
  />
<path
    d="M108.541 429.412H104.464C123.752 413.603 140.075 396.286 151.692 382.748C169.801 361.645 180.711 344.917 180.82 344.748C181.209 344.148 182.016 343.976 182.617 344.369C183.221 344.757 183.392 345.563 182.999 346.164C182.893 346.332 171.907 363.177 153.693 384.408C142.487 397.472 126.925 414.032 108.541 429.412Z"
    fill="#C2B1AE"
  />
<path
    d="M289.416 376.101C277.671 365.528 242.264 383.199 221.963 407.524L242.715 367.205C246.052 364.7 253.059 360.453 264.615 358.012C279.796 354.807 295.399 348.693 288.02 342.052C280.596 335.371 258.177 346.589 245.401 361.987L249.795 353.449C267.689 332.633 276.873 298.248 267.176 291.571C257.487 284.901 252.529 304.977 251.463 326.388C251.001 335.629 248.465 343.595 246.7 349.176L238.161 365.767C240.477 348.255 236.42 329.581 228.009 327.72C218.317 325.575 222.409 341.825 228.624 356.043C231.949 363.655 233.24 369.953 233.68 374.475L207.547 425.185H212.843L217.637 415.927C222.979 411.941 234.075 405.269 252.279 401.425C276.367 396.338 301.123 386.639 289.416 376.101Z"
    fill="#DCC9C6"
  />
<path
    d="M154.463 435.236C154.463 440.076 186.089 443.999 225.103 443.999C264.115 443.999 295.741 440.076 295.741 435.236C295.741 430.396 264.115 426.473 225.103 426.473C186.089 426.473 154.463 430.396 154.463 435.236Z"
    fill="#DCC9C6"
  />
<path
    d="M112.815 122.913C120.165 127.26 128.016 131.088 136.316 134.037C144.607 136.997 153.332 139.055 162.185 140.119C165.823 140.555 169.236 138.956 171.277 136.213L172.049 135.165L201.359 95.624C205.976 89.392 204.671 80.5973 198.439 75.9759C192.207 71.3599 183.411 72.6653 178.792 78.8973C178.448 79.3586 178.103 79.9066 177.825 80.3933L156.673 118.12C151.66 117.757 146.659 117.015 141.695 115.881C134.435 114.231 127.261 111.751 120.217 108.633L120.173 108.615C116.104 106.813 111.348 108.653 109.549 112.72C107.877 116.496 109.345 120.865 112.815 122.913Z"
    fill="#DC2C29"
  />
<path
    d="M104.375 118.591L104.379 118.589L104.712 118.541C104.712 118.541 104.932 118.719 105.316 118.992C107.168 120.303 112.863 123.815 116.496 120.352C116.78 120.08 117.044 119.803 117.292 119.52C117.565 119.203 117.817 118.881 118.049 118.551C120.847 114.621 120.741 110.081 120.741 110.081C120.741 110.081 118.135 100.82 113.688 100.18C111.117 99.8079 110.053 100.64 109.617 101.409C109.296 101.967 109.308 102.491 109.308 102.491C109.308 102.491 109.016 102.325 108.512 102.048C105.653 100.469 95.9852 95.2399 94.3359 95.7266C92.3972 96.2986 103.588 104.768 103.588 104.768C103.588 104.768 101.831 104.943 99.9346 109.489C98.0786 113.944 98.8692 119.34 104.375 118.591Z"
    fill="#F8A17D"
  />
<path
    d="M107.815 111.803C108.036 111.712 108.165 111.469 108.107 111.229C108.043 110.967 107.779 110.803 107.516 110.863C107.475 110.871 106.075 111.116 103.832 109.397C103.616 109.231 103.304 109.272 103.137 109.489C102.971 109.707 103.013 110.017 103.231 110.184C105.911 112.239 107.668 111.845 107.741 111.828L107.815 111.803Z"
    fill="#F8A17D"
  />
<path
    d="M107.043 115.635C107.243 115.552 107.372 115.343 107.347 115.117C107.313 114.845 107.067 114.652 106.796 114.684C106.76 114.688 104.241 114.953 102.473 113.255C102.277 113.065 101.963 113.072 101.775 113.269C101.584 113.467 101.591 113.78 101.788 113.969C103.905 116.004 106.792 115.683 106.912 115.668L107.043 115.635Z"
    fill="#F8A17D"
  />
<path
    d="M108.764 108.123C109.34 108.435 110.135 108.311 110.992 107.956C113.08 107.095 115.549 104.88 116.183 104.295C116.385 104.111 116.395 103.796 116.212 103.596C116.025 103.395 115.712 103.381 115.512 103.567C113.563 105.372 110.22 107.789 109.241 107.251C108.905 107.068 108.823 106.333 109.019 105.232L109.617 101.409C109.296 101.967 109.308 102.491 109.308 102.491C109.308 102.491 109.016 102.325 108.512 102.048L108.041 105.071C107.935 105.661 107.611 107.491 108.764 108.123Z"
    fill="#F8A17D"
  />
<path
    d="M104.379 118.589L104.712 118.541C104.712 118.541 104.932 118.719 105.316 118.992C111.055 111.456 106.381 105.877 106.329 105.82C106.149 105.611 105.836 105.587 105.632 105.768C105.424 105.947 105.403 106.259 105.58 106.464C105.767 106.684 109.849 111.617 104.379 118.589Z"
    fill="#F8A17D"
  />
<path
    d="M221.085 245.101L231.728 405.792L214.257 404.715L176.515 204.271L217.619 205.663L221.085 245.101Z"
    fill="#1B222C"
  />
<path
    d="M230.499 404.662L231.728 419.949C231.728 419.949 226.447 423.004 218.387 421.569L215.855 403.498L230.499 404.662Z"
    fill="#F8A17D"
  />
<path
    d="M211.967 401.464C211.059 404.688 211.607 407.776 212.672 410.832L233.608 409.846C234.269 406.776 234.304 403.712 233.787 400.649L211.967 401.464Z"
    fill="#2C3755"
  />
<path
    d="M181.983 437.45C183.116 439.868 232.895 437.274 232.895 437.274C232.895 437.274 234.473 422.495 232.913 417.943C231.353 413.389 224.1 418.503 219.124 417.36C219.124 417.36 216.144 413.233 213.728 413.373C212.837 413.427 209.707 415.441 205.787 418.02C205.153 418.438 204.497 418.871 203.824 419.31C203.356 419.62 202.884 419.931 202.404 420.244C201.627 420.757 200.833 421.274 200.04 421.786C199.74 421.98 199.444 422.169 199.143 422.364H199.14C198.412 422.833 197.684 423.293 196.96 423.744C192.596 426.464 188.465 428.761 186.076 429.184C179.676 430.317 180.847 435.031 181.983 437.45Z"
    fill="#DC2C29"
  />
<path
    d="M200.04 421.787C200.784 421.697 201.727 421.776 202.767 422.321C204.891 423.427 206.597 426.484 206.613 426.513C206.727 426.722 206.913 426.867 207.128 426.934C207.351 427.007 207.604 426.988 207.827 426.867C208.26 426.627 208.416 426.084 208.177 425.655C208.1 425.507 206.2 422.093 203.593 420.736C203.187 420.524 202.787 420.364 202.404 420.244C201.097 420.355 200.008 420.645 200.04 421.787Z"
    fill="white"
  />
<path
    d="M203.824 419.31C204.327 419.373 204.884 419.533 205.467 419.84C207.597 420.953 209.296 424.003 209.313 424.038C209.427 424.244 209.613 424.389 209.827 424.457C210.051 424.527 210.303 424.509 210.527 424.386C210.961 424.15 211.117 423.608 210.877 423.173C210.8 423.027 208.901 419.616 206.295 418.257C206.124 418.167 205.953 418.086 205.787 418.02C204.952 418.089 204.015 418.038 203.824 419.31Z"
    fill="white"
  />
<path
    d="M196.96 423.744C197.593 423.75 198.333 423.893 199.127 424.31C201.256 425.424 202.953 428.473 202.969 428.503C203.087 428.715 203.273 428.86 203.487 428.928C203.709 428.996 203.963 428.981 204.187 428.857C204.617 428.616 204.777 428.073 204.536 427.644C204.457 427.496 202.557 424.086 199.953 422.727C199.68 422.584 199.407 422.464 199.143 422.364H199.14C197.721 422.225 196.879 422.586 196.96 423.744Z"
    fill="white"
  />
<path
    d="M268.608 406.408L253.067 407.117L213.217 312.968L205.587 206.391L241.413 202.32L241.747 202.235L243.595 201.773L243.665 201.756L249.889 200.535C247.235 222.32 243.188 303.087 243.188 303.087C243.188 303.087 249.855 319.004 255.187 337.943C260.52 356.889 268.608 406.408 268.608 406.408Z"
    fill="#2C3755"
  />
<path
    d="M265.145 405.384L264.965 405.4C264.492 405.4 264.069 405.062 263.983 404.58C263.889 404.06 254.484 352.397 248.908 335.996C245.24 325.197 236.005 303.612 235.911 303.396C235.852 303.256 235.821 303.1 235.832 302.945L241.747 202.235L243.595 201.773L237.843 302.827C238.823 305.133 247.304 325.071 250.801 335.348C256.428 351.893 265.856 403.7 265.953 404.222C266.051 404.768 265.689 405.286 265.145 405.384Z"
    fill="#1B222C"
  />
<path
    d="M266.391 404.401L270.9 419.949C270.9 419.949 265.619 423.004 257.559 421.569L253.068 403.344L266.391 404.401Z"
    fill="#F8A17D"
  />
<path
    d="M248.807 402.727C248.04 406.458 248.259 409.227 251.099 411.499L272.975 410.229C273.636 407.16 273.352 404.165 272.213 401.316L248.807 402.727Z"
    fill="#375774"
  />
<path
    d="M222.12 437.45C223.253 439.868 273.031 437.274 273.031 437.274C273.031 437.274 274.612 422.495 273.052 417.943C271.492 413.389 264.239 418.503 259.261 417.36C259.261 417.36 256.281 413.233 253.864 413.373C252.975 413.427 249.845 415.441 245.924 418.02C245.292 418.438 244.633 418.871 243.961 419.31C243.495 419.62 243.02 419.931 242.541 420.244C241.764 420.757 240.971 421.274 240.177 421.786C239.877 421.98 239.58 422.169 239.281 422.364H239.277C238.551 422.833 237.82 423.293 237.097 423.744C232.735 426.464 228.604 428.761 226.213 429.184C219.813 430.317 220.983 435.031 222.12 437.45Z"
    fill="#EF3732"
  />
<path
    d="M240.177 421.787C240.92 421.697 241.864 421.776 242.905 422.321C245.027 423.427 246.735 426.484 246.751 426.513C246.864 426.722 247.051 426.867 247.264 426.934C247.488 427.007 247.741 426.988 247.964 426.867C248.399 426.627 248.555 426.084 248.315 425.655C248.239 425.507 246.337 422.093 243.731 420.736C243.324 420.524 242.924 420.364 242.541 420.244C241.236 420.355 240.144 420.645 240.177 421.787Z"
    fill="white"
  />
<path
    d="M243.961 419.31C244.464 419.373 245.02 419.533 245.604 419.84C247.735 420.953 249.435 424.003 249.452 424.038C249.565 424.244 249.751 424.389 249.964 424.457C250.187 424.527 250.441 424.509 250.664 424.386C251.097 424.15 251.255 423.608 251.015 423.173C250.937 423.027 249.037 419.616 246.431 418.257C246.261 418.167 246.091 418.086 245.924 418.02C245.089 418.089 244.151 418.038 243.961 419.31Z"
    fill="white"
  />
<path
    d="M237.097 423.744C237.731 423.75 238.471 423.893 239.264 424.31C241.395 425.424 243.091 428.473 243.108 428.503C243.224 428.715 243.411 428.86 243.625 428.928C243.848 428.996 244.101 428.981 244.324 428.857C244.753 428.616 244.913 428.073 244.675 427.644C244.595 427.496 242.693 424.086 240.091 422.727C239.817 422.584 239.544 422.464 239.281 422.364H239.277C237.859 422.225 237.017 422.586 237.097 423.744Z"
    fill="white"
  />
<path
    d="M179.808 55.2186C183.083 46.6186 177.489 35.7479 177.489 35.7479C181.451 34.5746 191.801 40.8026 194.067 53.5893C194.156 54.1026 194.229 54.644 194.289 55.204C189.511 55.8133 184.623 55.704 179.808 55.2186Z"
    fill="#1B222C"
  />
<path
    d="M249.691 202.316C244.195 208.781 218.259 206.541 202.332 211.717C186.4 216.892 176.903 215.209 174.971 210.256C173.5 206.481 174.728 194.052 176.448 179.288C176.595 178.003 176.748 176.703 176.903 175.385C177.105 173.701 177.308 171.991 177.512 170.269C177.665 168.972 177.823 167.665 177.976 166.361C177.992 166.215 178.009 166.068 178.025 165.92C178.092 165.367 178.156 164.813 178.219 164.26C178.34 163.236 178.456 162.209 178.573 161.181C178.709 159.992 178.84 158.801 178.969 157.613L179.009 157.267C179.06 156.783 179.116 156.296 179.163 155.816C179.487 152.801 179.787 149.82 180.047 146.917C180.08 146.548 180.113 146.181 180.147 145.817C180.164 145.62 180.18 145.424 180.196 145.227C180.227 144.86 180.256 144.493 180.287 144.131C181.08 134.425 181.353 125.817 180.469 120.137C180.416 119.777 180.36 119.413 180.307 119.044V119.041C178.576 107.335 178.759 97.2933 178.969 86.0146C179.132 77.3333 179.733 74.5053 180.837 70.984C182.448 65.8573 192.7 52.6106 201.572 51.124C208.031 50.0466 214.661 51.3573 220.217 54.832C227.36 59.2973 236.801 66.508 240.957 75.3786C242.577 78.8466 243.411 82.8586 243.765 87.248V87.2506C244.439 95.5226 243.419 105.135 242.811 115.001V115.005C242.332 122.863 242.115 130.873 243.219 138.495C243.639 141.379 244.24 144.56 244.953 147.925C245.075 148.501 245.199 149.085 245.329 149.672C245.425 150.116 245.523 150.567 245.627 151.017C245.805 151.833 245.996 152.664 246.189 153.497C246.571 155.159 246.969 156.843 247.384 158.547C247.691 159.808 248.001 161.081 248.313 162.359C248.721 164.016 249.135 165.684 249.545 167.345C249.864 168.619 250.183 169.889 250.492 171.157C254.587 187.752 252.94 198.491 249.691 202.316Z"
    fill="#EF3732"
  />
<path
    d="M219.781 96.3119C219.688 95.8626 219.248 95.5719 218.797 95.6653C218.345 95.7586 218.055 96.1986 218.147 96.6493C218.221 96.9959 225.155 130.96 218.524 140.521C215.305 140.885 191.667 143.532 180.244 144.643C180.215 145.007 180.187 145.332 180.157 145.699C180.14 145.895 180.119 146.121 180.101 146.317C192.211 145.151 218.775 142.172 219.077 142.139C219.301 142.112 219.508 141.996 219.644 141.816C227.075 132.064 220.081 97.7666 219.781 96.3119Z"
    fill="#DC2C29"
  />
<path
    d="M183.327 188.245C182.937 188.245 182.587 187.971 182.505 187.575C182.409 187.12 182.703 186.675 183.157 186.58C183.364 186.537 203.98 182.045 214.171 162.641C214.385 162.231 214.893 162.072 215.305 162.288C215.716 162.504 215.875 163.013 215.659 163.424C210.133 173.944 201.692 180.125 195.584 183.459C188.967 187.069 183.719 188.181 183.499 188.227L183.327 188.245Z"
    fill="#DC2C29"
  />
<path
    d="M194.12 78.6133C192.564 78.6133 191.383 77.7133 190.704 76.0079C188.572 70.6493 191.752 58.6653 196.475 54.2746L197.161 55.0146C192.76 59.1066 189.665 70.6693 191.641 75.6346C192.169 76.96 192.98 77.604 194.12 77.604H194.145C204.524 77.5146 212.752 54.2066 212.835 53.9706L213.788 54.3026C213.444 55.292 205.237 78.5173 194.155 78.6119L194.12 78.6133Z"
    fill="white"
  />
<path
    d="M186.467 45.2013C186.467 45.2013 186.903 46.1052 187.661 47.5626L187.791 47.8092L187.816 47.8626C188.361 48.8919 189.053 50.1639 189.859 51.5719C190.149 52.0826 190.456 52.6119 190.777 53.1546C191.068 53.6412 191.367 54.1412 191.679 54.6452C193.877 58.2226 196.572 62.1039 199.336 64.8826C207.236 61.9106 212.64 57.9999 214.511 52.7599C214.511 52.7599 205.881 42.4212 205.569 32.5599L186.467 45.2013Z"
    fill="#F8A17D"
  />
<path
    d="M187.661 47.5626L187.791 47.8093L187.816 47.8626C188.361 48.8919 189.053 50.164 189.859 51.572C190.149 52.0826 190.456 52.6119 190.777 53.1546C191.068 53.6413 191.367 54.1413 191.679 54.6453C193.741 50.7399 194.292 44.4559 194.345 44.3186L187.661 47.5626Z"
    fill="#F4736C"
  />
<path
    d="M173.64 44.7653C173.764 45.5133 173.903 46.236 174.045 46.924C174.995 51.4027 176.768 52.916 179.325 52.604C183.916 52.044 203.813 40.7 211.411 32.8987C219.009 25.1013 213.147 11.9213 204.312 10.1533C198.024 8.89599 186.276 12.5027 180.032 14.6853C177.004 15.7413 174.681 18.2387 173.915 21.36C173.209 24.2427 172.845 27.6213 172.748 31.104V31.1106L172.744 31.1133C172.635 31.304 169.927 36.0307 169.403 36.9933C168.984 37.752 171.659 38.3547 172.919 38.5907C172.96 39.1333 173.007 39.6773 173.06 40.212L173.64 44.7653Z"
    fill="#F8A17D"
  />
<path
    d="M180.427 28.0747L180.76 27.9827C181.133 27.78 181.275 27.3133 181.073 26.94C180.365 25.6307 178.195 23.38 175.044 24.2347C174.633 24.3467 174.392 24.7693 174.504 25.18C174.615 25.5907 175.037 25.832 175.448 25.72C178.224 24.9667 179.657 27.56 179.717 27.6707C179.861 27.9387 180.141 28.0853 180.427 28.0747Z"
    fill="#1B222C"
  />
<path
    d="M173.663 30.1452C173.647 29.9372 173.639 29.7265 173.632 29.5105L173.631 29.3532C173.567 25.7772 174.711 23.3599 175.845 23.3306C176.969 23.2999 178.295 25.7732 178.395 29.3786C178.493 32.9799 177.308 35.5266 176.183 35.5586C175.099 35.5892 173.885 33.4439 173.663 30.1452ZM172.984 29.2199L172.987 29.5279L173 29.8799C173.179 33.4959 174.556 36.2479 176.2 36.2026C177.897 36.1572 179.145 33.1492 179.04 29.3599C178.936 25.5679 177.523 22.6359 175.827 22.6826C174.176 22.7292 172.951 25.5746 172.984 29.2199Z"
    fill="white"
  />
<path
    d="M172.323 30.1133C172.463 30.2266 172.665 30.204 172.776 30.0653L173 29.88L173.104 29.856C173.296 29.8493 173.473 30.04 173.476 30.0426L173.663 30.1453C173.647 29.9373 173.639 29.7266 173.632 29.5106L173.631 29.3533C173.489 29.2733 173.305 29.204 173.092 29.2093L172.984 29.22C172.78 29.2453 172.523 29.3533 172.276 29.66C172.161 29.7987 172.185 30.0026 172.323 30.1133Z"
    fill="white"
  />
<path
    d="M178.669 28.3759L189.797 26.0599C189.743 26.2773 189.449 26.3999 189.403 26.6199L178.705 29.0213H178.696C178.521 29.0253 178.375 28.8906 178.364 28.7159C178.355 28.5386 178.492 28.3853 178.669 28.3759Z"
    fill="white"
  />
<path
    d="M175.393 43.4919C177.693 43.4919 179.06 41.5439 179.123 41.4519C179.275 41.2319 179.217 40.9293 178.997 40.7773C178.776 40.6266 178.473 40.6826 178.323 40.9026C178.263 40.9893 176.937 42.8533 174.809 42.468C174.548 42.4226 174.295 42.5959 174.245 42.8599C174.199 43.1239 174.373 43.3759 174.637 43.4226C174.9 43.4706 175.151 43.4919 175.393 43.4919Z"
    fill="#F4736C"
  />
<path
    d="M178.843 37.3826C179.089 38.4532 180.992 38.9292 183.089 38.4439C185.188 37.9599 186.688 36.6972 186.441 35.6266C186.193 34.5546 184.292 34.0799 182.192 34.5639C180.095 35.0492 178.595 36.3106 178.843 37.3826Z"
    fill="#F4736C"
  />
<path
    d="M175.501 29.58C175.405 30.464 175.721 31.2226 176.209 31.276C176.696 31.3293 177.171 30.6573 177.268 29.7746C177.365 28.8906 177.048 28.132 176.561 28.0786C176.073 28.024 175.599 28.6973 175.501 29.58Z"
    fill="#1B222C"
  />
<path
    d="M192.46 33.356C192.709 33.3426 192.923 33.156 192.961 32.9C193.495 29.3226 196.153 27.3826 196.181 27.3626C196.42 27.1906 196.476 26.8573 196.305 26.616C196.133 26.376 195.8 26.32 195.56 26.4906C195.436 26.5786 192.505 28.6986 191.903 32.7426C191.857 33.0346 192.06 33.3066 192.352 33.3506L192.46 33.356Z"
    fill="#F4736C"
  />
<path
    d="M196.501 30.6373C196.689 30.628 196.867 30.5187 196.956 30.3373C197.084 30.072 196.975 29.752 196.709 29.6226C196.635 29.5853 194.877 28.7387 193.477 29.0373C193.187 29.0987 193.004 29.384 193.065 29.672C193.128 29.9627 193.411 30.1466 193.7 30.084C194.563 29.9 195.825 30.3826 196.24 30.584L196.501 30.6373Z"
    fill="#F4736C"
  />
<path
    d="M174.476 19.7373C177.505 22.728 183.931 26.6359 189.403 26.6199C189.403 26.6199 193.523 19.9746 198.921 24.1626C204.32 28.3506 197.324 38.1813 191.539 36.8746C191.539 36.8746 189.543 43.8133 194.687 49.5026C208.348 56.612 225.148 48.7199 225.148 48.7199C226.569 37.9306 224.349 27.4986 224.241 27.004L224.239 26.9879C222.795 13.7146 218.119 -4.86937 192.136 2.27329C179.193 5.83329 175.372 10.0239 174.239 13.5599C173.263 16.6053 173.467 18.7413 174.476 19.7373Z"
    fill="#1B222C"
  />
<path
    d="M191.107 36.504C191.107 37.4493 191.873 38.2159 192.819 38.2159C193.764 38.2159 194.529 37.4493 194.529 36.504C194.529 35.5586 193.764 34.7933 192.819 34.7933C191.873 34.7933 191.107 35.5586 191.107 36.504Z"
    fill="white"
  />
<path
    d="M247.721 136.849C247.129 140.625 246.269 144.42 245.075 148.175C244.479 150.052 243.789 151.917 243.028 153.765C242.257 155.608 241.391 157.427 240.455 159.215L239.82 160.319C237.759 163.9 233.997 165.904 230.141 165.904C223.748 165.893 217.421 165.844 211.069 165.78C204.719 165.717 198.369 165.631 192.019 165.521C179.32 165.291 161.668 162.747 148.908 162.169C146.993 161.876 146.684 160.799 146.863 156.756C147.029 153.064 149.903 150.133 153.48 149.793L153.511 149.789C165.972 148.585 178.476 147.121 190.965 145.571C197.216 144.793 203.463 143.989 209.704 143.165C213.307 142.689 216.921 142.209 220.523 141.719L220.537 141.679C220.677 141.285 220.807 140.888 220.937 140.488C220.98 140.348 221.027 140.204 221.068 140.061C221.768 137.787 222.308 135.405 222.691 132.944C223.509 127.715 223.629 122.152 223.205 116.496C222.775 110.84 221.821 105.087 220.447 99.3839C219.76 96.5359 218.969 93.6973 218.085 90.8999C217.641 89.5053 217.179 88.1146 216.688 86.7572C216.445 86.0772 216.195 85.4039 215.945 84.7492L215.568 83.7866L215.251 83.0092L215.087 82.6159C212.436 76.1452 215.531 68.7479 222.005 66.0946C228.437 63.4559 235.792 66.5079 238.483 72.9079L238.816 73.7013L239.089 74.3719L239.596 75.6693C239.923 76.5226 240.233 77.3626 240.537 78.2066C241.14 79.8906 241.7 81.5692 242.239 83.2519C243.301 86.6212 244.248 90.0159 245.075 93.4546C246.731 100.325 247.917 107.365 248.467 114.605C249.008 121.839 248.895 129.292 247.721 136.849Z"
    fill="#EF3732"
  />
<path
    d="M152.081 161.996C154.024 160.708 157.38 153.047 152.413 147.241C147.813 141.863 147.736 139.755 143.865 136.299C140.515 133.305 141.543 137.043 142.575 140.531C143.607 144.021 144.852 145.152 141.599 145.316C138.348 145.481 125.505 140.552 121.979 141.329C118.452 142.107 134.769 148.399 134.769 148.399C134.769 148.399 120.183 145.389 118.972 147.075C117.524 149.093 132.924 153.193 132.924 153.193C132.924 153.193 120.172 152.412 119.995 153.377C119.649 155.251 132.231 158.029 132.231 158.029C132.231 158.029 123.424 157.94 124.025 159.404C124.628 160.869 141.523 165.013 152.081 161.996Z"
    fill="#F8A17D"
  />
<path
    d="M245.627 151.017C243.625 156.152 238.176 167.281 228.473 167.645C227.44 167.681 226.184 167.701 224.748 167.701C212.32 167.701 186.587 166.377 178.025 165.92C178.092 165.367 178.156 164.813 178.219 164.26C187.871 164.776 218.532 166.344 228.411 165.977C239.587 165.56 244.861 148.195 244.916 148.019L244.953 147.925C245.075 148.501 245.199 149.085 245.329 149.672C245.425 150.116 245.523 150.567 245.627 151.017Z"
    fill="#DC2C29"
  />
<path
    d="M232.069 146.597C231.903 146.784 231.673 146.881 231.443 146.881C231.245 146.881 231.049 146.811 230.892 146.675C230.832 146.624 226.047 142.469 220.537 141.679C220.677 141.285 220.807 140.888 220.937 140.488C220.98 140.348 221.027 140.204 221.068 140.061C221.747 140.171 222.417 140.328 223.065 140.515C223.812 140.728 224.532 140.988 225.22 141.272C229.048 142.863 231.805 145.257 231.993 145.424C232.34 145.727 232.373 146.255 232.069 146.597Z"
    fill="#DC2C29"
  />
<path
    d="M223.193 142.263C222.937 142.263 222.684 142.144 222.52 141.921C222.248 141.549 222.331 141.028 222.701 140.756C225.476 138.733 230.805 138.305 231.031 138.288C231.488 138.252 231.891 138.597 231.925 139.056C231.961 139.515 231.619 139.915 231.159 139.951C231.108 139.955 226.075 140.36 223.685 142.103C223.536 142.211 223.364 142.263 223.193 142.263Z"
    fill="#DC2C29"
  />
<path
    d="M132.205 434.815C132.205 439.143 102.644 442.652 66.18 442.652C29.7133 442.652 0.151978 439.143 0.151978 434.815C0.151978 430.485 29.7133 426.977 66.18 426.977C102.644 426.977 132.205 430.485 132.205 434.815Z"
    fill="#DCC9C6"
  />
</svg>
